<svg xmlns="http://www.w3.org/2000/svg" xmlns:xlink="http://www.w3.org/1999/xlink" viewBox="0 0 2444 1146"><defs><linearGradient id="a" x1="65.805%" x2="34.195%" y1="100%" y2="0%"><stop offset="0%" stop-color="#FFF"/><stop offset="100%" stop-color="#EEF2F5"/></linearGradient><linearGradient id="b" x1="65.805%" x2="34.195%" y1="100%" y2="0%"><stop offset="0%" stop-color="#FFF"/><stop offset="100%" stop-color="#EEF2F5"/></linearGradient><linearGradient id="c" x1="65.805%" x2="34.195%" y1="100%" y2="0%"><stop offset="0%" stop-color="#FFF"/><stop offset="100%" stop-color="#EEF2F5"/></linearGradient><path id="d" d="M17.333 34.667c9.573 0 17.334-7.76 17.334-17.334C34.667 7.76 26.907 0 17.333 0 7.76 0 0 7.76 0 17.333c0 9.573 7.76 17.334 17.333 17.334z"/><filter id="e" width="131.7%" height="131.7%" x="-15.9%" y="-10.1%" filterUnits="objectBoundingBox"><feOffset dy="2" in="SourceAlpha" result="shadowOffsetOuter1"/><feGaussianBlur in="shadowOffsetOuter1" result="shadowBlurOuter1" stdDeviation="1.5"/><feColorMatrix in="shadowBlurOuter1" result="shadowMatrixOuter1" values="0 0 0 0 0 0 0 0 0 0 0 0 0 0 0 0 0 0 0.08 0"/><feOffset dy="1" in="SourceAlpha" result="shadowOffsetOuter2"/><feGaussianBlur in="shadowOffsetOuter2" result="shadowBlurOuter2" stdDeviation="1"/><feColorMatrix in="shadowBlurOuter2" result="shadowMatrixOuter2" values="0 0 0 0 0 0 0 0 0 0 0 0 0 0 0 0 0 0 0.08 0"/><feMerge><feMergeNode in="shadowMatrixOuter1"/><feMergeNode in="shadowMatrixOuter2"/></feMerge></filter><path id="g" d="M17.333 34.667c9.573 0 17.334-7.76 17.334-17.334C34.667 7.76 26.907 0 17.333 0 7.76 0 0 7.76 0 17.333c0 9.573 7.76 17.334 17.333 17.334z"/><filter id="h" width="131.7%" height="131.7%" x="-15.9%" y="-10.1%" filterUnits="objectBoundingBox"><feOffset dy="2" in="SourceAlpha" result="shadowOffsetOuter1"/><feGaussianBlur in="shadowOffsetOuter1" result="shadowBlurOuter1" stdDeviation="1.5"/><feColorMatrix in="shadowBlurOuter1" result="shadowMatrixOuter1" values="0 0 0 0 0 0 0 0 0 0 0 0 0 0 0 0 0 0 0.08 0"/><feOffset dy="1" in="SourceAlpha" result="shadowOffsetOuter2"/><feGaussianBlur in="shadowOffsetOuter2" result="shadowBlurOuter2" stdDeviation="1"/><feColorMatrix in="shadowBlurOuter2" result="shadowMatrixOuter2" values="0 0 0 0 0 0 0 0 0 0 0 0 0 0 0 0 0 0 0.08 0"/><feMerge><feMergeNode in="shadowMatrixOuter1"/><feMergeNode in="shadowMatrixOuter2"/></feMerge></filter><path id="j" d="M17.333 34.667c9.573 0 17.334-7.76 17.334-17.334C34.667 7.76 26.907 0 17.333 0 7.76 0 0 7.76 0 17.333c0 9.573 7.76 17.334 17.333 17.334z"/><filter id="k" width="131.7%" height="131.7%" x="-15.9%" y="-10.1%" filterUnits="objectBoundingBox"><feOffset dy="2" in="SourceAlpha" result="shadowOffsetOuter1"/><feGaussianBlur in="shadowOffsetOuter1" result="shadowBlurOuter1" stdDeviation="1.5"/><feColorMatrix in="shadowBlurOuter1" result="shadowMatrixOuter1" values="0 0 0 0 0 0 0 0 0 0 0 0 0 0 0 0 0 0 0.08 0"/><feOffset dy="1" in="SourceAlpha" result="shadowOffsetOuter2"/><feGaussianBlur in="shadowOffsetOuter2" result="shadowBlurOuter2" stdDeviation="1"/><feColorMatrix in="shadowBlurOuter2" result="shadowMatrixOuter2" values="0 0 0 0 0 0 0 0 0 0 0 0 0 0 0 0 0 0 0.08 0"/><feMerge><feMergeNode in="shadowMatrixOuter1"/><feMergeNode in="shadowMatrixOuter2"/></feMerge></filter><path id="m" d="M17.333 34.667c9.573 0 17.334-7.76 17.334-17.334C34.667 7.76 26.907 0 17.333 0 7.76 0 0 7.76 0 17.333c0 9.573 7.76 17.334 17.333 17.334z"/><filter id="n" width="131.7%" height="131.7%" x="-15.9%" y="-10.1%" filterUnits="objectBoundingBox"><feOffset dy="2" in="SourceAlpha" result="shadowOffsetOuter1"/><feGaussianBlur in="shadowOffsetOuter1" result="shadowBlurOuter1" stdDeviation="1.5"/><feColorMatrix in="shadowBlurOuter1" result="shadowMatrixOuter1" values="0 0 0 0 0 0 0 0 0 0 0 0 0 0 0 0 0 0 0.08 0"/><feOffset dy="1" in="SourceAlpha" result="shadowOffsetOuter2"/><feGaussianBlur in="shadowOffsetOuter2" result="shadowBlurOuter2" stdDeviation="1"/><feColorMatrix in="shadowBlurOuter2" result="shadowMatrixOuter2" values="0 0 0 0 0 0 0 0 0 0 0 0 0 0 0 0 0 0 0.08 0"/><feMerge><feMergeNode in="shadowMatrixOuter1"/><feMergeNode in="shadowMatrixOuter2"/></feMerge></filter><path id="p" d="M17.333 34.667c9.573 0 17.334-7.76 17.334-17.334C34.667 7.76 26.907 0 17.333 0 7.76 0 0 7.76 0 17.333c0 9.573 7.76 17.334 17.333 17.334z"/><filter id="q" width="131.7%" height="131.7%" x="-15.9%" y="-10.1%" filterUnits="objectBoundingBox"><feOffset dy="2" in="SourceAlpha" result="shadowOffsetOuter1"/><feGaussianBlur in="shadowOffsetOuter1" result="shadowBlurOuter1" stdDeviation="1.5"/><feColorMatrix in="shadowBlurOuter1" result="shadowMatrixOuter1" values="0 0 0 0 0 0 0 0 0 0 0 0 0 0 0 0 0 0 0.08 0"/><feOffset dy="1" in="SourceAlpha" result="shadowOffsetOuter2"/><feGaussianBlur in="shadowOffsetOuter2" result="shadowBlurOuter2" stdDeviation="1"/><feColorMatrix in="shadowBlurOuter2" result="shadowMatrixOuter2" values="0 0 0 0 0 0 0 0 0 0 0 0 0 0 0 0 0 0 0.08 0"/><feMerge><feMergeNode in="shadowMatrixOuter1"/><feMergeNode in="shadowMatrixOuter2"/></feMerge></filter><path id="s" d="M17.333 34.667c9.573 0 17.334-7.76 17.334-17.334C34.667 7.76 26.907 0 17.333 0 7.76 0 0 7.76 0 17.333c0 9.573 7.76 17.334 17.333 17.334z"/><filter id="t" width="131.7%" height="131.7%" x="-15.9%" y="-10.1%" filterUnits="objectBoundingBox"><feOffset dy="2" in="SourceAlpha" result="shadowOffsetOuter1"/><feGaussianBlur in="shadowOffsetOuter1" result="shadowBlurOuter1" stdDeviation="1.5"/><feColorMatrix in="shadowBlurOuter1" result="shadowMatrixOuter1" values="0 0 0 0 0 0 0 0 0 0 0 0 0 0 0 0 0 0 0.08 0"/><feOffset dy="1" in="SourceAlpha" result="shadowOffsetOuter2"/><feGaussianBlur in="shadowOffsetOuter2" result="shadowBlurOuter2" stdDeviation="1"/><feColorMatrix in="shadowBlurOuter2" result="shadowMatrixOuter2" values="0 0 0 0 0 0 0 0 0 0 0 0 0 0 0 0 0 0 0.08 0"/><feMerge><feMergeNode in="shadowMatrixOuter1"/><feMergeNode in="shadowMatrixOuter2"/></feMerge></filter><linearGradient id="v" x1="65.781%" x2="34.219%" y1="100%" y2="0%"><stop offset="0%" stop-color="#FFF"/><stop offset="100%" stop-color="#EEF2F5"/></linearGradient><rect id="x" width="210" height="128" x="0" y="0" rx="2.667"/><filter id="w" width="105.7%" height="109.4%" x="-2.9%" y="-2.3%" filterUnits="objectBoundingBox"><feOffset dy="1" in="SourceAlpha" result="shadowOffsetOuter1"/><feGaussianBlur in="shadowOffsetOuter1" result="shadowBlurOuter1" stdDeviation=".5"/><feColorMatrix in="shadowBlurOuter1" result="shadowMatrixOuter1" values="0 0 0 0 0 0 0 0 0 0 0 0 0 0 0 0 0 0 0.04 0"/><feOffset dy="3" in="SourceAlpha" result="shadowOffsetOuter2"/><feGaussianBlur in="shadowOffsetOuter2" result="shadowBlurOuter2" stdDeviation="1.5"/><feColorMatrix in="shadowBlurOuter2" result="shadowMatrixOuter2" values="0 0 0 0 0 0 0 0 0 0 0 0 0 0 0 0 0 0 0.04 0"/><feMerge><feMergeNode in="shadowMatrixOuter1"/><feMergeNode in="shadowMatrixOuter2"/></feMerge></filter><rect id="z" width="210" height="128" x="0" y="0" rx="2.667"/><filter id="y" width="105.7%" height="109.4%" x="-2.9%" y="-2.3%" filterUnits="objectBoundingBox"><feOffset dy="1" in="SourceAlpha" result="shadowOffsetOuter1"/><feGaussianBlur in="shadowOffsetOuter1" result="shadowBlurOuter1" stdDeviation=".5"/><feColorMatrix in="shadowBlurOuter1" result="shadowMatrixOuter1" values="0 0 0 0 0 0 0 0 0 0 0 0 0 0 0 0 0 0 0.04 0"/><feOffset dy="3" in="SourceAlpha" result="shadowOffsetOuter2"/><feGaussianBlur in="shadowOffsetOuter2" result="shadowBlurOuter2" stdDeviation="1.5"/><feColorMatrix in="shadowBlurOuter2" result="shadowMatrixOuter2" values="0 0 0 0 0 0 0 0 0 0 0 0 0 0 0 0 0 0 0.04 0"/><feMerge><feMergeNode in="shadowMatrixOuter1"/><feMergeNode in="shadowMatrixOuter2"/></feMerge></filter><path id="B" d="M2.674 0A2.666 2.666 0 0 0 0 2.66V21h210V2.66A2.665 2.665 0 0 0 207.326 0H2.674z"/><filter id="A" width="105.7%" height="157.1%" x="-2.9%" y="-14.3%" filterUnits="objectBoundingBox"><feOffset dy="1" in="SourceAlpha" result="shadowOffsetOuter1"/><feGaussianBlur in="shadowOffsetOuter1" result="shadowBlurOuter1" stdDeviation=".5"/><feColorMatrix in="shadowBlurOuter1" result="shadowMatrixOuter1" values="0 0 0 0 0 0 0 0 0 0 0 0 0 0 0 0 0 0 0.04 0"/><feOffset dy="3" in="SourceAlpha" result="shadowOffsetOuter2"/><feGaussianBlur in="shadowOffsetOuter2" result="shadowBlurOuter2" stdDeviation="1.5"/><feColorMatrix in="shadowBlurOuter2" result="shadowMatrixOuter2" values="0 0 0 0 0 0 0 0 0 0 0 0 0 0 0 0 0 0 0.04 0"/><feMerge><feMergeNode in="shadowMatrixOuter1"/><feMergeNode in="shadowMatrixOuter2"/></feMerge></filter></defs><g fill="none" fill-rule="evenodd"><path fill="#F8F8F8" d="M233 120h1980v911H233z"/><g stroke="#979797" stroke-linecap="round" stroke-linejoin="round" stroke-width="5"><path d="M564.5 593.5h58.974M615.479 601.5l7.995-8M623.474 593.5l-7.995-8"/></g><g stroke="#979797" stroke-linecap="round" stroke-linejoin="round" stroke-width="5"><path d="M1177 601h39.974M1208.979 609l7.995-8M1216.974 601l-7.995-8"/></g><g stroke="#979797" stroke-linecap="round" stroke-linejoin="round" stroke-width="5"><path d="M1499.5 609.5h38.974M1530.479 617.5l7.995-8M1538.474 609.5l-7.995-8"/></g><g stroke="#979797" stroke-linecap="round" stroke-linejoin="round" stroke-width="5"><path d="M2109.5 601.5h38.974M2140.479 609.5l7.995-8M2148.474 601.5l-7.995-8"/></g><path fill="url(#a)" d="M0 0h248.894v442.699H0z" transform="translate(299 372)"/><path fill="#505050" d="M299 777.531h248.894v37.168H299z"/><text fill="#FFF" font-family="PayPalBig-Regular, PayPal Big" font-size="9.292" transform="translate(299 777.531)"><tspan x="62.697" y="21.947">Turn on Location Services</tspan></text><g fill="#000"><text fill-opacity=".56" font-family="PayPalSmall-Regular, PayPal Small" font-size="7.965" transform="translate(318.912 610.606)"><tspan x="6.915" y="9">Change your device settings so you can see nearby </tspan> <tspan x="15.502" y="22.274">places that accept fast, secure payments with </tspan> <tspan x="90.178" y="35.549">PayPal.</tspan></text><text fill-opacity=".8" font-family="PayPalBig-Regular, PayPal Big" font-size="11.947" transform="translate(318.911 583.726)"><tspan x="25.557" y="13">Turn on Location Services</tspan></text></g><path fill="#FFF" fill-opacity=".8" d="M299 372h248.894v42.478H299z"/><path fill="#000" fill-opacity=".16" d="M299 414.146h248.894v1H299z"/><g><text fill="#000" font-family="PayPalBig-Regular, PayPal Big" font-size="10.619" transform="translate(325.549 391.912)"><tspan x="77.992" y="12">Donate</tspan></text><g stroke="#000" stroke-linecap="round" stroke-width=".996"><path stroke-linejoin="round" d="M310.382 404.784l-5.077-5.075 5.076-5.077"/><path d="M306.301 399.71h12.278"/></g></g><g stroke="#979797" stroke-width=".664"><path d="M397.894 484.832h50.11v50.111h-50.11z"/><path stroke-linecap="square" d="M397.845 484.12l50.872 50.871M448.717 484.12l-50.872 50.871"/></g><path stroke="#979797" d="M299.5 372.5h249v442h-249z"/><g><path fill="url(#b)" d="M0 0h249.558v443.88H0z" transform="translate(24 371)"/><path fill="#505050" d="M24 777.612h249.558v37.267H24z"/><text fill="#FFF" font-family="PayPalBig-Regular, PayPal Big" font-size="9.317" transform="translate(24 777.612)"><tspan x="113.183" y="21.979">Next</tspan></text><g fill="#000"><text fill-opacity=".56" font-family="PayPalSmall-Regular, PayPal Small" font-size="7.986" transform="translate(43.965 623.552)"><tspan x="9.531" y="9">Donate to your favorite local and global charities </tspan> <tspan x="3.892" y="22.31">right from your phone. We’ll keep you up to date on </tspan> <tspan x="2.192" y="35.619">the latest charity campaigns so you can do your part </tspan> <tspan x="85.111" y="48.929">with ease.</tspan></text><text fill-opacity=".8" font-family="PayPalBig-Regular, PayPal Big" font-size="11.979" transform="translate(43.964 580.628)"><tspan x="8.897" y="13">Support your favorite charities, </tspan> <tspan x="36.879" y="31.634">using just your phone.</tspan></text></g><path fill="#FFF" fill-opacity=".8" d="M24 371h249.558v42.591H24z"/><path fill="#000" fill-opacity=".16" d="M24 413.258h249.558v1H24z"/><g><text fill="#000" font-family="PayPalBig-Regular, PayPal Big" font-size="10.648" transform="translate(50.62 390.965)"><tspan x="78.2" y="12">Donate</tspan></text><g stroke="#000" stroke-linecap="round" stroke-width=".998"><path stroke-linejoin="round" d="M35.413 403.872l-5.09-5.088 5.09-5.09"/><path d="M31.32 398.785h12.312"/></g></g><g stroke="#979797" stroke-width=".664"><path d="M123.157 484.132h50.246v50.246h-50.246z"/><path stroke-linecap="square" d="M123.108 483.418l51.009 51.009M174.117 483.418l-51.01 51.009"/></g><path stroke="#979797" d="M24.5 371.5h249v442h-249z"/></g><g><path fill="url(#c)" d="M0 0h250v444.667H0z" transform="translate(915.667 371)"/><text fill="#000" fill-opacity=".32" font-family="PayPalSmall-Regular, PayPal Small" font-size="7.333" transform="translate(915.667 483.667)"><tspan x="12" y="15.333">NEARBY</tspan></text><text fill="#000" fill-opacity=".56" font-family="PayPalSmall-Regular, PayPal Small" font-size="8" transform="translate(915.667 510.667)"><tspan x="58.667" y="33.667">1 mile away</tspan></text><text fill="#000" fill-opacity=".8" font-family="PayPalSmall-Regular, PayPal Small" font-size="9.333" transform="translate(915.667 510.667)"><tspan x="58.667" y="20">Charity name</tspan></text><g transform="translate(927.667 517.333)"><mask id="f" fill="#fff"><use xlink:href="#d"/></mask><use fill="#000" filter="url(#e)" xlink:href="#d"/><use fill="#FFF" xlink:href="#d"/><path stroke="#000" stroke-linecap="round" stroke-linejoin="round" stroke-opacity=".8" stroke-width="1.333" d="M15.957 14.085l2.14-2.108.002.002a3.663 3.663 0 0 1 5.099 5.258l-6.07 5.98-6.07-5.98a3.663 3.663 0 0 1 5.099-5.258" mask="url(#f)"/></g><text fill="#000" fill-opacity=".56" font-family="PayPalSmall-Regular, PayPal Small" font-size="8" transform="translate(916 607.667)"><tspan x="58.667" y="33.667">2 miles away</tspan></text><text fill="#000" fill-opacity=".8" font-family="PayPalSmall-Regular, PayPal Small" font-size="9.333" transform="translate(916 607.667)"><tspan x="58.667" y="20">Charity name</tspan></text><g transform="translate(928 614.333)"><mask id="i" fill="#fff"><use xlink:href="#g"/></mask><use fill="#000" filter="url(#h)" xlink:href="#g"/><use fill="#FFF" xlink:href="#g"/><path stroke="#000" stroke-linecap="round" stroke-linejoin="round" stroke-opacity=".8" stroke-width="1.333" d="M15.957 14.085l2.14-2.108.002.002a3.663 3.663 0 0 1 5.099 5.258l-6.07 5.98-6.07-5.98a3.663 3.663 0 0 1 5.099-5.258" mask="url(#i)"/></g><text fill="#000" fill-opacity=".56" font-family="PayPalSmall-Regular, PayPal Small" font-size="8" transform="translate(915.667 559)"><tspan x="58.667" y="33.667">2 miles away</tspan></text><text fill="#000" fill-opacity=".8" font-family="PayPalSmall-Regular, PayPal Small" font-size="9.333" transform="translate(915.667 559)"><tspan x="58.667" y="20">Charity name</tspan></text><g><g transform="translate(927.667 565.667)"><mask id="l" fill="#fff"><use xlink:href="#j"/></mask><use fill="#000" filter="url(#k)" xlink:href="#j"/><use fill="#FFF" xlink:href="#j"/><path stroke="#000" stroke-linecap="round" stroke-linejoin="round" stroke-opacity=".8" stroke-width="1.333" d="M15.957 14.085l2.14-2.108.002.002a3.663 3.663 0 0 1 5.099 5.258l-6.07 5.98-6.07-5.98a3.663 3.663 0 0 1 5.099-5.258" mask="url(#l)"/></g></g><g><text fill="#000" fill-opacity=".56" font-family="PayPalSmall-Regular, PayPal Small" font-size="8" transform="translate(915.667 704.333)"><tspan x="58.667" y="33.667">5 miles away</tspan></text><text fill="#000" fill-opacity=".8" font-family="PayPalSmall-Regular, PayPal Small" font-size="9.333" transform="translate(915.667 704.333)"><tspan x="58.667" y="20">Charity name</tspan></text><g><g transform="translate(927.667 711)"><mask id="o" fill="#fff"><use xlink:href="#m"/></mask><use fill="#000" filter="url(#n)" xlink:href="#m"/><use fill="#FFF" xlink:href="#m"/><path stroke="#000" stroke-linecap="round" stroke-linejoin="round" stroke-opacity=".8" stroke-width="1.333" d="M15.957 14.085l2.14-2.108.002.002a3.663 3.663 0 0 1 5.099 5.258l-6.07 5.98-6.07-5.98a3.663 3.663 0 0 1 5.099-5.258" mask="url(#o)"/></g></g></g><g><text fill="#000" fill-opacity=".56" font-family="PayPalSmall-Regular, PayPal Small" font-size="8" transform="translate(915.667 752.333)"><tspan x="58.667" y="33.667">5 miles away</tspan></text><text fill="#000" fill-opacity=".8" font-family="PayPalSmall-Regular, PayPal Small" font-size="9.333" transform="translate(915.667 752.333)"><tspan x="58.667" y="20">Charity name</tspan></text><g><g transform="translate(927.667 759)"><mask id="r" fill="#fff"><use xlink:href="#p"/></mask><use fill="#000" filter="url(#q)" xlink:href="#p"/><use fill="#FFF" xlink:href="#p"/><path stroke="#000" stroke-linecap="round" stroke-linejoin="round" stroke-opacity=".8" stroke-width="1.333" d="M15.957 14.085l2.14-2.108.002.002a3.663 3.663 0 0 1 5.099 5.258l-6.07 5.98-6.07-5.98a3.663 3.663 0 0 1 5.099-5.258" mask="url(#r)"/></g></g></g><g><text fill="#000" fill-opacity=".56" font-family="PayPalSmall-Regular, PayPal Small" font-size="8" transform="translate(915.667 656)"><tspan x="58.667" y="33.667">5 miles away</tspan></text><text fill="#000" fill-opacity=".8" font-family="PayPalSmall-Regular, PayPal Small" font-size="9.333" transform="translate(915.667 656)"><tspan x="58.667" y="20">Charity name</tspan></text><g><g transform="translate(927.667 662.667)"><mask id="u" fill="#fff"><use xlink:href="#s"/></mask><use fill="#000" filter="url(#t)" xlink:href="#s"/><use fill="#FFF" xlink:href="#s"/><path stroke="#000" stroke-linecap="round" stroke-linejoin="round" stroke-opacity=".8" stroke-width="1.333" d="M16.29 15.085l2.14-2.108.003.002a3.663 3.663 0 0 1 5.099 5.258l-6.071 5.98-6.07-5.98a3.663 3.663 0 0 1 5.099-5.258" mask="url(#u)"/></g></g></g><g><path fill="#000" fill-opacity=".24" d="M927.667 482.667h226v1h-226z"/><text fill="#000" fill-opacity=".56" font-family="PayPalSmall-Regular, PayPal Small" font-size="9.333" transform="translate(915.667 445.667)"><tspan x="33.333" y="22">Find a nonprofit</tspan></text><path stroke="#000" stroke-linecap="round" stroke-linejoin="round" stroke-opacity=".8" stroke-width=".667" d="M935.804 466.836a4.147 4.147 0 0 1-5.137-4.026 4.148 4.148 0 0 1 4.152-4.143 4.148 4.148 0 0 1 4.151 4.143c0 1.309-.707 2.367-1.557 3.236-.178.181-.03.319.012.381.06.063.253.257.428.432l2.814 2.808"/></g><g><path fill="#FFF" fill-opacity=".8" d="M917 413.667h250v32H917z"/><path fill="#000" fill-opacity=".16" d="M917 445.334h250v1H917z"/><g><text fill="#000" fill-opacity=".56" font-family="PayPalSmall-Regular, PayPal Small" font-size="9.333" transform="translate(916 413.667)"><tspan x="12" y="19">Featured</tspan></text><g fill="#000" fill-opacity=".8"><path d="M972.667 445.334h64.667v1h-64.667z"/><text font-family="PayPalSmall-Medium, PayPal Small" font-size="9.333" font-weight="400" transform="translate(972.667 413.667)"><tspan x="12" y="19">Browse</tspan></text></g></g></g><g><path fill="#FFF" fill-opacity=".8" d="M916 371h250v42.667H916z"/><path fill="#000" fill-opacity=".16" d="M916 413.333h250v1H916z"/><g><text fill="#000" font-family="PayPalBig-Regular, PayPal Big" font-size="10.667" transform="translate(942.667 391)"><tspan x="78.339" y="12">Donate</tspan></text><g stroke="#000" stroke-linecap="round"><path stroke-linejoin="round" d="M927.433 403.93l-5.1-5.097 5.1-5.1"/><path d="M923.333 398.834h12.333"/></g></g></g><path stroke="#979797" d="M916.5 371.5h249v444h-249z"/></g><g><path fill="url(#v)" d="M0 0h250v445H0z" transform="translate(1232 371)"/><text fill="#000" fill-opacity=".56" font-family="PayPalSmall-Regular, PayPal Small" font-size="8" transform="translate(1244 643.333)"><tspan x="0" y="9">Location</tspan> <tspan x="0" y="22.333">EIN number</tspan></text><text fill="#000" fill-opacity=".8" font-family="PayPalSmall-Regular, PayPal Small" font-size="9.333" transform="translate(1244 552.333)"><tspan x="0" y="26.333">Lorem ipsum dolor sit amet, consectetur </tspan> <tspan x="0" y="42.333">adipiscing elit, sed do eiusmod tempor incididunt </tspan> <tspan x="0" y="58.333">ut labore et dolore magna aliqua. Ut enim ad </tspan> <tspan x="0" y="74.333">minim veniam, quis nostrud exercitation.</tspan></text><path fill="#E0F" fill-opacity=".5" d="M1349 552.333h16v16h-16z" opacity=".01"/><text fill="#000" fill-opacity=".8" font-family="PayPalSmall-Regular, PayPal Small" font-size="9.333" transform="translate(1245.667 697.333)"><tspan x="26.667" y="10">Visit Website</tspan></text><g transform="translate(1245.667 697.333)"><circle cx="6.667" cy="6.667" r="6.333" stroke="#000" stroke-opacity=".8" stroke-width=".667" opacity=".8"/><rect width="1" height="4" x="6.167" y="5.667" fill="#000" fill-opacity=".8" rx=".5"/><circle cx="6.667" cy="4" r="1" fill="#000" fill-opacity=".8"/></g><text fill="#000" fill-opacity=".8" font-family="PayPalSmall-Regular, PayPal Small" font-size="9.333" transform="translate(1244.333 733.667)"><tspan x="28" y="11">Favorite this Charity</tspan></text><path stroke="#000" stroke-linecap="round" stroke-linejoin="round" stroke-width=".667" d="M1256.51 735.667V748l-4.106-2.93-4.07 2.793v-12.196h8.176z"/><g fill="#000" fill-opacity=".32" font-family="PayPalSmall-Regular, PayPal Small" font-size="7.333"><text transform="translate(1232 760.667)"><tspan x="12" y="15.333">SIMILAR</tspan></text></g><g><path fill="#505050" d="M1232 781.333h250v37.333h-250z"/><text fill="#FFF" font-family="PayPalBig-Regular, PayPal Big" font-size="9.333" transform="translate(1232 781.333)"><tspan x="107.523" y="22">Donate</tspan></text></g><g><path fill="#FFF" fill-opacity=".8" d="M1232 371h250v181.333h-250z"/><path fill="#000" fill-opacity=".16" d="M1232 552h250v1h-250z"/><g fill="#000"><text fill-opacity=".56" font-family="PayPalSmall-Regular, PayPal Small" font-size="8" transform="translate(1252 414.333)"><tspan x="73.273" y="107.667">charity category</tspan></text><text fill-opacity=".8" font-family="PayPalBig-Regular, PayPal Big" font-size="12" transform="translate(1252 414.333)"><tspan x="63.809" y="95.667">Charity name</tspan></text></g><g fill="#000" transform="translate(1333 533)"><ellipse cx="4.256" cy="4.333" fill-opacity=".56" rx="4.256" ry="4.333"/><ellipse cx="18.421" cy="4.333" fill-opacity=".24" rx="3.648" ry="3.714"/><ellipse cx="31.614" cy="4.333" fill-opacity=".24" rx="3.648" ry="3.714"/><ellipse cx="44.686" cy="4.333" fill-opacity=".24" rx="3.648" ry="3.714"/></g></g><g><path fill="#FFF" fill-opacity=".8" d="M1232 371h250v42.667h-250z"/><path fill="#000" fill-opacity=".16" d="M1232 413.333h250v1h-250z"/><g><text fill="#000" font-family="PayPalBig-Regular, PayPal Big" font-size="10.667" transform="translate(1258.667 391)"><tspan x="78.339" y="12">Donate</tspan></text><g stroke="#000" stroke-linecap="round"><path stroke-linejoin="round" d="M1243.433 403.93l-5.1-5.097 5.1-5.1"/><path d="M1239.333 398.834h12.333"/></g></g></g><g stroke="#979797" stroke-width=".5"><path d="M1331.583 432.25h50.5v50.5h-50.5z"/><path stroke-linecap="square" d="M1331.617 431.617l51.1 51.1M1382.716 431.617l-51.099 51.1"/></g><path stroke="#979797" d="M1232.5 371.5h249v444h-249z"/></g><g><path fill="url(#c)" d="M0 0h250v444.667H0z" transform="translate(2170 370.667)"/><g fill="#000"><text fill-opacity=".56" font-family="PayPalSmall-Regular, PayPal Small" font-size="9.333" transform="translate(2181.667 492.667)"><tspan x="16.217" y="139.667">100% of your donation will be delivered to </tspan> <tspan x="23.299" y="151.667">&lt;charity name&gt; via PayPal Giving Fund.</tspan></text><text fill-opacity=".8" font-family="PayPalBig-Regular, PayPal Big" font-size="14.667" transform="translate(2181.667 595.667)"><tspan x="4.846" y="16">Thank you for your donation</tspan></text><path d="M2322.333 520.439a1.279 1.279 0 0 0-1.333.3 1.592 1.592 0 0 0-.459 1.272c.08.874.126 1.76.126 2.656 0 16.174-13.16 29.333-29.334 29.333-16.175 0-29.333-13.159-29.333-29.333 0-16.175 13.158-29.334 29.333-29.334 9.843 0 18.565 4.879 23.887 12.34l-23.51 23.514a.534.534 0 0 1-.755 0l-11.46-11.463a1.332 1.332 0 1 0-1.886 1.884l12.592 12.595a1.6 1.6 0 0 0 2.262 0l25.593-25.596c.357-.356.415-.911.14-1.334-5.704-8.79-15.604-14.606-26.863-14.606-17.673 0-32 14.325-32 32 0 17.674 14.327 32 32 32 17.674 0 32-14.326 32-32 0-1.064-.054-2.116-.158-3.152a1.28 1.28 0 0 0-.842-1.076z"/></g><text fill="#000" font-family="PayPalSmall-Regular, PayPal Small" font-size="9.333" transform="translate(2170 730.333)"><tspan x="88.209" y="22">View tax receipt</tspan></text><path fill="#505050" d="M2295 778.333h125v37.333h-125z"/><text fill="#FFF" font-family="PayPalBig-Regular, PayPal Big" font-size="9.333" transform="translate(2295 778.333)"><tspan x="31.467" y="21">Donate More</tspan></text><path fill="#505050" d="M2170 778.333h125v37.333h-125z"/><text fill="#FFF" font-family="PayPalBig-Regular, PayPal Big" font-size="9.333" transform="translate(2170 778.333)"><tspan x="52.579" y="22">Done</tspan></text><g fill="#FFF" fill-opacity=".24"><path d="M2294.667 778.333h1v37.333h-1z"/></g><path stroke="#979797" d="M2170.5 371.5h249v444h-249z"/></g><g><path fill="url(#c)" d="M0 0h250v444.667H0z" transform="translate(1836 371)"/><g fill="#000" fill-opacity=".8"><text font-family="PayPalBig-Regular, PayPal Big" font-size="17.333" transform="translate(1923.333 693)"><tspan x="30.227" y="28">0</tspan></text><text font-family="PayPalBig-Regular, PayPal Big" font-size="17.333" transform="translate(1848.333 693)"><tspan x="24.125" y="28">00</tspan></text><g opacity=".997"><path d="M2039.39 709.667h-6.366c-.62 0-1.213.245-1.65.683l-4.179 4.179a.667.667 0 0 0 0 .942l4.179 4.179a2.333 2.333 0 0 0 1.65.683h6.367a2.333 2.333 0 0 0 2.333-2.333v-6a2.333 2.333 0 0 0-2.333-2.333zm-.622 7.336l-.707.708-2.004-2.004-2.003 2.004-.707-.708 2.003-2.003-2.003-2.004.707-.707 2.003 2.004 2.004-2.004.707.707-2.004 2.004 2.004 2.003z" opacity=".5"/></g><text font-family="PayPalBig-Regular, PayPal Big" font-size="17.333" transform="translate(1998.667 650.333)"><tspan x="30.718" y="28">9</tspan></text><text font-family="PayPalBig-Regular, PayPal Big" font-size="17.333" transform="translate(1923.333 650.333)"><tspan x="30.71" y="28">8</tspan></text><text font-family="PayPalBig-Regular, PayPal Big" font-size="17.333" transform="translate(1848 650.333)"><tspan x="31.175" y="28">7</tspan></text><text font-family="PayPalBig-Regular, PayPal Big" font-size="17.333" transform="translate(1998.667 607.667)"><tspan x="30.718" y="28">6</tspan></text><text font-family="PayPalBig-Regular, PayPal Big" font-size="17.333" transform="translate(1923.333 607.667)"><tspan x="31.201" y="28">5</tspan></text><text font-family="PayPalBig-Regular, PayPal Big" font-size="17.333" transform="translate(1848 607.667)"><tspan x="30.413" y="28">4</tspan></text><text font-family="PayPalBig-Regular, PayPal Big" font-size="17.333" transform="translate(1999 565)"><tspan x="31.074" y="28">3</tspan></text><text font-family="PayPalBig-Regular, PayPal Big" font-size="17.333" transform="translate(1923.667 565)"><tspan x="31.099" y="28">2</tspan></text><text font-family="PayPalBig-Regular, PayPal Big" font-size="17.333" transform="translate(1848.333 565)"><tspan x="32.326" y="28">1</tspan></text></g><g fill="#000" font-family="PayPalBig-Thin, PayPal Big" font-weight="300"><text fill-opacity=".8" font-size="52" transform="translate(1921.333 450.667)"><tspan x="0" y="57">1.00</tspan></text><text font-size="31.333" transform="translate(1899.667 450.667)"><tspan x="1.118" y="42">$</tspan></text></g><path fill="#505050" d="M1836 778.333h250v37.333h-250z"/><text fill="#FFF" font-family="PayPalBig-Regular, PayPal Big" font-size="9.333" transform="translate(1836 778.333)"><tspan x="107.523" y="22">Donate</tspan></text><path fill="#FFF" fill-opacity=".8" d="M1836 371h250v42.667h-250z"/><path fill="#000" fill-opacity=".16" d="M1836 413.333h250v1h-250z"/><g><text fill="#000" font-family="PayPalBig-Regular, PayPal Big" font-size="10.667" transform="translate(1862.667 391)"><tspan x="78.339" y="12">Donate</tspan></text><g stroke="#000" stroke-linecap="round"><path stroke-linejoin="round" d="M1847.433 403.93l-5.1-5.097 5.1-5.1"/><path d="M1843.333 398.834h12.333"/></g></g><path stroke="#979797" d="M1836.5 371.5h249v444h-249z"/></g><g><path fill="url(#c)" d="M0 0h250v444.667H0z" transform="translate(1561 371)"/><g fill="#000" font-family="PayPalBig-Thin, PayPal Big" font-weight="300"><g font-size="52"><text transform="translate(1643.333 452.333)"><tspan x="38" y="57">00</tspan></text><text transform="translate(1643.333 452.333)"><tspan x="31" y="57">.</tspan></text><text transform="translate(1643.333 452.333)"><tspan x="0" y="57">0</tspan></text></g><text fill-opacity=".8" font-size="31.333" transform="translate(1621.667 452.333)"><tspan x="1.118" y="42">$</tspan></text></g><g fill="#000" fill-opacity=".8"><text font-family="PayPalBig-Regular, PayPal Big" font-size="17.333" transform="translate(1648.333 693)"><tspan x="30.227" y="28">0</tspan></text><text font-family="PayPalBig-Regular, PayPal Big" font-size="17.333" transform="translate(1573.333 693)"><tspan x="24.125" y="28">00</tspan></text><g opacity=".997"><path d="M1764.39 709.667h-6.366c-.62 0-1.213.245-1.65.683l-4.179 4.179a.667.667 0 0 0 0 .942l4.179 4.179a2.333 2.333 0 0 0 1.65.683h6.367a2.333 2.333 0 0 0 2.333-2.333v-6a2.333 2.333 0 0 0-2.333-2.333zm-.622 7.336l-.707.708-2.004-2.004-2.003 2.004-.707-.708 2.003-2.003-2.003-2.004.707-.707 2.003 2.004 2.004-2.004.707.707-2.004 2.004 2.004 2.003z" opacity=".5"/></g><text font-family="PayPalBig-Regular, PayPal Big" font-size="17.333" transform="translate(1723.667 650.333)"><tspan x="30.718" y="28">9</tspan></text><text font-family="PayPalBig-Regular, PayPal Big" font-size="17.333" transform="translate(1648.333 650.333)"><tspan x="30.71" y="28">8</tspan></text><text font-family="PayPalBig-Regular, PayPal Big" font-size="17.333" transform="translate(1573 650.333)"><tspan x="31.175" y="28">7</tspan></text><text font-family="PayPalBig-Regular, PayPal Big" font-size="17.333" transform="translate(1723.667 607.667)"><tspan x="30.718" y="28">6</tspan></text><text font-family="PayPalBig-Regular, PayPal Big" font-size="17.333" transform="translate(1648.333 607.667)"><tspan x="31.201" y="28">5</tspan></text><text font-family="PayPalBig-Regular, PayPal Big" font-size="17.333" transform="translate(1573 607.667)"><tspan x="30.413" y="28">4</tspan></text><text font-family="PayPalBig-Regular, PayPal Big" font-size="17.333" transform="translate(1724 565)"><tspan x="31.074" y="28">3</tspan></text><text font-family="PayPalBig-Regular, PayPal Big" font-size="17.333" transform="translate(1648.667 565)"><tspan x="31.099" y="28">2</tspan></text><text font-family="PayPalBig-Regular, PayPal Big" font-size="17.333" transform="translate(1573.333 565)"><tspan x="32.326" y="28">1</tspan></text></g><path fill="#000" fill-opacity=".16" d="M1561 778.333h250v37.333h-250z"/><text fill="#FFF" font-family="PayPalBig-Regular, PayPal Big" font-size="9.333" transform="translate(1561 778.333)"><tspan x="107.523" y="22">Donate</tspan></text><path fill="#FFF" fill-opacity=".8" d="M1561 371h250v42.667h-250z"/><path fill="#000" fill-opacity=".16" d="M1561 413.333h250v1h-250z"/><g><text fill="#000" font-family="PayPalBig-Regular, PayPal Big" font-size="10.667" transform="translate(1587.667 391)"><tspan x="78.339" y="12">Donate</tspan></text><g stroke="#000" stroke-linecap="round"><path stroke-linejoin="round" d="M1572.433 403.93l-5.1-5.097 5.1-5.1"/><path d="M1568.333 398.834h12.333"/></g></g><path stroke="#979797" d="M1561.5 371.5h249v444h-249z"/></g><g><path fill="url(#c)" d="M0 0h250v444.667H0z" transform="translate(641 371)"/><g transform="translate(661 505)"><use fill="#000" filter="url(#w)" xlink:href="#x"/><use fill="#FFF" xlink:href="#x"/></g><g stroke="#979797" stroke-width=".5"><path d="M753.25 524.583h25.5v25.5h-25.5z"/><path stroke-linecap="square" d="M753.143 524.476l25.714 25.714M778.857 524.476l-25.714 25.714"/></g><g fill="#000"><path fill-opacity=".16" d="M661 601h210v1H661z"/><path fill-opacity=".24" d="M765.667 601.333h1V633h-1z"/><text fill-opacity=".528" font-family="PayPalBig-Regular, PayPal Big" font-size="9.333" transform="translate(661 601)"><tspan x="29.39" y="18.333">More Info</tspan></text><g><path fill-opacity=".24" d="M870.667 601.333h1V633h-1z"/><text font-family="PayPalBig-Regular, PayPal Big" font-size="9.333" transform="translate(766 601)"><tspan x="22.951" y="18.333">Donate Now</tspan></text></g></g><text fill="#000" fill-opacity=".8" font-family="PayPalSmall-Regular, PayPal Small" font-size="8" transform="translate(661 505)"><tspan x="79.074" y="63.901">Charity name</tspan></text><text fill="#000" fill-opacity=".56" font-family="PayPalSmall-Regular, PayPal Small" font-size="7.333" transform="translate(661 505)"><tspan x="75.495" y="76.234">Charity category</tspan></text><g transform="translate(661 650.333)"><use fill="#000" filter="url(#y)" xlink:href="#z"/><use fill="#FFF" xlink:href="#z"/></g><g stroke="#979797" stroke-width=".5"><path d="M753.25 669.917h25.5v25.5h-25.5z"/><path stroke-linecap="square" d="M753.143 669.81l25.714 25.714M778.857 669.81l-25.714 25.714"/></g><g fill="#000"><path fill-opacity=".16" d="M661 746.333h210v1H661z"/><path fill-opacity=".24" d="M765.667 746.666h1v31.667h-1z"/><text fill-opacity=".528" font-family="PayPalBig-Regular, PayPal Big" font-size="9.333" transform="translate(661 746.333)"><tspan x="29.39" y="18.333">More Info</tspan></text><g><path fill-opacity=".24" d="M870.667 746.666h1v31.667h-1z"/><text font-family="PayPalBig-Regular, PayPal Big" font-size="9.333" transform="translate(766 746.333)"><tspan x="22.951" y="18.333">Donate Now</tspan></text></g></g><text fill="#000" fill-opacity=".8" font-family="PayPalSmall-Regular, PayPal Small" font-size="8" transform="translate(661 650.333)"><tspan x="79.074" y="63.901">Charity name</tspan></text><text fill="#000" fill-opacity=".56" font-family="PayPalSmall-Regular, PayPal Small" font-size="7.333" transform="translate(661 650.333)"><tspan x="75.495" y="76.234">Charity category</tspan></text><g><g transform="translate(661 795.333)"><use fill="#000" filter="url(#A)" xlink:href="#B"/><use fill="#FFF" xlink:href="#B"/></g></g><g><path fill="#FFF" fill-opacity=".8" d="M641.333 413.667h250v32h-250z"/><path fill="#000" fill-opacity=".16" d="M641.333 445.334h250v1h-250z"/><g><text fill="#000" fill-opacity=".56" font-family="PayPalSmall-Regular, PayPal Small" font-size="9.333" transform="translate(706 413.667)"><tspan x="12" y="19">Browse</tspan></text><g fill="#000" fill-opacity=".8"><path d="M641.333 445.334H706v1h-64.667z"/><text font-family="PayPalSmall-Medium, PayPal Small" font-size="9.333" font-weight="400" transform="translate(641 413.667)"><tspan x="12.333" y="19">Featured</tspan></text></g></g></g><g><path fill="#FFF" fill-opacity=".8" d="M641 371h250v42.667H641z"/><path fill="#000" fill-opacity=".16" d="M641 413.333h250v1H641z"/><g><text fill="#000" font-family="PayPalBig-Regular, PayPal Big" font-size="10.667" transform="translate(667.667 391)"><tspan x="78.339" y="12">Donate</tspan></text><g stroke="#000" stroke-linecap="round"><path stroke-linejoin="round" d="M652.433 403.93l-5.1-5.097 5.1-5.1"/><path d="M648.333 398.834h12.333"/></g></g></g><g><path fill="#000" fill-opacity=".24" d="M653 482.667h226v1H653z"/><text fill="#000" fill-opacity=".56" font-family="PayPalSmall-Regular, PayPal Small" font-size="9.333" transform="translate(641 445.667)"><tspan x="33.333" y="22">Find a nonprofit</tspan></text><path stroke="#000" stroke-linecap="round" stroke-linejoin="round" stroke-opacity=".8" stroke-width=".667" d="M661.137 466.836A4.147 4.147 0 0 1 656 462.81a4.148 4.148 0 0 1 4.152-4.143 4.148 4.148 0 0 1 4.152 4.143c0 1.309-.708 2.367-1.558 3.236-.177.181-.03.319.013.381.06.063.252.257.427.432l2.814 2.808"/></g><path stroke="#979797" d="M641.5 371.5h249v444h-249z"/></g></g></svg>