<?xml version="1.0" encoding="UTF-8"?>
<svg width="28px" height="28px" viewBox="0 0 28 28" version="1.1" xmlns="http://www.w3.org/2000/svg" xmlns:xlink="http://www.w3.org/1999/xlink">
    <!-- Generator: Sketch 61.2 (89653) - https://sketch.com -->
    <title>Dribbble-color</title>
    <desc>Created with Sketch.</desc>
    <g id="Homepage" stroke="none" stroke-width="1" fill="none" fill-rule="evenodd">
        <g id="Footer" transform="translate(-519.000000, -217.000000)" fill="#FFFFFF">
            <g id="Group">
                <g transform="translate(400.000000, 216.000000)">
                    <g id="Group-2" transform="translate(12.000000, 1.000000)">
                        <path d="M127.681837,23.9158093 C127.560005,23.1947792 126.922855,19.6851079 125.353854,15.3770357 C129.214618,14.7597154 132.558417,15.8182139 132.805374,15.8988771 C132.273593,19.2307602 130.365438,22.103357 127.681837,23.9158093 L127.681837,23.9158093 L127.681837,23.9158093 Z M121.000823,25.9570815 C118.106486,25.9570815 115.45252,24.9282145 113.383019,23.2161797 C113.541071,23.3445823 113.651379,23.4252455 113.651379,23.4252455 C113.651379,23.4252455 115.943141,18.4274208 123.034104,15.9564936 C123.060446,15.9466165 123.088434,15.9400317 123.114776,15.9318008 C124.797378,20.3024281 125.490504,23.9635487 125.668313,25.0088777 C124.234315,25.617967 122.655436,25.9570815 121.000823,25.9570815 L121.000823,25.9570815 L121.000823,25.9570815 Z M109.043159,13.9991769 C109.043159,13.8724205 109.049744,13.7473102 109.053037,13.6222 C109.26542,13.6271386 115.172635,13.7604797 121.328453,11.9183961 C121.6709,12.5883944 121.99853,13.2715621 122.298171,13.9514375 C122.140119,13.9942383 121.983713,14.0419778 121.827306,14.0946558 C115.37514,16.1787289 112.102134,21.9831854 112.102134,21.9831854 C112.102134,21.9831854 112.107074,21.9881239 112.107074,21.9897701 C110.202211,19.8711271 109.043159,17.0709624 109.043159,13.9991769 L109.043159,13.9991769 L109.043159,13.9991769 Z M115.898689,3.18866482 C116.058388,3.40102299 118.269477,6.39873008 120.338978,10.0763125 C114.598048,11.6023282 109.614453,11.5414192 109.299994,11.5364807 C110.07544,7.83255923 112.563121,4.7624199 115.898689,3.18866482 L115.898689,3.18866482 L115.898689,3.18866482 Z M118.13612,2.39191017 C118.13612,2.39355635 118.134474,2.39520254 118.134474,2.39520254 C118.134474,2.39520254 118.119657,2.39849491 118.098254,2.40178729 C118.111425,2.39849491 118.122949,2.39684873 118.13612,2.39191017 L118.13612,2.39191017 L118.13612,2.39191017 Z M128.896866,5.02910224 C128.867231,5.0735493 127.164873,7.66629431 122.650497,9.35692868 C120.607338,5.60197542 118.361675,2.61908401 118.182219,2.38203304 C119.086082,2.16309013 120.029458,2.04456464 121.000823,2.04456464 C124.026871,2.04456464 126.791145,3.17384914 128.896866,5.02910224 L128.896866,5.02910224 L128.896866,5.02910224 Z M132.953549,13.8806514 C132.780679,13.8427891 128.733874,12.971956 124.626154,13.4888588 C124.540542,13.2847316 124.456577,13.0789582 124.367672,12.8731848 C124.119069,12.2871421 123.850709,11.7076842 123.57247,11.1381034 C128.294291,9.21041801 130.210678,6.43988477 130.233727,6.40696102 C131.909743,8.44329473 132.92556,11.0442707 132.953549,13.8806514 L132.953549,13.8806514 L132.953549,13.8806514 Z M134.716822,11.1825504 C134.532428,10.2837321 134.255836,9.39643718 133.898571,8.5502969 C133.549538,7.7206185 133.113247,6.92057146 132.607809,6.17320242 C132.108955,5.43241813 131.532722,4.73443471 130.900512,4.10229878 C130.266655,3.46851667 129.570236,2.8939973 128.827718,2.39355635 C128.080261,1.88653066 127.28012,1.4535834 126.450344,1.10129931 C125.604104,0.745722853 124.718351,0.469163384 123.819427,0.286436592 C122.897454,0.0971250514 121.949139,0 121.000823,0 C120.050861,0 119.102546,0.0971250514 118.180573,0.286436592 C117.281649,0.469163384 116.395896,0.745722853 115.549656,1.10129931 C114.71988,1.4535834 113.919739,1.88653066 113.170636,2.39355635 C112.429764,2.8939973 111.733345,3.46851667 111.099488,4.10229878 C110.467278,4.73443471 109.892691,5.43241813 109.392191,6.17320242 C108.886753,6.92057146 108.450462,7.7206185 108.101429,8.5502969 C107.742518,9.39643718 107.467572,10.2837321 107.283178,11.1825504 C107.09549,12.1027691 107,13.050973 107,13.9991769 C107,14.9506732 107.09549,15.8988771 107.283178,16.820742 C107.467572,17.7195602 107.742518,18.605209 108.101429,19.4497031 C108.450462,20.2793815 108.886753,21.0827209 109.392191,21.83009 C109.892691,22.5708742 110.467278,23.2655653 111.099488,23.9009936 C111.733345,24.5331295 112.429764,25.1060027 113.170636,25.6080898 C113.919739,26.1134693 114.71988,26.5480628 115.549656,26.8987007 C116.395896,27.2575695 117.281649,27.5308366 118.180573,27.7135634 C119.102546,27.9045211 120.050861,28 121.000823,28 C121.949139,28 122.897454,27.9045211 123.819427,27.7135634 C124.718351,27.5308366 125.604104,27.2575695 126.450344,26.8987007 C127.28012,26.5480628 128.080261,26.1134693 128.827718,25.6080898 C129.570236,25.1060027 130.266655,24.5331295 130.900512,23.9009936 C131.532722,23.2655653 132.108955,22.5708742 132.607809,21.83009 C133.113247,21.0827209 133.549538,20.2793815 133.898571,19.4497031 C134.255836,18.605209 134.532428,17.7195602 134.716822,16.820742 C134.90451,15.8988771 135,14.9506732 135,13.9991769 C135,13.050973 134.90451,12.1027691 134.716822,11.1825504 L134.716822,11.1825504 L134.716822,11.1825504 Z" id="Dribbble"></path>
                    </g>
                </g>
            </g>
        </g>
    </g>
</svg>