<?xml version="1.0" encoding="UTF-8"?>
<svg width="1280px" height="415px" viewBox="0 0 1280 415" version="1.1" xmlns="http://www.w3.org/2000/svg" xmlns:xlink="http://www.w3.org/1999/xlink">
    <!-- Generator: Sketch 64 (93537) - https://sketch.com -->
    <title>Artboard Copy 4</title>
    <desc>Created with Sketch.</desc>
    <g id="Artboard-Copy-4" stroke="none" stroke-width="1" fill="none" fill-rule="evenodd">
        <rect fill="#62007D" x="0" y="0" width="1280" height="415"></rect>
        <g id="Group-17" transform="translate(1225.000000, 318.000000) scale(1, -1) translate(-1225.000000, -318.000000) translate(783.000000, 135.000000)">
            <path d="M883.60953,2.35262083 L-5.68434189e-14,2.35262083 C0.496664398,3.52021784 0.993328795,4.68781484 1.4987066,5.84669843 C48.8212389,115.321988 142.873792,200.077332 206.682097,200.086045 C247.486998,200.086045 305.021647,179.53111 345.765555,184.802723 C395.066031,191.189653 398.525255,243.949353 421.458952,289.46821 C442.902655,332.041933 461.854323,367.305106 515.75548,365.780259 C563.330701,364.42968 633.665351,326.691899 667.098707,298.190334 C707.058407,264.120899 746.18162,229.397958 784.424779,193.585841 C824.985705,155.595371 857.530293,120.096937 883.60953,87.8660313 L883.60953,2.35262083 L883.60953,2.35262083 Z" id="Path" fill-opacity="0.101398601" fill="#FFFFFF"></path>
            <path d="M54.7899251,1.7426821 C104.160109,86.1494894 175.993465,148.659496 227.759837,149.443703 C272.712321,150.114636 333.915317,131.37209 374.667937,136.643703 C423.9597,143.02192 427.33179,186.571545 450.256773,232.081688 C471.70919,274.655412 491.453778,311.940095 545.363649,310.423962 C592.921443,309.073383 657.65337,273.984479 693.596188,245.465487 C735.559973,212.162832 783.544724,171.610619 821.787883,135.807216 C844.895848,114.171818 865.407216,93.3554799 883.60953,73.5237577 L883.60953,1.7426821 L54.7899251,1.7426821 L54.7899251,1.7426821 Z" id="Path" fill-opacity="0.15" fill="#FFFFFF"></path>
            <path d="M883.60953,2.61402314 L115.461402,2.61402314 C158.810619,60.2096664 209.609803,99.4374404 248.84629,100.552757 C297.963785,101.929476 362.817699,84.9557522 403.552893,90.2273656 C452.85337,96.6142954 456.129612,130.927706 479.054595,176.446562 C500.507012,219.011572 521.053233,258.326481 574.954391,256.801634 C622.520899,255.451055 681.606535,223.002314 720.093669,194.483322 C764.026685,161.938734 820.916542,115.574677 859.150987,79.7625596 C867.646562,71.8072158 875.79941,63.9680508 883.60953,56.2450647 L883.60953,2.61402314 L883.60953,2.61402314 Z" id="Path" fill-opacity="0.2" fill="#FFFFFF"></path>
            <path d="M178.834037,4.3218516 C207.884547,32.8408441 237.292308,50.5813479 262.038393,51.5659632 C314.32757,53.6571818 381.525391,38.7049694 421.493805,43.8807352 C469.87066,50.1456773 472.990061,74.7523485 495.479374,119.39115 C516.530973,161.16324 537.478012,201.706739 590.3597,200.208033 C637.03744,198.892308 689.439891,169.623962 729.721988,141.671341 C770.004084,113.71872 825.952893,69.8292716 864.161198,35.7336964 L864.161198,4.3218516 L178.834037,4.3218516 Z" id="Path" fill-opacity="0.25" fill="#FFFFFF"></path>
            <path d="M883.60953,2.61402314 L490.86998,2.61402314 C513.45514,11.928659 519.502246,29.3729067 536.650238,63.4162015 C558.093941,105.989925 580.252144,149.356569 634.153302,147.831722 C681.719809,146.481144 729.443159,119.234309 773.088632,90.7937372 C804.300068,70.4392103 847.056773,38.6614023 883.60953,9.09680054 L883.60953,2.61402314 Z" id="Path" fill="#82FDFF"></path>
            <path d="M883.60953,0.871341048 L490.86998,0.871341048 C513.45514,10.1859769 519.502246,27.6302246 536.650238,61.6735194 C558.093941,104.247243 580.252144,147.613887 634.153302,146.08904 C681.719809,144.738462 729.443159,117.491627 773.088632,89.0510551 C804.300068,68.6965283 847.056773,36.9187202 883.60953,7.35411845 L883.60953,0.871341048 Z" id="Rectangle_1043_copy" fill="#3BCEAC"></path>
        </g>
    </g>
</svg>