<?xml version="1.0" encoding="UTF-8"?>
<svg width="28px" height="28px" viewBox="0 0 28 28" version="1.1" xmlns="http://www.w3.org/2000/svg" xmlns:xlink="http://www.w3.org/1999/xlink">
    <!-- Generator: Sketch 64 (93537) - https://sketch.com -->
    <title>Github-color</title>
    <desc>Created with Sketch.</desc>
    <g id="Workspace" stroke="none" stroke-width="1" fill="none" fill-rule="evenodd">
        <g id="Footer" transform="translate(-938.000000, -249.000000)" fill="#FFFFFF">
            <g id="Group-2">
                <g transform="translate(780.000000, 248.000000)">
                    <path d="M171.999125,1 C164.2685,1 158,7.29247039 158,15.0563756 C158,21.2653915 162.011,26.5335676 167.575125,28.3924071 C168.275125,28.5215419 168.530625,28.0875785 168.530625,27.7151078 C168.530625,27.3812897 168.518375,26.4975503 168.511375,25.3247948 C164.61675,26.1742739 163.795125,23.4404797 163.795125,23.4404797 C163.159,21.8170698 162.241125,21.3848632 162.241125,21.3848632 C160.96975,20.512544 162.337375,20.5301133 162.337375,20.5301133 C163.74175,20.6293803 164.481125,21.978708 164.481125,21.978708 C165.730625,24.1265637 167.758,23.5063649 168.556,23.1461927 C168.682875,22.2378562 169.045125,21.6185359 169.445,21.2671485 C166.336125,20.9122472 163.068,19.7069883 163.068,14.3210974 C163.068,12.7864129 163.613125,11.5319597 164.509125,10.5489534 C164.36475,10.1931736 163.884375,8.76478372 164.645625,6.82951745 C164.645625,6.82951745 165.821625,6.45177597 168.495625,8.27020591 C169.613,7.95834957 170.81,7.80286063 172.000875,7.79671135 C173.19,7.80286063 174.387875,7.95834957 175.506125,8.27020591 C178.178375,6.45177597 179.35175,6.82951745 179.35175,6.82951745 C180.115625,8.76478372 179.63525,10.1931736 179.490875,10.5489534 C180.388625,11.5319597 180.93025,12.7864129 180.93025,14.3210974 C180.93025,19.7201653 177.656875,20.9087333 174.538375,21.2566068 C175.040625,21.6905703 175.488625,22.5479556 175.488625,23.8595092 C175.488625,25.7385535 175.471125,27.2539118 175.471125,27.7151078 C175.471125,28.0910923 175.723125,28.5285697 176.433625,28.3906501 C181.9925,26.5282967 186,21.2636346 186,15.0563756 C186,7.29247039 179.7315,1 171.999125,1" id="Github"></path>
                </g>
            </g>
        </g>
    </g>
</svg>