<svg xmlns="http://www.w3.org/2000/svg" viewBox="0 0 1280 675"><g fill="none" fill-rule="evenodd"><path fill="#3F57D8" d="M1279.974-19.517h-883.61c.497 1.168.994 2.336 1.499 3.494 47.323 109.476 141.375 194.231 205.183 194.24 40.805 0 98.34-20.555 139.084-15.284 49.3 6.387 52.76 59.147 75.693 104.666 21.444 42.574 40.396 77.837 94.297 76.312 47.575-1.35 117.91-39.088 151.343-67.59 39.96-34.07 79.083-68.792 117.326-104.604 40.561-37.99 73.106-73.49 99.185-105.72v-85.514z"/><path fill="#6B9EFB" d="M451.154-20.127c49.37 84.407 121.204 146.917 172.97 147.701 44.953.671 106.156-18.071 146.908-12.8 49.292 6.379 52.664 49.928 75.59 95.438 21.452 42.574 41.196 79.859 95.106 78.343 47.558-1.35 112.29-36.44 148.233-64.959 41.963-33.302 89.948-73.855 128.191-109.658 23.108-21.635 43.62-42.452 61.822-62.284v-71.78h-828.82z"/><path fill="#447DE5" d="M451.154-21.87c49.37 84.408 121.204 146.918 172.97 147.702 44.953.67 106.156-18.072 146.908-12.8 49.292 6.378 52.664 49.928 75.59 95.438 21.452 42.573 41.196 79.858 95.106 78.342 47.558-1.35 112.29-36.44 148.233-64.958 41.963-33.303 89.948-73.855 128.191-109.659 23.108-21.635 43.62-42.452 61.822-62.283V-21.87h-828.82z"/><path fill="#7BCAFD" d="M1279.974-19.255H511.826c43.349 57.595 94.148 96.823 133.385 97.938 49.117 1.377 113.971-15.597 154.706-10.325 49.3 6.387 52.577 40.7 75.502 86.22 21.452 42.564 41.999 81.88 95.9 80.354 47.566-1.35 106.652-33.799 145.139-62.318 43.933-32.545 100.823-78.909 139.057-114.72a1247.421 1247.421 0 0 0 24.459-23.518v-53.631z"/><path fill="#4EA9E3" d="M1279.974-20.998H511.826c43.349 57.596 94.148 96.823 133.385 97.939 49.117 1.376 113.971-15.597 154.706-10.326 49.3 6.387 52.577 40.7 75.502 86.22 21.452 42.565 41.999 81.88 95.9 80.355 47.566-1.35 106.652-33.8 145.139-62.319 43.933-32.544 100.823-78.908 139.057-114.72a1247.421 1247.421 0 0 0 24.459-23.518v-53.631z"/><path fill="#74DCFB" d="M575.198-17.547c29.05 28.519 58.459 46.259 83.205 47.244 52.289 2.09 119.487-12.861 159.455-7.686 48.377 6.265 51.496 30.872 73.986 75.51 21.051 41.773 41.998 82.316 94.88 80.818 46.678-1.316 99.08-30.584 139.362-58.537s96.231-71.842 134.44-105.938v-31.411H575.198z"/><path fill="#4EBADA" d="M575.198-19.29c29.05 28.519 58.459 46.26 83.205 47.244 52.289 2.091 119.487-12.861 159.455-7.685 48.377 6.265 51.496 30.871 73.986 75.51 21.051 41.772 41.998 82.316 94.88 80.817 46.678-1.316 99.08-30.584 139.362-58.537 40.282-27.952 96.231-71.842 134.44-105.937V-19.29H575.198z"/><path fill="#82FDFF" d="M1279.974-19.255h-392.74c22.585 9.314 28.633 26.759 45.78 60.802 21.444 42.574 43.602 85.94 97.504 84.415 47.566-1.35 95.29-28.597 138.935-57.038 31.211-20.354 73.968-52.132 110.52-81.696v-6.483z"/><path fill="#3BCEAC" d="M1279.974-20.998h-392.74c22.585 9.315 28.633 26.759 45.78 60.802 21.444 42.574 43.602 85.94 97.504 84.416 47.566-1.35 95.29-28.598 138.935-57.038 31.211-20.355 73.968-52.133 110.52-81.697v-6.483z"/><path fill="#6FF8DA" d="M959.651-19.255c.698 1.394 1.42 2.814 2.161 4.287 21.453 42.582 44.395 87.97 98.305 86.445 47.575-1.35 89.583-26.018 135.833-54.415 15.484-9.497 34.27-22.219 53.971-36.317h-290.27z"/><path fill="#40E6BF" d="M960.584-20.998c.706 1.394 1.42 2.814 2.17 4.287 21.443 42.582 44.394 87.97 98.295 86.446 47.576-1.35 89.583-26.018 135.834-54.415 15.484-9.498 34.278-22.22 53.98-36.318h-290.28z"/><path fill="#8BFFD2" d="M1020.924-19.255c16.408 21.548 37.538 37.128 68.793 36.248 38.417-1.09 69.489-15.737 105.772-36.248h-174.565z"/><path fill="#4DF7B5" d="M1020.924-20.998c16.408 21.548 37.538 37.128 68.793 36.24 38.417-1.081 69.489-15.729 105.772-36.24h-174.565z"/><path fill="#CE3FD1" d="M-8 694V271c42.209 13.403 80.593 35.456 107.19 73.834 52.834 76.25-14.937 174.29 65.951 213.776 80.888 39.485 178.028 12.662 240.339 80.435C421.159 656.102 436.703 673.91 451 694H-8z"/><path fill="#D05EF0" d="M-8 316c23.635 9.837 44.034 24.162 58.642 45.213 52.859 76.19-21.958 179.259 58.97 218.704 80.928 39.445 160.904 21.243 222.04 89.808C338.64 677.532 345.451 685.592 352 694H-8V316z"/><path fill="#BD44DF" d="M-9 317c23.635 9.829 44.034 24.162 58.642 45.213 52.867 76.19-21.95 179.259 58.978 218.704 80.928 39.445 160.896 21.234 222.032 89.808C337.64 678.532 344.451 686.583 351 695H-9V317z"/><path fill="#B66EF2" d="M-8 694V365a86.853 86.853 0 0 1 10.043 11.985c52.878 76.27-28.973 184.553 51.985 224.04C132.422 639.284 193.624 631.556 252 694H-8z"/><path fill="#9B4DDD" d="M-9 696V367a86.773 86.773 0 0 1 10.043 11.985c52.887 76.268-28.965 184.557 51.993 224.043C131.431 641.276 192.624 633.548 251 696H-9z"/><path fill="#9865E5" d="M-8 619a77.39 77.39 0 0 0 6.384 3.47C61.472 653.225 102.865 659.418 146 694H-8v-75z"/><path fill="#824DD4" d="M-9 620a79.442 79.442 0 0 0 6.392 3.47C60.476 654.225 101.86 660.418 145 695H-9v-75z"/><path fill="#796CEF" d="M-8 694v-27c18.279 9.009 33.53 17.138 48 27H-8z"/><path fill="#5E51D5" d="M-9 695v-27c18.279 9 33.53 17.138 48 27H-9z"/></g></svg>