<?xml version="1.0" encoding="UTF-8"?>
<svg width="1280px" height="675px" viewBox="0 0 1280 675" version="1.1" xmlns="http://www.w3.org/2000/svg" xmlns:xlink="http://www.w3.org/1999/xlink">
    <!-- Generator: Sketch 61.2 (89653) - https://sketch.com -->
    <title>Artboard Copy 7</title>
    <desc>Created with Sketch.</desc>
    <g id="Artboard-Copy-7" stroke="none" stroke-width="1" fill="none" fill-rule="evenodd">
        <g id="10" transform="translate(-130.000000, -221.000000)">
            <path d="M1452,15 L6,15.1524716 L6,570.760017 C74.239,671.849627 245.128,849.315585 355.976,755.462866 C468.688,660.033994 529.47,492.458486 644.72,555.296087 C759.952,618.131851 766.285,626.28449 852.4,625.126257 C938.517,623.952409 1062.017,507.575221 1164.257,518.058105 C1250.337,526.875742 1327.667,638.638367 1452,712.084686 L1452,15 L1452,15 Z" id="Path" fill="#FFD23E"></path>
            <path d="M6,534.197594 C86.8192236,645.199644 243.178656,756.610432 349.40095,657.776815 C470.225284,545.251874 523.483431,377.883562 642.37476,452.296727 C760.540087,525.791382 773.415123,540.841184 868.175385,530.660409 C952.028617,521.636038 1074.35896,440.370781 1176.59924,453.090321 C1264.00948,463.970083 1328.35966,547.344242 1452,620.030607 L1452,4 L6,4.15155431 L6,534.197594 Z" id="Path" fill="#FFD5A4"></path>
            <path d="M6,532.196863 C86.8192236,643.198567 243.178656,754.612682 349.40095,655.77478 C470.225284,543.250189 523.483431,375.883317 642.37476,450.297169 C760.540087,523.790677 773.415123,538.841351 868.175385,528.65877 C952.028617,519.635346 1074.35896,438.369423 1176.59924,451.089842 C1264.00948,461.96957 1328.35966,545.344388 1452,618.029608 L1452,2 L6,2.15247235 L6,532.196863 Z" id="Rectangle_663_copy" fill="#FFBB3E"></path>
            <path d="M1452,4 L6,4.15169008 L6,507.225881 C93.965,610.454202 239.933,674.982245 342.808,571.594879 C471.76,441.856648 517.27,274.833913 640.026,360.614196 C760.918,445.115686 779.746,467.50974 883.95,447.587775 C965.2,432.046436 1086.68,384.504006 1188.93,399.489148 C1277.73,412.489448 1328.28,465.668314 1452,539.560691 L1452,4 Z" id="Path" fill="#FFCF96"></path>
            <path d="M1452,2 L6,2.15260919 L6,505.226054 C93.965,608.454222 239.933,672.982169 342.808,569.594957 C471.76,439.857837 517.27,272.834431 640.026,358.614587 C760.918,443.115952 779.746,465.509052 883.95,445.588037 C965.2,430.046721 1086.68,382.504361 1188.93,397.48948 C1277.73,410.489761 1328.28,463.668549 1452,537.561736 L1452,2 Z" id="Rectangle_664_copy" fill="#F8A553"></path>
            <path d="M6,474.077262 C98.3,562.150411 236.066,591.2267 336.215,484.01921 C473.278,337.110146 511.215,170.304312 637.678,267.649868 C761.418,362.897591 785.735,393.627498 899.741,363.185457 C978.3,342.208039 1099.02,327.375131 1201.27,344.607534 C1291.5,359.821197 1327.31,380.640427 1452,457.944819 L1452,3 L6,3.15175036 L6,474.077262 Z" id="Path" fill="#F8B482"></path>
            <path d="M6,472.07785 C98.295,560.149846 236.066,589.226058 336.215,482.021611 C473.278,335.113858 511.215,168.307546 637.678,265.653764 C761.418,360.897555 785.735,391.6283 899.741,361.18542 C978.3,340.207138 1099.02,325.376109 1201.27,342.607546 C1291.5,357.821169 1327.31,378.639424 1452,455.94545 L1452,1 L6,1.15266965 L6,472.07785 Z" id="Rectangle_665_copy" fill="#F89953"></path>
            <path d="M1452,3 L6,3.15176067 L6,435.978721 C100.884,506.094912 231.873,507.556413 329.623,397.243879 C474.815,233.204387 505.172,66.6410686 635.332,175.539929 C761.953,281.484516 791.689,321.394814 915.516,279.625677 C991.49,253.99376 1111.36,271.114203 1213.61,290.600274 C1305.34,308.069307 1325.38,294.253567 1452,377.487398 L1452,3 Z" id="Path" fill="#FCA67C"></path>
            <path d="M1452,2 L6,2.15268014 L6,434.978815 C100.884,505.094872 231.873,506.55637 329.623,396.244046 C474.814,232.205787 505.171,65.6418669 635.331,174.54052 C761.953,280.484904 791.689,320.395126 915.516,278.626069 C991.49,252.9942 1111.36,270.114611 1213.61,289.600645 C1305.34,307.069644 1325.38,293.253011 1452,376.487604 L1452,2 Z" id="Rectangle_666_copy" fill="#F88953"></path>
            <path d="M6,393.085942 C102.282,444.770999 227.438,424.347941 323.047,311.501343 C476.347,130.288098 499.147,-36.0733525 632.967,84.429132 C762.506,201.074234 797.868,250.964454 931.29,197.084378 C1004.84,167.378948 1123.7,215.875432 1225.94,237.60575 C1319.22,257.429916 1322.39,206.551662 1452,298.598938 L1452,4 L6,4.151793 L6,393.085942 Z" id="Path" fill="#FA9276"></path>
            <path d="M6,391.085967 C102.282,442.770905 227.438,422.347894 323.047,309.502476 C476.347,128.289647 499.147,-38.0714204 632.967,82.4298669 C762.506,199.074701 797.868,248.965726 931.29,195.083934 C1004.84,165.379492 1123.7,213.875865 1225.94,235.606133 C1319.22,255.430253 1322.39,204.551196 1452,296.59918 L1452,2 L6,2.15271261 L6,391.085967 Z" id="Rectangle_667_copy" fill="#F5704C"></path>
            <path d="M1452,6 L642.907,6.14697215 C765.8,125.103473 808.93,179.871725 947.06,115.317884 C1018.41,81.9735776 1136.04,161.345886 1238.28,185.296835 C1333.11,207.485955 1318.3,117.157791 1452,220.983509 L1452,6 Z M6,6.15156503 L6,345.141906 C102.853,378.894978 222.881,340.987187 316.456,226.344319 C387.507,139.171463 430.238,58.2192042 467.533,6.14697215 L6,6.15156503 Z" id="Shape" fill="#FC7C6F"></path>
            <path d="M1452,2 L642.907,2.14789039 C765.8,121.105038 808.93,175.872246 947.06,111.318552 C1018.41,77.9798337 1136.04,157.346449 1238.28,181.296424 C1333.11,203.485494 1318.3,113.158455 1452,216.983936 L1452,2 Z M6,2.15248325 L6,341.142048 C102.853,374.895043 222.881,336.98642 316.456,222.344733 C387.507,135.172077 430.238,54.2190847 467.533,2.14789039 L6,2.15248325 Z" id="Rectangle_668_copy" fill="#F95C4C"></path>
            <path d="M6,289.840021 C102.8,306.877248 218.239,254.814716 309.863,138.665751 C347.624,90.7437844 377.342,45.2958671 402.314,5.14699144 L6,5.15158493 L6,289.840021 Z M731.648,5.14699144 C801.698,68.551751 856.89,87.0028521 962.84,30.8456894 C1032.18,-5.90952127 1148.36,104.148485 1250.62,130.340523 C1346.98,155.024062 1313.09,22.5682337 1452,141.698369 L1452,5 L731.648,5.14699144 Z" id="Shape" fill="#F8666D"></path>
            <path d="M6,286.84003 C102.8,303.877202 218.239,251.814836 309.863,135.667162 C347.624,87.7453477 377.342,42.2975757 402.314,2.14790967 L6,2.15250314 L6,286.84003 Z M731.648,2.14790967 C801.698,65.5524666 856.89,84.0035087 962.84,27.8456068 C1032.18,-8.90764902 1148.36,101.148169 1250.62,127.340123 C1346.98,152.023582 1313.09,19.5672589 1452,138.697932 L1452,2 L731.648,2.14790967 Z" id="Rectangle_669_copy" fill="#EF4266" opacity="0.498070126"></path>
            <path d="M6,6.15159064 L6,231.965608 C102.3,233.69466 213.546,170.177261 303.27,52.9600254 C315.47,37.018202 326.866,21.4138592 337.458,6.14699699 L6,6.15159064 Z M1452,6 L1135.26,6.14699699 C1177.16,35.3047683 1221.09,65.7313074 1262.95,77.3753064 C1360.84,104.597311 1306.7,-72.5524343 1452,65.350034 L1452,6 Z" id="Shape" fill="#F95F92"></path>
            <path d="M7,2.15250876 L7,227.965608 C103.3,229.694653 214.544,166.176594 304.269,48.961672 C316.469,33.0193009 327.865,17.4147153 338.457,2.14791512 L7,2.15250876 Z M1453,2 L1136.26,2.14791512 C1178.16,31.305568 1222.09,61.7319835 1263.95,73.3759351 C1361.84,100.599667 1307.7,-76.5502777 1453,61.3507116 L1453,2.00091873 L1453,2 Z" id="Rectangle_670_copy" fill="#FB407E"></path>
        </g>
    </g>
</svg>