<?xml version="1.0" encoding="UTF-8"?>
<svg width="1280px" height="500px" viewBox="0 0 1280 500" version="1.1" xmlns="http://www.w3.org/2000/svg" xmlns:xlink="http://www.w3.org/1999/xlink">
    <!-- Generator: Sketch 61.2 (89653) - https://sketch.com -->
    <title>Artboard Copy 13</title>
    <desc>Created with Sketch.</desc>
    <g id="Artboard-Copy-13" stroke="none" stroke-width="1" fill="none" fill-rule="evenodd">
        <g id="07" transform="translate(-117.000000, -184.000000)">
            <path d="M617.85305,11.1816625 C617.85305,11.1816625 695.084845,147.450019 716.967363,187.302846 C741.541474,232.057691 764.665255,305.853517 727.581869,343.050756 C703.087966,367.622481 664.249193,369.889894 634.389195,385.142146 C478.394407,464.817638 534.457016,601.051898 337.304634,546.422858 C196.732273,507.474241 90.7614292,392.427635 0,276.006681 L0,0 L617.85305,11.1816625 Z" id="Rounded_Rectangle_1" fill="#DC3ED9"></path>
            <path d="M624.853288,15.1810418 C624.853288,15.1810418 702.085114,151.449824 723.967639,191.302776 C748.541761,236.057106 771.664892,309.853817 734.58215,347.051174 C710.085608,371.621664 671.24945,373.889739 641.38944,389.140727 C485.394591,468.817125 541.457223,605.052466 344.304107,550.422599 C203.731692,511.473861 97.7608068,396.42624 7,280.005577 L7,4 L624.853288,15.1810418 Z" id="Rounded_Rectangle_1_copy" fill-opacity="0" fill="#DC3ED9" opacity="0.28"></path>
            <path d="M14,262.868899 C98.2873592,368.068874 196.822707,471.209659 325.21739,506.518691 C503.268668,555.616742 459.457384,435.693723 599.519716,364.789934 C630.21072,349.253067 666.064372,342.036378 688.106546,316.099123 C719.208462,279.500716 699.071839,212.736326 675.315784,170.639521 C669.792768,160.899914 660.996903,145.609361 650.884941,128.22612 C621.987243,78.2433067 582.342836,10.3327328 579.805163,8.40096954 L14,0 L14,262.866928 L14,262.868899 Z" id="Rounded_Rectangle_2" fill="#C644E6"></path>
            <path d="M20,266.866752 C104.287355,372.068496 202.822698,475.210384 331.218031,510.518912 C509.268645,559.616519 465.453425,439.692981 605.519689,368.788885 C636.210691,353.25195 672.064998,346.03523 694.106515,320.097863 C725.208429,283.499298 705.071807,216.734619 681.316409,174.638289 C675.792738,164.897983 666.996873,149.608021 656.884911,132.224704 C627.987871,82.2390474 588.34281,14.3301501 585.805793,12.400349 L20,4 L20,266.868065 L20,266.866752 Z" id="Rounded_Rectangle_2_copy" fill-opacity="0" fill="#C644E6" opacity="0.28"></path>
            <path d="M541.281253,6.79670608 C546.361324,10.6536658 582.964646,71.1012509 610.066901,115.85577 C619.605423,131.605952 628.017668,145.52974 633.443376,154.768062 C656.523498,194.062439 673.847388,254.110869 648.442432,289.600807 C628.764796,317.091246 595.8314,329.008103 564.22404,344.789797 C439.798767,406.91278 471.39627,510.073157 311.967723,466.623768 C195.404043,435.041997 104.042929,344.05123 26,250.320217 L30.0155626,4 L541.281253,6.79670608 Z" id="Path" fill="#A14EE4"></path>
            <path d="M548.280322,8.79605121 C553.361048,12.6536696 589.963693,73.1006335 617.066591,117.855178 C626.605107,133.606026 635.017349,147.529166 640.443054,156.768149 C663.52382,196.062549 680.847044,256.110358 655.442759,291.600317 C635.763818,319.090772 602.831754,331.008292 571.223097,346.789339 C446.799861,408.912358 478.396033,512.072795 318.967571,468.624037 C202.403953,437.042248 111.042231,346.050772 33,252.32036 L37.0155605,6 L548.280322,8.79605121 Z" id="Ellipse_784_copy" fill-opacity="0" fill="#A14EE4" opacity="0.28"></path>
            <path d="M39,238.569619 C110.529574,320.907845 194.402862,399.818266 298.738454,427.698398 C439.00401,465.532297 419.794955,379.202846 528.085622,325.659491 C560.502294,309.630894 590.453763,293.258859 607.64333,263.932745 C627.564219,229.945605 612.759889,176.175699 590.49178,139.625585 C585.17006,130.891907 577.21075,118.299651 568.2512,104.18327 C543.114777,64.5757124 509.600857,11.5865844 501.998775,5.79937359 L43.2264377,3 L39,238.569619 Z" id="Path" fill="#844EDC"></path>
            <path d="M48,238.567818 C119.529492,320.906791 203.403997,399.817928 307.738815,427.698314 C448.008144,465.532556 428.795179,379.202322 537.085723,325.65848 C569.503014,309.629737 599.453793,293.257554 616.643341,263.931174 C636.564207,229.943725 621.759894,176.173331 599.49181,139.622886 C594.169441,130.889129 586.21014,118.296758 577.251256,104.180248 C552.116172,64.5762714 518.602289,11.589289 511.000216,5.79939901 L52.2283993,3 L48,238.567818 Z" id="Ellipse_785_copy" fill-opacity="0" fill="#844EDC" opacity="0.28"></path>
            <path d="M464.012051,5 C474.161674,12.6945848 504.735246,58.074366 527.98539,92.4239983 C536.40556,104.865247 543.934422,116.089217 549.1766,124.296512 C570.704511,158.009022 583.44339,205.714007 568.543844,237.727304 C553.961309,269.059606 526.694372,289.575879 493.336611,305.786171 C400.820412,350.745569 407.658805,419.882242 285.995915,387.767451 C193.475121,363.662859 116.759621,297.036045 51.4598219,226.325227 L47,7.79142328 L464.012051,5 Z" id="Path" fill="#654AEC"></path>
            <path d="M471.013038,5 C481.162557,12.6939171 511.736473,58.0736223 534.985723,92.4238519 C543.405807,104.86508 550.934592,116.089686 556.17606,124.296968 C577.703751,158.00942 590.443813,205.714326 575.543762,237.727569 C560.961377,269.059164 533.695375,289.576058 500.337954,305.786322 C407.822701,350.745645 414.660369,419.882202 293.00266,387.767465 C200.478874,363.662913 123.764159,297.038175 58.4630579,226.324856 L54,7.7907638 L471.013038,5 Z" id="Ellipse_786_copy" fill-opacity="0" fill="#654AEC" opacity="0.28"></path>
            <path d="M64.3373802,214.740346 C123.310986,274.403322 192.79984,329.106237 273.324422,349.794012 C376.253224,376.237354 381.821626,324.098103 458.355651,287.233496 C492.623902,270.72674 517.513688,246.084482 529.105337,212.243194 C539.396117,182.200317 528.292786,139.912042 507.545172,108.751637 C502.388953,101.00467 495.310308,91.0483284 487.430271,80.1851888 C466.124766,50.7988682 438.513132,12.6725143 425.826705,3 L54,7.21131051 L64.3373802,214.740346 Z" id="Path" fill="#4C57E5"></path>
            <path d="M71.3379539,214.739552 C130.310432,274.402861 199.79873,329.106082 280.322668,349.793972 C383.250648,376.237462 388.819662,324.09792 465.352419,287.233107 C499.620396,270.726258 524.509983,246.083863 536.105478,212.242386 C546.396175,182.199341 535.292277,139.910831 514.544828,108.750252 C509.389306,101.004558 502.310063,91.0488198 494.43337,80.1856195 C473.124754,50.7991349 445.51334,12.6725683 432.827671,3 L61,7.20935841 L71.3379539,214.739552 Z" id="Ellipse_787_copy" fill-opacity="0" fill="#4C57E5" opacity="0.28"></path>
            <path d="M388.016793,2 C403.263336,13.5718642 427.977919,44.0732394 447.344544,68.2431123 C454.699958,77.4232653 461.322459,86.0296177 466.406831,93.2415165 C486.389366,121.582276 496.341851,158.171584 490.19525,185.8637 C482.158196,222.071568 459.056676,250.531158 423.805907,267.149054 C363.223989,295.701214 345.102327,330.44832 260.843077,309.697615 C192.163631,292.786911 129.854275,250.347332 77.1293047,202.282012 L67,3.39576667 L388.016793,2 Z" id="Ellipse_788_copy" fill="#4955DF"></path>
            <path d="M394.017316,3 C409.267077,14.57184 433.978262,45.0731514 453.345458,69.2429738 C460.70018,78.4231076 467.323309,87.0300986 472.407658,94.2413258 C492.386159,122.582683 502.342543,159.171257 496.195312,186.863972 C488.158294,223.071764 465.057537,251.531295 429.806269,268.149156 C369.224624,296.701256 351.103045,331.448289 266.844174,310.697629 C198.165695,293.786959 135.857935,251.346813 83.1318882,203.281594 L73,4.39904635 L394.017316,3 Z" id="Ellipse_788_copy_2" fill-opacity="0" fill="#5F6AED" opacity="0.28"></path>
            <path d="M90.1946355,188.880128 C136.423616,225.551346 191.25224,255.951611 247.773543,269.123504 C312.973096,284.318709 343.598519,267.565291 387.908825,247.087796 C424.016455,230.40204 445.980002,197.908173 449.624108,159.226124 C452.030148,133.692976 442.825882,102.752723 423.729538,77.1072424 C418.738626,70.4066633 412.62363,63.0971198 405.810338,55.5753913 C388.516722,36.4820255 366.77524,13.5082361 349.047973,0 L85,0 L90.1946355,188.880128 Z" id="Rounded_Rectangle_3_copy" fill="#3D50DC"></path>
            <path d="M98.1946288,192.183301 C144.424205,228.778362 199.252103,259.115605 255.773333,272.259908 C320.972803,287.422629 351.598185,270.00156 395.908434,249.566958 C432.016017,232.916153 453.979537,200.489693 457.624293,161.888669 C460.029675,136.40966 450.825421,105.534871 431.729101,79.9457305 C426.738851,73.2591867 420.622552,65.9642985 413.809924,58.4589809 C396.51633,39.4062643 374.774221,16.4799412 357.047633,3 L93,3 L98.1946288,192.183301 Z" id="Rounded_Rectangle_3_copy_2" fill-opacity="0" fill="#2D53CE" opacity="0.28"></path>
            <path d="M311.357869,0 C331.663367,15.3820684 350.607857,30.6921355 365.881626,44.7061816 C395.719442,72.0797178 409.666342,103.354408 410.908517,133.291841 C412.597797,173.997375 390.795385,210.922194 353.512394,227.341734 C298.064884,251.764531 184.619859,228.046036 103,176.721638 L103,2.79102721 L311.357869,0 Z" id="Shape_14_copy_2" fill="#3139E2"></path>
            <path d="M317.355687,0 C337.660572,15.4580697 356.605758,30.8424668 371.878903,44.9270706 C401.716784,72.4325677 415.661087,104.570223 416.908517,134.652943 C418.597801,175.558284 396.795342,212.66686 359.512271,229.167527 C304.0653,253.70968 190.619376,230.580461 109,179.001816 L109,2.80415962 L317.355687,0 Z" id="Shape_14_copy" fill-opacity="0" fill="#2A4FC4" opacity="0.28"></path>
            <path d="M1158.05521,1013 C1158.05521,1013 1004.39328,971.163883 959.960761,958.420887 C910.06447,944.110429 840.256945,907.980132 840,854.660234 C839.830088,819.448114 866.032536,789.849996 876.434711,757.43176 C930.776881,588.079763 792.311061,531.01829 973.035717,428.084653 C1101.90054,354.696011 1260.84892,360.649082 1409.88766,378.549615 L1609,575.967685 L1158.05521,1013 Z" id="Rounded_Rectangle_1_copy_2" fill="#475ED5"></path>
            <path d="M1410.66296,395.234598 C1274.36473,380.927921 1129.32413,378.369387 1011.69292,445.771873 C848.477908,539.143282 966.319294,593.154446 916.81422,744.797089 C905.963433,778.021312 885.417875,809.035832 888.268506,843.446868 C892.301425,892.00787 954.844521,925.146851 1002.22804,938.064104 C1013.21019,941.034416 1030.5373,945.604632 1050.32094,950.719077 C1107.07082,965.557525 1184.45164,985.444849 1187.66353,984.992417 L1600,582.888181 L1410.66296,395.234598 Z" id="Rounded_Rectangle_2_copy_2" fill="#5889F2"></path>
            <path d="M1410.66296,399.234598 C1274.36473,384.927921 1129.32413,382.369387 1011.69292,449.771873 C848.477908,543.143282 966.319294,597.155102 916.81422,748.797089 C905.963433,782.021312 885.417875,813.035832 888.268506,847.446868 C892.301425,896.00787 954.844521,929.146851 1002.22804,942.064104 C1013.21019,945.034416 1030.5373,949.604632 1050.32094,954.719077 C1107.07082,969.557525 1184.45164,989.444849 1187.66353,988.992417 L1600,586.888181 L1410.66296,399.234598 Z" id="Rounded_Rectangle_2_copy_3" fill="#4F7FE5"></path>
            <path d="M1403.66296,399.234598 C1267.36473,384.927921 1122.32413,382.369387 1004.69292,449.771873 C841.477908,543.143282 959.319294,597.155102 909.81422,748.797089 C898.963433,782.021312 878.417875,813.035832 881.268506,847.446868 C885.301425,896.00787 947.844521,929.146851 995.228042,942.064104 C1006.21019,945.034416 1023.5373,949.604632 1043.32094,954.719077 C1100.07082,969.557525 1177.45164,989.444849 1180.66353,988.992417 L1593,586.888181 L1403.66296,399.234598 Z" id="Rounded_Rectangle_2_copy_4" fill-opacity="0" fill="#4F7FE5" opacity="0.4"></path>
            <path d="M1214.19377,959.964901 C1207.78643,960.870676 1138.14428,944.054772 1086.58419,931.603651 C1068.44316,927.22574 1052.4117,923.333535 1041.89004,920.642465 C997.130378,909.195573 941.57389,878.760231 934.242792,835.059884 C928.562665,801.218041 943.558986,768.944895 954.827519,734.8602 C999.194092,600.707092 902.435392,549.741514 1047.73395,465.818863 C1153.83505,404.329233 1284.60245,403.491063 1407.816,414.217273 L1582,593.224606 L1214.19377,959.964901 Z" id="Ellipse_784_copy_2" fill="#64B3F4"></path>
            <path d="M1209.19377,961.964901 C1202.78643,962.870676 1133.14428,946.054772 1081.58419,933.603651 C1063.44316,929.22574 1047.4117,925.333535 1036.89004,922.642465 C992.130378,911.195573 936.57389,880.760231 929.242792,837.059884 C923.562665,803.218041 938.558986,770.944895 949.827519,736.8602 C994.194092,602.707749 897.435392,551.741514 1042.73395,467.818863 C1148.83505,406.329233 1279.60245,405.491063 1402.816,416.217273 L1577,595.224606 L1209.19377,961.964901 Z" id="Ellipse_784_copy_3" fill-opacity="0" fill="#5CA6E2" opacity="0.14"></path>
            <path d="M1408.39098,433.623043 C1297.67504,426.517582 1180.55762,430.73927 1085.48097,486.042987 C957.412102,560.140278 1033.38939,607.780088 994.113883,723.914429 C982.354869,758.683193 972.611498,791.915252 981.376593,825.180007 C991.533597,863.73495 1040.90045,891.362941 1083.23553,901.348252 C1093.34657,903.741588 1108.1389,906.971938 1124.74334,910.568481 C1171.33293,920.664959 1233.58152,934.259892 1243.21327,932.906284 L1575,604.422225 L1408.39098,433.623043 Z" id="Ellipse_785_copy_2" fill="#79CDED"></path>
            <path d="M1408.39098,434.623307 C1297.67504,427.517195 1180.55762,431.739535 1085.48097,487.043223 C957.412102,561.140474 1033.38939,608.780914 994.113883,724.91454 C982.354869,759.683285 972.611498,792.915327 981.376593,826.180064 C991.533597,864.734986 1040.90045,892.362963 1083.23553,902.348269 C1093.34657,904.741604 1108.1389,907.971952 1124.74334,911.568493 C1171.33293,921.664965 1233.58152,935.259891 1243.21327,933.906284 L1575,605.422398 L1408.39098,434.623307 Z" id="Ellipse_785_copy_3" fill="#60BADC"></path>
            <path d="M1401.39098,434.623307 C1290.67504,427.517195 1173.55762,431.739535 1078.48097,487.043223 C950.412102,561.140474 1026.38939,608.780914 987.113883,724.91454 C975.354869,759.683285 965.611498,792.915327 974.376593,826.180064 C984.533597,864.734986 1033.90045,892.362963 1076.23553,902.348269 C1086.34657,904.741604 1101.1389,907.971952 1117.74334,911.568493 C1164.33293,921.664965 1226.58152,935.259891 1236.21327,933.906284 L1568,605.422398 L1401.39098,434.623307 Z" id="Ellipse_785_copy_4" fill-opacity="0" fill="#60BADC" opacity="0.14"></path>
            <path d="M1271.95234,906.79304 C1259.1225,908.602626 1204.45135,898.164724 1162.99704,890.336298 C1147.98298,887.503903 1134.48409,884.900984 1124.80267,882.802913 C1085.04065,874.187711 1041.48083,849.22067 1029.07077,815.546636 C1016.92309,782.593813 1021.67197,748.237906 1033.89836,712.570705 C1067.80956,613.646674 1013.02035,569.074474 1123.44491,504.317523 C1207.18655,454.840427 1310.27134,447.210662 1408.12187,450.745911 L1569,604.00735 L1271.95234,906.79304 Z" id="Ellipse_786_copy_2" fill="#8AFBFF"></path>
            <path d="M1271.95234,907.79304 C1259.1225,909.602626 1204.45135,899.164724 1162.99704,891.336298 C1147.98298,888.503903 1134.48409,885.900984 1124.80267,883.802913 C1085.04065,875.187711 1041.48083,850.22067 1029.07077,816.546636 C1016.92309,783.593813 1021.67197,749.237906 1033.89836,713.571361 C1067.80956,614.646674 1013.02035,570.07513 1123.44491,505.317523 C1207.18655,455.840427 1310.27134,448.210662 1408.12187,451.745911 L1569,605.00735 L1271.95234,907.79304 Z" id="Ellipse_786_copy_3" fill="#68E8EC"></path>
            <path d="M1264.95234,907.79304 C1252.1225,909.602626 1197.45135,899.164724 1155.99704,891.336298 C1140.98298,888.503903 1127.48409,885.900984 1117.80267,883.802913 C1078.04065,875.187711 1034.48083,850.22067 1022.07077,816.546636 C1009.92309,783.593813 1014.67197,749.237906 1026.89836,713.571361 C1060.80956,614.646674 1006.02035,570.07513 1116.44491,505.317523 C1200.18655,455.840427 1303.27134,448.210662 1401.12187,451.745911 L1562,605.00735 L1264.95234,907.79304 Z" id="Ellipse_786_copy_4" fill-opacity="0" fill="#68E8EC" opacity="0.14"></path>
        </g>
    </g>
</svg>