<svg xmlns="http://www.w3.org/2000/svg" viewBox="0 0 1280 675"><g fill="none" fill-rule="evenodd"><path fill="#3F57D8" d="M1-180l1446 .127v462.886c-68.237 84.218-239.127 232.071-349.975 153.877-112.712-79.502-173.495-219.112-288.744-166.76-115.233 52.35-121.566 59.14-207.681 58.176-86.118-.978-209.617-97.934-311.857-89.2C202.663 246.452 125.333 339.564 1 400.752V-180z"/><path fill="none" d="M1-172l1446 .126v462.886c-68.237 84.22-239.127 232.072-349.975 153.878-112.712-79.502-173.495-219.112-288.744-166.76-115.233 52.35-121.566 59.14-207.681 58.176-86.118-.978-209.617-97.935-311.857-89.2C202.663 254.452 125.333 347.564 1 408.752V-172z" opacity=".2"/><path fill="#4E89F3" d="M1447 261.085c-80.819 92.556-237.177 185.455-343.4 103.042-120.824-93.825-174.082-233.378-292.972-171.331-118.166 61.28-131.041 73.83-225.805 65.34-83.853-7.524-206.183-75.284-308.413-64.68C188.99 202.53 124.64 272.049 1 332.655V-181l1446 .127v441.958z"/><path fill="#447DE5" d="M1447 258.086c-80.819 92.555-237.177 185.454-343.4 103.041-120.824-93.824-174.082-233.378-292.972-171.33-118.166 61.28-131.041 73.829-225.805 65.34-83.853-7.525-206.183-75.285-308.413-64.68C188.99 199.53 124.64 269.05 1 329.655V-184l1446 .127v441.96z"/><path fill="none" d="M1447 269.085c-80.819 92.556-237.177 185.454-343.4 103.043-120.824-93.826-174.082-233.379-292.972-171.332-118.166 61.28-131.041 73.83-225.805 65.34-83.853-7.524-206.183-75.284-308.413-64.678-87.42 9.071-151.77 78.59-275.41 139.196V-173l1446 .127v441.958z" opacity=".2"/><path fill="#70A2FD" d="M1-182l1446 .127v418.687c-87.964 85.912-233.932 139.616-336.808 53.571C981.24 182.41 935.731 43.405 812.975 114.795c-120.893 70.323-139.722 88.964-243.926 72.38-81.249-12.93-202.729-52.5-304.979-40.029-88.8 10.82-139.35 55.078-263.07 116.576V-182z"/><path fill="#3C9AEA" d="M1-183l1446 .127v418.687c-87.964 85.912-233.932 139.616-336.808 53.571-128.952-107.974-174.461-246.98-297.217-175.59-120.893 70.327-139.722 88.964-243.926 72.385-81.249-12.93-202.729-52.502-304.979-40.03C175.27 156.968 124.72 201.226 1 262.725V-183z"/><path fill="none" d="M1-175l1446 .127v418.687c-87.964 85.912-233.932 139.616-336.808 53.571-128.952-107.974-174.461-246.98-297.217-175.59-120.893 70.323-139.722 88.964-243.926 72.38-81.249-12.93-202.729-52.501-304.979-40.03-88.8 10.82-139.35 55.078-263.07 116.577V-175z" opacity=".2"/><path fill="#61BEFA" d="M1447 210.279c-92.3 73.34-230.067 97.553-330.215 8.28-137.063-122.333-175-261.237-301.463-180.175-123.741 79.313-148.057 104.902-262.064 79.552-78.558-17.468-199.278-29.82-301.528-15.47C161.5 115.135 125.69 132.471 1 196.845V-182l1446 .127V210.28z"/><path fill="#4EA9E3" d="M1447 208.279c-92.3 73.34-230.067 97.553-330.215 8.281-137.063-122.334-175-261.239-301.463-180.176-123.741 79.312-148.057 104.903-262.064 79.552-78.558-17.47-199.278-29.82-301.528-15.47C161.5 113.135 125.69 130.47 1 194.845V-184l1446 .126V208.28z"/><path fill="none" d="M1447 216.28c-92.3 73.34-230.067 97.552-330.215 8.28-137.063-122.335-175-261.239-301.463-180.176-123.741 79.312-148.057 104.903-262.064 79.552-78.558-17.47-199.278-29.82-301.528-15.47C161.5 121.134 125.69 138.47 1 202.845V-176l1446 .126V216.28z" opacity=".2"/><path fill="#79D7F3" d="M1-182l1446 .127v360.09c-94.885 58.333-225.873 59.55-323.622-32.225C978.186 9.519 947.829-129.053 817.668-38.455 691.047 49.685 661.311 82.888 537.485 48.14 461.51 26.815 341.64 41.06 239.39 57.27 147.66 71.804 127.62 60.31 1 129.556V-182z"/><path fill="#50C1E2" d="M1-183l1446 .127v360.09c-94.885 58.333-225.873 59.549-323.622-32.226C978.186 8.521 947.829-130.053 817.668-39.455 691.047 48.685 661.311 81.89 537.485 47.14 461.51 25.815 341.64 40.058 239.39 56.27 147.66 70.803 127.62 59.308 1 128.556V-183z"/><path fill="none" d="M1-175l1446 .127v360.09c-94.885 58.333-225.873 59.549-323.622-32.226C978.186 16.52 947.829-122.053 817.668-31.455 691.047 56.685 661.311 89.89 537.485 55.14 461.51 33.815 341.64 48.058 239.39 64.27 147.66 78.803 127.62 67.307 1 136.554V-175z" opacity=".2"/><path fill="#99E8FF" d="M1447 143.615c-96.283 42.988-221.438 26.001-317.047-67.856-153.3-150.72-176.1-289.088-309.92-188.863-129.539 97.017-164.9 138.512-298.323 93.698-73.55-24.706-192.41 15.63-294.65 33.703C133.78 30.786 130.61-11.532 1 65.027V-180l1446 .127v323.488z"/><path fill="#76E0FF" d="M1447 141.615c-96.283 42.988-221.438 26.001-317.047-67.856-153.3-150.72-176.1-289.088-309.92-188.863-129.539 97.017-164.9 138.512-298.323 93.698-73.55-24.705-192.41 15.63-294.65 33.703C133.78 28.786 130.61-13.532 1 63.027V-182l1446 .127v323.488z"/><path fill="none" d="M1447 150.593c-96.283 43.03-221.438 26.027-317.047-67.923-153.3-150.868-176.1-289.372-309.92-189.049C690.494-9.266 655.133 32.27 521.71-12.589 448.16-37.319 329.3 3.056 227.06 21.148 133.78 37.653 130.61-4.707 1 71.928V-181l1446 .127v331.466z" opacity=".2"/><path fill="#7EFCF7" d="M1-182l809.092.123C687.2-82.577 644.07-36.859 505.94-90.745c-71.35-27.831-188.98 38.422-291.22 58.414C119.89-13.808 134.7-89.21 1-2.54V-182zm1446 .127v282.975c-96.852 28.175-216.882-3.468-310.454-99.167-71.052-72.768-113.783-140.345-151.077-183.812l461.531.004z"/><path fill="#4AEBE5" d="M1-184l809.092.123C687.2-84.577 644.07-38.859 505.94-92.745c-71.35-27.831-188.98 38.422-291.22 58.414C119.89-15.808 134.7-91.21 1-4.54V-184zm1446 .127V99.101c-96.852 28.176-216.882-3.468-310.454-99.167-71.052-72.768-113.783-140.344-151.077-183.81l461.531.003z"/><path fill="none" d="M1-183l809 .123C687.122-83.645 643.997-30.295 505.883-84.145 434.54-111.957 316.924-45.749 214.696-25.77 119.876-7.26 134.685-82.61 1 4v-187z" opacity=".2"/><path fill="#6AFADA" d="M1447 56.367c-96.8 14.197-212.239-29.188-303.862-125.978-37.76-39.935-67.479-77.808-92.451-111.266l396.313.004v237.24zM721.352-180.877C651.3-128.04 596.11-112.666 490.16-159.46 420.82-190.09 304.64-98.377 202.39-76.55 106.02-55.98 139.91-166.36 1-67.084V-181l720.352.123z"/><path fill="#4CE5C3" d="M1447 54.367c-96.8 14.197-212.239-29.188-303.862-125.978-37.76-39.935-67.479-77.808-92.451-111.266l396.313.004v237.24zM721.352-182.877C651.3-130.04 596.11-114.666 490.16-161.46c-69.34-30.629-185.52 61.086-287.77 82.912C106.02-57.98 139.91-168.36 1-69.084V-183l720.352.123z"/><path fill="#66F5B7" d="M1447-179.873V7.97c-96.3 1.439-207.545-51.4-297.269-148.906-12.2-13.262-23.596-26.243-34.188-38.942l331.457.004zM1-180l316.74.122c-41.9 24.255-85.83 49.566-127.69 59.251C92.16-97.979 146.3-245.343 1-130.629V-180z"/><path fill="#4CE8A4" d="M1446-182.873V4.97c-96.3 1.44-207.546-51.399-297.27-148.905-12.2-13.262-23.596-26.243-34.189-38.942l331.459.003zM0-183l316.74.123c-41.9 24.255-85.83 49.566-127.69 59.251C91.16-100.979 145.3-248.343 0-133.628V-183z"/></g></svg>