<?xml version="1.0" encoding="UTF-8"?>
<svg width="1280px" height="500px" viewBox="0 0 1280 500" version="1.1" xmlns="http://www.w3.org/2000/svg" xmlns:xlink="http://www.w3.org/1999/xlink">
    <!-- Generator: Sketch 61.2 (89653) - https://sketch.com -->
    <title>Artboard Copy 12</title>
    <desc>Created with Sketch.</desc>
    <g id="Artboard-Copy-12" stroke="none" stroke-width="1" fill="none" fill-rule="evenodd">
        <path d="M-184,85.0836147 C-116.182566,163.055825 -36.6627431,237.78808 62.2572822,264.191532 C195.242317,300.020081 177.030314,218.265022 279.700125,167.559423 C310.434823,152.380143 338.831652,136.875002 355.12899,109.103431 C374.015881,76.9171882 359.979973,25.9964217 338.867696,-8.61698838 C333.82158,-16.8878895 326.2754,-28.8135338 317.78152,-42.1819219 C293.951052,-79.687038 262.176059,-129.865911 254.969187,-135.348337 L-179.990451,-138 L-184,85.0836147 Z" id="Path" fill="#9C4167"></path>
        <path d="M218.897776,-136 C228.509161,-128.699 257.461407,-85.6410566 279.478589,-53.0478175 C287.452235,-41.24295 294.581839,-30.5930956 299.546023,-22.8056109 C319.932302,9.18247343 331.995635,54.4473058 317.886216,84.8230938 C304.076997,114.552721 278.256034,134.019568 246.667245,149.400689 C159.057208,192.060374 165.53296,257.660644 50.3218888,227.188553 C-37.2931204,204.316933 -109.939752,141.098761 -171.776684,74.0042434 L-176,-133.351361 L218.897776,-136 Z" id="Path" fill="#C3485D"></path>
        <path d="M-159.223782,62.778236 C-103.452164,119.070423 -37.7354941,170.682156 38.4184525,190.20113 C135.759792,215.150498 141.025914,165.956968 213.40531,131.175107 C245.813318,115.599071 269.351968,92.3465458 280.316851,60.4196804 C290.048998,32.0741413 279.547788,-7.82434383 259.927073,-37.2242741 C255.048275,-44.5316958 248.353893,-53.9255321 240.901622,-64.1755563 C220.752681,-91.9016328 194.639936,-127.873334 182.642189,-137 L-169,-133.026617 L-159.223782,62.778236 Z" id="Path" fill="#D85C4E"></path>
        <path d="M145.644119,-139 C160.065555,-128.054624 183.442643,-99.2045608 201.761193,-76.343219 C208.717927,-67.6600696 214.982655,-59.5196559 219.791873,-52.6982016 C238.693,-25.8917801 248.106881,8.71662145 242.292919,34.9088947 C234.690811,69.1565075 212.839491,96.078431 179.496411,111.793547 C122.193043,138.799923 105.052084,171.666479 25.3527458,152.038575 C-39.6099305,136.044018 -98.5472509,95.902073 -148.418869,50.4389585 L-158,-137.679178 L145.644119,-139 Z" id="Ellipse_788_copy" fill="#F9805E"></path>
        <path d="M-136.07577,38.5773413 C-92.2526087,73.2482659 -40.2786982,101.990297 13.3003995,114.444328 C75.1060037,128.810064 104.137226,112.97111 146.140968,93.6099733 C180.369023,77.8343703 201.189262,47.1129362 204.643675,10.5408651 C206.924469,-13.5995339 198.19933,-42.8514768 180.097041,-67.0987028 C175.365931,-73.4337874 169.569249,-80.3446195 163.110622,-87.4560625 C146.717221,-105.507327 126.107488,-127.228594 109.30301,-140 L-141,-140 L-136.07577,38.5773413 Z" id="Rounded_Rectangle_3_copy" fill="#FB945D"></path>
        <path d="M73.8575967,-141 C93.0423374,-126.396787 110.941189,-111.862551 125.371305,-98.5574705 C153.56285,-72.5699657 166.739953,-42.8788375 167.913567,-14.4572566 C169.509607,24.1871946 148.910575,59.2423626 113.685411,74.831137 C61.2983156,98.0166892 -45.8851334,75.4991563 -123,26.7741383 L-123,-138.350294 L73.8575967,-141 Z" id="Shape_14_copy_2" fill="#FFB463"></path>
        <path d="M1058.68675,817 C1058.68675,817 913.416044,777.365876 871.409906,765.293591 C824.238367,751.736347 758.242913,717.507724 758,666.994253 C757.839366,633.629267 782.610943,605.595223 792.445073,574.883281 C843.819709,414.444918 712.915274,360.386185 883.770861,262.870334 C1005.59859,193.341306 1155.86708,198.984152 1296.76706,215.942512 L1485,402.970345 L1058.68675,817 Z" id="Rounded_Rectangle_1_copy_3" fill="#4A2268"></path>
        <path d="M1297.03395,234.80788 C1168.20149,221.242857 1031.10553,218.816335 919.917609,282.724694 C765.642742,371.255754 877.029333,422.466994 830.235913,566.249145 C819.979481,597.751032 800.559312,627.157768 803.253798,659.784945 C807.065814,705.828557 866.183094,737.249623 910.971169,749.497248 C921.351771,752.313581 937.729778,756.646878 956.429762,761.496191 C1010.07115,775.565418 1083.21342,794.421788 1086.24937,793.99281 L1476,412.732929 L1297.03395,234.80788 Z" id="Rounded_Rectangle_2_copy_2" fill="#673588"></path>
        <path d="M1298.03395,236.807576 C1169.20149,223.242561 1032.10553,220.817284 920.917609,284.724985 C766.642742,373.255995 878.029333,424.467827 831.235913,568.249274 C820.979481,599.751144 801.559312,629.157863 804.253798,661.785021 C808.065814,707.828607 867.183094,739.249655 911.971169,751.497274 C922.351771,754.313604 938.729778,758.646899 957.429762,763.49621 C1011.07115,777.565428 1084.21342,796.421787 1087.24937,795.99281 L1477,414.733146 L1298.03395,236.807576 Z" id="Rounded_Rectangle_2_copy_3" fill="#502A69"></path>
        <path d="M1291.03395,236.807576 C1162.20149,223.242561 1025.10553,220.817284 913.917609,284.724985 C759.642742,373.255995 871.029333,424.467827 824.235913,568.249274 C813.979481,599.751144 794.559312,629.157863 797.253798,661.785021 C801.065814,707.828607 860.183094,739.249655 904.971169,751.497274 C915.351771,754.313604 931.729778,758.646899 950.429762,763.49621 C1004.07115,777.565428 1077.21342,796.421787 1080.24937,795.99281 L1470,414.733146 L1291.03395,236.807576 Z" id="Rounded_Rectangle_2_copy_4" fill-opacity="0" fill="#4F7FE5" opacity="0.3"></path>
        <path d="M1113.46251,766.966812 C1107.39084,767.82327 1041.39712,751.922933 992.538173,740.149732 C975.347523,736.010183 960.15593,732.329894 950.185477,729.785343 C907.770697,718.961695 855.124718,690.183449 848.177684,648.862431 C842.795129,616.863157 857.005819,586.34717 867.684012,554.118265 C909.726297,427.26932 818.036619,379.078636 955.723238,299.725277 C1056.26588,241.583539 1180.1826,240.791005 1296.9412,250.933211 L1462,420.194228 L1113.46251,766.966812 Z" id="Ellipse_784_copy_2" fill="#854B98"></path>
        <path d="M1113.46251,767.966812 C1107.39084,768.823271 1041.39712,752.922925 992.538173,741.149718 C975.347523,737.010167 960.15593,733.329876 950.185477,730.785324 C907.770697,719.961669 855.124718,691.183409 848.177684,649.86237 C842.795129,617.863079 857.005819,587.347075 867.684012,555.118154 C909.726297,428.269142 818.036619,380.078434 955.723238,300.725033 C1056.26588,242.583265 1180.1826,241.791351 1296.9412,251.932942 L1462,421.194047 L1113.46251,767.966812 Z" id="Ellipse_784_copy_4" fill="#6F3980"></path>
        <path d="M1296.32145,269.492411 C1191.54003,262.740816 1080.70026,266.752255 990.719842,319.301734 C869.515641,389.70945 941.42044,434.976702 904.250158,545.327316 C893.121442,578.364525 883.900329,609.94156 892.195603,641.549662 C901.808178,678.18449 948.528899,704.436551 988.59476,713.924574 C998.16384,716.198717 1012.16328,719.268188 1027.8777,722.685616 C1071.97003,732.279269 1130.882,745.197147 1139.99748,743.910951 L1454,431.785445 L1296.32145,269.492411 Z" id="Ellipse_785_copy_2" fill="#BC5AB3"></path>
        <path d="M1296.32145,271.492404 C1191.54003,264.740808 1080.70026,268.752248 990.719842,321.30235 C869.515641,391.708824 941.42044,436.976697 904.250158,547.327313 C893.121442,580.364522 883.900329,611.941558 892.195603,643.54966 C901.808178,680.184489 948.528899,706.43655 988.59476,715.924573 C998.16384,718.198716 1012.16328,721.268188 1027.8777,724.685616 C1071.97003,734.279269 1130.882,747.197147 1139.99748,745.910951 L1454,433.785441 L1296.32145,271.492404 Z" id="Ellipse_785_copy_3" fill="#9B4193"></path>
        <path d="M1166.70076,718.803909 C1154.5511,720.51846 1102.77843,710.628733 1063.52188,703.211438 C1049.30381,700.527793 1036.52058,698.055361 1027.35244,696.073689 C989.698454,687.910937 948.448023,664.255108 936.695905,632.349557 C925.192246,601.127341 929.689357,568.575728 941.267553,534.781686 C973.380899,441.052297 921.496416,398.820927 1026.06666,337.464862 C1105.36861,290.586812 1202.98822,283.357123 1295.65106,286.706709 L1448,431.91983 L1166.70076,718.803909 Z" id="Ellipse_786_copy_2" fill="#DD5CB1"></path>
        <path d="M1167.70076,719.803909 C1155.5511,721.51846 1103.77843,711.628733 1064.52188,704.211439 C1050.30381,701.527794 1037.52058,699.055363 1028.35244,697.07369 C990.698454,688.910939 949.448023,665.255111 937.695905,633.349563 C926.192246,602.127349 930.689357,569.575738 942.267553,535.781698 C974.380899,442.052315 922.496416,399.821569 1027.06666,338.464888 C1106.36861,291.586219 1203.98822,284.357152 1296.65106,287.706738 L1449,432.919849 L1167.70076,719.803909 Z" id="Ellipse_786_copy_3" fill="#C14898"></path>
    </g>
</svg>