<?xml version="1.0" encoding="UTF-8"?>
<svg width="1280px" height="675px" viewBox="0 0 1280 675" version="1.1" xmlns="http://www.w3.org/2000/svg" xmlns:xlink="http://www.w3.org/1999/xlink">
    <!-- Generator: Sketch 61.2 (89653) - https://sketch.com -->
    <title>Artboard Copy 9</title>
    <desc>Created with Sketch.</desc>
    <g id="Artboard-Copy-9" stroke="none" stroke-width="1" fill="none" fill-rule="evenodd">
        <g id="13" transform="translate(-125.000000, -349.000000)">
            <path d="M1452,5.978 L6,6.144 L6,611.049 C74.238,721.107 245.127,914.324 355.976,812.138 C468.688,708.244 529.47,525.8 644.72,594.213 C759.952,662.625 766.285,671.5 852.4,670.24 C938.517,668.961 1062.017,542.258 1164.257,553.671 C1250.337,563.271 1327.667,684.951 1452,764.913 L1452,5.978 L1452,5.978 Z" id="Path" fill="#D83F92"></path>
            <path d="M6,583.214 C86.819,704.065 243.177,825.365 349.4,717.757 C470.224,595.249 523.482,413.033 642.373,494.049 C760.538,574.063 773.413,590.449 868.173,579.364 C952.026,569.539 1074.356,481.064 1176.596,494.911 C1264.006,506.757 1328.356,597.529 1451.996,676.663 L1451.996,5.978 L6,6.144 L6,583.214 Z" id="Path" fill="#F353CA"></path>
            <path d="M6,579.215 C86.819,700.065 243.177,821.365 349.4,713.758 C470.224,591.249 523.482,409.032 642.373,490.048 C760.538,570.063 773.413,586.448 868.173,575.364 C952.026,565.539 1074.356,477.064 1176.596,490.912 C1264.006,502.757 1328.356,593.529 1451.996,672.662 L1451.996,1.978 L6,2.144 L6,579.215 Z" id="Rectangle_663_copy" fill="#E544B9"></path>
            <path d="M1452,3.978 L6,4.144 L6,551.36 C93.964,663.647 239.932,733.836 342.807,621.377 C471.759,480.255 517.269,298.577 640.025,391.884 C760.918,483.795 779.747,508.158 883.951,486.484 C965.2,469.584 1086.68,417.866 1188.94,434.166 C1277.73,448.307 1328.28,506.151 1452,586.529 L1452,3.978 Z" id="Path" fill="#FF69FF"></path>
            <path d="M1452,1.978 L6,2.144 L6,549.36 C93.964,661.646 239.932,731.836 342.807,619.378 C471.759,478.256 517.269,296.573 640.025,389.878 C760.918,481.8 779.747,506.158 883.951,484.489 C965.2,467.589 1086.68,415.87 1188.94,432.17 C1277.73,446.311 1328.28,504.155 1452,584.533 L1452,1.978 Z" id="Rectangle_664_copy" fill="#E34EE1"></path>
            <path d="M6,516.188 C98.3,611.95 236.067,643.565 336.215,527 C473.279,367.264 511.215,185.893 637.678,291.739 C761.418,395.3 785.735,428.713 899.741,395.613 C978.3,372.804 1099.02,356.676 1201.27,375.413 C1291.5,391.955 1327.31,414.592 1452,498.647 L1452,3.978 L6,4.144 L6,516.188 Z" id="Path" fill="#FA64FF"></path>
            <path d="M6,513.187 C98.3,608.949 236.067,640.565 336.215,524 C473.279,364.265 511.215,182.894 637.678,288.74 C761.418,392.3 785.735,425.714 899.741,392.613 C978.3,369.804 1099.02,353.677 1201.27,372.413 C1291.5,388.955 1327.31,411.591 1452,495.646 L1452,0.979 L6,1.144 L6,513.187 Z" id="Rectangle_665_copy" fill="#C44EDA"></path>
            <path d="M1452,3.978 L6,4.144 L6,474.729 C100.884,550.963 231.873,552.552 329.623,432.616 C474.814,254.267 505.171,73.172 635.331,191.571 C761.954,306.758 791.689,350.149 915.516,304.738 C991.49,276.869 1111.36,295.483 1213.61,316.669 C1305.34,335.663 1325.38,320.641 1452,411.136 L1452,3.978 Z" id="Path" fill="#D164FF"></path>
            <path d="M1452,1.978 L6,2.144 L6,472.73 C100.884,548.963 231.873,550.551 329.623,430.615 C474.814,252.267 505.171,71.172 635.331,189.571 C761.954,304.758 791.689,348.15 915.516,302.738 C991.49,274.869 1111.36,293.483 1213.61,314.669 C1305.34,333.663 1325.38,318.64 1452,409.136 L1452,1.978 Z" id="Rectangle_666_copy" fill="#B14AEB"></path>
            <path d="M6,427.918 C102.282,484.1 227.437,461.9 323.047,339.235 C476.347,142.255 499.147,-38.581 632.967,92.406 C762.506,219.2 797.868,273.432 931.29,214.862 C1004.84,182.573 1123.7,235.289 1225.94,258.91 C1319.22,280.459 1322.39,225.153 1452,325.21 L1452,4.978 L6,5.144 L6,427.918 Z" id="Path" fill="#B061F3"></path>
            <path d="M6,424.918 C102.282,481.1 227.437,458.9 323.047,336.235 C476.347,139.255 499.147,-41.58 632.967,89.406 C762.506,216.2 797.868,270.431 931.29,211.863 C1004.84,179.574 1123.7,232.289 1225.94,255.91 C1319.22,277.459 1322.39,222.153 1452,322.21 L1452,1.978 L6,2.144 L6,424.918 Z" id="Rectangle_667_copy" fill="#9C4DED"></path>
            <path d="M1452,5.978 L642.907,6.139 C765.8,135.641 808.93,195.263 947.06,124.987 C1018.41,88.692 1136.04,175.095 1238.28,201.168 C1333.11,225.325 1318.3,126.99 1452,240.019 L1452,5.978 Z M6,6.144 L6,375.183 C102.852,411.927 222.881,370.66 316.455,245.855 C387.506,150.956 430.237,62.827 467.531,6.139 L6,6.144 Z" id="Shape" fill="#9D66F1"></path>
            <path d="M1452,1.978 L642.907,2.139 C765.8,131.64 808.93,191.263 947.06,120.987 C1018.41,84.692 1136.04,171.096 1238.28,197.169 C1333.11,221.325 1318.3,122.99 1452,236.019 L1452,1.978 Z M6,2.144 L6,371.183 C102.852,407.928 222.881,366.66 316.455,241.855 C387.506,146.955 430.237,58.827 467.531,2.139 L6,2.144 Z" id="Rectangle_668_copy" fill="#8142E0"></path>
        </g>
    </g>
</svg>