<?xml version="1.0" encoding="UTF-8"?>
<svg width="48px" height="48px" viewBox="0 0 48 48" version="1.1" xmlns="http://www.w3.org/2000/svg" xmlns:xlink="http://www.w3.org/1999/xlink">
    <!-- Generator: Sketch 61.2 (89653) - https://sketch.com -->
    <title>ic_donate_compet</title>
    <desc>Created with Sketch.</desc>
    <g id="Page-1" stroke="none" stroke-width="1" fill="none" fill-rule="evenodd">
        <g id="Artboard" transform="translate(-281.000000, -11485.000000)" fill="#0FAD69">
            <g id="ic_donate_compet" transform="translate(281.000000, 11485.000000)">
                <rect id="Rectangle-Copy-4" fill-opacity="0.2" x="0" y="0" width="48" height="47.731243" rx="5.05263158"></rect>
                <g id="Group" transform="translate(10.000000, 10.000000)">
                    <path d="M22.8671788,18.55413 C20.4353788,18.55413 18.4571788,20.53296 18.4571788,22.96413 C18.4571788,25.39593 20.4353788,27.37413 22.8671788,27.37413 C25.2989788,27.37413 27.2771788,25.39593 27.2771788,22.96413 C27.2771788,20.53296 25.2989788,18.55413 22.8671788,18.55413 Z M22.8671788,28.63413 C19.7404888,28.63413 17.1971788,26.09082 17.1971788,22.96413 C17.1971788,19.83807 19.7404888,17.29413 22.8671788,17.29413 C25.9932388,17.29413 28.5371788,19.83807 28.5371788,22.96413 C28.5371788,26.09082 25.9932388,28.63413 22.8671788,28.63413 L22.8671788,28.63413 Z" id="Fill-595"></path>
                    <path d="M7.91601883,10.74591 L8.00988883,10.8045 C8.29653883,10.98279 8.50380883,11.11131 8.58381883,11.38599 C8.88873883,12.44565 10.9500988,16.38063 13.7353288,16.38063 C16.5205588,16.38063 18.5819188,12.44565 18.8862088,11.38851 C18.9662188,11.11194 19.1734888,10.98279 19.4613988,10.8045 L19.5552688,10.74591 C20.3074888,9.3744 20.1808588,8.77527 20.0888788,8.57871 C19.9830388,8.35191 19.7682088,8.29584 19.7663188,8.29521 C19.4544688,8.23788 19.2339688,7.95816 19.2509788,7.6419 C19.2516088,7.62615 19.3297288,6.06753 18.9510988,4.63806 C18.9139288,4.50513 17.9588488,1.26 13.7353288,1.26 C9.51180883,1.26 8.55672883,4.50513 8.51829883,4.6431 C8.14092883,6.06753 8.21904883,7.62615 8.21967883,7.6419 C8.23668883,7.95816 8.01618883,8.23788 7.70433883,8.29521 C7.69551883,8.29836 7.47816883,8.35632 7.37547883,8.5932 C7.28916883,8.79165 7.17387883,9.3933 7.91601883,10.74591 Z M13.7353288,17.64063 C10.3604188,17.64063 8.00232883,13.59225 7.43532883,11.93031 L7.34460883,11.87424 C7.12221883,11.73627 6.97542883,11.64492 6.87714883,11.47104 C6.06444883,10.03275 5.85024883,8.87985 6.24084883,8.0451 C6.42543883,7.64883 6.70515883,7.40754 6.95148883,7.26264 C6.95148883,6.63894 6.99873883,5.46021 7.30176883,4.3155 C7.31373883,4.26951 8.52459883,0 13.7353288,0 C18.9466888,0 20.1569188,4.26951 20.1682588,4.31235 C20.4719188,5.45958 20.5191688,6.63894 20.5191688,7.26264 C20.7661288,7.40754 21.0452188,7.64883 21.2304388,8.0451 C21.6204088,8.87985 21.4062088,10.03275 20.5935088,11.47167 C20.4958588,11.64492 20.3490688,11.73627 20.1266788,11.87424 L20.0359588,11.93031 C19.4689588,13.59099 17.1108688,17.64063 13.7353288,17.64063 L13.7353288,17.64063 Z" id="Fill-596"></path>
                    <path d="M16.4147188,28.18242 C6.26919883,28.18242 0.731498835,27.04716 0.500918835,26.99865 C0.198518835,26.93502 -0.0137911655,26.66097 0.000698834547,26.35227 C0.291758835,20.24757 4.09380883,18.35253 6.92880883,17.45793 C9.12876883,16.76304 10.2810388,15.63975 10.2923788,15.62841 C10.5393388,15.38397 10.9381288,15.38523 11.1831988,15.63282 C11.4276388,15.87978 11.4257488,16.27857 11.1787888,16.52364 C11.1239788,16.57845 9.79593883,17.87373 7.30806883,18.65934 C4.55874883,19.52685 1.71933883,21.06783 1.29660883,25.86402 C2.92074883,26.14437 8.17368883,26.92242 16.4147188,26.92242 C16.7624788,26.92242 17.0447188,27.20466 17.0447188,27.55242 C17.0447188,27.90018 16.7624788,28.18242 16.4147188,28.18242" id="Fill-597"></path>
                    <path d="M18.2051788,17.75529 C18.0993388,17.75529 17.9922388,17.72883 17.8939588,17.67276 C16.8632788,17.08434 16.3145488,16.54569 16.2918688,16.52301 C16.0449088,16.27857 16.0430188,15.87915 16.2880888,15.63219 C16.5318988,15.38523 16.9306888,15.38334 17.1776488,15.62715 C17.1883588,15.63786 17.6495188,16.08264 18.5182888,16.57782 C18.8200588,16.75044 18.9252688,17.13537 18.7532788,17.43777 C18.6367288,17.64126 18.4244188,17.75529 18.2051788,17.75529" id="Fill-598"></path>
                    <path d="M22.2371788,25.48413 C22.0878688,25.48413 21.9391888,25.43184 21.8188588,25.326 L19.9710688,23.688 C19.7108788,23.45679 19.6869388,23.05863 19.9175188,22.79844 C20.1487288,22.53825 20.5468888,22.51431 20.8070788,22.74489 L22.2018988,23.98158 L24.8485288,21.22596 C25.0898188,20.97522 25.4892388,20.96766 25.7393488,21.20769 C25.9900888,21.44898 25.9982788,21.84777 25.7576188,22.09851 L22.6914088,25.29072 C22.5679288,25.41924 22.4022388,25.48413 22.2371788,25.48413" id="Fill-599"></path>
                </g>
            </g>
        </g>
    </g>
</svg>