<?xml version="1.0" encoding="UTF-8"?>
<svg width="48px" height="48px" viewBox="0 0 48 48" version="1.1" xmlns="http://www.w3.org/2000/svg" xmlns:xlink="http://www.w3.org/1999/xlink">
    <!-- Generator: Sketch 61.2 (89653) - https://sketch.com -->
    <title>ic_donate_compet</title>
    <desc>Created with Sketch.</desc>
    <g id="Flower-Based-Infusions" stroke="none" stroke-width="1" fill="none" fill-rule="evenodd">
        <g id="Artboard" transform="translate(-176.000000, -10046.000000)" fill="#FFD23E">
            <g id="ic_donate_compet" transform="translate(176.000000, 10046.000000)">
                <rect id="Rectangle-Copy-4" fill-opacity="0.2" x="0" y="0" width="48" height="47.731243" rx="5.05263158"></rect>
                <path d="M6.80005231,40.6344 C6.67685231,40.6344 6.55125231,40.6064 6.43445231,40.5464 C6.04165231,40.3448 5.88645231,39.8624 6.08885231,39.4688 C6.20245231,39.248 6.32885231,38.8928 6.47525231,38.4816 C7.14325231,36.6008 8.26245231,33.452 11.9136523,32.0712 C13.5512523,31.4512 14.1832523,31.2064 14.4280523,30.9216 C14.2144523,30.9152 13.9816523,30.9136 13.7528523,30.912 C12.3272523,30.904 10.5528523,30.8936 9.64325231,29.6808 C8.56565231,28.2432 9.40245231,26.9608 10.1408523,25.8288 C10.3152523,25.5608 10.5000523,25.2784 10.6776523,24.9728 C11.9936523,22.7032 12.0808523,21.8184 12.2008523,20.5936 L12.2280523,20.3296 C12.6328523,16.3896 14.9488523,14.0792 18.7496523,13.8232 L18.8576523,13.8232 C22.6592523,14.0792 24.9752523,16.3896 25.3808523,20.3288 L25.4072523,20.5936 C25.5280523,21.8184 25.6152523,22.7032 26.9312523,24.9736 C27.1080523,25.2776 27.2928523,25.5608 27.4672523,25.8288 C28.2056523,26.9608 29.0424523,28.244 27.9648523,29.6808 C27.0544523,30.8936 25.2808523,30.904 23.8552523,30.912 C23.6608523,30.9136 23.4640523,30.9144 23.2784523,30.9192 C23.5608523,31.1416 24.1592523,31.4016 25.4280523,31.9536 L25.7312523,32.0864 C29.4952523,33.7264 30.5224523,36.7024 31.1368523,38.4808 C31.2760523,38.8832 31.3960523,39.2312 31.5112523,39.4528 C31.7144523,39.8456 31.5608523,40.328 31.1680523,40.5312 C30.7760523,40.7352 30.2928523,40.5816 30.0896523,40.188 C29.9216523,39.8632 29.7840523,39.4648 29.6248523,39.0032 C29.0616523,37.3744 28.2120523,34.9128 25.0920523,33.5528 L24.7896523,33.4208 C22.0056523,32.2096 21.4264523,31.9576 21.4264523,30.2344 C21.4264523,29.8792 21.6608523,29.5664 22.0008523,29.4664 C22.5008523,29.32 23.1240523,29.316 23.8456523,29.312 C24.9176523,29.3056 26.2512523,29.2984 26.6848523,28.72 C27.0504523,28.2328 26.8960523,27.8808 26.1280523,26.7032 C25.9384523,26.4128 25.7384523,26.1056 25.5472523,25.776 C24.0568523,23.2056 23.9448523,22.068 23.8152523,20.7504 L23.7888523,20.4928 C23.4656523,17.3488 21.7888523,15.6432 18.8040523,15.4232 C15.8192523,15.6432 14.1424523,17.3488 13.8192523,20.4928 L13.7936523,20.7504 C13.6640523,22.068 13.5512523,23.2056 12.0616523,25.776 C11.8696523,26.1064 11.6696523,26.4128 11.4808523,26.7032 C10.7128523,27.8808 10.5576523,28.2328 10.9232523,28.72 C11.3568523,29.2984 12.6904523,29.3056 13.7624523,29.312 C14.4840523,29.316 15.1072523,29.32 15.6072523,29.4664 C15.9480523,29.5664 16.1816523,29.8792 16.1816523,30.2344 C16.1816523,32.0968 15.4744523,32.4344 12.4800523,33.568 C9.52165231,34.6864 8.59525231,37.2928 7.98245231,39.0176 C7.81685231,39.4824 7.67445231,39.884 7.51205231,40.2 C7.36965231,40.4768 7.08965231,40.6344 6.80005231,40.6344" id="Fill-393"></path>
                <path d="M29.1944523,8.6 C28.7528523,8.6 28.3944523,8.9592 28.3944523,9.4 L28.3944523,15.8 C28.3944523,16.2416 28.7528523,16.6 29.1944523,16.6 L31.5944523,16.6 C32.0360523,16.6 32.3944523,16.9584 32.3944523,17.4 L32.3944523,21.2376 L37.4672523,16.7984 C37.6136523,16.6704 37.8000523,16.6 37.9944523,16.6 L39.5944523,16.6 C40.0352523,16.6 40.3944523,16.2416 40.3944523,15.8 L40.3944523,9.4 C40.3944523,8.9592 40.0352523,8.6 39.5944523,8.6 L29.1944523,8.6 Z M31.5944523,23.8 C31.4816523,23.8 31.3696523,23.7768 31.2640523,23.7288 C30.9776523,23.5992 30.7944523,23.3144 30.7944523,23 L30.7944523,18.2 L29.1944523,18.2 C27.8704523,18.2 26.7944523,17.124 26.7944523,15.8 L26.7944523,9.4 C26.7944523,8.0768 27.8704523,7 29.1944523,7 L39.5944523,7 C40.9176523,7 41.9944523,8.0768 41.9944523,9.4 L41.9944523,15.8 C41.9944523,17.124 40.9176523,18.2 39.5944523,18.2 L38.2952523,18.2 L32.1208523,23.6024 C31.9720523,23.7328 31.7840523,23.8 31.5944523,23.8 L31.5944523,23.8 Z" id="Fill-394"></path>
                <path d="M37.1944523,11.8 L31.5944523,11.8 C31.1520523,11.8 30.7944523,11.4424 30.7944523,11 C30.7944523,10.5584 31.1520523,10.2 31.5944523,10.2 L37.1944523,10.2 C37.6360523,10.2 37.9944523,10.5584 37.9944523,11 C37.9944523,11.4424 37.6360523,11.8 37.1944523,11.8" id="Fill-395"></path>
                <path d="M33.1944523,14.2 L31.5944523,14.2 C31.1520523,14.2 30.7944523,13.8424 30.7944523,13.4 C30.7944523,12.9584 31.1520523,12.6 31.5944523,12.6 L33.1944523,12.6 C33.6360523,12.6 33.9944523,12.9584 33.9944523,13.4 C33.9944523,13.8424 33.6360523,14.2 33.1944523,14.2" id="Fill-396"></path>
            </g>
        </g>
    </g>
</svg>