<?xml version="1.0" encoding="UTF-8"?>
<svg width="48px" height="48px" viewBox="0 0 48 48" version="1.1" xmlns="http://www.w3.org/2000/svg" xmlns:xlink="http://www.w3.org/1999/xlink">
    <!-- Generator: Sketch 61.2 (89653) - https://sketch.com -->
    <title>ic_donate_inter</title>
    <desc>Created with Sketch.</desc>
    <g id="Flower-Based-Infusions" stroke="none" stroke-width="1" fill="none" fill-rule="evenodd">
        <g id="Artboard" transform="translate(-192.000000, -3499.000000)" fill="#EF4266">
            <g id="ic_donate_inter" transform="translate(192.000000, 3499.000000)">
                <rect id="Rectangle-Copy-4" fill-opacity="0.2" x="0" y="0" width="48" height="48" rx="5.05263158"></rect>
                <path d="M11.4,17.1868 L11.4,38.8 C11.4,39.1864 11.7143,39.5 12.1,39.5 L23.3,39.5 C23.6864,39.5 24,39.1864 24,38.8 L24,17.1868 L22.621,11.6701 L22.6,11.5 L22.6,10.1 C22.6,9.7143 22.2864,9.4 21.9,9.4 L13.5,9.4 C13.1143,9.4 12.8,9.7143 12.8,10.1 L12.8,11.5 L12.7797,11.6701 L11.4,17.1868 Z M23.3,40.9 L12.1,40.9 C10.9422,40.9 10,39.9585 10,38.8 L10,17.1 L10.021,16.9306 L11.4,11.4139 L11.4,10.1 C11.4,8.9422 12.3422,8 13.5,8 L21.9,8 C23.0585,8 24,8.9422 24,10.1 L24,11.4139 L25.3797,16.9306 L25.4,17.1 L25.4,38.8 C25.4,39.9585 24.4585,40.9 23.3,40.9 L23.3,40.9 Z" id="Fill-84"></path>
                <polygon id="Fill-86" points="12.1 12.2 23.3 12.2 23.3 10.8 12.1 10.8"></polygon>
                <path d="M35.9,40.9 L23.3,40.9 L23.3,39.5 L35.9,39.5 C36.2864,39.5 36.6,39.1864 36.6,38.8 L36.6,30.5141 L35.2364,26.4219 C35.2119,26.3498 35.2,26.2756 35.2,26.2 L35.2,24.8 C35.2,24.4143 34.8864,24.1 34.5,24.1 L25.4,24.1 L25.4,22.7 L34.5,22.7 C35.6585,22.7 36.6,23.6422 36.6,24.8 L36.6,26.0866 L37.9643,30.1788 C37.9881,30.2509 38,30.3251 38,30.4 L38,38.8 C38,39.9585 37.0585,40.9 35.9,40.9" id="Fill-87"></path>
                <polygon id="Fill-88" points="25.4 26.9 35.9 26.9 35.9 25.5 25.4 25.5"></polygon>
            </g>
        </g>
    </g>
</svg>