<?xml version="1.0" encoding="UTF-8"?>
<svg width="48px" height="48px" viewBox="0 0 48 48" version="1.1" xmlns="http://www.w3.org/2000/svg" xmlns:xlink="http://www.w3.org/1999/xlink">
    <!-- Generator: Sketch 61.2 (89653) - https://sketch.com -->
    <title>ic_donate_compet</title>
    <desc>Created with Sketch.</desc>
    <g id="Flower-Based-Infusions" stroke="none" stroke-width="1" fill="none" fill-rule="evenodd">
        <g id="Artboard" transform="translate(-192.000000, -3592.000000)" fill="#FFD23E">
            <g id="ic_donate_compet" transform="translate(192.000000, 3592.000000)">
                <rect id="Rectangle-Copy-4" fill-opacity="0.2" x="0" y="0" width="48" height="47.731243" rx="5.05263158"></rect>
                <path d="M12.5,9.4 C11.3422,9.4 10.4,10.3422 10.4,11.5 L10.4,28.3 C10.4,29.455 11.3422,30.4 12.5,30.4 L29.3,30.4 C30.4578,30.4 31.4,29.455 31.4,28.3 L31.4,11.5 C31.4,10.3422 30.4578,9.4 29.3,9.4 L12.5,9.4 Z M29.3,31.8 L12.5,31.8 C10.5701,31.8 9,30.232 9,28.3 L9,11.5 C9,9.5708 10.5701,8 12.5,8 L29.3,8 C31.2299,8 32.8,9.5708 32.8,11.5 L32.8,28.3 C32.8,30.232 31.2299,31.8 29.3,31.8 L29.3,31.8 Z" id="Fill-49"></path>
                <path d="M32.1,13.6 L9.7,13.6 C9.3136,13.6 9,13.2871 9,12.9 C9,12.5136 9.3136,12.2 9.7,12.2 L32.1,12.2 C32.4864,12.2 32.8,12.5136 32.8,12.9 C32.8,13.2871 32.4864,13.6 32.1,13.6" id="Fill-50"></path>
                <path d="M13.2,11.5 C13.018,11.5 12.836,11.43 12.703,11.297 C12.577,11.164 12.5,10.982 12.5,10.8 C12.5,10.611 12.57,10.436 12.703,10.3037 C12.969,10.044 13.438,10.044 13.697,10.3037 C13.823,10.436 13.9,10.6187 13.9,10.8 C13.9,10.982 13.823,11.164 13.697,11.297 C13.564,11.423 13.382,11.5 13.2,11.5" id="Fill-51"></path>
                <path d="M15.3,11.5 C15.118,11.5 14.936,11.43 14.803,11.297 C14.677,11.164 14.6,10.982 14.6,10.8 C14.6,10.6187 14.677,10.436 14.803,10.3037 C15.069,10.044 15.538,10.044 15.797,10.3037 C15.923,10.436 16,10.6187 16,10.8 C16,10.982 15.923,11.164 15.797,11.297 C15.664,11.423 15.482,11.5 15.3,11.5" id="Fill-52"></path>
                <path d="M17.4,11.5 C17.218,11.5 17.036,11.43 16.903,11.297 C16.777,11.164 16.7,10.982 16.7,10.8 C16.7,10.6187 16.777,10.436 16.903,10.3037 C17.169,10.044 17.631,10.044 17.897,10.3037 C18.023,10.436 18.1,10.6187 18.1,10.8 C18.1,10.982 18.023,11.164 17.897,11.297 C17.764,11.43 17.582,11.5 17.4,11.5" id="Fill-53"></path>
                <path d="M36.3,38.8 L19.5,38.8 C17.5701,38.8 16,37.232 16,35.3 L16,31.1 C16,30.715 16.3136,30.4 16.7,30.4 C17.0864,30.4 17.4,30.715 17.4,31.1 L17.4,35.3 C17.4,36.455 18.3422,37.4 19.5,37.4 L36.3,37.4 C37.4578,37.4 38.4,36.455 38.4,35.3 L38.4,18.5 C38.4,17.3422 37.4578,16.4 36.3,16.4 L32.1,16.4 C31.7136,16.4 31.4,16.0871 31.4,15.7 C31.4,15.3136 31.7136,15 32.1,15 L36.3,15 C38.2299,15 39.8,16.5708 39.8,18.5 L39.8,35.3 C39.8,37.232 38.2299,38.8 36.3,38.8" id="Fill-54"></path>
                <path d="M39.1,20.6 L32.1,20.6 C31.7136,20.6 31.4,20.2871 31.4,19.9 C31.4,19.5136 31.7136,19.2 32.1,19.2 L39.1,19.2 C39.4864,19.2 39.8,19.5136 39.8,19.9 C39.8,20.2871 39.4864,20.6 39.1,20.6" id="Fill-55"></path>
            </g>
        </g>
    </g>
</svg>