<?xml version="1.0" encoding="UTF-8"?>
<svg width="48px" height="48px" viewBox="0 0 48 48" version="1.1" xmlns="http://www.w3.org/2000/svg" xmlns:xlink="http://www.w3.org/1999/xlink">
    <!-- Generator: Sketch 61.2 (89653) - https://sketch.com -->
    <title>ic_donate_indus</title>
    <desc>Created with Sketch.</desc>
    <g id="Flower-Based-Infusions" stroke="none" stroke-width="1" fill="none" fill-rule="evenodd">
        <g id="Artboard" transform="translate(-176.000000, -10139.000000)" fill="#0FAD69">
            <g id="ic_donate_indus" transform="translate(176.000000, 10139.000000)">
                <rect id="Rectangle-Copy-4" fill-opacity="0.2" x="0" y="0" width="48" height="48" rx="5.05263158"></rect>
                <path d="M13.04,8.44 C11.05496,8.44 9.44,10.05568 9.44,12.04 C9.44,14.02504 11.05496,15.64 13.04,15.64 C15.02432,15.64 16.64,14.02504 16.64,12.04 C16.64,10.05568 15.02432,8.44 13.04,8.44 Z M13.04,17.08 C10.2608,17.08 8,14.8192 8,12.04 C8,9.26152 10.2608,7 13.04,7 C15.81848,7 18.08,9.26152 18.08,12.04 C18.08,14.8192 15.81848,17.08 13.04,17.08 L13.04,17.08 Z" id="Fill-628"></path>
                <path d="M34.64,8.44 C32.65496,8.44 31.04,10.05568 31.04,12.04 C31.04,14.02504 32.65496,15.64 34.64,15.64 C36.62432,15.64 38.24,14.02504 38.24,12.04 C38.24,10.05568 36.62432,8.44 34.64,8.44 Z M34.64,17.08 C31.8608,17.08 29.6,14.8192 29.6,12.04 C29.6,9.26152 31.8608,7 34.64,7 C37.41848,7 39.68,9.26152 39.68,12.04 C39.68,14.8192 37.41848,17.08 34.64,17.08 L34.64,17.08 Z" id="Fill-629"></path>
                <path d="M23.84,14.2 C21.85496,14.2 20.24,15.81568 20.24,17.8 C20.24,19.78504 21.85496,21.4 23.84,21.4 C25.82432,21.4 27.44,19.78504 27.44,17.8 C27.44,15.81568 25.82432,14.2 23.84,14.2 Z M23.84,22.84 C21.0608,22.84 18.8,20.5792 18.8,17.8 C18.8,15.02152 21.0608,12.76 23.84,12.76 C26.61848,12.76 28.88,15.02152 28.88,17.8 C28.88,20.5792 26.61848,22.84 23.84,22.84 L23.84,22.84 Z" id="Fill-630"></path>
                <path d="M23.84,26.44 C22.25168,26.44 20.96,27.73168 20.96,29.32 L20.96,39.4 L26.72144,39.4 L26.72,29.32 C26.72,27.73168 25.42832,26.44 23.84,26.44 Z M26.72,40.84 L20.96,40.84 C20.16584,40.84 19.52,40.19416 19.52,39.4 L19.52,29.32 C19.52,26.93824 21.45752,25 23.84,25 C26.22176,25 28.16,26.93824 28.16,29.32 L28.16,39.4 C28.16,40.19416 27.51344,40.84 26.72,40.84 L26.72,40.84 Z" id="Fill-631"></path>
                <path d="M35.36,20.68 C33.77168,20.68 32.48,21.97168 32.48,23.56 L32.48,39.4 L38.24144,39.4 L38.24,23.56 C38.24,21.97168 36.94832,20.68 35.36,20.68 Z M38.24,40.84 L32.48,40.84 C31.68584,40.84 31.04,40.19416 31.04,39.4 L31.04,23.56 C31.04,21.17824 32.97752,19.24 35.36,19.24 C37.74176,19.24 39.68,21.17824 39.68,23.56 L39.68,39.4 C39.68,40.19416 39.03344,40.84 38.24,40.84 L38.24,40.84 Z" id="Fill-632"></path>
                <path d="M12.32,20.68 C10.73168,20.68 9.44,21.97168 9.44,23.56 L9.44,39.4 L15.20144,39.4 L15.2,23.56 C15.2,21.97168 13.90832,20.68 12.32,20.68 Z M15.2,40.84 L9.44,40.84 C8.64584,40.84 8,40.19416 8,39.4 L8,23.56 C8,21.17824 9.93752,19.24 12.32,19.24 C14.70176,19.24 16.64,21.17824 16.64,23.56 L16.64,39.4 C16.64,40.19416 15.99344,40.84 15.2,40.84 L15.2,40.84 Z" id="Fill-633"></path>
            </g>
        </g>
    </g>
</svg>