<?xml version="1.0" encoding="UTF-8"?>
<svg width="48px" height="48px" viewBox="0 0 48 48" version="1.1" xmlns="http://www.w3.org/2000/svg" xmlns:xlink="http://www.w3.org/1999/xlink">
    <!-- Generator: Sketch 61.2 (89653) - https://sketch.com -->
    <title>ic_donate_indus</title>
    <desc>Created with Sketch.</desc>
    <g id="Flower-Based-Infusions" stroke="none" stroke-width="1" fill="none" fill-rule="evenodd">
        <g id="Artboard" transform="translate(-192.000000, -3405.000000)" fill="#0FAD69">
            <g id="ic_donate_indus" transform="translate(192.000000, 3405.000000)">
                <g id="Group">
                    <rect id="Rectangle-Copy-4" fill-opacity="0.2" x="0" y="0" width="48" height="48" rx="5.05263158"></rect>
                    <path d="M24.12,13.16 C17.59136,13.16 12.28,18.47136 12.28,25 C12.28,31.52928 17.59136,36.84 24.12,36.84 C30.64864,36.84 35.96,31.52928 35.96,25 C35.96,18.47136 30.64864,13.16 24.12,13.16 Z M24.12,38.12 C16.88544,38.12 11,32.23456 11,25 C11,17.76608 16.88544,11.88 24.12,11.88 C31.35456,11.88 37.24,17.76608 37.24,25 C37.24,32.23456 31.35456,38.12 24.12,38.12 L24.12,38.12 Z" id="Fill-141"></path>
                    <path d="M24.12,15.1888 C23.94656,15.1888 23.78656,15.1248 23.6656,15.0032 C23.54976,14.88864 23.48,14.7216 23.48,14.5488 C23.48,14.38304 23.54976,14.216 23.6656,14.1008 C23.9024,13.864 24.3312,13.8576 24.5744,14.1008 C24.6896,14.216 24.76,14.38304 24.76,14.5488 C24.76,14.7216 24.6896,14.8816 24.5744,15.0032 C24.4528,15.1248 24.2928,15.1888 24.12,15.1888" id="Fill-142"></path>
                    <path d="M24.12,36.09184 C23.9536,36.09184 23.78656,36.0208 23.6656,35.89984 C23.54976,35.784 23.48,35.6176 23.48,35.4448 C23.48,35.2784 23.54976,35.112 23.6656,34.99744 C23.9088,34.76 24.3312,34.75424 24.5744,34.99744 C24.6896,35.112 24.76,35.2784 24.76,35.4448 C24.76,35.6176 24.6896,35.784 24.5744,35.89984 C24.4528,36.0208 24.2864,36.09184 24.12,36.09184" id="Fill-143"></path>
                    <path d="M34.56416,25.64 C34.3984,25.64 34.232,25.5696 34.1168,25.4544 C33.9952,25.3328 33.92416,25.1664 33.92416,25 C33.92416,24.8272 33.9952,24.6672 34.1168,24.54624 C34.3536,24.3088 34.7824,24.3088 35.0192,24.54624 C35.1408,24.6672 35.2112,24.83424 35.2112,25 C35.2112,25.1664 35.1408,25.3328 35.0192,25.4544 C34.904,25.5696 34.7376,25.64 34.56416,25.64" id="Fill-144"></path>
                    <path d="M13.6688,25.64 C13.5024,25.64 13.33536,25.5696 13.2208,25.4544 C13.0992,25.3328 13.0288,25.1728 13.0288,25 C13.0288,24.8272 13.0992,24.6672 13.2208,24.54624 C13.4512,24.3088 13.8864,24.3088 14.1232,24.54624 C14.24416,24.6672 14.3152,24.83424 14.3152,25 C14.3152,25.1664 14.24416,25.3328 14.1232,25.4544 C14.00096,25.5696 13.84096,25.64 13.6688,25.64" id="Fill-145"></path>
                    <path d="M31.512,18.2544 C31.3392,18.2544 31.1728,18.184 31.0576,18.06304 C30.93536,17.9472 30.8656,17.7808 30.8656,17.6144 C30.8656,17.4416 30.93536,17.2816 31.0512,17.16 C31.2944,16.9232 31.7232,16.9232 31.96,17.16 C32.08096,17.2816 32.1456,17.4416 32.1456,17.6144 C32.1456,17.7808 32.08096,17.9472 31.96,18.06304 C31.8384,18.184 31.6784,18.2544 31.512,18.2544" id="Fill-146"></path>
                    <path d="M16.7344,33.032 C16.56096,33.032 16.3952,32.9616 16.28,32.84 C16.1584,32.7248 16.0944,32.5584 16.0944,32.38624 C16.0944,32.21984 16.1584,32.0528 16.28,31.9376 C16.5168,31.7008 16.9456,31.7008 17.1824,31.9376 C17.304,32.0528 17.3744,32.21984 17.3744,32.38624 C17.3744,32.5584 17.304,32.7184 17.1824,32.84 C17.06656,32.9616 16.9008,33.032 16.7344,33.032" id="Fill-147"></path>
                    <path d="M31.5056,33.032 C31.3392,33.032 31.1728,32.9616 31.0576,32.84 C30.93536,32.7184 30.8656,32.5584 30.8656,32.38624 C30.8656,32.21984 30.93536,32.0528 31.0512,31.9376 C31.2944,31.6944 31.7232,31.7008 31.96,31.9376 C32.08096,32.0528 32.1456,32.21984 32.1456,32.38624 C32.1456,32.5584 32.08096,32.7184 31.96,32.84 C31.8384,32.9616 31.6784,33.032 31.5056,33.032" id="Fill-148"></path>
                    <path d="M16.7344,18.2544 C16.56096,18.2544 16.3952,18.184 16.28,18.06304 C16.1584,17.9472 16.0944,17.7808 16.0944,17.6144 C16.0944,17.4416 16.1584,17.2816 16.28,17.16 C16.5168,16.9232 16.9456,16.9232 17.1824,17.16 C17.304,17.2816 17.3744,17.4416 17.3744,17.6144 C17.3744,17.7808 17.304,17.9472 17.1824,18.06304 C17.06656,18.184 16.9008,18.2544 16.7344,18.2544" id="Fill-149"></path>
                    <path d="M29.92416,31.1472 C29.76608,31.1472 29.60736,31.08896 29.48384,30.97184 L23.67968,25.46464 C23.55168,25.34432 23.48,25.176 23.48,25 L23.48,18.6 C23.48,18.24672 23.76608,17.96 24.12,17.96 C24.47392,17.96 24.76,18.24672 24.76,18.6 L24.76,24.72544 L30.36512,30.04256 C30.62112,30.28576 30.632,30.69152 30.3888,30.94752 C30.26336,31.08 30.09376,31.1472 29.92416,31.1472" id="Fill-150"></path>
                    <path d="M26.04,10.92 C25.68608,10.92 25.4,10.63392 25.4,10.28 L22.84,10.28 C22.84,10.63392 22.55392,10.92 22.2,10.92 C21.84608,10.92 21.56,10.63392 21.56,10.28 C21.56,9.57472 22.13408,9 22.84,9 L25.4,9 C26.10592,9 26.68,9.57472 26.68,10.28 C26.68,10.63392 26.39392,10.92 26.04,10.92" id="Fill-151"></path>
                    <path d="M24.12,12.84 C23.76608,12.84 23.48,12.55392 23.48,12.2 L23.48,9.64 C23.48,9.28672 23.76608,9 24.12,9 C24.47392,9 24.76,9.28672 24.76,9.64 L24.76,12.2 C24.76,12.55392 24.47392,12.84 24.12,12.84" id="Fill-152"></path>
                    <path d="M33.13312,15.93312 C32.96928,15.93312 32.80544,15.87104 32.68064,15.74624 C32.4304,15.496 32.4304,15.09024 32.68064,14.84064 L33.3744,14.14752 C33.62464,13.89792 34.02912,13.89792 34.27936,14.14752 C34.5296,14.39776 34.5296,14.80352 34.27936,15.05312 L33.5856,15.74624 C33.4608,15.87104 33.29696,15.93312 33.13312,15.93312" id="Fill-153"></path>
                </g>
            </g>
        </g>
    </g>
</svg>