<?xml version="1.0" encoding="UTF-8"?>
<svg width="48px" height="48px" viewBox="0 0 48 48" version="1.1" xmlns="http://www.w3.org/2000/svg" xmlns:xlink="http://www.w3.org/1999/xlink">
    <!-- Generator: Sketch 61.2 (89653) - https://sketch.com -->
    <title>Group 6</title>
    <desc>Created with Sketch.</desc>
    <g id="Flower-Based-Infusions" stroke="none" stroke-width="1" fill="none" fill-rule="evenodd">
        <g id="Artboard" transform="translate(-1000.000000, -2807.000000)" fill="#540D6E">
            <g id="Group-6" transform="translate(1000.000000, 2807.000000)">
                <path d="M17.8666667,26.9333333 C14.1909333,26.9333333 11.2,23.9424 11.2,20.2666667 C11.2,19.6778667 11.6778667,19.2 12.2666667,19.2 C12.8554667,19.2 13.3333333,19.6778667 13.3333333,20.2666667 C13.3333333,22.7658667 15.3674667,24.8 17.8666667,24.8 C20.3658667,24.8 22.4,22.7658667 22.4,20.2666667 C22.4,19.6778667 22.8778667,19.2 23.4666667,19.2 C24.0554667,19.2 24.5333333,19.6778667 24.5333333,20.2666667 C24.5333333,23.9424 21.5424,26.9333333 17.8666667,26.9333333" id="Fill-1085"></path>
                <path d="M40.2666667,26.9333333 C36.5909333,26.9333333 33.6,23.9424 33.6,20.2666667 C33.6,19.6778667 34.0778667,19.2 34.6666667,19.2 C35.2554667,19.2 35.7333333,19.6778667 35.7333333,20.2666667 C35.7333333,22.7658667 37.7674667,24.8 40.2666667,24.8 C42.7114667,24.8 44.7104,22.8544 44.7968,20.4309333 L41.0741333,9.26293333 C40.9290667,8.82666667 40.5226667,8.53333333 40.0629333,8.53333333 L6.8704,8.53333333 C6.41066667,8.53333333 6.00426667,8.82666667 5.8592,9.26293333 L2.13653333,20.4309333 C2.22293333,22.8544 4.22186667,24.8 6.66666667,24.8 C9.16586667,24.8 11.2,22.7658667 11.2,20.2666667 C11.2,19.6778667 11.6778667,19.2 12.2666667,19.2 C12.8554667,19.2 13.3333333,19.6778667 13.3333333,20.2666667 C13.3333333,23.9424 10.3424,26.9333333 6.66666667,26.9333333 C2.99093333,26.9333333 0,23.9424 0,20.2666667 C0,20.1514667 0.0181333333,20.0373333 0.0544,19.9285333 L3.83466667,8.58773333 C4.27093333,7.27893333 5.4912,6.4 6.8704,6.4 L40.0629333,6.4 C41.4421333,6.4 42.6624,7.27893333 43.0986667,8.58773333 L46.8789333,19.9285333 C46.9152,20.0373333 46.9333333,20.1514667 46.9333333,20.2666667 C46.9333333,23.9424 43.9424,26.9333333 40.2666667,26.9333333" id="Fill-1086"></path>
                <path d="M29.0666667,26.9333333 C25.3909333,26.9333333 22.4,23.9424 22.4,20.2666667 C22.4,19.6778667 22.8778667,19.2 23.4666667,19.2 C24.0554667,19.2 24.5333333,19.6778667 24.5333333,20.2666667 C24.5333333,22.7658667 26.5674667,24.8 29.0666667,24.8 C31.5658667,24.8 33.6,22.7658667 33.6,20.2666667 C33.6,19.6778667 34.0778667,19.2 34.6666667,19.2 C35.2554667,19.2 35.7333333,19.6778667 35.7333333,20.2666667 C35.7333333,23.9424 32.7424,26.9333333 29.0666667,26.9333333" id="Fill-1087"></path>
                <path d="M42.6666667,28.8 C42.0778667,28.8 41.6,28.3221333 41.6,27.7333333 L41.6,25.6 C41.6,25.0112 42.0778667,24.5333333 42.6666667,24.5333333 C43.2554667,24.5333333 43.7333333,25.0112 43.7333333,25.6 L43.7333333,27.7333333 C43.7333333,28.3221333 43.2554667,28.8 42.6666667,28.8" id="Fill-1088"></path>
                <path d="M32,46.9333333 L6.4,46.9333333 C4.63573333,46.9333333 3.2,45.4976 3.2,43.7333333 L3.2,25.6 C3.2,25.0112 3.67786667,24.5333333 4.26666667,24.5333333 C4.85546667,24.5333333 5.33333333,25.0112 5.33333333,25.6 L5.33333333,43.7333333 C5.33333333,44.3210667 5.81226667,44.8 6.4,44.8 L32,44.8 C32.5888,44.8 33.0666667,45.2778667 33.0666667,45.8666667 C33.0666667,46.4554667 32.5888,46.9333333 32,46.9333333" id="Fill-1089"></path>
                <path d="M39.4666667,7.46666667 C38.8778667,7.46666667 38.4,6.9888 38.4,6.4 L38.4,3.2 C38.4,2.61226667 37.9210667,2.13333333 37.3333333,2.13333333 L9.6,2.13333333 C9.01226667,2.13333333 8.53333333,2.61226667 8.53333333,3.2 L8.53333333,6.4 C8.53333333,6.9888 8.05546667,7.46666667 7.46666667,7.46666667 C6.87786667,7.46666667 6.4,6.9888 6.4,6.4 L6.4,3.2 C6.4,1.43573333 7.83573333,0 9.6,0 L37.3333333,0 C39.0976,0 40.5333333,1.43573333 40.5333333,3.2 L40.5333333,6.4 C40.5333333,6.9888 40.0554667,7.46666667 39.4666667,7.46666667" id="Fill-1090"></path>
                <path d="M23.4666667,45.8666667 C22.8778667,45.8666667 22.4,45.3888 22.4,44.8 L22.4,30.9333333 C22.4,30.3445333 22.8778667,29.8666667 23.4666667,29.8666667 L26.6666667,29.8666667 C27.2554667,29.8666667 27.7333333,30.3445333 27.7333333,30.9333333 C27.7333333,31.5221333 27.2554667,32 26.6666667,32 L24.5333333,32 L24.5333333,44.8 C24.5333333,45.3888 24.0554667,45.8666667 23.4666667,45.8666667" id="Fill-1091"></path>
                <path d="M19.2,38.4 L8.53333333,38.4 C7.94453333,38.4 7.46666667,37.9221333 7.46666667,37.3333333 L7.46666667,30.9333333 C7.46666667,30.3445333 7.94453333,29.8666667 8.53333333,29.8666667 C9.12213333,29.8666667 9.6,30.3445333 9.6,30.9333333 L9.6,36.2666667 L18.1333333,36.2666667 L18.1333333,30.9333333 C18.1333333,30.3445333 18.6112,29.8666667 19.2,29.8666667 C19.7888,29.8666667 20.2666667,30.3445333 20.2666667,30.9333333 L20.2666667,37.3333333 C20.2666667,37.9221333 19.7888,38.4 19.2,38.4" id="Fill-1092"></path>
                <path d="M32.5333333,41.0666667 C32.2602667,41.0666667 31.9872,40.9621333 31.7792,40.7541333 C31.3621333,40.3370667 31.3621333,39.6618667 31.7792,39.2458667 L39.2458667,31.7792 C39.6629333,31.3621333 40.3370667,31.3621333 40.7541333,31.7792 C41.1712,32.1952 41.1712,32.8704 40.7541333,33.2874667 L33.2874667,40.7541333 C33.0794667,40.9621333 32.8064,41.0666667 32.5333333,41.0666667" id="Fill-1093"></path>
                <path d="M40,41.0666667 C39.7269333,41.0666667 39.4538667,40.9621333 39.2458667,40.7541333 L31.7792,33.2874667 C31.3621333,32.8704 31.3621333,32.1952 31.7792,31.7792 C32.1962667,31.3621333 32.8704,31.3621333 33.2874667,31.7792 L40.7541333,39.2458667 C41.1712,39.6618667 41.1712,40.3370667 40.7541333,40.7541333 C40.5461333,40.9621333 40.2730667,41.0666667 40,41.0666667" id="Fill-1094"></path>
                <path d="M36.2666667,27.2 C33.8442667,27.2 31.568,28.1429333 29.856,29.856 C28.1429333,31.568 27.2,33.8442667 27.2,36.2666667 C27.2,38.688 28.1429333,40.9653333 29.856,42.6773333 C31.568,44.3904 33.8442667,45.3333333 36.2666667,45.3333333 C38.688,45.3333333 40.9653333,44.3904 42.6773333,42.6773333 C44.3904,40.9653333 45.3333333,38.688 45.3333333,36.2666667 C45.3333333,33.8442667 44.3904,31.568 42.6773333,29.856 C40.9653333,28.1429333 38.688,27.2 36.2666667,27.2 Z M36.2666667,47.4666667 C33.2746667,47.4666667 30.4629333,46.3018667 28.3477333,44.1856 C26.2314667,42.0704 25.0666667,39.2586667 25.0666667,36.2666667 C25.0666667,33.2746667 26.2314667,30.4618667 28.3477333,28.3477333 C30.4629333,26.2314667 33.2746667,25.0666667 36.2666667,25.0666667 C39.2586667,25.0666667 42.0704,26.2314667 44.1856,28.3477333 C46.3018667,30.4618667 47.4666667,33.2746667 47.4666667,36.2666667 C47.4666667,39.2586667 46.3018667,42.0704 44.1856,44.1856 C42.0704,46.3018667 39.2586667,47.4666667 36.2666667,47.4666667 L36.2666667,47.4666667 Z" id="Fill-1095"></path>
            </g>
        </g>
    </g>
</svg>