<?xml version="1.0" encoding="UTF-8"?>
<svg width="35px" height="48px" viewBox="0 0 35 48" version="1.1" xmlns="http://www.w3.org/2000/svg" xmlns:xlink="http://www.w3.org/1999/xlink">
    <!-- Generator: Sketch 61.2 (89653) - https://sketch.com -->
    <title>Group</title>
    <desc>Created with Sketch.</desc>
    <g id="Flower-Based-Infusions" stroke="none" stroke-width="1" fill="none" fill-rule="evenodd">
        <g id="Artboard" transform="translate(-313.000000, -2807.000000)" fill="#540D6E">
            <g id="Group" transform="translate(313.000000, 2807.000000)">
                <path d="M31.6548932,31.6059785 C31.6548932,36.3681913 29.2640847,40.6412126 25.2586379,43.0381487 C24.8654464,43.2750849 24.6765102,43.7438509 24.7990634,44.1870849 C24.9216166,44.6303189 25.3250208,44.9356806 25.783574,44.9356806 L26.5485102,44.9356806 L26.5485102,45.9569572 L10.2080847,45.9569572 L10.2080847,44.9356806 L11.0802549,44.9356806 C11.5398294,44.9356806 11.9422123,44.6303189 12.0647655,44.1870849 C12.1873187,43.7438509 11.9994038,43.2750849 11.6051911,43.0381487 C7.53336127,40.6013828 5.1017017,36.3273402 5.1017017,31.6059785 L5.1017017,25.5314253 L31.6548932,25.5314253 L31.6548932,31.6059785 Z M3.5697868,5.61142532 C6.32416978,8.05431894 10.5716591,11.9412977 15.1714889,16.5707445 C8.97540382,14.4403615 5.39174425,9.24512745 3.5697868,5.61142532 Z M16.382723,14.8917657 C11.7655315,10.2592551 7.52212723,6.3845317 4.79225489,3.96614872 C11.8870634,6.27117 15.0305528,11.3795955 16.382723,14.8917657 Z M30.7500421,3.86197851 C27.8291911,8.14827638 23.5541272,13.1780636 20.9457868,16.1469147 C22.4102974,12.1649572 25.2504677,7.48648915 30.7500421,3.86197851 Z M22.22034,17.7952551 C24.62034,15.0796806 28.6237443,10.4063189 31.6691911,6.12002106 C30.446723,10.3481062 27.806723,15.9252977 22.22034,17.7952551 Z M32.6761698,23.4888721 L19.4138719,23.4888721 C19.447574,22.7739785 19.5374464,21.7098083 19.7805102,20.3933828 C33.0009357,19.0228296 34.6380421,2.02265936 34.7136166,1.12904234 C34.7248506,1.01976574 34.718723,0.909467873 34.6962549,0.804276383 L34.6584677,0.677638085 C34.5788081,0.452957234 34.4205102,0.254829575 34.1968506,0.13023383 L34.1406804,0.100616809 C33.9292762,-0.00151085076 33.6954038,-0.0229576593 33.4839996,0.0229997875 L33.3308081,0.0689572343 L33.241957,0.107765745 C24.6111485,4.28682957 20.665957,10.7412977 18.8623825,15.9712551 C17.5929357,11.706404 13.4945528,2.81823383 1.16365914,1.03202106 L0.925701697,1.02487213 C0.806212335,1.03508489 0.691829357,1.07287213 0.583574037,1.12393596 L0.521276165,1.15661681 C0.422212335,1.21278702 0.328254888,1.27917 0.251659144,1.36597851 L0.242467654,1.37925511 L0.232254888,1.38742532 L0.214893186,1.41908489 C0.147488931,1.50691468 0.0964251012,1.60291468 0.0606804203,1.70504234 L0.0371910586,1.76938277 C0.00655276076,1.87968064 -0.00570255838,1.99202106 0.00246765438,2.10742532 L0.0116591437,2.1778934 L0.0310633991,2.31168064 C0.0729357395,2.4618083 4.28161659,17.274404 17.9268932,19.3424891 C17.5510634,21.1174679 17.4172762,22.5717657 17.3743825,23.4888721 L4.0804251,23.4888721 C3.51565914,23.4888721 3.05914851,23.946404 3.05914851,24.5101487 L3.05914851,31.6059785 C3.05914851,36.1629147 5.02102085,40.3572977 8.41063787,43.2515955 C8.25846765,43.4303189 8.16553148,43.6611274 8.16553148,43.914404 L8.16553148,46.9782338 C8.16553148,47.5429998 8.62204212,47.9995104 9.18680808,47.9995104 L27.5697868,47.9995104 C28.1345528,47.9995104 28.5910634,47.5429998 28.5910634,46.9782338 L28.5910634,43.914404 C28.5910634,43.6846168 28.5144677,43.47117 28.3857868,43.2995955 C31.7498719,40.4277657 33.6974464,36.2129572 33.6974464,31.6059785 L33.6974464,24.5101487 C33.6974464,23.946404 33.2409357,23.4888721 32.6761698,23.4888721 L32.6761698,23.4888721 Z" id="Fill-146"></path>
                <path d="M9.12348893,27.9273402 C9.31855276,27.3993402 9.04791446,26.8121062 8.51991446,26.6170423 C7.99191446,26.4189147 7.40365914,26.6905743 7.20757404,27.2206168 C7.18102085,27.2921062 4.60433999,34.5012977 10.567574,39.5852126 C10.7585528,39.7496381 10.9954889,39.8292977 11.2293613,39.8292977 C11.5173613,39.8292977 11.80434,39.7077657 12.0065528,39.4708296 C12.3721698,39.0418934 12.321106,38.3974679 11.8911485,38.0318509 C7.04008468,33.8946594 9.02953148,28.188787 9.12348893,27.9273402" id="Fill-147"></path>
            </g>
        </g>
    </g>
</svg>