<?xml version="1.0" encoding="UTF-8"?>
<svg width="48px" height="44px" viewBox="0 0 48 44" version="1.1" xmlns="http://www.w3.org/2000/svg" xmlns:xlink="http://www.w3.org/1999/xlink">
    <!-- Generator: Sketch 61.2 (89653) - https://sketch.com -->
    <title>Group</title>
    <desc>Created with Sketch.</desc>
    <g id="Flower-Based-Infusions" stroke="none" stroke-width="1" fill="none" fill-rule="evenodd">
        <g id="Artboard" transform="translate(-650.000000, -2807.000000)" fill="#540D6E">
            <g id="Group" transform="translate(650.000000, 2807.000000)">
                <path d="M2,41.203 L46,41.203 L46,11.203 L2,11.203 L2,41.203 Z M0,43.203 L48,43.203 L48,9.203 L0,9.203 L0,43.203 Z" id="Fill-852"></path>
                <path d="M6,37.203 L42,37.203 L42,15.203 L6,15.203 L6,37.203 Z M4,39.203 L44,39.203 L44,13.203 L4,13.203 L4,39.203 Z" id="Fill-853"></path>
                <path d="M5,21.203 C4.447,21.203 4,20.756 4,20.203 C4,19.651 4.447,19.203 5,19.203 C7.757,19.203 10,16.96 10,14.203 C10,13.651 10.447,13.203 11,13.203 C11.553,13.203 12,13.651 12,14.203 C12,18.063 8.859,21.203 5,21.203" id="Fill-854"></path>
                <path d="M42,21.203 C38.141,21.203 35,18.063 35,14.203 C35,13.651 35.447,13.203 36,13.203 C36.553,13.203 37,13.651 37,14.203 C37,16.96 39.243,19.203 42,19.203 C42.553,19.203 43,19.651 43,20.203 C43,20.756 42.553,21.203 42,21.203" id="Fill-855"></path>
                <path d="M36,39.203 C35.447,39.203 35,38.756 35,38.203 C35,34.344 38.141,31.203 42,31.203 C42.553,31.203 43,31.651 43,32.203 C43,32.756 42.553,33.203 42,33.203 C39.243,33.203 37,35.447 37,38.203 C37,38.756 36.553,39.203 36,39.203" id="Fill-856"></path>
                <path d="M11,39.203 C10.447,39.203 10,38.756 10,38.203 C10,35.447 7.757,33.203 5,33.203 C4.447,33.203 4,32.756 4,32.203 C4,31.651 4.447,31.203 5,31.203 C8.859,31.203 12,34.344 12,38.203 C12,38.756 11.553,39.203 11,39.203" id="Fill-857"></path>
                <polyline id="Fill-858" points="19.359 11.137 18.641 9.27 42.727 0 46.223 9.598 44.344 10.282 41.545 2.598 19.359 11.137"></polyline>
                <path d="M29.917,11.037 C29.51,11.037 29.127,10.786 28.979,10.382 C28.788,9.864 29.054,9.289 29.572,9.098 L40.343,5.141 L41.951,9.558 C42.141,10.077 41.873,10.651 41.354,10.84 C40.837,11.032 40.261,10.761 40.072,10.243 L39.149,7.71 L30.262,10.975 C30.148,11.017 30.031,11.037 29.917,11.037" id="Fill-859"></path>
                <path d="M23.849,32.203 C21.655,32.203 20.458,30.904 20.13,30.166 C19.906,29.661 20.133,29.113 20.638,28.889 C21.143,28.665 21.733,28.829 21.958,29.332 C21.97,29.353 22.46,30.203 23.85,30.203 L23.878,30.203 C24.504,30.203 25.099,29.751 25.204,29.103 C25.354,28.175 24.478,27.332 22.858,26.775 C21.056,26.155 20.08,24.684 20.372,22.991 C20.664,21.306 22.134,20.145 23.852,20.127 C25.654,20.147 26.722,21.375 27.068,22.095 C27.308,22.592 27.099,23.192 26.601,23.432 C26.106,23.669 25.514,23.466 25.271,22.977 C25.223,22.883 24.805,22.148 23.83,22.137 C22.959,22.153 22.445,22.761 22.343,23.353 C22.222,24.056 22.646,24.63 23.509,24.926 C27.388,26.259 27.298,28.686 27.178,29.423 C26.915,31.042 25.504,32.203 23.896,32.203 L23.849,32.203" id="Fill-860"></path>
                <path d="M23.812,34.203 C23.261,34.203 22.814,33.704 22.812,33.153 L22.750985,19.368 C22.748,18.816 23.194,18.203 23.746,18.203 L23.751,18.203 C24.302,18.203 24.748,18.781 24.751,19.332 L24.8120067,33.078 C24.814,33.63 24.368,34.203 23.816,34.203 L23.812,34.203" id="Fill-861"></path>
            </g>
        </g>
    </g>
</svg>