<?xml version="1.0" encoding="UTF-8"?>
<svg width="48px" height="48px" viewBox="0 0 48 48" version="1.1" xmlns="http://www.w3.org/2000/svg" xmlns:xlink="http://www.w3.org/1999/xlink">
    <!-- Generator: Sketch 61.2 (89653) - https://sketch.com -->
    <title>ic_donate_inter</title>
    <desc>Created with Sketch.</desc>
    <g id="Flower-Based-Infusions" stroke="none" stroke-width="1" fill="none" fill-rule="evenodd">
        <g id="Artboard" transform="translate(-176.000000, -9977.000000)" fill="#3BCEAC">
            <g id="ic_donate_inter" transform="translate(176.000000, 9977.000000)">
                <g id="Group-10">
                    <g id="Group">
                        <rect id="Rectangle-Copy-4" fill-opacity="0.2" x="0" y="0" width="48" height="48" rx="5.05263158"></rect>
                        <path d="M19.263468,19.98576 C19.267068,19.98576 19.123068,20.06424 19.058268,20.27016 C18.954588,20.59992 19.081308,21.11976 19.413228,21.73464 C19.599708,21.85272 19.846668,22.0104 19.988508,22.3524 L20.015148,22.42944 C20.266428,23.30136 21.956988,26.54712 24.224988,26.54712 C26.493708,26.54712 28.184268,23.30136 28.435548,22.42944 C28.524108,22.08024 28.797708,21.90672 28.929468,21.82392 C29.001468,21.77784 29.002188,21.7764 29.010828,21.75984 C29.508348,20.78856 29.435628,20.33784 29.381628,20.1888 C29.331228,20.05056 29.239068,20.00592 29.221068,19.998 C28.902828,19.90296 28.721388,19.61208 28.739388,19.28016 C28.740108,19.26648 28.804188,17.96616 28.489548,16.77816 C28.460028,16.67376 27.673788,14.03856 24.224988,14.03856 C20.776908,14.03856 19.990668,16.67376 19.958988,16.78608 C19.646508,17.96616 19.710588,19.26648 19.711308,19.28016 C19.727868,19.58616 19.547868,19.86984 19.263468,19.98576 Z M24.224988,27.98712 C20.995068,27.98712 19.069068,24.084 18.678828,22.97448 C18.512508,22.86504 18.305148,22.71168 18.146748,22.41936 C17.592348,21.3948 17.446188,20.49984 17.711148,19.7604 C17.846508,19.3824 18.065388,19.1196 18.264828,18.94536 C18.266268,18.39816 18.309468,17.39016 18.568668,16.40952 C18.924348,15.08904 20.563068,12.59856 24.224988,12.59856 C27.887628,12.59856 29.525628,15.08904 29.880588,16.40664 C30.136908,17.37216 30.182988,18.36432 30.185148,18.918 C30.383148,19.08 30.571068,19.30608 30.696348,19.60056 C31.009548,20.33424 30.873468,21.28104 30.292428,22.41648 C30.128268,22.73616 29.907948,22.90392 29.760348,23.00184 C29.331948,24.18408 27.413148,27.98712 24.224988,27.98712 L24.224988,27.98712 Z" id="Fill-337"></path>
                        <path d="M33.808188,38.45664 L15.264588,38.45664 C14.715948,38.45664 14.188908,38.21832 13.781388,37.78632 C13.322028,37.29888 13.070028,36.62064 13.108908,35.97048 C13.286748,32.93928 14.041308,29.25144 18.335388,27.6264 C20.133228,26.94672 21.101628,26.03304 21.110988,26.02368 C21.397548,25.74936 21.854028,25.758 22.128348,26.04312 C22.403388,26.32896 22.396908,26.78256 22.111788,27.05832 C22.064988,27.10368 20.941068,28.1808 18.845148,28.97352 C16.061628,30.02616 14.775708,32.14512 14.546028,36.05544 C14.530908,36.30888 14.642508,36.60048 14.828988,36.7992 C14.906028,36.87984 15.064428,37.01664 15.264588,37.01664 L33.808188,37.01664 C34.013388,37.01664 34.177548,36.8748 34.256748,36.79056 C34.438908,36.59688 34.543308,36.32976 34.528908,36.09288 C34.288428,32.1408 32.962188,29.91744 30.229788,28.88352 C28.154028,28.098 26.970348,27.08424 26.920668,27.04104 C26.620428,26.7804 26.588028,26.32608 26.848668,26.02512 C27.108588,25.72632 27.562908,25.6932 27.863148,25.95168 C27.889068,25.97472 28.933788,26.85312 30.739548,27.5364 C35.061708,29.17224 35.792508,33.15312 35.966028,36.00576 C36.004188,36.63432 35.757948,37.29672 35.305788,37.77696 C34.893228,38.21616 34.361148,38.45664 33.808188,38.45664" id="Fill-338"></path>
                        <path d="M14.385468,33.41664 L10.166988,33.41664 C9.03442799,33.41664 8.02498799,32.33664 8.00698799,31.10616 C7.97170799,28.74672 7.92346799,25.51536 11.855388,24.0264 C12.910188,23.62752 13.898028,23.10552 14.566188,22.72176 C13.438668,21.6612 12.470988,20.10312 12.199548,19.39176 C12.026748,19.27512 11.825148,19.12464 11.666748,18.83088 C11.113068,17.80704 10.966188,16.91208 11.230428,16.1712 C11.365788,15.79176 11.584668,15.52752 11.784828,15.35256 C11.786268,14.80464 11.828748,13.79376 12.088668,12.8124 C12.444348,11.49192 14.083068,9 17.744988,9 C21.413388,9 23.049948,11.61432 23.403468,12.99672 C23.501388,13.38192 23.268828,13.7736 22.883628,13.87224 C22.498428,13.97304 22.106028,13.7376 22.008108,13.3524 C21.977148,13.2372 21.190188,10.44 17.744988,10.44 C14.296908,10.44 13.510668,13.07592 13.478988,13.18824 C13.166508,14.36904 13.230588,15.67296 13.231308,15.68592 C13.247868,15.99048 13.068588,16.27416 12.785628,16.39008 C12.789228,16.39008 12.643788,16.47 12.578988,16.67808 C12.474588,17.01 12.601308,17.53128 12.933228,18.14616 L12.998028,18.19296 C13.128348,18.27936 13.369548,18.4392 13.508508,18.77544 L13.535148,18.85176 C13.678428,19.34928 14.988828,21.44016 16.202028,22.18392 C16.411548,22.3128 16.540428,22.53888 16.545468,22.7844 C16.549068,23.03064 16.428828,23.26104 16.223628,23.39712 C16.150188,23.44608 14.398428,24.60384 12.365148,25.37352 C9.58594799,26.42544 9.40522799,28.31688 9.44698799,31.08456 C9.45346799,31.51872 9.82354799,31.97664 10.166988,31.97664 L14.385468,31.97664 C14.782908,31.97664 15.105468,32.2992 15.105468,32.69664 C15.105468,33.0948 14.782908,33.41664 14.385468,33.41664" id="Fill-339"></path>
                        <path d="M38.540028,33.41664 L34.545468,33.41664 C34.147308,33.41664 33.825468,33.0948 33.825468,32.69664 C33.825468,32.2992 34.147308,31.97664 34.545468,31.97664 L38.540028,31.97664 C38.883468,31.97664 39.254268,31.51872 39.260028,31.08456 C39.301788,28.31688 39.121068,26.42544 36.341868,25.37352 C34.297068,24.59952 32.535228,23.34528 32.461068,23.292 C32.252268,23.14224 32.138508,22.8924 32.163708,22.6368 C32.188908,22.38048 32.348028,22.158 32.582748,22.05144 C33.803148,21.49704 35.028588,19.34928 35.171868,18.85176 L35.198508,18.77544 C35.337468,18.43992 35.579388,18.27936 35.708268,18.19296 L35.773068,18.1476 C36.106428,17.53128 36.231708,17.00928 36.128028,16.67808 C36.062508,16.46784 35.915628,16.38864 35.899068,16.38 C35.644188,16.25184 35.460588,15.97032 35.475708,15.68592 C35.476428,15.67296 35.540508,14.36904 35.225868,13.18104 C35.196348,13.07592 34.410828,10.44 30.962028,10.44 C27.535548,10.44 26.842188,13.21776 26.814828,13.33584 C26.723388,13.72032 26.336748,13.96512 25.952988,13.8744 C25.566348,13.78584 25.323708,13.40496 25.410108,13.0176 C25.720428,11.62872 27.279948,9 30.962028,9 C34.623948,9 36.262668,11.49192 36.617628,12.80952 C36.877548,13.79304 36.920748,14.80464 36.922188,15.35256 C37.122348,15.52752 37.341228,15.79176 37.476588,16.1712 C37.740828,16.91208 37.593948,17.80704 37.039548,18.83088 C36.867468,19.15056 36.644268,19.30032 36.508908,19.39032 C36.256188,20.07216 35.366268,21.67704 34.186188,22.69656 C34.851468,23.10048 35.822748,23.63688 36.850908,24.0264 C40.784268,25.51536 40.735308,28.74672 40.700028,31.10616 C40.682028,32.33664 39.672588,33.41664 38.540028,33.41664" id="Fill-340"></path>
                    </g>
                </g>
            </g>
        </g>
    </g>
</svg>