<?xml version="1.0" encoding="UTF-8"?>
<svg width="38px" height="37px" viewBox="0 0 38 37" version="1.1" xmlns="http://www.w3.org/2000/svg" xmlns:xlink="http://www.w3.org/1999/xlink">
    <!-- Generator: Sketch 61.2 (89653) - https://sketch.com -->
    <title>ic_donate_compet</title>
    <desc>Created with Sketch.</desc>
    <g id="Page-1" stroke="none" stroke-width="1" fill="none" fill-rule="evenodd">
        <g id="Artboard" transform="translate(-139.000000, -1594.000000)" fill="#FFD23E">
            <g id="ic_donate_compet" transform="translate(139.000000, 1594.000000)">
                <rect id="Rectangle-Copy-4" fill-opacity="0.2" x="0" y="0" width="38" height="37" rx="4"></rect>
                <path d="M10.0444444,8.02222222 C9.48068889,8.02222222 9.02222222,8.4812 9.02222222,9.04444444 L9.02222222,27.9555556 C9.02222222,28.5193111 9.48068889,28.9777778 10.0444444,28.9777778 L26.9111111,28.9777778 C27.4748667,28.9777778 27.9333333,28.5193111 27.9333333,27.9555556 L27.9333333,9.04444444 C27.9333333,8.4812 27.4748667,8.02222222 26.9111111,8.02222222 L10.0444444,8.02222222 Z M26.9111111,30 L10.0444444,30 C8.91693333,30 8,29.0835778 8,27.9555556 L8,9.04444444 C8,7.91693333 8.91693333,7 10.0444444,7 L26.9111111,7 C28.0386222,7 28.9555556,7.91693333 28.9555556,9.04444444 L28.9555556,27.9555556 C28.9555556,29.0835778 28.0386222,30 26.9111111,30 L26.9111111,30 Z" id="Fill-216"></path>
                <path d="M12.6,15.1777778 L16.6888889,15.1777778 L16.6888889,11.0888889 L12.6,11.0888889 L12.6,15.1777778 Z M17.2,16.2 L12.0888889,16.2 C11.8067556,16.2 11.5777778,15.9715333 11.5777778,15.6888889 L11.5777778,10.5777778 C11.5777778,10.2956444 11.8067556,10.0666667 12.0888889,10.0666667 L17.2,10.0666667 C17.4821333,10.0666667 17.7111111,10.2956444 17.7111111,10.5777778 L17.7111111,15.6888889 C17.7111111,15.9715333 17.4821333,16.2 17.2,16.2 L17.2,16.2 Z" id="Fill-217"></path>
                <path d="M24.8666667,11.6 L19.7555556,11.6 C19.4734222,11.6 19.2444444,11.3715333 19.2444444,11.0888889 C19.2444444,10.8067556 19.4734222,10.5777778 19.7555556,10.5777778 L24.8666667,10.5777778 C25.1488,10.5777778 25.3777778,10.8067556 25.3777778,11.0888889 C25.3777778,11.3715333 25.1488,11.6 24.8666667,11.6" id="Fill-218"></path>
                <path d="M24.8666667,13.6444444 L19.7555556,13.6444444 C19.4734222,13.6444444 19.2444444,13.4159778 19.2444444,13.1333333 C19.2444444,12.8512 19.4734222,12.6222222 19.7555556,12.6222222 L24.8666667,12.6222222 C25.1488,12.6222222 25.3777778,12.8512 25.3777778,13.1333333 C25.3777778,13.4159778 25.1488,13.6444444 24.8666667,13.6444444" id="Fill-219"></path>
                <path d="M24.8666667,15.6888889 L19.7555556,15.6888889 C19.4734222,15.6888889 19.2444444,15.4604222 19.2444444,15.1777778 C19.2444444,14.8956444 19.4734222,14.6666667 19.7555556,14.6666667 L24.8666667,14.6666667 C25.1488,14.6666667 25.3777778,14.8956444 25.3777778,15.1777778 C25.3777778,15.4604222 25.1488,15.6888889 24.8666667,15.6888889" id="Fill-220"></path>
                <path d="M23.8444444,19.2666667 L13.1111111,19.2666667 C12.8289778,19.2666667 12.6,19.0382 12.6,18.7555556 C12.6,18.4734222 12.8289778,18.2444444 13.1111111,18.2444444 L23.8444444,18.2444444 C24.1265778,18.2444444 24.3555556,18.4734222 24.3555556,18.7555556 C24.3555556,19.0382 24.1265778,19.2666667 23.8444444,19.2666667" id="Fill-221"></path>
                <path d="M23.8444444,21.8222222 L13.1111111,21.8222222 C12.8289778,21.8222222 12.6,21.5937556 12.6,21.3111111 C12.6,21.0289778 12.8289778,20.8 13.1111111,20.8 L23.8444444,20.8 C24.1265778,20.8 24.3555556,21.0289778 24.3555556,21.3111111 C24.3555556,21.5937556 24.1265778,21.8222222 23.8444444,21.8222222" id="Fill-222"></path>
                <path d="M23.8444444,24.3777778 L13.1111111,24.3777778 C12.8289778,24.3777778 12.6,24.1493111 12.6,23.8666667 C12.6,23.5845333 12.8289778,23.3555556 13.1111111,23.3555556 L23.8444444,23.3555556 C24.1265778,23.3555556 24.3555556,23.5845333 24.3555556,23.8666667 C24.3555556,24.1493111 24.1265778,24.3777778 23.8444444,24.3777778" id="Fill-223"></path>
                <path d="M23.8444444,26.9333333 L13.1111111,26.9333333 C12.8289778,26.9333333 12.6,26.7048667 12.6,26.4222222 C12.6,26.1400889 12.8289778,25.9111111 13.1111111,25.9111111 L23.8444444,25.9111111 C24.1265778,25.9111111 24.3555556,26.1400889 24.3555556,26.4222222 C24.3555556,26.7048667 24.1265778,26.9333333 23.8444444,26.9333333" id="Fill-224"></path>
            </g>
        </g>
    </g>
</svg>