<?xml version="1.0" encoding="UTF-8"?>
<svg width="48px" height="50px" viewBox="0 0 48 50" version="1.1" xmlns="http://www.w3.org/2000/svg" xmlns:xlink="http://www.w3.org/1999/xlink">
    <!-- Generator: Sketch 61.2 (89653) - https://sketch.com -->
    <title>Group</title>
    <desc>Created with Sketch.</desc>
    <g id="Page-1" stroke="none" stroke-width="1" fill="none" fill-rule="evenodd">
        <g id="Artboard" transform="translate(-301.000000, -10484.000000)" fill="#540D6E">
            <g id="Group" transform="translate(301.000000, 10484.000000)">
                <path d="M16.6772093,21.0664186 L16.6984186,21.0786977 C17.0533953,21.3030698 17.3893953,21.5151628 17.5222326,21.9728372 C17.8582326,23.1594419 20.0907907,27.544186 23.0701395,27.544186 C26.0461395,27.544186 28.2820465,23.1583256 28.6146977,21.9795349 C28.744186,21.5196279 29.0980465,21.2952558 29.4407442,21.0786977 L29.4608372,21.0664186 C30.2187907,19.6253023 30.0636279,19.0626977 30.0234419,18.9611163 L29.8794419,18.8215814 C29.3302326,18.7188837 28.9908837,18.2344186 29.019907,17.6751628 C29.0210233,17.6584186 29.108093,15.8868837 28.6872558,14.2727442 L28.6537674,14.0673488 C28.6213953,13.7235349 28.1882791,10.6057674 23.0701395,10.6057674 C17.8057674,10.6057674 17.4943256,13.9333953 17.4842791,14.0751628 L17.4507907,14.2727442 C17.0288372,15.8991628 17.1181395,17.6573023 17.1181395,17.6740465 C17.1482791,18.2333023 16.759814,18.7289302 16.2083721,18.8327442 L16.1146047,18.9611163 C16.0744186,19.0626977 15.9192558,19.6253023 16.6772093,21.0664186 Z M23.0701395,29.7767442 C18.7713488,29.7767442 16.1581395,24.7054884 15.504,22.9652093 C15.2316279,22.7933023 14.9972093,22.6448372 14.8386977,22.3568372 C13.8362791,20.5540465 13.5884651,19.0850233 14.1019535,17.9933023 C14.2950698,17.5813953 14.5774884,17.272186 14.8788837,17.0511628 C14.8889302,16.2786977 14.9603721,15.0117209 15.2751628,13.7693023 C15.4057674,12.9131163 16.4148837,8.3732093 23.0701395,8.3732093 C29.7477209,8.3732093 30.7367442,12.9053023 30.864,13.7726512 C31.1776744,15.0139535 31.2502326,16.2786977 31.2602791,17.0511628 C31.5605581,17.272186 31.8429767,17.5813953 32.036093,17.9933023 C32.5495814,19.0850233 32.3017674,20.5540465 31.3004651,22.3568372 C31.1408372,22.6448372 30.9064186,22.7933023 30.6351628,22.964093 C29.9765581,24.7099535 27.3622326,29.7767442 23.0701395,29.7767442 L23.0701395,29.7767442 Z" id="Fill-415"></path>
                <path d="M7.98809302,40.395907 C7.3707907,40.395907 6.87181395,39.895814 6.87181395,39.2796279 C6.87181395,34.1726512 9.72390698,30.5570233 15.12,28.8245581 C17.5211163,28.052093 18.8182326,26.7895814 18.8305116,26.7773023 C19.2669767,26.3453023 19.9724651,26.3464186 20.407814,26.7806512 C20.8420465,27.2148837 20.8442791,27.9170233 20.4122791,28.3523721 C20.3453023,28.4193488 18.7534884,30.0011163 15.8020465,30.9499535 C11.2956279,32.3966512 9.10437209,35.1214884 9.10437209,39.2796279 C9.10437209,39.895814 8.60539535,40.395907 7.98809302,40.395907" id="Fill-416"></path>
                <path d="M28.8524651,30.2589767 C28.6850233,30.2589767 28.5142326,30.2210233 28.3523721,30.1395349 C26.6723721,29.2967442 25.7648372,28.3914419 25.7257674,28.3534884 C25.2926512,27.915907 25.2948837,27.208186 25.7324651,26.7739535 C26.167814,26.3419535 26.872186,26.344186 27.3075349,26.776186 C27.3142326,26.784 28.024186,27.4772093 29.3547907,28.1447442 C29.9062326,28.4215814 30.1283721,29.0924651 29.8515349,29.643907 C29.6550698,30.0334884 29.2610233,30.2589767 28.8524651,30.2589767" id="Fill-417"></path>
                <path d="M23.4418605,46.8837209 C10.5164651,46.8837209 0,36.3683721 0,23.4418605 C0,10.5164651 10.5164651,0 23.4418605,0 C36.3672558,0 46.8837209,10.5164651 46.8837209,23.4418605 C46.8837209,24.9622326 46.7363721,26.4837209 46.4472558,27.9627907 C46.3289302,28.567814 45.7495814,28.9629767 45.1367442,28.8446512 C44.5317209,28.7263256 44.1387907,28.1391628 44.256,27.5341395 C44.5172093,26.1957209 44.6511628,24.8182326 44.6511628,23.4418605 C44.6511628,11.7477209 35.136,2.23255814 23.4418605,2.23255814 C11.7466047,2.23255814 2.23255814,11.7477209 2.23255814,23.4418605 C2.23255814,35.1371163 11.7466047,44.6511628 23.4418605,44.6511628 C24.0580465,44.6511628 24.5581395,45.1512558 24.5581395,45.7674419 C24.5581395,46.3847442 24.0580465,46.8837209 23.4418605,46.8837209" id="Fill-418"></path>
                <path d="M33.4883721,32.372093 C31.6409302,32.372093 30.1395349,33.8746047 30.1395349,35.7209302 C30.1395349,40.3646512 36.0714419,45.2037209 37.9925581,46.648186 C39.9192558,45.3510698 45.7674419,40.9830698 45.7674419,35.7209302 C45.7674419,33.8746047 44.2649302,32.372093 42.4186047,32.372093 C40.5711628,32.372093 39.0697674,33.8746047 39.0697674,35.7209302 C39.0697674,36.3382326 38.5696744,36.8372093 37.9534884,36.8372093 C37.336186,36.8372093 36.8372093,36.3382326 36.8372093,35.7209302 C36.8372093,33.8746047 35.3346977,32.372093 33.4883721,32.372093 Z M37.9534884,49.1162791 C37.7324651,49.1162791 37.5125581,49.0515349 37.3227907,48.9220465 C36.9387907,48.6597209 27.9069767,42.4107907 27.9069767,35.7209302 C27.9069767,32.6444651 30.4107907,30.1395349 33.4883721,30.1395349 C35.3112558,30.1395349 36.9343256,31.0191628 37.9534884,32.3754419 C38.9726512,31.0191628 40.5946047,30.1395349 42.4186047,30.1395349 C45.4950698,30.1395349 48,32.6444651 48,35.7209302 C48,43.2669767 38.907907,48.7322791 38.5205581,48.9611163 C38.3453023,49.0649302 38.1488372,49.1162791 37.9534884,49.1162791 L37.9534884,49.1162791 Z" id="Fill-419"></path>
            </g>
        </g>
    </g>
</svg>