<?xml version="1.0" encoding="UTF-8"?>
<svg width="38px" height="38px" viewBox="0 0 38 38" version="1.1" xmlns="http://www.w3.org/2000/svg" xmlns:xlink="http://www.w3.org/1999/xlink">
    <!-- Generator: Sketch 61.2 (89653) - https://sketch.com -->
    <title>ic_donate_indus</title>
    <desc>Created with Sketch.</desc>
    <g id="Page-1" stroke="none" stroke-width="1" fill="none" fill-rule="evenodd">
        <g id="Artboard" transform="translate(-139.000000, -1686.000000)" fill="#0FAD69">
            <g id="ic_donate_indus" transform="translate(139.000000, 1686.000000)">
                <rect id="Rectangle-Copy-4" fill-opacity="0.2" x="0" y="0" width="38" height="38" rx="4"></rect>
                <path d="M8.02222222,8.17650842 L8.02222222,28.6209529 L11.6010222,28.6209529 L11.6,8.17650842 L8.02222222,8.17650842 Z M11.6,29.6431751 L8.02222222,29.6431751 C7.45897778,29.6431751 7,29.1847084 7,28.6209529 L7,8.17650842 C7,7.61326397 7.45897778,7.15428619 8.02222222,7.15428619 L11.6,7.15428619 C12.1637556,7.15428619 12.6222222,7.61326397 12.6222222,8.17650842 L12.6222222,28.6209529 C12.6222222,29.1847084 12.1637556,29.6431751 11.6,29.6431751 L11.6,29.6431751 Z" id="Fill-192"></path>
                <path d="M10.5777778,26.5765084 L9.04444444,26.5765084 C8.7618,26.5765084 8.53333333,26.3480418 8.53333333,26.0653973 C8.53333333,25.783264 8.7618,25.5542862 9.04444444,25.5542862 L10.5777778,25.5542862 C10.8604222,25.5542862 11.0888889,25.783264 11.0888889,26.0653973 C11.0888889,26.3480418 10.8604222,26.5765084 10.5777778,26.5765084" id="Fill-193"></path>
                <path d="M10.5777778,24.532064 L9.04444444,24.532064 C8.7618,24.532064 8.53333333,24.3035973 8.53333333,24.0209529 C8.53333333,23.7388195 8.7618,23.5098418 9.04444444,23.5098418 L10.5777778,23.5098418 C10.8604222,23.5098418 11.0888889,23.7388195 11.0888889,24.0209529 C11.0888889,24.3035973 10.8604222,24.532064 10.5777778,24.532064" id="Fill-194"></path>
                <path d="M10.5777778,12.2653973 L9.04444444,12.2653973 C8.7618,12.2653973 8.53333333,12.0369306 8.53333333,11.7542862 C8.53333333,11.4721529 8.7618,11.2431751 9.04444444,11.2431751 L10.5777778,11.2431751 C10.8604222,11.2431751 11.0888889,11.4721529 11.0888889,11.7542862 C11.0888889,12.0369306 10.8604222,12.2653973 10.5777778,12.2653973" id="Fill-195"></path>
                <path d="M14.6666667,8.17650842 L14.6666667,28.6209529 L18.2454667,28.6209529 L18.2444444,8.17650842 L14.6666667,8.17650842 Z M18.2444444,29.6431751 L14.6666667,29.6431751 C14.1034222,29.6431751 13.6444444,29.1847084 13.6444444,28.6209529 L13.6444444,8.17650842 C13.6444444,7.61326397 14.1034222,7.15428619 14.6666667,7.15428619 L18.2444444,7.15428619 C18.8082,7.15428619 19.2666667,7.61326397 19.2666667,8.17650842 L19.2666667,28.6209529 C19.2666667,29.1847084 18.8082,29.6431751 18.2444444,29.6431751 L18.2444444,29.6431751 Z" id="Fill-196"></path>
                <path d="M17.2222222,26.5765084 L15.6888889,26.5765084 C15.4062444,26.5765084 15.1777778,26.3480418 15.1777778,26.0653973 C15.1777778,25.783264 15.4062444,25.5542862 15.6888889,25.5542862 L17.2222222,25.5542862 C17.5048667,25.5542862 17.7333333,25.783264 17.7333333,26.0653973 C17.7333333,26.3480418 17.5048667,26.5765084 17.2222222,26.5765084" id="Fill-197"></path>
                <path d="M17.2222222,24.532064 L15.6888889,24.532064 C15.4062444,24.532064 15.1777778,24.3035973 15.1777778,24.0209529 C15.1777778,23.7388195 15.4062444,23.5098418 15.6888889,23.5098418 L17.2222222,23.5098418 C17.5048667,23.5098418 17.7333333,23.7388195 17.7333333,24.0209529 C17.7333333,24.3035973 17.5048667,24.532064 17.2222222,24.532064" id="Fill-198"></path>
                <path d="M17.2222222,12.2653973 L15.6888889,12.2653973 C15.4062444,12.2653973 15.1777778,12.0369306 15.1777778,11.7542862 C15.1777778,11.4721529 15.4062444,11.2431751 15.6888889,11.2431751 L17.2222222,11.2431751 C17.5048667,11.2431751 17.7333333,11.4721529 17.7333333,11.7542862 C17.7333333,12.0369306 17.5048667,12.2653973 17.2222222,12.2653973" id="Fill-199"></path>
                <path d="M24.5270222,8.02215286 L21.0095556,8.67484175 L24.7396444,28.7758195 L28.2571111,28.1231306 L24.5270222,8.02215286 Z M24.7391333,29.7980418 C24.2469333,29.7980418 23.8242444,29.4469084 23.7342889,28.9623751 L20.0042,8.86139731 C19.9546222,8.59357508 20.0118667,8.32166397 20.1667333,8.09626397 C20.3216,7.87086397 20.5546667,7.71957508 20.8235111,7.66948619 L24.3404667,7.01679731 C24.9047333,6.91457508 25.4316889,7.29024175 25.5323778,7.83559731 L29.2624667,27.9365751 C29.3120444,28.2043973 29.2548,28.4763084 29.0999333,28.7017084 C28.9455778,28.9271084 28.7125111,29.0783973 28.4431556,29.1284862 L24.9262,29.7811751 C24.8633333,29.7924195 24.8009778,29.7980418 24.7391333,29.7980418 L24.7391333,29.7980418 Z" id="Fill-200"></path>
                <path d="M25.2778444,26.5877529 C25.0360889,26.5877529 24.8214222,26.4160195 24.7754222,26.1701751 C24.7243111,25.8926418 24.9072889,25.6253306 25.1848222,25.5742195 L26.6926,25.2946418 C26.9686,25.2414862 27.2369333,25.4259973 27.2885556,25.7035306 C27.3401778,25.981064 27.1572,26.2483751 26.8796667,26.2994862 L25.3713778,26.579064 L25.2778444,26.5877529" id="Fill-201"></path>
                <path d="M24.9047333,24.5775529 C24.6634889,24.5775529 24.4488222,24.4058195 24.4028222,24.1599751 C24.3512,23.8824418 24.5346889,23.6156418 24.8122222,23.5640195 L26.3194889,23.2844418 C26.5954889,23.2307751 26.8633111,23.4163084 26.9154444,23.6938418 C26.9665556,23.9713751 26.7835778,24.2381751 26.5060444,24.2897973 L24.9987778,24.5693751 L24.9047333,24.5775529" id="Fill-202"></path>
                <path d="M22.6665778,12.5173751 C22.4253333,12.5173751 22.2106667,12.3456418 22.1646667,12.0992862 C22.1130444,11.8217529 22.2965333,11.555464 22.5740667,11.5033306 L24.0813333,11.2232418 C24.3578444,11.1711084 24.6251556,11.3551084 24.6772889,11.6326418 C24.7289111,11.9101751 24.5454222,12.1769751 24.2678889,12.2285973 L22.7606222,12.5086862 L22.6665778,12.5173751" id="Fill-203"></path>
            </g>
        </g>
    </g>
</svg>