<?xml version="1.0" encoding="UTF-8"?>
<svg width="48px" height="48px" viewBox="0 0 48 48" version="1.1" xmlns="http://www.w3.org/2000/svg" xmlns:xlink="http://www.w3.org/1999/xlink">
    <!-- Generator: Sketch 61.2 (89653) - https://sketch.com -->
    <title>Group</title>
    <desc>Created with Sketch.</desc>
    <g id="Page-1" stroke="none" stroke-width="1" fill="none" fill-rule="evenodd">
        <g id="Artboard" transform="translate(-995.000000, -10484.000000)" fill="#540D6E">
            <g id="Group" transform="translate(995.000000, 10484.000000)">
                <path d="M3.13043478,2.08695652 C2.55547826,2.08695652 2.08695652,2.55547826 2.08695652,3.13043478 L2.08695652,44.8695652 C2.08695652,45.4455652 2.55547826,45.9130435 3.13043478,45.9130435 L44.8695652,45.9130435 C45.4445217,45.9130435 45.9130435,45.4455652 45.9130435,44.8695652 L45.9130435,3.13043478 C45.9130435,2.55547826 45.4445217,2.08695652 44.8695652,2.08695652 L3.13043478,2.08695652 Z M44.8695652,48 L3.13043478,48 C1.40452174,48 0,46.5965217 0,44.8695652 L0,3.13043478 C0,1.40452174 1.40452174,0 3.13043478,0 L44.8695652,0 C46.5954783,0 48,1.40452174 48,3.13043478 L48,44.8695652 C48,46.5965217 46.5954783,48 44.8695652,48 L44.8695652,48 Z" id="Fill-797"></path>
                <path d="M5.2173913,4.69565217 C4.9293913,4.69565217 4.69565217,4.93043478 4.69565217,5.2173913 C4.69565217,5.5053913 4.9293913,5.73913043 5.2173913,5.73913043 C5.5053913,5.73913043 5.73913043,5.5053913 5.73913043,5.2173913 C5.73913043,4.93043478 5.5053913,4.69565217 5.2173913,4.69565217 Z M5.2173913,6.7826087 C4.35443478,6.7826087 3.65217391,6.0813913 3.65217391,5.2173913 C3.65217391,4.35443478 4.35443478,3.65217391 5.2173913,3.65217391 C6.08034783,3.65217391 6.7826087,4.35443478 6.7826087,5.2173913 C6.7826087,6.0813913 6.08034783,6.7826087 5.2173913,6.7826087 L5.2173913,6.7826087 Z" id="Fill-798"></path>
                <path d="M9.39130435,4.69565217 C9.10330435,4.69565217 8.86956522,4.93043478 8.86956522,5.2173913 C8.86956522,5.5053913 9.10330435,5.73913043 9.39130435,5.73913043 C9.67930435,5.73913043 9.91304348,5.5053913 9.91304348,5.2173913 C9.91304348,4.93043478 9.67930435,4.69565217 9.39130435,4.69565217 Z M9.39130435,6.7826087 C8.52834783,6.7826087 7.82608696,6.0813913 7.82608696,5.2173913 C7.82608696,4.35443478 8.52834783,3.65217391 9.39130435,3.65217391 C10.2542609,3.65217391 10.9565217,4.35443478 10.9565217,5.2173913 C10.9565217,6.0813913 10.2542609,6.7826087 9.39130435,6.7826087 L9.39130435,6.7826087 Z" id="Fill-799"></path>
                <path d="M13.5652174,4.69565217 C13.2772174,4.69565217 13.0434783,4.93043478 13.0434783,5.2173913 C13.0434783,5.5053913 13.2772174,5.73913043 13.5652174,5.73913043 C13.8532174,5.73913043 14.0869565,5.5053913 14.0869565,5.2173913 C14.0869565,4.93043478 13.8532174,4.69565217 13.5652174,4.69565217 Z M13.5652174,6.7826087 C12.7022609,6.7826087 12,6.0813913 12,5.2173913 C12,4.35443478 12.7022609,3.65217391 13.5652174,3.65217391 C14.4281739,3.65217391 15.1304348,4.35443478 15.1304348,5.2173913 C15.1304348,6.0813913 14.4281739,6.7826087 13.5652174,6.7826087 L13.5652174,6.7826087 Z" id="Fill-800"></path>
                <polygon id="Fill-801" points="1.04347826 10.4347826 46.9565217 10.4347826 46.9565217 8.34782609 1.04347826 8.34782609"></polygon>
                <path d="M19.3043478,20.9353043 C17.2904348,20.9353043 15.6521739,22.5735652 15.6521739,24.5874783 C15.6521739,29.5993043 22.0862609,34.7822609 24.0365217,36.237913 C25.9961739,34.9314783 32.3478261,30.2556522 32.3478261,24.5874783 C32.3478261,22.5735652 30.7095652,20.9353043 28.6956522,20.9353043 C26.6817391,20.9353043 25.0434783,22.5735652 25.0434783,24.5874783 C25.0434783,25.1634783 24.576,25.6309565 24,25.6309565 C23.424,25.6309565 22.9565217,25.1634783 22.9565217,24.5874783 C22.9565217,22.5735652 21.3182609,20.9353043 19.3043478,20.9353043 Z M24,38.544 C23.7944348,38.544 23.5878261,38.4824348 23.4114783,38.3624348 C23.0097391,38.0869565 13.5652174,31.5537391 13.5652174,24.5874783 C13.5652174,21.4226087 16.1394783,18.8483478 19.3043478,18.8483478 C21.2431304,18.8483478 22.9606957,19.8146087 24,21.2911304 C25.0393043,19.8146087 26.7568696,18.8483478 28.6956522,18.8483478 C31.8605217,18.8483478 34.4347826,21.4226087 34.4347826,24.5874783 C34.4347826,32.448 24.936,38.1589565 24.5311304,38.3989565 C24.3673043,38.496 24.1836522,38.544 24,38.544 L24,38.544 Z" id="Fill-802"></path>
            </g>
        </g>
    </g>
</svg>