<?xml version="1.0" encoding="UTF-8"?>
<svg width="38px" height="38px" viewBox="0 0 38 38" version="1.1" xmlns="http://www.w3.org/2000/svg" xmlns:xlink="http://www.w3.org/1999/xlink">
    <!-- Generator: Sketch 61.2 (89653) - https://sketch.com -->
    <title>ic_donate_inter</title>
    <desc>Created with Sketch.</desc>
    <g id="Page-1" stroke="none" stroke-width="1" fill="none" fill-rule="evenodd">
        <g id="Artboard" transform="translate(-139.000000, -1502.000000)" fill="#EF4266">
            <g id="ic_donate_inter" transform="translate(139.000000, 1502.000000)">
                <rect id="Rectangle-Copy-4" fill-opacity="0.2" x="0" y="0" width="38" height="38" rx="4"></rect>
                <path d="M14.0531489,12.3829787 L22.5425957,12.3829787 L21.8437872,9.93617021 L19.7659574,9.93617021 C19.4958298,9.93617021 19.2765957,9.71742553 19.2765957,9.44680851 L19.2765957,8.95744681 C19.2765957,8.41817021 18.8376383,7.9787234 18.2978723,7.9787234 C17.7581064,7.9787234 17.3191489,8.41817021 17.3191489,8.95744681 L17.3191489,9.44680851 C17.3191489,9.71742553 17.0999149,9.93617021 16.8297872,9.93617021 L14.7519574,9.93617021 L14.0531489,12.3829787 Z M23.1914894,13.3617021 L13.4042553,13.3617021 C13.2505957,13.3617021 13.106234,13.289766 13.0137447,13.1674255 C12.9212553,13.0445957 12.8914043,12.8860426 12.9339787,12.7382553 L13.9127021,9.3127234 C13.9724043,9.10229787 14.1647234,8.95744681 14.3829787,8.95744681 L16.3404255,8.95744681 C16.3404255,7.87791489 17.2183404,7 18.2978723,7 C19.3774043,7 20.2553191,7.87791489 20.2553191,8.95744681 L22.212766,8.95744681 C22.4310213,8.95744681 22.6233404,9.10229787 22.6830426,9.3127234 L23.661766,12.7382553 C23.7043404,12.8860426 23.6744894,13.0445957 23.582,13.1674255 C23.4895106,13.289766 23.3451489,13.3617021 23.1914894,13.3617021 L23.1914894,13.3617021 Z" id="Fill-310"></path>
                <path d="M25.6382979,30 L10.9574468,30 C9.87791489,30 9,29.1225745 9,28.0425532 L9,11.4042553 C9,10.3247234 9.87791489,9.44680851 10.9574468,9.44680851 L13.893617,9.44680851 L13.893617,10.4255319 L10.9574468,10.4255319 C10.4176809,10.4255319 9.9787234,10.8649787 9.9787234,11.4042553 L9.9787234,28.0425532 C9.9787234,28.5823191 10.4176809,29.0212766 10.9574468,29.0212766 L25.6382979,29.0212766 C26.1780638,29.0212766 26.6170213,28.5823191 26.6170213,28.0425532 L26.6170213,11.4042553 C26.6170213,10.8649787 26.1780638,10.4255319 25.6382979,10.4255319 L22.7021277,10.4255319 L22.7021277,9.44680851 L25.6382979,9.44680851 C26.7178298,9.44680851 27.5957447,10.3247234 27.5957447,11.4042553 L27.5957447,28.0425532 C27.5957447,29.1225745 26.7178298,30 25.6382979,30" id="Fill-311"></path>
                <path d="M25.1489362,28.0425532 L11.4468085,28.0425532 C11.1766809,28.0425532 10.9574468,27.8238085 10.9574468,27.5531915 L10.9574468,11.8975319 C10.9574468,11.6274043 11.1766809,11.4081702 11.4468085,11.4081702 L13.893617,11.4081702 L13.893617,12.3868936 L11.9361702,12.3868936 L11.9361702,27.0638298 L24.6595745,27.0638298 L24.6595745,12.3868936 L22.7021277,12.3868936 L22.7021277,11.4081702 L25.1489362,11.4081702 C25.4190638,11.4081702 25.6382979,11.6274043 25.6382979,11.8975319 L25.6382979,27.5531915 C25.6382979,27.8238085 25.4190638,28.0425532 25.1489362,28.0425532" id="Fill-312"></path>
                <polygon id="Fill-313" points="13.893617 17.7659574 17.3191489 17.7659574 17.3191489 16.787234 13.893617 16.787234"></polygon>
                <polygon id="Fill-314" points="13.893617 20.212766 22.7021277 20.212766 22.7021277 19.2340426 13.893617 19.2340426"></polygon>
                <polygon id="Fill-315" points="13.893617 22.6595745 22.7021277 22.6595745 22.7021277 21.6808511 13.893617 21.6808511"></polygon>
                <polygon id="Fill-316" points="13.893617 25.106383 22.7021277 25.106383 22.7021277 24.1276596 13.893617 24.1276596"></polygon>
            </g>
        </g>
    </g>
</svg>