<?xml version="1.0" encoding="UTF-8"?>
<svg width="48px" height="48px" viewBox="0 0 48 48" version="1.1" xmlns="http://www.w3.org/2000/svg" xmlns:xlink="http://www.w3.org/1999/xlink">
    <!-- Generator: Sketch 61.2 (89653) - https://sketch.com -->
    <title>Group</title>
    <desc>Created with Sketch.</desc>
    <g id="Page-1" stroke="none" stroke-width="1" fill="none" fill-rule="evenodd">
        <g id="Artboard" transform="translate(-645.000000, -10485.000000)" fill="#540D6E">
            <g id="Group" transform="translate(645.000000, 10485.000000)">
                <path d="M38.1818182,46.9090909 C37.5796364,46.9090909 37.0909091,46.4214545 37.0909091,45.8181818 L37.0909091,32.7272727 C37.0909091,32.1250909 37.5796364,31.6363636 38.1818182,31.6363636 C38.784,31.6363636 39.2727273,32.1250909 39.2727273,32.7272727 L39.2727273,45.8181818 C39.2727273,46.4214545 38.784,46.9090909 38.1818182,46.9090909" id="Fill-426"></path>
                <path d="M43.6363636,39.2727273 C43.3570909,39.2727273 43.0778182,39.1669091 42.8650909,38.9541818 L38.1818182,34.2709091 L33.4985455,38.9541818 C33.072,39.3796364 32.3825455,39.3796364 31.956,38.9541818 C31.5294545,38.5276364 31.5294545,37.8370909 31.956,37.4105455 L38.1818182,31.1847273 L44.4076364,37.4105455 C44.8341818,37.8370909 44.8341818,38.5276364 44.4076364,38.9541818 C44.1949091,39.1669091 43.9156364,39.2727273 43.6363636,39.2727273" id="Fill-427"></path>
                <path d="M24.5656806,31.4545455 C20.8275687,31.4545455 19.0832055,29.4778182 18.4244016,28.8058182 L18.309711,28.5909091 C17.8376127,28.1272727 17.9136286,27.3898182 18.4804133,27.0036364 C19.0458644,26.6174545 19.8860393,26.6556364 20.3581376,27.1181818 L20.5035013,27.2523636 C21.070286,27.8283636 22.0904984,28.8592727 24.6296939,28.8778182 C25.9139614,28.868 27.0888727,28.0105455 27.3035841,26.9283636 C27.5983121,25.448 25.9859764,24.0603636 22.9906859,23.2181818 C19.4406132,22.22 18.5991046,19.6901818 18.9565124,17.9981818 C19.4219427,15.7912727 21.7517612,14 24.5096689,14 L24.5750158,14 C28.2344446,14 29.7200873,16.6869091 29.7814335,16.7916364 C30.1015001,17.3349091 29.8227754,18.0865455 29.1599707,18.3483636 C28.5011668,18.6069091 27.7090019,18.2349091 27.3849344,17.6981818 C27.3395916,17.6261818 26.5074183,16.1818182 24.5456764,16.1818182 L24.5083353,16.1818182 C22.8639928,16.1818182 21.7931032,17.3785455 21.5837262,18.3690909 C21.341009,19.5189091 22.1918529,20.5847273 23.8575331,21.0527273 C30.2695351,22.856 30.1321732,26.4450909 29.9374659,27.4247273 C29.5133776,29.5607273 27.2409044,31.4545455 24.6523653,31.4545455 L24.5656806,31.4545455" id="Fill-428"></path>
                <path d="M24.0909091,33.8181818 C23.4887273,33.8181818 23,33.3305455 23,32.7272727 L23,13.0909091 C23,12.4887273 23.4887273,12 24.0909091,12 C24.6930909,12 25.1818182,12.4887273 25.1818182,13.0909091 L25.1818182,32.7272727 C25.1818182,33.3305455 24.6930909,33.8181818 24.0909091,33.8181818" id="Fill-429"></path>
                <path d="M24,48 C10.7661818,48 0,37.2338182 0,24 C0,10.7672727 10.7661818,0 24,0 C37.2338182,0 48,10.7672727 48,24 C48,25.2545455 47.8832727,26.5614545 47.6421818,27.9970909 C47.5429091,28.5905455 46.9854545,28.9930909 46.3854545,28.8927273 C45.7909091,28.7923636 45.3905455,28.2294545 45.4898182,27.636 C45.7112727,26.3214545 45.8181818,25.1323636 45.8181818,24 C45.8181818,11.9705455 36.0305455,2.18181818 24,2.18181818 C11.9694545,2.18181818 2.18181818,11.9705455 2.18181818,24 C2.18181818,36.0305455 11.9694545,45.8181818 24,45.8181818 C25.1312727,45.8181818 26.3203636,45.7112727 27.636,45.4909091 C28.2370909,45.3916364 28.7923636,45.792 28.8916364,46.3854545 C28.992,46.98 28.5905455,47.5429091 27.9970909,47.6421818 C26.5614545,47.8832727 25.2534545,48 24,48" id="Fill-430"></path>
                <path d="M24,43.1781818 C13.4258182,43.1781818 4.82290909,34.5752727 4.82290909,24 C4.82290909,13.4258182 13.4258182,4.82290909 24,4.82290909 C34.5741818,4.82290909 43.1770909,13.4258182 43.1770909,24 C43.1770909,24.6032727 42.6883636,25.0909091 42.0861818,25.0909091 C41.484,25.0909091 40.9952727,24.6032727 40.9952727,24 C40.9952727,14.6290909 33.3709091,7.00472727 24,7.00472727 C14.6290909,7.00472727 7.00472727,14.6290909 7.00472727,24 C7.00472727,33.372 14.6290909,40.9963636 24,40.9963636 C24.6021818,40.9963636 25.0909091,41.484 25.0909091,42.0872727 C25.0909091,42.6894545 24.6021818,43.1781818 24,43.1781818" id="Fill-431"></path>
            </g>
        </g>
    </g>
</svg>