<?xml version="1.0" encoding="UTF-8"?>
<svg width="38px" height="37px" viewBox="0 0 38 37" version="1.1" xmlns="http://www.w3.org/2000/svg" xmlns:xlink="http://www.w3.org/1999/xlink">
    <!-- Generator: Sketch 61.2 (89653) - https://sketch.com -->
    <title>ic_exper_pm</title>
    <desc>Created with Sketch.</desc>
    <g id="Homepage" stroke="none" stroke-width="1" fill="none" fill-rule="evenodd">
        <g id="Experience-Component-mobile-Copy" transform="translate(-95.000000, -574.000000)" fill="#FFD23E">
            <g id="ic_timeline_zp-copy-2" transform="translate(95.000000, 574.000000)">
                <g id="Group-7">
                    <g id="ic_exper_pm">
                        <rect id="Rectangle-Copy-4" fill-opacity="0.2" x="0" y="0" width="38" height="37" rx="4"></rect>
                        <path d="M20.5,25 L9.5,25 C8.673,25 8,24.3275 8,23.5 L8,8.5 C8,7.673 8.673,7 9.5,7 L24.5,7 C25.327,7 26,7.673 26,8.5 L26,19.5 L25,19.5 L25,8.5 C25,8.2245 24.7755,8 24.5,8 L9.5,8 C9.2245,8 9,8.2245 9,8.5 L9,23.5 C9,23.776 9.2245,24 9.5,24 L20.5,24 L20.5,25" id="Fill-371"></path>
                        <path d="M10.5,9.25 C10.362,9.25 10.25,9.3625 10.25,9.5 C10.25,9.638 10.362,9.75 10.5,9.75 C10.638,9.75 10.75,9.638 10.75,9.5 C10.75,9.3625 10.638,9.25 10.5,9.25 Z M10.5,10.25 C10.0865,10.25 9.75,9.914 9.75,9.5 C9.75,9.0865 10.0865,8.75 10.5,8.75 C10.9135,8.75 11.25,9.0865 11.25,9.5 C11.25,9.914 10.9135,10.25 10.5,10.25 L10.5,10.25 Z" id="Fill-372"></path>
                        <path d="M12.5,9.25 C12.362,9.25 12.25,9.3625 12.25,9.5 C12.25,9.638 12.362,9.75 12.5,9.75 C12.638,9.75 12.75,9.638 12.75,9.5 C12.75,9.3625 12.638,9.25 12.5,9.25 Z M12.5,10.25 C12.0865,10.25 11.75,9.914 11.75,9.5 C11.75,9.0865 12.0865,8.75 12.5,8.75 C12.9135,8.75 13.25,9.0865 13.25,9.5 C13.25,9.914 12.9135,10.25 12.5,10.25 L12.5,10.25 Z" id="Fill-373"></path>
                        <path d="M14.5,9.25 C14.362,9.25 14.25,9.3625 14.25,9.5 C14.25,9.638 14.362,9.75 14.5,9.75 C14.638,9.75 14.75,9.638 14.75,9.5 C14.75,9.3625 14.638,9.25 14.5,9.25 Z M14.5,10.25 C14.0865,10.25 13.75,9.914 13.75,9.5 C13.75,9.0865 14.0865,8.75 14.5,8.75 C14.9135,8.75 15.25,9.0865 15.25,9.5 C15.25,9.914 14.9135,10.25 14.5,10.25 L14.5,10.25 Z" id="Fill-374"></path>
                        <polygon id="Fill-375" points="8.5 12 25.5 12 25.5 11 8.5 11"></polygon>
                        <path d="M25.5,20 C23.019,20 21,22.019 21,24.5 C21,26.9815 23.019,29 25.5,29 C27.981,29 30,26.9815 30,24.5 C30,22.019 27.981,20 25.5,20 Z M25.5,30 C22.4675,30 20,27.533 20,24.5 C20,21.4675 22.4675,19 25.5,19 C28.5325,19 31,21.4675 31,24.5 C31,27.533 28.5325,30 25.5,30 L25.5,30 Z" id="Fill-376"></path>
                        <path d="M24.5,26.5 C24.372,26.5 24.2435,26.451 24.1465,26.354 L22.6465,24.854 C22.451,24.6585 22.451,24.342 22.6465,24.1465 C22.842,23.9515 23.158,23.9515 23.3535,24.1465 L24.526,25.3195 L27.6745,22.6205 C27.884,22.4405 28.1995,22.4655 28.3795,22.675 C28.5595,22.8845 28.535,23.2 28.3255,23.38 L24.8255,26.38 C24.7315,26.4605 24.6155,26.5 24.5,26.5" id="Fill-377"></path>
                        <path d="M14.5,16.5 L11,16.5 C10.724,16.5 10.5,16.2765 10.5,16 C10.5,15.724 10.724,15.5 11,15.5 L14.5,15.5 C14.776,15.5 15,15.724 15,16 C15,16.2765 14.776,16.5 14.5,16.5" id="Fill-378"></path>
                        <path d="M20.5,18.5 L11,18.5 C10.724,18.5 10.5,18.2765 10.5,18 C10.5,17.724 10.724,17.5 11,17.5 L20.5,17.5 C20.776,17.5 21,17.724 21,18 C21,18.2765 20.776,18.5 20.5,18.5" id="Fill-379"></path>
                    </g>
                </g>
            </g>
        </g>
    </g>
</svg>