<?xml version="1.0" encoding="UTF-8"?>
<svg width="38px" height="37px" viewBox="0 0 38 37" version="1.1" xmlns="http://www.w3.org/2000/svg" xmlns:xlink="http://www.w3.org/1999/xlink">
    <!-- Generator: Sketch 61.2 (89653) - https://sketch.com -->
    <title>ic_exper_biz</title>
    <desc>Created with Sketch.</desc>
    <g id="Homepage" stroke="none" stroke-width="1" fill="none" fill-rule="evenodd">
        <g id="Experience-Component-mobile-Copy" transform="translate(-95.000000, -755.000000)" fill="#0FAD69">
            <g id="ic_timeline_zp-copy-3" transform="translate(95.000000, 755.000000)">
                <g id="Group-7">
                    <g id="ic_exper_biz">
                        <rect id="Rectangle-Copy-4" fill-opacity="0.2" x="0" y="0" width="38" height="37" rx="4"></rect>
                        <path d="M30.267625,27.561 L28.853625,26.1465 C28.658125,25.9515 28.341625,25.9515 28.146625,26.1465 C27.951125,26.342 27.951125,26.6585 28.146625,26.854 L28.793125,27.5 L9.414125,27.5 L9.414125,8.7075 L9.974625,9.268 C10.072125,9.3655 10.200125,9.4145 10.328125,9.4145 C10.456125,9.4145 10.584125,9.3655 10.681625,9.268 C10.877125,9.073 10.877125,8.7565 10.681625,8.561 L9.268125,7.147 C9.177625,7.0565 9.052625,7 8.914125,7 C8.775625,7 8.650625,7.0565 8.560125,7.147 L7.146625,8.561 C6.951125,8.7565 6.951125,9.073 7.146625,9.268 C7.341625,9.4635 7.658125,9.4635 7.853625,9.268 L8.414125,8.7075 L8.414125,28 C8.414125,28.2765 8.637625,28.5 8.914125,28.5 L28.621625,28.5 L28.146625,28.975 C27.951125,29.1705 27.951125,29.487 28.146625,29.682 C28.244125,29.78 28.372125,29.8285 28.500125,29.8285 C28.628125,29.8285 28.756125,29.78 28.853625,29.682 L30.267625,28.268 C30.463125,28.0725 30.463125,27.7565 30.267625,27.561" id="Fill-1"></path>
                        <path d="M11.914125,25.5 L14.414125,25.5 L14.414125,10.5 L11.914125,10.5 L11.914125,25.5 Z M11.414125,26.5 L14.914125,26.5 C15.190625,26.5 15.414125,26.2765 15.414125,26 L15.414125,10 C15.414125,9.724 15.190625,9.5 14.914125,9.5 L11.414125,9.5 C11.137625,9.5 10.914125,9.724 10.914125,10 L10.914125,26 C10.914125,26.2765 11.137625,26.5 11.414125,26.5 L11.414125,26.5 Z" id="Fill-2"></path>
                        <path d="M17.414125,25.5 L19.914125,25.5 L19.914125,15 L17.414125,15 L17.414125,25.5 Z M16.914125,26.5 L20.414125,26.5 C20.690625,26.5 20.914125,26.2765 20.914125,26 L20.914125,14.5 C20.914125,14.224 20.690625,14 20.414125,14 L16.914125,14 C16.637625,14 16.414125,14.224 16.414125,14.5 L16.414125,26 C16.414125,26.2765 16.637625,26.5 16.914125,26.5 L16.914125,26.5 Z" id="Fill-3"></path>
                        <path d="M22.914125,25.5 L25.414125,25.5 L25.414125,21 L22.914125,21 L22.914125,25.5 Z M22.414125,26.5 L25.914125,26.5 C26.190625,26.5 26.414125,26.2765 26.414125,26 L26.414125,20.5 C26.414125,20.224 26.190625,20 25.914125,20 L22.414125,20 C22.137625,20 21.914125,20.224 21.914125,20.5 L21.914125,26 C21.914125,26.2765 22.137625,26.5 22.414125,26.5 L22.414125,26.5 Z" id="Fill-4"></path>
                    </g>
                </g>
            </g>
        </g>
    </g>
</svg>