<?xml version="1.0" encoding="UTF-8"?>
<svg width="38px" height="37px" viewBox="0 0 38 37" version="1.1" xmlns="http://www.w3.org/2000/svg" xmlns:xlink="http://www.w3.org/1999/xlink">
    <!-- Generator: Sketch 61.2 (89653) - https://sketch.com -->
    <title>ic_exper_research</title>
    <desc>Created with Sketch.</desc>
    <g id="Homepage" stroke="none" stroke-width="1" fill="none" fill-rule="evenodd">
        <g id="Experience-Component-mobile-Copy" transform="translate(-95.000000, -212.000000)" fill="#3BCEAC">
            <g id="ic_timeline_zp" transform="translate(95.000000, 212.000000)">
                <g id="Group-7">
                    <g id="ic_exper_research">
                        <rect id="Rectangle-Copy-4" fill-opacity="0.2" x="0" y="0" width="38" height="37" rx="4"></rect>
                        <path d="M12.6126576,19.671209 C10.6004758,19.671209 8.25011215,20.3426636 8.25011215,22.2342999 C8.25011215,23.9579363 10.196294,26.0404817 12.6126576,26.0404817 C15.0295667,26.0404817 16.976294,23.9579363 16.976294,22.2342999 C16.976294,20.3426636 14.6259303,19.671209 12.6126576,19.671209 Z M12.6126576,27.1313908 C9.54174851,27.1313908 7.15920306,24.4990272 7.15920306,22.2342999 C7.15920306,20.0142999 9.30011215,18.5802999 12.6126576,18.5802999 C15.926294,18.5802999 18.0672031,20.0142999 18.0672031,22.2342999 C18.0672031,24.4990272 15.6841121,27.1313908 12.6126576,27.1313908 L12.6126576,27.1313908 Z" id="Fill-384"></path>
                        <path d="M25.046294,19.671209 C23.0335667,19.671209 20.6832031,20.3426636 20.6832031,22.2342999 C20.6832031,23.9579363 22.6299303,26.0404817 25.046294,26.0404817 C27.4632031,26.0404817 29.4088394,23.9579363 29.4088394,22.2342999 C29.4088394,20.3426636 27.0590212,19.671209 25.046294,19.671209 Z M25.046294,27.1313908 C21.9753849,27.1313908 19.592294,24.4990272 19.592294,22.2342999 C19.592294,20.0142999 21.7332031,18.5802999 25.046294,18.5802999 C28.3593849,18.5802999 30.4997485,20.0142999 30.4997485,22.2342999 C30.4997485,24.4990272 28.1177485,27.1313908 25.046294,27.1313908 L25.046294,27.1313908 Z" id="Fill-385"></path>
                        <path d="M21.5570212,20.1282999 L16.1024758,20.1282999 C15.8008394,20.1282999 15.5570212,19.8844817 15.5570212,19.5828454 C15.5570212,19.2817545 15.8008394,19.0373908 16.1024758,19.0373908 L21.5570212,19.0373908 C21.8586576,19.0373908 22.1024758,19.2817545 22.1024758,19.5828454 C22.1024758,19.8844817 21.8586576,20.1282999 21.5570212,20.1282999" id="Fill-386"></path>
                        <path d="M19.9206576,22.3101181 L17.7388394,22.3101181 C17.4372031,22.3101181 17.1933849,22.0662999 17.1933849,21.7646636 C17.1933849,21.4635726 17.4372031,21.219209 17.7388394,21.219209 L19.9206576,21.219209 C20.222294,21.219209 20.4661121,21.4635726 20.4661121,21.7646636 C20.4661121,22.0662999 20.222294,22.3101181 19.9206576,22.3101181" id="Fill-387"></path>
                        <path d="M7.54483942,22.0373908 C7.44120306,22.0373908 7.33593033,22.0079363 7.2426576,21.9457545 C6.99229396,21.7782999 6.9246576,21.4395726 7.09156669,21.189209 C7.18756669,21.0462999 10.9381121,15.5568454 14.0679303,10.977209 C14.420294,10.4617545 14.9761121,10.1142999 15.5941121,10.0237545 C16.2126576,9.93266355 16.8453849,10.1061181 17.3319303,10.4999363 C17.5664758,10.6897545 17.6024758,11.0328454 17.4126576,11.2668454 C17.2239303,11.5008454 16.8797485,11.5379363 16.6457485,11.3481181 C16.3921121,11.1424817 16.0746576,11.055209 15.752294,11.103209 C15.4304758,11.1501181 15.152294,11.3241181 14.9684758,11.5924817 C10.5464758,18.063209 8.07174851,21.6861181 7.99920306,21.795209 C7.89393033,21.9528454 7.72156669,22.0373908 7.54483942,22.0373908" id="Fill-388"></path>
                        <path d="M30.080294,22.0373908 C29.9041121,22.0373908 29.7312031,21.9528454 29.6259303,21.795209 C29.5533849,21.6861181 27.0786576,18.063209 22.6572031,11.5930272 C22.4733849,11.3241181 22.1946576,11.1501181 21.8728394,11.103209 C21.5515667,11.055209 21.2335667,11.1424817 20.9793849,11.3481181 C20.7459303,11.5379363 20.4017485,11.5008454 20.2124758,11.2668454 C20.0226576,11.0328454 20.0592031,10.6897545 20.2937485,10.4999363 C20.7786576,10.1061181 21.4130212,9.93266355 22.0310212,10.0237545 C22.6490212,10.1142999 23.2048394,10.4617545 23.5572031,10.977209 C26.6870212,15.5568454 30.4375667,21.0462999 30.5335667,21.189209 C30.7010212,21.4395726 30.6333849,21.7782999 30.3830212,21.9457545 C30.2897485,22.0079363 30.1839303,22.0373908 30.080294,22.0373908" id="Fill-389"></path>
                    </g>
                </g>
            </g>
        </g>
    </g>
</svg>