<?xml version="1.0" encoding="UTF-8"?>
<svg width="38px" height="37px" viewBox="0 0 38 37" version="1.1" xmlns="http://www.w3.org/2000/svg" xmlns:xlink="http://www.w3.org/1999/xlink">
    <!-- Generator: Sketch 61.2 (89653) - https://sketch.com -->
    <title>ic_exper_design</title>
    <desc>Created with Sketch.</desc>
    <g id="Homepage" stroke="none" stroke-width="1" fill="none" fill-rule="evenodd">
        <g id="Experience-Component-mobile-Copy" transform="translate(-95.000000, -393.000000)" fill="#EF4266">
            <g id="ic_timeline_zp-copy" transform="translate(95.000000, 393.000000)">
                <g id="Group-7">
                    <g id="ic_exper_design">
                        <rect id="Rectangle-Copy-4" fill-opacity="0.2" x="0" y="0" width="38" height="37" rx="4"></rect>
                        <path d="M16.7775,23.5224318 C16.658,23.5224318 16.538,23.4794318 16.4425,23.3929318 C16.2375,23.2074318 16.222,22.8914318 16.4075,22.6864318 L28.819,8.98343182 C29.0295,8.75093182 29.021,8.39443182 28.799,8.17293182 C28.5765,7.94993182 28.2205,7.94193182 27.988,8.15293182 L14.285,20.5644318 C14.0805,20.7499318 13.764,20.7339318 13.5785,20.5294318 C13.3935,20.3249318 13.409,20.0084318 13.6135,19.8234318 L27.317,7.41143182 C27.945,6.84243182 28.9065,6.86643182 29.506,7.46593182 C30.1055,8.06493182 30.1295,9.02693182 29.56,9.65493182 L17.1485,23.3579318 C17.05,23.4669318 16.914,23.5224318 16.7775,23.5224318" id="Fill-371"></path>
                        <path d="M13.596,20.8759318 C12.928,20.8759318 12.3,21.1359318 11.828,21.6079318 C11.026,22.4099318 10.8555,23.3549318 10.658,24.4489318 C10.453,25.5874318 10.226,26.8429318 9.3005,28.1864318 C11.9425,27.4564318 14.149,26.3579318 15.3635,25.1439318 C16.3385,24.1689318 16.3385,22.5829318 15.3635,21.6079318 C14.8915,21.1359318 14.2635,20.8759318 13.596,20.8759318 Z M7.939,29.5324318 C7.7585,29.5324318 7.5885,29.4344318 7.4995,29.2709318 C7.394,29.0764318 7.429,28.8354318 7.5855,28.6789318 C9.1635,27.1014318 9.423,25.6624318 9.674,24.2714318 C9.892,23.0644318 10.0975,21.9244318 11.121,20.9009318 C11.782,20.2399318 12.661,19.8759318 13.596,19.8759318 C14.5305,19.8759318 15.4095,20.2399318 16.0705,20.9009318 C17.4355,22.2654318 17.4355,24.4864318 16.0705,25.8509318 C14.5065,27.4149318 11.5055,28.7874318 8.043,29.5214318 L7.939,29.5324318 L7.939,29.5324318 Z" id="Fill-372"></path>
                        <path d="M8.146,29.2674318 C7.9855,29.2674318 7.828,29.1904318 7.7315,29.0479318 C7.5765,28.8194318 7.6365,28.5084318 7.8645,28.3534318 C7.8915,28.3349318 10.5835,26.4844318 11.576,23.7554318 C11.6705,23.4959318 11.9585,23.3624318 12.2165,23.4564318 C12.476,23.5504318 12.61,23.8374318 12.516,24.0969318 C11.4105,27.1369318 8.5465,29.0994318 8.425,29.1819318 C8.3395,29.2394318 8.242,29.2674318 8.146,29.2674318" id="Fill-373"></path>
                        <path d="M14.6895,19.2769318 L7.29,11.7664318 C7.104,11.5809318 7,11.3294318 7,11.0619318 C7,10.7949318 7.104,10.5439318 7.293,10.3549318 L10.1215,7.52693182 C10.511,7.13643182 11.1455,7.13643182 11.5355,7.52693182 L19.0815,15.0724318 L18.3745,15.7794318 L10.8285,8.23393182 L8,11.0619318 L15.402,18.5754318 L14.6895,19.2769318" id="Fill-374"></path>
                        <path d="M23.849,27.9114318 C23.582,27.9114318 23.331,27.8074318 23.142,27.6184318 L17.696,22.2834318 L18.3955,21.5689318 L23.8455,26.9079318 L26.6775,24.0829318 L20.8735,18.2789318 L21.5805,17.5719318 L27.3845,23.3759318 C27.7745,23.7659318 27.7745,24.4004318 27.3845,24.7899318 L24.556,27.6184318 C24.3675,27.8074318 24.1165,27.9114318 23.849,27.9114318" id="Fill-375"></path>
                        <path d="M28.7985,29.5329318 C28.7385,29.5329318 28.6775,29.5219318 28.6195,29.4994318 L24.023,27.7314318 L24.382,26.7984318 L27.9285,28.1624318 L26.5645,24.6159318 L27.498,24.2574318 L29.2655,28.8534318 C29.3365,29.0379318 29.292,29.2469318 29.152,29.3864318 C29.057,29.4819318 28.929,29.5329318 28.7985,29.5329318" id="Fill-376"></path>
                        <polyline id="Fill-377" points="24.91 25.8509318 19.2545 20.1954318 19.9615 19.4879318 25.617 25.1439318 24.91 25.8509318"></polyline>
                        <polyline id="Fill-378" points="16.689 17.7764318 8.704 9.64443182 9.417 8.94393182 17.4025 17.0759318 16.689 17.7764318"></polyline>
                    </g>
                </g>
            </g>
        </g>
    </g>
</svg>