<?xml version="1.0" encoding="UTF-8"?>
<svg width="48px" height="48px" viewBox="0 0 48 48" version="1.1" xmlns="http://www.w3.org/2000/svg" xmlns:xlink="http://www.w3.org/1999/xlink">
    <!-- Generator: Sketch 61.2 (89653) - https://sketch.com -->
    <title>ic_donate_inter</title>
    <desc>Created with Sketch.</desc>
    <g id="Page-1" stroke="none" stroke-width="1" fill="none" fill-rule="evenodd">
        <g id="Artboard" transform="translate(-281.000000, -11550.000000)" fill="#EF4266">
            <g id="ic_donate_inter" transform="translate(281.000000, 11550.000000)">
                <g id="Group">
                    <rect id="Rectangle-Copy-4" fill-opacity="0.2" x="0" y="0" width="48" height="48" rx="5.05263158"></rect>
                    <g transform="translate(9.000000, 10.000000)">
                        <path d="M1.89,1.26 C1.54287,1.26 1.26,1.54287 1.26,1.89 L1.26,27.09 C1.26,27.43776 1.54287,27.72 1.89,27.72 L27.09,27.72 C27.43713,27.72 27.72,27.43776 27.72,27.09 L27.72,1.89 C27.72,1.54287 27.43713,1.26 27.09,1.26 L1.89,1.26 Z M27.09,28.98 L1.89,28.98 C0.84798,28.98 0,28.13265 0,27.09 L0,1.89 C0,0.84798 0.84798,0 1.89,0 L27.09,0 C28.13202,0 28.98,0.84798 28.98,1.89 L28.98,27.09 C28.98,28.13265 28.13202,28.98 27.09,28.98 L27.09,28.98 Z" id="Fill-486"></path>
                        <path d="M3.15,2.835 C2.97612,2.835 2.835,2.97675 2.835,3.15 C2.835,3.32388 2.97612,3.465 3.15,3.465 C3.32388,3.465 3.465,3.32388 3.465,3.15 C3.465,2.97675 3.32388,2.835 3.15,2.835 Z M3.15,4.095 C2.62899,4.095 2.205,3.67164 2.205,3.15 C2.205,2.62899 2.62899,2.205 3.15,2.205 C3.67101,2.205 4.095,2.62899 4.095,3.15 C4.095,3.67164 3.67101,4.095 3.15,4.095 L3.15,4.095 Z" id="Fill-487"></path>
                        <path d="M5.67,2.835 C5.49612,2.835 5.355,2.97675 5.355,3.15 C5.355,3.32388 5.49612,3.465 5.67,3.465 C5.84388,3.465 5.985,3.32388 5.985,3.15 C5.985,2.97675 5.84388,2.835 5.67,2.835 Z M5.67,4.095 C5.14899,4.095 4.725,3.67164 4.725,3.15 C4.725,2.62899 5.14899,2.205 5.67,2.205 C6.19101,2.205 6.615,2.62899 6.615,3.15 C6.615,3.67164 6.19101,4.095 5.67,4.095 L5.67,4.095 Z" id="Fill-488"></path>
                        <path d="M8.19,2.835 C8.01612,2.835 7.875,2.97675 7.875,3.15 C7.875,3.32388 8.01612,3.465 8.19,3.465 C8.36388,3.465 8.505,3.32388 8.505,3.15 C8.505,2.97675 8.36388,2.835 8.19,2.835 Z M8.19,4.095 C7.66899,4.095 7.245,3.67164 7.245,3.15 C7.245,2.62899 7.66899,2.205 8.19,2.205 C8.71101,2.205 9.135,2.62899 9.135,3.15 C9.135,3.67164 8.71101,4.095 8.19,4.095 L8.19,4.095 Z" id="Fill-489"></path>
                        <polygon id="Fill-490" points="0.63 6.3 28.35 6.3 28.35 5.04 0.63 5.04"></polygon>
                        <path d="M4.41,11.97 L24.57,11.97 L24.57,9.45 L4.41,9.45 L4.41,11.97 Z M25.2,13.23 L3.78,13.23 C3.43224,13.23 3.15,12.94839 3.15,12.6 L3.15,8.82 C3.15,8.47224 3.43224,8.19 3.78,8.19 L25.2,8.19 C25.54776,8.19 25.83,8.47224 25.83,8.82 L25.83,12.6 C25.83,12.94839 25.54776,13.23 25.2,13.23 L25.2,13.23 Z" id="Fill-491"></path>
                        <path d="M4.41,25.2 L24.57,25.2 L24.57,15.75 L4.41,15.75 L4.41,25.2 Z M25.2,26.46 L3.78,26.46 C3.43224,26.46 3.15,26.17839 3.15,25.83 L3.15,15.12 C3.15,14.77224 3.43224,14.49 3.78,14.49 L25.2,14.49 C25.54776,14.49 25.83,14.77224 25.83,15.12 L25.83,25.83 C25.83,26.17839 25.54776,26.46 25.2,26.46 L25.2,26.46 Z" id="Fill-492"></path>
                    </g>
                </g>
            </g>
        </g>
    </g>
</svg>