<?xml version="1.0" encoding="UTF-8"?>
<svg width="37px" height="25px" viewBox="0 0 37 25" version="1.1" xmlns="http://www.w3.org/2000/svg" xmlns:xlink="http://www.w3.org/1999/xlink">
    <!-- Generator: Sketch 61.2 (89653) - https://sketch.com -->
    <title>Group</title>
    <desc>Created with Sketch.</desc>
    <g id="Flower-Based-Infusions" stroke="none" stroke-width="1" fill="none" fill-rule="evenodd">
        <g id="Artboard" transform="translate(-191.000000, -4971.000000)" fill="#FFD23E" fill-rule="nonzero">
            <g id="Group-8" transform="translate(191.000000, 4969.000000)">
                <g id="noun_Hard-Hat_579136" transform="translate(0.000000, 2.000000)">
                    <g id="Group">
                        <path d="M28.8586203,21.2521875 L7.53658644,21.2521875 C7.19041695,21.2521875 6.9094678,20.9728125 6.9094678,20.6271875 C6.9094678,20.2815625 7.19041695,20.0021875 7.53658644,20.0021875 L28.8586203,20.0021875 C29.2047898,20.0021875 29.485739,20.2815625 29.485739,20.6271875 C29.485739,20.9728125 29.2047898,21.2521875 28.8586203,21.2521875 M35.7569254,20.0021875 L34.4895186,20.0021875 C34.1508746,20.0021875 33.8755695,19.7284375 33.8755695,19.3903125 L33.8755695,17.2153125 C33.8755695,14.2946875 33.0647051,11.4915625 31.6430271,9.0665625 L24.0574,11.8384375 C23.9871627,11.8646875 23.9144169,11.8771875 23.8416712,11.8771875 C23.6830102,11.8771875 23.5262305,11.8165625 23.4077051,11.7034375 C23.2346203,11.5378125 23.1712814,11.2890625 23.2440271,11.0615625 L25.7606542,3.2253125 C24.9535525,2.7640625 24.1063153,2.3646875 23.2145525,2.0521875 L23.2145525,1.8428125 C23.2145525,0.8278125 22.3861288,0.0021875 21.3676881,0.0021875 L18.824722,0.0021875 L18.824722,8.7471875 C18.824722,9.0928125 18.5437729,9.3721875 18.1976034,9.3721875 C17.8514339,9.3721875 17.5704847,9.0928125 17.5704847,8.7471875 L17.5704847,0.0021875 L15.0275186,0.0021875 C14.009078,0.0021875 13.1806542,0.8278125 13.1806542,1.8428125 L13.1806542,2.0465625 C12.2205356,2.3703125 11.3124678,2.7946875 10.4508068,3.2884375 L13.1461627,11.0478125 C13.2239254,11.2728125 13.1674847,11.5228125 12.9994169,11.6915625 C12.8796373,11.8121875 12.7184678,11.8771875 12.5535356,11.8771875 C12.487061,11.8771875 12.4205864,11.8665625 12.3553661,11.8446875 L4.54585763,9.2503125 C3.25650169,11.5390625 2.51963729,14.1515625 2.51963729,16.8771875 L2.51963729,19.3903125 C2.51963729,19.7284375 2.2443322,20.0021875 1.90568814,20.0021875 L0.638281356,20.0021875 C0.292111864,20.0021875 0.0111627119,20.2815625 0.0111627119,20.6271875 L0.0111627119,24.3771875 C0.0111627119,24.7228125 0.292111864,25.0021875 0.638281356,25.0021875 L35.7569254,25.0021875 C36.1030949,25.0021875 36.3840441,24.7228125 36.3840441,24.3771875 L36.3840441,20.6271875 C36.3840441,20.2815625 36.1030949,20.0021875 35.7569254,20.0021875" id="Shape"></path>
                        <path d="M9.36181525,3.9735625 C7.72566271,5.1004375 6.32279831,6.5241875 5.22032373,8.1573125 L11.5448153,10.2585625 L9.36181525,3.9735625 Z" id="Path"></path>
                        <path d="M30.9545136,7.987375 C29.847022,6.397375 28.4573271,5.014875 26.8562932,3.91425 L24.8300729,10.2255 L30.9545136,7.987375 Z" id="Path"></path>
                    </g>
                </g>
            </g>
        </g>
    </g>
</svg>