<?xml version="1.0" encoding="UTF-8"?>
<svg width="46px" height="46px" viewBox="0 0 46 46" version="1.1" xmlns="http://www.w3.org/2000/svg" xmlns:xlink="http://www.w3.org/1999/xlink">
    <!-- Generator: Sketch 61.2 (89653) - https://sketch.com -->
    <title>Group</title>
    <desc>Created with Sketch.</desc>
    <g id="Homepage" stroke="none" stroke-width="1" fill="none" fill-rule="evenodd">
        <g id="Group" fill="#540D6E">
            <path d="M25,36 L3,36 C1.346,36 0,34.655 0,33 L0,3 C0,1.346 1.346,0 3,0 L33,0 C34.654,0 36,1.346 36,3 L36,25 L34,25 L34,3 C34,2.449 33.551,2 33,2 L3,2 C2.449,2 2,2.449 2,3 L2,33 C2,33.552 2.449,34 3,34 L25,34 L25,36" id="Fill-371"></path>
            <path d="M5,4.5 C4.724,4.5 4.5,4.725 4.5,5 C4.5,5.276 4.724,5.5 5,5.5 C5.276,5.5 5.5,5.276 5.5,5 C5.5,4.725 5.276,4.5 5,4.5 Z M5,6.5 C4.173,6.5 3.5,5.828 3.5,5 C3.5,4.173 4.173,3.5 5,3.5 C5.827,3.5 6.5,4.173 6.5,5 C6.5,5.828 5.827,6.5 5,6.5 L5,6.5 Z" id="Fill-372"></path>
            <path d="M9,4.5 C8.724,4.5 8.5,4.725 8.5,5 C8.5,5.276 8.724,5.5 9,5.5 C9.276,5.5 9.5,5.276 9.5,5 C9.5,4.725 9.276,4.5 9,4.5 Z M9,6.5 C8.173,6.5 7.5,5.828 7.5,5 C7.5,4.173 8.173,3.5 9,3.5 C9.827,3.5 10.5,4.173 10.5,5 C10.5,5.828 9.827,6.5 9,6.5 L9,6.5 Z" id="Fill-373"></path>
            <path d="M13,4.5 C12.724,4.5 12.5,4.725 12.5,5 C12.5,5.276 12.724,5.5 13,5.5 C13.276,5.5 13.5,5.276 13.5,5 C13.5,4.725 13.276,4.5 13,4.5 Z M13,6.5 C12.173,6.5 11.5,5.828 11.5,5 C11.5,4.173 12.173,3.5 13,3.5 C13.827,3.5 14.5,4.173 14.5,5 C14.5,5.828 13.827,6.5 13,6.5 L13,6.5 Z" id="Fill-374"></path>
            <polygon id="Fill-375" points="1 10 35 10 35 8 1 8"></polygon>
            <path d="M35,26 C30.038,26 26,30.038 26,35 C26,39.963 30.038,44 35,44 C39.962,44 44,39.963 44,35 C44,30.038 39.962,26 35,26 Z M35,46 C28.935,46 24,41.066 24,35 C24,28.935 28.935,24 35,24 C41.065,24 46,28.935 46,35 C46,41.066 41.065,46 35,46 L35,46 Z" id="Fill-376"></path>
            <path d="M33,39 C32.744,39 32.487,38.902 32.293,38.708 L29.293,35.708 C28.902,35.317 28.902,34.684 29.293,34.293 C29.684,33.903 30.316,33.903 30.707,34.293 L33.052,36.639 L39.349,31.241 C39.768,30.881 40.399,30.931 40.759,31.35 C41.119,31.769 41.07,32.4 40.651,32.76 L33.651,38.76 C33.463,38.921 33.231,39 33,39" id="Fill-377"></path>
            <path d="M13,19 L6,19 C5.448,19 5,18.553 5,18 C5,17.448 5.448,17 6,17 L13,17 C13.552,17 14,17.448 14,18 C14,18.553 13.552,19 13,19" id="Fill-378"></path>
            <path d="M25,23 L6,23 C5.448,23 5,22.553 5,22 C5,21.448 5.448,21 6,21 L25,21 C25.552,21 26,21.448 26,22 C26,22.553 25.552,23 25,23" id="Fill-379"></path>
        </g>
    </g>
</svg>