<?xml version="1.0" encoding="UTF-8"?>
<svg width="48px" height="48px" viewBox="0 0 48 48" version="1.1" xmlns="http://www.w3.org/2000/svg" xmlns:xlink="http://www.w3.org/1999/xlink">
    <!-- Generator: Sketch 61.2 (89653) - https://sketch.com -->
    <title>ic_donate_compet</title>
    <desc>Created with Sketch.</desc>
    <g id="Page-1" stroke="none" stroke-width="1" fill="none" fill-rule="evenodd">
        <g id="ic_donate_compet" fill="#FFD23E">
            <rect id="Rectangle-Copy-4" fill-opacity="0.2" x="0" y="0" width="48" height="47.731243" rx="5.05263158"></rect>
            <g id="Group" transform="translate(9.000000, 8.000000)">
                <g id="Group-8">
                    <path d="M0.699345773,30.1301 C0.592245773,30.1301 0.482345773,30.1056 0.380145773,30.0531 C0.0364457733,29.8767 -0.0993542267,29.4546 0.0777457733,29.1102 C0.177145773,28.917 0.287745773,28.6062 0.415845773,28.2464 C1.00034577,26.6007 1.97964577,23.8455 5.17444577,22.6373 C6.60734577,22.0948 7.16034577,21.8806 7.37454577,21.6314 C7.18764577,21.6258 6.98394577,21.6244 6.78374577,21.623 C5.53634577,21.616 3.98374577,21.6069 3.18784577,20.5457 C2.24494577,19.2878 2.97714577,18.1657 3.62324577,17.1752 C3.77584577,16.9407 3.93754577,16.6936 4.09294577,16.4262 C5.24444577,14.4403 5.32074577,13.6661 5.42574577,12.5944 L5.44954577,12.3634 C5.80374577,8.9159 7.83024577,6.8943 11.1559458,6.6703 L11.2504458,6.6703 C14.5768458,6.8943 16.6033458,8.9159 16.9582458,12.3627 L16.9813458,12.5944 C17.0870458,13.6661 17.1626458,14.4403 18.3148458,16.4269 C18.4695458,16.6929 18.6312458,16.9407 18.7838458,17.1752 C19.4299458,18.1657 20.1621458,19.2885 19.2192458,20.5457 C18.4226458,21.6069 16.8707458,21.616 15.6233458,21.623 C15.4532458,21.6244 15.2810458,21.6251 15.1186458,21.6293 C15.3657458,21.8239 15.8893458,22.0514 16.9995458,22.5344 L17.2648458,22.6506 C20.5583458,24.0856 21.4571458,26.6896 21.9947458,28.2457 C22.1165458,28.5978 22.2215458,28.9023 22.3223458,29.0962 C22.5001458,29.4399 22.3657458,29.862 22.0220458,30.0398 C21.6790458,30.2183 21.2562458,30.0839 21.0784458,29.7395 C20.9314458,29.4553 20.8110458,29.1067 20.6717458,28.7028 C20.1789458,27.2776 19.4355458,25.1237 16.7055458,23.9337 L16.4409458,23.8182 C14.0049458,22.7584 13.4981458,22.5379 13.4981458,21.0301 C13.4981458,20.7193 13.7032458,20.4456 14.0007458,20.3581 C14.4382458,20.23 14.9835458,20.2265 15.6149458,20.223 C16.5529458,20.2174 17.7198458,20.2111 18.0992458,19.705 C18.4191458,19.2787 18.2840458,18.9707 17.6120458,17.9403 C17.4461458,17.6862 17.2711458,17.4174 17.1038458,17.129 C15.7997458,14.8799 15.7017458,13.8845 15.5876458,12.7316 L15.5652458,12.5062 C15.2824458,9.7552 13.8152458,8.2628 11.2035458,8.0703 C8.59184577,8.2628 7.12464577,9.7552 6.84184577,12.5062 L6.81944577,12.7316 C6.70604577,13.8845 6.60734577,14.8799 5.30394577,17.129 C5.13594577,17.4181 4.96094577,17.6862 4.79574577,17.9403 C4.12374577,18.9707 3.98794577,19.2787 4.30784577,19.705 C4.68724577,20.2111 5.85414577,20.2174 6.79214577,20.223 C7.42354577,20.2265 7.96884577,20.23 8.40634577,20.3581 C8.70454577,20.4456 8.90894577,20.7193 8.90894577,21.0301 C8.90894577,22.6597 8.29014577,22.9551 5.67004577,23.947 C3.08144577,24.9256 2.27084577,27.2062 1.73464577,28.7154 C1.58974577,29.1221 1.46514577,29.4735 1.32304577,29.75 C1.19844577,29.9922 0.953445773,30.1301 0.699345773,30.1301" id="Fill-383"></path>
                    <path d="M22.7738458,13.685 C21.8092458,13.685 21.0238458,14.3696 21.0238458,15.2103 C21.0238458,16.0517 21.8092458,16.7363 22.7738458,16.7363 C23.7391458,16.7363 24.5238458,16.0517 24.5238458,15.2103 C24.5238458,14.3696 23.7391458,13.685 22.7738458,13.685 Z M22.7738458,18.1363 C21.0371458,18.1363 19.6238458,16.8238 19.6238458,15.2103 C19.6238458,13.5975 21.0371458,12.285 22.7738458,12.285 C24.5112458,12.285 25.9238458,13.5975 25.9238458,15.2103 C25.9238458,16.8238 24.5112458,18.1363 22.7738458,18.1363 L22.7738458,18.1363 Z" id="Fill-384"></path>
                    <path d="M19.9738458,20.7466 C19.2017458,20.7466 18.5738458,20.1474 18.5738458,19.4103 C18.5738458,18.6739 19.2017458,18.0747 19.9738458,18.0747 C20.7459458,18.0747 21.3738458,18.6739 21.3738458,19.4103 C21.3738458,20.1474 20.7459458,20.7466 19.9738458,20.7466" id="Fill-385"></path>
                    <path d="M23.7447458,1.4 C21.0707458,1.4 18.8951458,3.2648 18.8951458,5.5566 C18.8951458,7.8484 21.0707458,9.7125 23.7447458,9.7125 C26.4194458,9.7125 28.5950458,7.8484 28.5950458,5.5566 C28.5950458,3.2648 26.4194458,1.4 23.7447458,1.4 Z M23.7447458,11.1125 C20.2986458,11.1125 17.4951458,8.6205 17.4951458,5.5566 C17.4951458,2.4927 20.2986458,9.14823772e-14 23.7447458,9.14823772e-14 C27.1908458,9.14823772e-14 29.9950458,2.4927 29.9950458,5.5566 C29.9950458,8.6205 27.1908458,11.1125 23.7447458,11.1125 L23.7447458,11.1125 Z" id="Fill-386"></path>
                </g>
            </g>
        </g>
    </g>
</svg>