<?xml version="1.0" encoding="UTF-8"?>
<svg width="48px" height="48px" viewBox="0 0 48 48" version="1.1" xmlns="http://www.w3.org/2000/svg" xmlns:xlink="http://www.w3.org/1999/xlink">
    <!-- Generator: Sketch 61.2 (89653) - https://sketch.com -->
    <title>ic_donate_compet</title>
    <desc>Created with Sketch.</desc>
    <g id="Page-1" stroke="none" stroke-width="1" fill="none" fill-rule="evenodd">
        <g id="ic_donate_compet" fill="#3BCEAC">
            <rect id="Rectangle-Copy-4" fill-opacity="0.2" x="0" y="0" width="48" height="47.731243" rx="5.05263158"></rect>
            <g id="Group-10" transform="translate(13.000000, 8.000000)">
                <path d="M19.84,5.76 L1.28,5.76 C0.92672,5.76 0.64,5.47392 0.64,5.12 C0.64,4.76672 0.92672,4.48 1.28,4.48 L19.84,4.48 C20.19328,4.48 20.48,4.76672 20.48,5.12 C20.48,5.47392 20.19328,5.76 19.84,5.76" id="Fill-728"></path>
                <path d="M19.84,24.32 L1.28,24.32 C0.92672,24.32 0.64,24.03392 0.64,23.68 C0.64,23.32672 0.92672,23.04 1.28,23.04 L19.84,23.04 C20.19328,23.04 20.48,23.32672 20.48,23.68 C20.48,24.03392 20.19328,24.32 19.84,24.32" id="Fill-729"></path>
                <path d="M3.2,1.28 C2.14144,1.28 1.28,2.14144 1.28,3.2 L1.28,27.52 C1.28,28.5792 2.14144,29.44 3.2,29.44 L17.28,29.44 C18.33856,29.44 19.2,28.5792 19.2,27.52 L19.2,3.2 C19.2,2.14144 18.33856,1.28 17.28,1.28 L3.2,1.28 Z M17.28,30.72 L3.2,30.72 C1.43552,30.72 0,29.28448 0,27.52 L0,3.2 C0,1.43616 1.43552,0 3.2,0 L17.28,0 C19.04448,0 20.48,1.43616 20.48,3.2 L20.48,27.52 C20.48,29.28448 19.04448,30.72 17.28,30.72 L17.28,30.72 Z" id="Fill-730"></path>
                <path d="M10.24,28.16 C9.53408,28.16 8.96,27.58592 8.96,26.88 C8.96,26.17408 9.53408,25.6 10.24,25.6 C10.94592,25.6 11.52,26.17408 11.52,26.88 C11.52,27.58592 10.94592,28.16 10.24,28.16" id="Fill-731"></path>
            </g>
        </g>
    </g>
</svg>