<?xml version="1.0" encoding="UTF-8"?>
<svg width="48px" height="48px" viewBox="0 0 48 48" version="1.1" xmlns="http://www.w3.org/2000/svg" xmlns:xlink="http://www.w3.org/1999/xlink">
    <!-- Generator: Sketch 61.2 (89653) - https://sketch.com -->
    <title>ic_donate_indus</title>
    <desc>Created with Sketch.</desc>
    <g id="Page-1" stroke="none" stroke-width="1" fill="none" fill-rule="evenodd">
        <g id="Artboard" transform="translate(-281.000000, -11615.000000)" fill="#FFD23E">
            <g id="ic_donate_indus" transform="translate(281.000000, 11615.000000)">
                <rect id="Rectangle-Copy-4" fill-opacity="0.2" x="0" y="0" width="48" height="48" rx="5.05263158"></rect>
                <g id="Group" transform="translate(12.000000, 9.000000)">
                    <path d="M11.97,1.26 C10.58022,1.26 9.45,2.39085 9.45,3.78 C9.45,5.16978 10.58022,6.3 11.97,6.3 C13.35978,6.3 14.49,5.16978 14.49,3.78 C14.49,2.39085 13.35978,1.26 11.97,1.26 Z M11.97,7.56 C9.88533,7.56 8.19,5.86467 8.19,3.78 C8.19,1.69596 9.88533,0 11.97,0 C14.05467,0 15.75,1.69596 15.75,3.78 C15.75,5.86467 14.05467,7.56 11.97,7.56 L11.97,7.56 Z" id="Fill-35"></path>
                    <path d="M11.97,7.56441 L8.14212,7.98966 C7.47936,8.06337 6.98796,8.64234 7.02261,9.30762 L7.46109,17.63685 C7.50519,18.4716 8.07975,19.16838 8.89056,19.37124 L9.60309,19.5489 C9.82863,19.6056 10.0044,19.782 10.0611,20.00754 L11.79864,26.95644 C11.8377,27.11457 12.1023,27.11457 12.14136,26.95644 L13.8789,20.00754 C13.9356,19.782 14.11137,19.6056 14.33691,19.5489 L15.04944,19.37124 C15.86025,19.16838 16.43481,18.4716 16.47891,17.63685 L16.91739,9.30762 C16.95204,8.64234 16.46064,8.06337 15.79788,7.98966 L11.97,7.56441 Z M11.97,28.35 C11.30976,28.35 10.73646,27.9027 10.57581,27.26199 L8.93025,20.67975 L8.58438,20.59344 C7.23303,20.25576 6.27606,19.09404 6.20298,17.703 L5.7645,9.3744 C5.69457,8.04258 6.678,6.88464 8.00289,6.73722 L11.9007,6.30441 L12.0393,6.30441 L15.93711,6.73722 C17.262,6.88464 18.24543,8.04258 18.1755,9.3744 L17.73702,17.703 C17.66394,19.09404 16.70697,20.25576 15.35562,20.59344 L15.00975,20.67975 L13.36419,27.26199 C13.20354,27.9027 12.63024,28.35 11.97,28.35 L11.97,28.35 Z" id="Fill-36"></path>
                    <path d="M11.97,30.24 C7.52409,30.24 0,29.57661 0,27.09 C0,25.09857 4.71996,24.34824 7.53291,24.07797 C7.88445,24.04584 8.18748,24.29847 8.22024,24.64497 C8.25363,24.99084 7.99974,25.29891 7.65324,25.3323 C3.01203,25.77771 1.3419,26.78445 1.25937,27.10008 C1.44522,27.74268 5.28885,28.98 11.97,28.98 C18.65115,28.98 22.49478,27.74268 22.68126,27.07929 C22.58109,26.74476 20.84166,25.82055 16.32771,25.39593 C15.98184,25.36317 15.72732,25.05573 15.76008,24.70986 C15.79221,24.36336 16.09713,24.10632 16.44615,24.1416 C19.24461,24.40494 23.94,25.13763 23.94,27.09 C23.94,29.57661 16.41591,30.24 11.97,30.24" id="Fill-37"></path>
                </g>
            </g>
        </g>
    </g>
</svg>