<?xml version="1.0" encoding="UTF-8"?>
<svg width="46px" height="46px" viewBox="0 0 46 46" version="1.1" xmlns="http://www.w3.org/2000/svg" xmlns:xlink="http://www.w3.org/1999/xlink">
    <!-- Generator: Sketch 61.2 (89653) - https://sketch.com -->
    <title>ic_other_icons</title>
    <desc>Created with Sketch.</desc>
    <g id="Homepage" stroke="none" stroke-width="1" fill="none" fill-rule="evenodd">
        <g id="OtherWork" transform="translate(-435.000000, -405.000000)">
            <g id="Group-8">
                <g id="Raised-Card-Copy" transform="translate(284.000000, 388.000000)">
                    <g id="Group-9">
                        <g id="ic_other_icons" transform="translate(150.000000, 16.000000)">
                            <rect id="Rectangle" x="0" y="0" width="48" height="48"></rect>
                            <path d="M14.258,38.122 C14.446,38.122 14.635,38.174 14.8,38.282 C16.532,39.4 18.419,40.184 20.409,40.613 C20.804,40.698 21.11,41.013 21.182,41.412 L21.685,44.179 C21.772,44.655 22.186,45 22.669,45 L25.331,45 C25.814,45 26.228,44.655 26.315,44.178 L26.818,41.412 C26.89,41.013 27.196,40.698 27.591,40.613 C29.581,40.184 31.468,39.4 33.2,38.282 C33.54,38.06 33.979,38.069 34.312,38.299 L36.632,39.906 C37.021,40.174 37.575,40.123 37.908,39.791 L39.791,37.909 C40.132,37.567 40.181,37.03 39.905,36.632 L38.299,34.312 C38.068,33.979 38.062,33.541 38.281,33.201 C39.399,31.468 40.184,29.581 40.612,27.592 C40.697,27.196 41.012,26.891 41.411,26.818 L44.179,26.315 C44.655,26.229 45,25.815 45,25.332 L45,22.669 C45,22.186 44.655,21.772 44.179,21.685 L41.411,21.183 C41.012,21.11 40.697,20.805 40.612,20.409 C40.184,18.42 39.399,16.533 38.281,14.8 C38.062,14.46 38.068,14.022 38.299,13.689 L39.905,11.369 C40.181,10.971 40.132,10.434 39.791,10.092 L37.908,8.21 C37.574,7.878 37.02,7.826 36.631,8.095 L34.312,9.702 C33.979,9.932 33.541,9.941 33.2,9.719 C31.467,8.601 29.581,7.817 27.591,7.388 C27.196,7.303 26.89,6.988 26.818,6.589 L26.315,3.822 C26.228,3.346 25.814,3 25.331,3 L22.669,3 C22.186,3 21.772,3.346 21.685,3.823 L21.182,6.589 C21.11,6.988 20.804,7.303 20.409,7.388 C18.419,7.817 16.533,8.601 14.8,9.719 C14.46,9.941 14.021,9.932 13.688,9.702 L11.368,8.095 C10.98,7.827 10.425,7.878 10.092,8.21 L8.209,10.092 C7.868,10.434 7.819,10.971 8.095,11.369 L9.701,13.689 C9.932,14.022 9.938,14.46 9.719,14.8 C8.601,16.533 7.816,18.42 7.388,20.409 C7.303,20.805 6.988,21.11 6.589,21.183 L3.821,21.686 C3.345,21.772 3,22.186 3,22.669 L3,25.332 C3,25.815 3.345,26.229 3.821,26.316 L6.589,26.818 C6.988,26.891 7.303,27.196 7.388,27.592 C7.816,29.581 8.601,31.468 9.719,33.201 C9.938,33.541 9.932,33.979 9.701,34.312 L8.095,36.632 C7.819,37.03 7.868,37.567 8.209,37.909 L10.092,39.791 C10.425,40.123 10.979,40.173 11.369,39.906 L13.688,38.299 C13.859,38.181 14.059,38.122 14.258,38.122 Z M25.331,47 L22.669,47 C21.219,47 19.978,45.964 19.717,44.538 L19.332,42.415 C17.561,41.966 15.87,41.263 14.288,40.317 L12.507,41.55 C11.342,42.355 9.677,42.204 8.678,41.205 L6.795,39.323 C5.77,38.297 5.625,36.687 6.45,35.494 L7.683,33.713 C6.737,32.13 6.034,30.439 5.586,28.668 L3.463,28.284 C2.036,28.024 1,26.783 1,25.332 L1,22.669 C1,21.218 2.036,19.977 3.463,19.718 L5.586,19.333 C6.034,17.562 6.737,15.871 7.683,14.288 L6.45,12.507 C5.625,11.314 5.77,9.704 6.795,8.678 L8.678,6.796 C9.677,5.797 11.343,5.646 12.506,6.451 L14.288,7.684 C15.87,6.738 17.562,6.035 19.332,5.586 L19.717,3.464 C19.978,2.037 21.219,1 22.669,1 L25.331,1 C26.781,1 28.022,2.037 28.283,3.463 L28.668,5.586 C30.438,6.035 32.13,6.738 33.712,7.684 L35.493,6.451 C36.658,5.646 38.324,5.797 39.322,6.796 L41.205,8.678 C42.23,9.704 42.375,11.314 41.55,12.507 L40.317,14.288 C41.263,15.871 41.966,17.562 42.414,19.333 L44.537,19.717 C45.964,19.977 47,21.218 47,22.669 L47,25.332 C47,26.783 45.964,28.024 44.537,28.283 L42.414,28.668 C41.966,30.439 41.263,32.13 40.317,33.713 L41.55,35.494 C42.375,36.687 42.23,38.297 41.205,39.323 L39.322,41.205 C38.756,41.771 38.002,42.083 37.2,42.083 C36.588,42.083 35.998,41.899 35.494,41.55 L33.712,40.317 C32.13,41.263 30.439,41.966 28.668,42.415 L28.283,44.537 C28.022,45.964 26.781,47 25.331,47 L25.331,47 Z" id="Fill-267" fill="#540D6E"></path>
                            <path d="M24,17 C20.14,17 17,20.141 17,24 C17,27.86 20.14,31 24,31 C27.86,31 31,27.86 31,24 C31,20.141 27.86,17 24,17 Z M24,33 C19.038,33 15,28.963 15,24 C15,19.038 19.038,15 24,15 C28.962,15 33,19.038 33,24 C33,28.963 28.962,33 24,33 L24,33 Z" id="Fill-268" fill="#540D6E"></path>
                        </g>
                    </g>
                </g>
            </g>
        </g>
    </g>
</svg>