<?xml version="1.0" encoding="UTF-8"?>
<svg width="45px" height="45px" viewBox="0 0 45 45" version="1.1" xmlns="http://www.w3.org/2000/svg" xmlns:xlink="http://www.w3.org/1999/xlink">
    <!-- Generator: Sketch 61.2 (89653) - https://sketch.com -->
    <title>ic_other_illus</title>
    <desc>Created with Sketch.</desc>
    <g id="Homepage" stroke="none" stroke-width="1" fill="none" fill-rule="evenodd">
        <g id="OtherWork" transform="translate(-801.000000, -404.000000)">
            <g id="Group-8">
                <g id="Raised-Card-Copy" transform="translate(649.000000, 388.000000)">
                    <g id="Group-9">
                        <g id="ic_other_illus" transform="translate(150.000000, 16.000000)">
                            <rect id="Rectangle" x="0" y="0" width="48" height="48"></rect>
                            <path d="M6.75723064,28.914125 L4.24223064,42.742125 L18.0702306,40.227125 L44.7192306,13.578125 C45.1092306,13.188125 45.1092306,12.554125 44.7192306,12.164125 L34.8202306,2.26512504 C34.4422306,1.88612504 33.7832306,1.88712504 33.4052306,2.26512504 L6.75723064,28.914125 Z M3.00023064,44.984125 C2.73723064,44.984125 2.48223064,44.880125 2.29323064,44.691125 C2.06123064,44.459125 1.95723064,44.128125 2.01623064,43.805125 L4.84423064,28.249125 C4.88123064,28.049125 4.97723064,27.864125 5.12123064,27.721125 L31.9912306,0.850125041 C33.1242306,-0.282874959 35.0992306,-0.283874959 36.2342306,0.850125041 L46.1332306,10.750125 C46.7002306,11.317125 47.0122306,12.070125 47.0122306,12.871125 C47.0122306,13.673125 46.7002306,14.426125 46.1332306,14.993125 L19.2632306,41.862125 C19.1192306,42.006125 18.9352306,42.102125 18.7352306,42.139125 L3.17823064,44.968125 L3.00023064,44.984125 L3.00023064,44.984125 Z" id="Fill-189" fill="#540D6E"></path>
                            <path d="M10.7782306,32.963125 C10.5222306,32.963125 10.2662306,32.865125 10.0712306,32.670125 C9.68023064,32.279125 9.68023064,31.646125 10.0712306,31.256125 L37.6482306,3.67912504 C38.0392306,3.28812504 38.6722306,3.28812504 39.0622306,3.67912504 C39.4532306,4.06912504 39.4532306,4.70212504 39.0622306,5.09312504 L11.4852306,32.670125 C11.2902306,32.865125 11.0342306,32.963125 10.7782306,32.963125" id="Fill-190" fill="#540D6E"></path>
                            <path d="M15.0212306,37.205125 C14.7652306,37.205125 14.5092306,37.108125 14.3142306,36.912125 C13.9232306,36.522125 13.9232306,35.889125 14.3142306,35.498125 L41.8912306,7.92112504 C42.2812306,7.53112504 42.9142306,7.53112504 43.3052306,7.92112504 C43.6962306,8.31212504 43.6962306,8.94512504 43.3052306,9.33512504 L15.7282306,36.912125 C15.5322306,37.108125 15.2772306,37.205125 15.0212306,37.205125" id="Fill-191" fill="#540D6E"></path>
                            <path d="M18.5562306,42.155125 C18.3002306,42.155125 18.0442306,42.057125 17.8492306,41.862125 L5.12123064,29.135125 C4.73123064,28.744125 4.73123064,28.111125 5.12123064,27.721125 C5.51223064,27.330125 6.14523064,27.330125 6.53523064,27.721125 L19.2632306,40.448125 C19.6542306,40.839125 19.6542306,41.472125 19.2632306,41.862125 C19.0682306,42.057125 18.8122306,42.155125 18.5562306,42.155125" id="Fill-192" fill="#540D6E"></path>
                            <path d="M10.0712306,43.570125 C9.81523064,43.570125 9.55923064,43.472125 9.36323064,43.277125 L3.70723064,37.620125 C3.31623064,37.229125 3.31623064,36.597125 3.70723064,36.206125 C4.09723064,35.815125 4.73023064,35.815125 5.12123064,36.206125 L10.7782306,41.863125 C11.1682306,42.253125 11.1682306,42.886125 10.7782306,43.277125 C10.5822306,43.472125 10.3262306,43.570125 10.0712306,43.570125" id="Fill-193" fill="#540D6E"></path>
                        </g>
                    </g>
                </g>
            </g>
        </g>
    </g>
</svg>