<?xml version="1.0" encoding="UTF-8"?>
<svg width="43px" height="43px" viewBox="0 0 43 43" version="1.1" xmlns="http://www.w3.org/2000/svg" xmlns:xlink="http://www.w3.org/1999/xlink">
    <!-- Generator: Sketch 61.2 (89653) - https://sketch.com -->
    <title>ic_other_ecom</title>
    <desc>Created with Sketch.</desc>
    <g id="Homepage" stroke="none" stroke-width="1" fill="none" fill-rule="evenodd">
        <g id="OtherWork" transform="translate(-436.000000, -207.000000)">
            <g id="Group-8">
                <g id="Raised-Card-Copy" transform="translate(284.000000, 188.000000)">
                    <g id="Group-9">
                        <g id="ic_other_ecom" transform="translate(150.000000, 16.000000)">
                            <rect id="Rectangle" x="0" y="0" width="48" height="48"></rect>
                            <path d="M38.438,34 L18.474,34 C17.151,34 16,33.152 15.608,31.889 L7.263,5 L3,5 C2.448,5 2,4.553 2,4 C2,3.448 2.448,3 3,3 L8.737,3 L17.519,31.296 C17.649,31.718 18.033,32 18.474,32 L38.438,32 C38.898,32 39.297,31.689 39.409,31.243 L43.03,16.758 C43.164,16.222 43.709,15.896 44.243,16.031 C44.778,16.165 45.104,16.708 44.97,17.243 L41.349,31.728 C41.014,33.066 39.817,34 38.438,34" id="Fill-271" fill="#540D6E"></path>
                            <path d="M22,38 C20.346,38 19,39.346 19,41 C19,42.655 20.346,44 22,44 C23.654,44 25,42.655 25,41 C25,39.346 23.654,38 22,38 Z M22,46 C19.243,46 17,43.757 17,41 C17,38.244 19.243,36 22,36 C24.757,36 27,38.244 27,41 C27,43.757 24.757,46 22,46 L22,46 Z" id="Fill-272" fill="#540D6E"></path>
                            <path d="M37,38 C35.346,38 34,39.346 34,41 C34,42.655 35.346,44 37,44 C38.654,44 40,42.655 40,41 C40,39.346 38.654,38 37,38 Z M37,46 C34.243,46 32,43.757 32,41 C32,38.244 34.243,36 37,36 C39.757,36 42,38.244 42,41 C42,43.757 39.757,46 37,46 L37,46 Z" id="Fill-273" fill="#540D6E"></path>
                            <path d="M43,22 L19,22 C18.448,22 18,21.553 18,21 C18,20.448 18.448,20 19,20 L43,20 C43.552,20 44,20.448 44,21 C44,21.553 43.552,22 43,22" id="Fill-274" fill="#540D6E"></path>
                            <path d="M37,22 C36.604,22 36.228,21.763 36.071,21.372 C35.866,20.859 36.116,20.277 36.629,20.072 L39.537,18.909 C39.806,18.801 40.008,18.591 40.106,18.319 C40.204,18.046 40.182,17.756 40.043,17.502 L35.984,10.06 C35.738,9.61 35.195,9.421 34.722,9.616 L26.363,13.099 C26.104,13.208 25.908,13.411 25.81,13.673 C25.712,13.936 25.727,14.219 25.853,14.469 L28.895,20.553 C29.142,21.047 28.941,21.648 28.447,21.895 C27.953,22.141 27.353,21.942 27.105,21.448 L24.063,15.364 C23.693,14.623 23.646,13.752 23.936,12.976 C24.225,12.2 24.829,11.572 25.594,11.253 L33.953,7.77 C35.376,7.179 37.003,7.75 37.74,9.103 L41.799,16.544 C42.209,17.295 42.278,18.189 41.988,18.996 C41.698,19.802 41.076,20.448 40.28,20.766 L37.371,21.929 C37.25,21.978 37.124,22 37,22" id="Fill-275" fill="#540D6E"></path>
                            <path d="M19,22 C18.448,22 18,21.553 18,21 L18,16 C18,14.898 18.897,14 20,14 L25,14 C25.552,14 26,14.448 26,15 C26,15.553 25.552,16 25,16 L20,16 L20,21 C20,21.553 19.552,22 19,22" id="Fill-276" fill="#540D6E"></path>
                            <path d="M22,16 C21.448,16 21,15.553 21,15 L21,9 C21,7.898 21.897,7 23,7 L28,7 C29.103,7 30,7.898 30,9 L30,10 C30,10.553 29.552,11 29,11 C28.448,11 28,10.553 28,10 L28,9 L23,9 L23,15 C23,15.553 22.552,16 22,16" id="Fill-277" fill="#540D6E"></path>
                        </g>
                    </g>
                </g>
            </g>
        </g>
    </g>
</svg>