<?xml version="1.0" encoding="UTF-8"?>
<svg width="46px" height="46px" viewBox="0 0 46 46" version="1.1" xmlns="http://www.w3.org/2000/svg" xmlns:xlink="http://www.w3.org/1999/xlink">
    <!-- Generator: Sketch 61.2 (89653) - https://sketch.com -->
    <title>ic_other_emoj</title>
    <desc>Created with Sketch.</desc>
    <g id="Homepage" stroke="none" stroke-width="1" fill="none" fill-rule="evenodd">
        <g id="OtherWork" transform="translate(-435.000000, -605.000000)">
            <g id="Group-8">
                <g id="Raised-Card-Copy" transform="translate(284.000000, 588.000000)">
                    <g id="Group-9">
                        <g id="ic_other_emoj" transform="translate(150.000000, 16.000000)">
                            <rect id="Rectangle" x="0" y="0" width="48" height="48"></rect>
                            <path d="M24,3 C12.421,3 3,12.421 3,24 C3,35.58 12.421,45 24,45 C35.579,45 45,35.58 45,24 C45,12.421 35.579,3 24,3 Z M24,47 C11.317,47 1,36.683 1,24 C1,11.318 11.317,1 24,1 C36.683,1 47,11.318 47,24 C47,36.683 36.683,47 24,47 L24,47 Z" id="Fill-294" fill="#540D6E"></path>
                            <path d="M16,13.5 C14.621,13.5 13.5,14.622 13.5,16 C13.5,17.379 14.621,18.5 16,18.5 C17.379,18.5 18.5,17.379 18.5,16 C18.5,14.622 17.379,13.5 16,13.5 Z M16,20.5 C13.519,20.5 11.5,18.482 11.5,16 C11.5,13.519 13.519,11.5 16,11.5 C18.481,11.5 20.5,13.519 20.5,16 C20.5,18.482 18.481,20.5 16,20.5 L16,20.5 Z" id="Fill-295" fill="#540D6E"></path>
                            <path d="M32,20.5 C29.519,20.5 27.5,18.482 27.5,16 C27.5,15.448 27.947,15 28.5,15 C29.053,15 29.5,15.448 29.5,16 C29.5,17.379 30.621,18.5 32,18.5 C33.379,18.5 34.5,17.379 34.5,16 C34.5,15.448 34.947,15 35.5,15 C36.053,15 36.5,15.448 36.5,16 C36.5,18.482 34.481,20.5 32,20.5" id="Fill-296" fill="#540D6E"></path>
                            <path d="M23.991,39.499 C21.9,39.499 19.871,39.089 17.962,38.281 C16.119,37.502 14.462,36.384 13.038,34.96 C11.646,33.569 10.498,31.858 9.718,30.011 C9.286,28.993 9.022,28.148 8.838,27.189 C8.782,26.896 8.859,26.594 9.049,26.364 C9.239,26.134 9.522,26 9.82,26 L13,26 C13.553,26 14,26.448 14,27 C14,27.553 13.553,28 13,28 L11.1,28 C11.222,28.389 11.371,28.787 11.56,29.232 C12.241,30.844 13.241,32.335 14.452,33.546 C15.693,34.787 17.136,35.761 18.741,36.439 C22.058,37.843 25.896,37.85 29.236,36.437 C29.748,36.223 30.332,36.46 30.547,36.969 C30.762,37.478 30.524,38.064 30.016,38.279 C28.101,39.089 26.074,39.499 23.991,39.499" id="Fill-297" fill="#540D6E"></path>
                        </g>
                    </g>
                </g>
            </g>
        </g>
    </g>
</svg>