<?xml version="1.0" encoding="UTF-8"?>
<svg width="47px" height="44px" viewBox="0 0 47 44" version="1.1" xmlns="http://www.w3.org/2000/svg" xmlns:xlink="http://www.w3.org/1999/xlink">
    <!-- Generator: Sketch 61.2 (89653) - https://sketch.com -->
    <title>ic_other_anim</title>
    <desc>Created with Sketch.</desc>
    <g id="Homepage" stroke="none" stroke-width="1" fill="none" fill-rule="evenodd">
        <g id="OtherWork" transform="translate(-800.000000, -206.000000)">
            <g id="Group-8">
                <g id="Raised-Card-Copy" transform="translate(649.000000, 188.000000)">
                    <g id="Group-9">
                        <g id="ic_other_anim" transform="translate(150.000000, 16.000000)">
                            <rect id="Rectangle" x="0" y="0" width="48" height="48"></rect>
                            <g id="Group" transform="translate(1.000000, 2.000000)" fill="#540D6E">
                                <path d="M3,21 C2.449,21 2,21.449 2,22 L2,41 C2,41.552 2.449,42 3,42 L32,42 C32.552,42 33,41.552 33,41 L33,22 C33,21.449 32.552,21 32,21 L3,21 Z M32,44 L3,44 C1.346,44 0,42.655 0,41 L0,22 C0,20.346 1.346,19 3,19 L32,19 C33.655,19 35,20.346 35,22 L35,41 C35,42.655 33.655,44 32,44 L32,44 Z" id="Fill-237"></path>
                                <path d="M45,22.388 L36.368,25.266 C35.55,25.538 35,26.3 35,27.163 L35,34.838 C35,35.701 35.55,36.463 36.367,36.735 L45,39.613 L45,22.388 Z M46,42 C45.894,42 45.787,41.983 45.684,41.949 L35.735,38.633 C34.099,38.088 33,36.563 33,34.838 L33,27.163 C33,25.438 34.099,23.913 35.736,23.368 L45.684,20.052 C45.988,19.951 46.324,20 46.585,20.189 C46.846,20.377 47,20.679 47,21 L47,41 C47,41.322 46.846,41.624 46.585,41.812 C46.412,41.936 46.207,42 46,42 L46,42 Z" id="Fill-238"></path>
                                <path d="M18.316,13 C18.724,13 19.095,13.242 19.246,13.625 C20.538,16.895 23.639,19.004 27.147,19.004 C31.834,19.004 35.647,15.189 35.647,10.502 C35.647,5.815 31.834,2.001 27.147,2.001 C23.206,2.001 19.81,4.68 18.891,8.516 C18.791,8.932 18.437,9.238 18.011,9.278 C17.582,9.317 17.18,9.081 17.006,8.69 C15.826,6.056 13.203,4.353 10.324,4.353 C6.286,4.353 3,7.639 3,11.677 C3,15.715 6.286,19 10.324,19 C13.565,19 16.456,16.831 17.355,13.715 C17.473,13.304 17.841,13 18.268,13 L18.316,13 Z M27.147,21 C23.562,21 20.322,19.215 18.405,16.313 C16.768,19.152 13.695,21 10.324,21 C5.183,21 1,16.818 1,11.677 C1,6.536 5.183,2.353 10.324,2.353 C13.235,2.353 15.941,3.72 17.683,5.961 C19.395,2.366 23.03,0 27.147,0 C32.937,0 37.647,4.711 37.647,10.5 C37.647,16.29 32.937,21 27.147,21 L27.147,21 Z" id="Fill-239"></path>
                                <path d="M29,26 L19,26 C18.448,26 18,25.553 18,25 C18,24.448 18.448,24 19,24 L29,24 C29.553,24 30,24.448 30,25 C30,25.553 29.553,26 29,26" id="Fill-240"></path>
                                <path d="M7,37 L20,37 L20,34 L7,34 L7,37 Z M21,39 L6,39 C5.448,39 5,38.553 5,38 L5,33 C5,32.448 5.448,32 6,32 L21,32 C21.553,32 22,32.448 22,33 L22,38 C22,38.553 21.553,39 21,39 L21,39 Z" id="Fill-241"></path>
                            </g>
                        </g>
                    </g>
                </g>
            </g>
        </g>
    </g>
</svg>