<?xml version="1.0" encoding="UTF-8"?>
<svg width="40px" height="40px" viewBox="0 0 40 40" version="1.1" xmlns="http://www.w3.org/2000/svg" xmlns:xlink="http://www.w3.org/1999/xlink">
    <!-- Generator: Sketch 64 (93537) - https://sketch.com -->
    <title>noun_speak_110868</title>
    <desc>Created with Sketch.</desc>
    <g id="PayPal-Donate-app" stroke="none" stroke-width="1" fill="none" fill-rule="evenodd">
        <g id="Artboard" transform="translate(-189.000000, -1829.000000)" fill="#3BCEAC" fill-rule="nonzero">
            <g id="Group-8" transform="translate(189.000000, 1829.000000)">
                <g id="noun_speak_110868">
                    <path d="M16.5404878,39.1771429 C16.4068293,39.1771429 16.2712195,39.1571429 16.1395122,39.1152381 C15.6078049,38.9457143 15.2478049,38.4619048 15.2478049,37.9161905 L15.2478049,32.2304762 C6.34731707,30.5828571 -1.38642485e-13,24.0333333 -1.38642485e-13,16.312381 C-1.38642485e-13,7.31714286 8.75609756,2.0301221e-13 19.5180488,2.0301221e-13 C30.28,2.0301221e-13 39.0360976,7.31714286 39.0360976,16.312381 C39.0360976,24.5009524 31.844878,31.36 22.2146341,32.4685714 L17.5814634,38.66 C17.3365854,38.9914286 16.9453659,39.1771429 16.5404878,39.1771429 Z M19.52,2.52190476 C10.182439,2.52190476 2.58536585,8.70857143 2.58536585,16.312381 C2.58536585,23.08 8.5297561,28.7990476 16.7190244,29.9114286 C17.3570732,29.9980952 17.8331707,30.5314286 17.8331707,31.1609524 L17.8331707,34.052381 L20.4692683,30.5295238 C20.6878049,30.2371429 21.0243902,30.0504762 21.3941463,30.0180952 C29.9795122,29.2466667 36.4546341,23.3552381 36.4546341,16.3133333 C36.4536585,8.70857143 28.857561,2.52190476 19.52,2.52190476 Z M13.675122,14.2085714 C12.5570732,14.2085714 11.6507317,15.0933333 11.6507317,16.1847619 C11.6507317,17.2761905 12.5570732,18.1609524 13.675122,18.1609524 C14.7931707,18.1609524 15.6995122,17.2761905 15.6995122,16.1847619 C15.6995122,15.092381 14.7931707,14.2085714 13.675122,14.2085714 Z M19.8019512,14.2085714 C18.6839024,14.2085714 17.777561,15.0933333 17.777561,16.1847619 C17.777561,17.2761905 18.6839024,18.1609524 19.8019512,18.1609524 C20.92,18.1609524 21.8263415,17.2761905 21.8263415,16.1847619 C21.8263415,15.092381 20.92,14.2085714 19.8019512,14.2085714 Z M25.9297561,14.2085714 C24.8117073,14.2085714 23.9053659,15.0933333 23.9053659,16.1847619 C23.9053659,17.2761905 24.8117073,18.1609524 25.9297561,18.1609524 C27.0478049,18.1609524 27.9541463,17.2761905 27.9541463,16.1847619 C27.9531707,15.092381 27.0478049,14.2085714 25.9297561,14.2085714 Z" id="Shape"></path>
                </g>
            </g>
        </g>
    </g>
</svg>