<?xml version="1.0" encoding="UTF-8"?>
<svg width="32px" height="32px" viewBox="0 0 32 32" version="1.1" xmlns="http://www.w3.org/2000/svg" xmlns:xlink="http://www.w3.org/1999/xlink">
    <!-- Generator: Sketch 61.2 (89653) - https://sketch.com -->
    <title>ic_timeline_tch</title>
    <desc>Created with Sketch.</desc>
    <g id="Homepage" stroke="none" stroke-width="1" fill="none" fill-rule="evenodd">
        <g id="Experience-Component" transform="translate(-92.000000, -280.000000)">
            <g id="Timeline">
                <g id="ic_timeline_tch" transform="translate(92.000000, 280.000000)">
                    <rect id="Rectangle" fill="#FFFFFF" x="0" y="0" width="32" height="32" rx="4"></rect>
                    <g id="Group-3" transform="translate(2.000000, 4.000000)">
                        <path d="M8.80716229,11.3828336 L8.80716229,15.4519938 C8.80716229,15.6682958 8.83692255,15.8620634 8.89644396,16.0333024 C8.95596537,16.2045415 9.05669239,16.3397282 9.19862806,16.4388666 C9.34056372,16.538005 9.54888553,16.5875734 9.82359972,16.5875734 C10.0342139,16.5875734 10.217354,16.5560299 10.3730254,16.4929418 C10.5286967,16.4298537 10.6797873,16.3667666 10.8263015,16.3036785 C10.99113,16.2315779 11.1330636,16.2022874 11.2521064,16.2158063 C11.3711492,16.2293252 11.4398267,16.3126903 11.458141,16.4659042 C11.4856124,16.6101055 11.4466951,16.7452922 11.341388,16.8714683 C11.2360809,16.9976445 11.0941474,17.1057938 10.9155832,17.1959196 C10.7370189,17.2860454 10.5309864,17.358145 10.2974793,17.4122205 C10.0639723,17.466296 9.83275796,17.4933333 9.60382946,17.4933333 C9.32911527,17.4933333 9.07958696,17.4640429 8.85523703,17.4054611 C8.63088711,17.3468793 8.43630081,17.2454893 8.2714723,17.101288 C8.10664378,16.9570867 7.97844575,16.7678253 7.88687435,16.5334982 C7.79530295,16.2991711 7.74951794,16.0107728 7.74951794,15.6682947 L7.74951794,11.3828336 L7.1314141,11.3828336 C6.92079989,11.3828336 6.78802335,11.3400245 6.73308051,11.2544049 C6.67813767,11.1687854 6.65066667,11.0448643 6.65066667,10.8826378 C6.65066667,10.6753484 6.69874093,10.5424149 6.7948909,10.4838331 C6.89104086,10.4252513 7.02152815,10.3959608 7.18635666,10.3959608 L7.74951794,10.3959608 L7.74951794,9.61187017 C7.74951794,9.34149272 7.7746997,9.12970023 7.82506397,8.97648635 C7.87542823,8.82327246 8.03338652,8.74666667 8.29894358,8.74666667 C8.52787207,8.74666667 8.66980561,8.78947579 8.72474845,8.87509531 C8.77969128,8.96071484 8.80716229,9.09815464 8.80716229,9.28741886 L8.80716229,10.3959608 L10.5103818,10.3959608 C10.8034102,10.3959608 11.0163105,10.4229982 11.1490891,10.4770737 C11.2818676,10.5311492 11.3528344,10.6618296 11.3619915,10.869119 C11.3619915,11.0764084 11.2910247,11.2138482 11.1490891,11.2814426 C11.0071534,11.3490369 10.7850961,11.3828336 10.4829105,11.3828336 L8.80716229,11.3828336 Z" id="Type-something-Copy-18" fill="#109CB3"></path>
                        <path d="M8.61037374,3.81138877 C9.03411146,3.56885551 9.77074134,3.56858046 10.1949596,3.81138877 L17.1382083,7.78547153 C17.561946,8.02800479 17.9305012,8.66030063 17.9305012,9.14591724 L17.9305012,17.0940828 C17.9305012,17.5791493 17.5624266,18.2117202 17.1382083,18.4545285 L10.1949596,22.4286112 C9.77122188,22.6711445 9.034592,22.6714195 8.61037374,22.4286112 L1.66712501,18.4545285 C1.2433873,18.2119952 0.874832089,17.5796994 0.874832089,17.0940828 L0.874832089,9.14591724 C0.874832089,8.66085072 1.24290676,8.02827983 1.66712501,7.78547153 L8.61037374,3.81138877 L8.61037374,3.81138877 Z M8.1729577,3.06030194 L1.22970897,7.0343847 C0.534707879,7.43218002 -4.09272616e-14,8.35112572 -4.09272616e-14,9.14591724 L-3.26391871e-14,17.0940828 C-3.26391871e-14,17.8896734 0.535405965,18.8082195 1.22970897,19.2056153 L8.1729577,23.1796981 C8.86795879,23.5774934 9.93807263,23.5770938 10.6323756,23.1796981 L17.5756244,19.2056153 C18.2706255,18.80782 18.8053333,17.8888743 18.8053333,17.0940828 L18.8053333,9.14591724 C18.8053333,8.3503266 18.2699274,7.43178046 17.5756244,7.0343847 L10.6323756,3.06030194 C9.93737455,2.66250662 8.8672607,2.66290618 8.1729577,3.06030194 L8.1729577,3.06030194 Z" id="Shape-Copy" fill="#A5ADBB" fill-rule="nonzero"></path>
                        <path d="M20.5769128,0.699522336 C20.8559596,0.537833496 21.3410573,0.537650134 21.6204205,0.699522336 L26.1928039,3.34891084 C26.4718506,3.51059968 26.7145577,3.93213025 26.7145577,4.25587465 L26.7145577,9.55465166 C26.7145577,9.87802934 26.4721671,10.2997433 26.1928039,10.4616155 L21.6204205,13.111004 C21.3413738,13.2726928 20.856276,13.2728762 20.5769128,13.111004 L16.0045295,10.4616155 C15.7254827,10.2999266 15.4827756,9.87839607 15.4827756,9.55465166 L15.4827756,4.25587465 C15.4827756,3.93249697 15.7251662,3.51078305 16.0045295,3.34891084 L20.5769128,0.699522336 L20.5769128,0.699522336 Z M20.2888583,0.198797782 L15.716475,2.84818629 C15.2587914,3.11338317 14.9066667,3.72601364 14.9066667,4.25587465 L14.9066667,9.55465166 C14.9066667,10.0850454 15.2592511,10.6974095 15.716475,10.96234 L20.2888583,13.6117285 C20.746542,13.8769254 21.4512511,13.876659 21.908475,13.6117285 L26.4808583,10.96234 C26.938542,10.6971431 27.2906667,10.0845127 27.2906667,9.55465166 L27.2906667,4.25587465 C27.2906667,3.72548089 26.9380823,3.1131168 26.4808583,2.84818629 L21.908475,0.198797782 C21.4507914,-0.0663990977 20.7460823,-0.0661327237 20.2888583,0.198797782 L20.2888583,0.198797782 Z" id="Shape-Copy-12" stroke="#109CB3" stroke-width="0.1" fill="#109CB3" fill-rule="nonzero"></path>
                    </g>
                </g>
            </g>
        </g>
    </g>
</svg>