<?xml version="1.0" encoding="UTF-8"?>
<svg width="32px" height="32px" viewBox="0 0 32 32" version="1.1" xmlns="http://www.w3.org/2000/svg" xmlns:xlink="http://www.w3.org/1999/xlink">
    <!-- Generator: Sketch 61.2 (89653) - https://sketch.com -->
    <title>ic_timeline_zp</title>
    <desc>Created with Sketch.</desc>
    <g id="Homepage" stroke="none" stroke-width="1" fill="none" fill-rule="evenodd">
        <g id="Experience-Component" transform="translate(-92.000000, -514.000000)">
            <g id="Timeline">
                <g id="ic_timeline_zp" transform="translate(92.000000, 514.000000)">
                    <rect id="Rectangle-Copy-4" fill="#FFFFFF" x="0" y="0" width="32" height="32" rx="4"></rect>
                    <g id="Group" transform="translate(6.000000, 5.000000)" fill="#2E538B">
                        <path d="M13.2030378,8.0744646 C12.6451834,7.68082485 12.3281312,8.00363267 12.0109522,8.26980075 C11.6001419,8.61454195 4.75973217,16.4483729 4.47262171,16.7669231 C4.47262171,16.7669231 10.917192,3.18099739 11.9825329,2.40287831 C12.2487096,2.20857432 12.3707601,1.97556436 12.4269642,1.67546405 C12.5282077,1.13461258 11.4505603,-0.387951402 9.98100641,0.0923897294 C9.79666196,0.279339581 2.45802742,3.93421564 2.25135356,3.761587 C1.86452202,3.43852114 1.77989866,3.41284617 1.37771566,3.71733317 C0.737267767,4.20257705 0.190704871,4.75723365 0.0444219044,5.62811806 C-0.0742030511,6.33592129 0.034779662,6.94979803 0.507883896,7.48445655 C0.946732796,7.98028007 2.16241656,7.48071497 2.26061519,7.39891634 C3.76201383,6.14755222 8.09911982,3.21673591 8.51157942,3.22034847 C8.50295215,3.3113075 0.2008546,20.7633149 0.0513998429,21.1475362 C-0.137004498,21.6313608 0.2410729,22.027452 0.404737277,22.1027996 C1.1317116,22.4377353 1.94711544,22.2444635 2.30844579,22.0199688 C2.75884,21.7399956 13.4373697,9.60283448 13.041784,10.0626614 C13.4059055,9.65895814 13.6285652,9.30995928 13.6761421,8.97734594 C13.7267638,8.62331531 13.4883721,8.2759937 13.2030378,8.0744646" id="Fill-8"></path>
                        <path d="M17.8630672,7.96216363 C17.6754241,6.90471643 17.4866392,5.8470112 17.3101607,4.78788674 C17.2948093,4.69576653 17.3373113,4.56042464 17.4016352,4.4928182 C17.7386062,4.13969071 18.1100863,3.81907623 18.4322133,3.45317576 C18.7067634,3.14146365 18.9407147,2.79104557 19.1699717,2.44204671 C19.2236384,2.36024809 19.1848157,2.21561676 19.1887487,2.09975688 C19.1862112,2.09975688 19.1835469,2.09949884 19.1807558,2.09949884 C19.1807558,2.09678943 19.1806289,2.09395099 19.1803752,2.09124157 C19.0664444,2.09511217 18.9243482,2.05589011 18.8437848,2.11059456 C18.5005971,2.3434755 18.1561406,2.58125919 17.8497457,2.86045828 C17.4899378,3.18816886 17.1742813,3.56606818 16.8270337,3.90861604 C16.7608067,3.97402914 16.6278452,4.01737983 16.537132,4.00202646 C15.4953892,3.82230172 14.4558033,3.63019108 13.4155829,3.43924161 C13.1502944,3.3906011 12.9314409,3.43808043 12.809771,3.68760494 C13.3459304,3.96680402 13.843394,4.25038979 14.361157,4.48881859 C14.7882069,4.68557395 15.182397,4.90800428 15.4361402,5.30809503 C15.083564,5.73592505 14.7214724,6.18091473 14.3496117,6.61713105 C14.3111696,6.662159 14.209038,6.67918963 14.1436991,6.66757783 C13.9204051,6.6278397 13.6966035,6.58190861 13.4802875,6.51456022 C13.2689193,6.4490181 13.1135016,6.48759506 12.983712,6.74150624 C13.3581101,6.91787646 13.6736398,7.15153152 13.9271293,7.44221338 C14.2128441,7.69999517 14.4427355,8.02060965 14.616169,8.40121839 C14.8654717,8.26936004 14.90366,8.11131065 14.8392093,7.89662151 C14.773236,7.67651354 14.7279429,7.4487934 14.6886127,7.2219764 C14.677448,7.1552731 14.6939413,7.05154109 14.7383463,7.01257708 C15.1672993,6.63416168 15.6048794,6.26606787 16.0255857,5.90752154 C16.4188877,6.16543234 16.6374875,6.56655524 16.8312204,7.00057823 C17.0656792,7.52710849 17.3444161,8.03312458 17.61922,8.57810469 C17.8645897,8.45437459 17.9111516,8.23194426 17.8630672,7.96216363" id="Fill-12"></path>
                    </g>
                </g>
            </g>
        </g>
    </g>
</svg>