<?xml version="1.0" encoding="UTF-8"?>
<svg width="32px" height="32px" viewBox="0 0 32 32" version="1.1" xmlns="http://www.w3.org/2000/svg" xmlns:xlink="http://www.w3.org/1999/xlink">
    <!-- Generator: Sketch 61.2 (89653) - https://sketch.com -->
    <title>ic_timeline_pp</title>
    <desc>Created with Sketch.</desc>
    <g id="Homepage" stroke="none" stroke-width="1" fill="none" fill-rule="evenodd">
        <g id="Experience-Component" transform="translate(-92.000000, -397.000000)">
            <g id="Timeline">
                <g id="ic_timeline_pp" transform="translate(92.000000, 397.000000)">
                    <rect id="Rectangle-Copy-3" fill="#FFFFFF" x="0" y="0" width="32" height="32" rx="4"></rect>
                    <g id="PayPal-logo" transform="translate(6.000000, 4.000000)">
                        <path d="M5.60023988,22.5108486 L6.00331034,19.9505847 L5.10541529,19.9296432 L0.8177991,19.9296432 L3.79754123,1.03628186 C3.80682459,0.979070465 3.83683358,0.925961019 3.88065967,0.88817991 C3.92470165,0.850398801 3.98083358,0.829673163 4.03955622,0.829673163 L11.2691334,0.829673163 C13.6694213,0.829673163 15.3257451,1.32903148 16.1903928,2.3147946 C16.5958381,2.77723538 16.854045,3.26061769 16.9790465,3.79235982 C17.110093,4.35044078 17.1122519,5.01711544 16.9844438,5.83038081 L16.9751604,5.88953523 L16.9751604,6.41069865 L17.3806057,6.6404078 C17.721931,6.82154123 17.9933073,7.0287976 18.2014273,7.26606297 C18.5481499,7.66157721 18.7724618,8.16417391 18.8672384,8.75982009 C18.9652534,9.37252174 18.9328696,10.1018051 18.7724618,10.9273763 C18.5874423,11.8768696 18.2884318,12.703952 17.8844978,13.3805577 C17.5131634,14.004054 17.039928,14.5213313 16.477961,14.922027 C15.9414693,15.3028606 15.3041559,15.59194 14.5835082,15.7769595 C13.8850975,15.9587406 13.0888876,16.0504948 12.2156042,16.0504948 L11.6529895,16.0504948 C11.2507826,16.0504948 10.860018,16.1953583 10.5532354,16.4550765 C10.2455892,16.7201919 10.0422189,17.0824588 9.97982609,17.4786207 L9.93729535,17.7091934 L9.22506747,22.221985 L9.19289955,22.3875742 C9.18426387,22.440036 9.16958321,22.4661589 9.147994,22.4838621 C9.12877961,22.500054 9.10114543,22.5108486 9.07415892,22.5108486 L5.60023988,22.5108486" id="Fill-7" fill="#28356A"></path>
                        <path d="M17.7642459,5.94976912 C17.7428726,6.08772414 17.718045,6.22870165 17.6904108,6.37356522 C16.7370315,11.2687016 13.4751184,12.9597841 9.30926537,12.9597841 L7.18812594,12.9597841 C6.67862069,12.9597841 6.24921139,13.3296072 6.16997901,13.8322039 L4.7763958,22.671904 C4.7247976,23.002003 4.97911844,23.2992864 5.31202399,23.2992864 L9.07415892,23.2992864 C9.51954423,23.2992864 9.898003,22.9756642 9.96816792,22.5363238 L10.0050855,22.3452594 L10.7134273,17.8501709 L10.7589805,17.6036222 C10.8282819,17.1627706 11.2076042,16.8389325 11.6529895,16.8389325 L12.2156042,16.8389325 C15.8605097,16.8389325 18.713955,15.3592084 19.547946,11.0767736 C19.8961799,9.28789205 19.71591,7.79413493 18.794051,6.7436042 C18.5151184,6.42689055 18.1690435,6.16393403 17.7642459,5.94976912" id="Fill-8" fill="#298FC2"></path>
                        <g id="Group-12">
                            <path d="M16.7670405,5.55209595 C16.6213133,5.50956522 16.4710525,5.47113643 16.3169055,5.43637781 C16.1618951,5.40248276 16.0032144,5.37247376 15.8397841,5.34613493 C15.2678861,5.25373313 14.6411514,5.20990705 13.969943,5.20990705 L8.30342429,5.20990705 C8.16374213,5.20990705 8.03118441,5.24142729 7.91265967,5.29842279 C7.65121439,5.42407196 7.45712744,5.67148426 7.41006297,5.97438081 L6.20452174,13.6096192 L6.16997901,13.8322039 C6.24921139,13.3296072 6.67862069,12.9597841 7.18812594,12.9597841 L9.30926537,12.9597841 C13.4751184,12.9597841 16.7370315,11.2678381 17.6904108,6.37356522 C17.7189085,6.22870165 17.7428726,6.08772414 17.7642459,5.94976912 C17.5230945,5.82174513 17.2618651,5.71228786 16.9805577,5.61902249 C16.9110405,5.59592204 16.8393643,5.57368516 16.7670405,5.55209595" id="Fill-9" fill="#22284F"></path>
                            <path d="M7.41006297,5.97438081 C7.45712744,5.67148426 7.65121439,5.42407196 7.91265967,5.29928636 C8.03204798,5.24207496 8.16374213,5.21055472 8.30342429,5.21055472 L13.969943,5.21055472 C14.6411514,5.21055472 15.2678861,5.2545967 15.8397841,5.3469985 C16.0032144,5.37312144 16.1618951,5.40334633 16.3169055,5.43724138 C16.4710525,5.47178411 16.6213133,5.51042879 16.7670405,5.55274363 C16.8393643,5.57433283 16.9110405,5.59678561 16.9812054,5.61902249 C17.2625127,5.71228786 17.523958,5.8226087 17.7651094,5.94976912 C18.0487916,4.1408096 17.7627346,2.90914543 16.7847436,1.79384708 C15.7063628,0.565853073 13.7603118,0.0403718141 11.269997,0.0403718141 L4.0402039,0.0403718141 C3.53156222,0.0403718141 3.09761919,0.410194903 3.01903448,0.913655172 L0.00777211394,20.0013193 C-0.0515982009,20.3789145 0.23964018,20.7195922 0.620473763,20.7195922 L5.08382609,20.7195922 L7.41006297,5.97438081" id="Fill-11" fill="#28356A"></path>
                        </g>
                    </g>
                </g>
            </g>
        </g>
    </g>
</svg>