<?xml version="1.0" encoding="UTF-8"?>
<svg width="39px" height="26px" viewBox="0 0 39 26" version="1.1" xmlns="http://www.w3.org/2000/svg" xmlns:xlink="http://www.w3.org/1999/xlink">
    <!-- Generator: Sketch 61.2 (89653) - https://sketch.com -->
    <title>Group</title>
    <desc>Created with Sketch.</desc>
    <g id="Flower-Based-Infusions" stroke="none" stroke-width="1" fill="none" fill-rule="evenodd">
        <g id="Artboard" transform="translate(-191.000000, -3345.000000)" fill="#EF4266" fill-rule="nonzero">
            <g id="Group-8" transform="translate(191.000000, 3343.000000)">
                <g id="noun_brick-wall_238915" transform="translate(0.000000, 2.000000)">
                    <g id="Group">
                        <rect id="Rectangle" x="13.8125" y="13.8125" width="11.375" height="4.875"></rect>
                        <rect id="Rectangle" x="13.8125" y="0.8125" width="11.375" height="4.875"></rect>
                        <rect id="Rectangle" x="0.8125" y="13.8125" width="11.375" height="4.875"></rect>
                        <rect id="Rectangle" x="0.8125" y="7.3125" width="4.875" height="4.875"></rect>
                        <rect id="Rectangle" x="20.3125" y="7.3125" width="11.375" height="4.875"></rect>
                        <rect id="Rectangle" x="7.3125" y="7.3125" width="11.375" height="4.875"></rect>
                        <rect id="Rectangle" x="33.3125" y="7.3125" width="4.875" height="4.875"></rect>
                        <rect id="Rectangle" x="26.8125" y="13.8125" width="11.375" height="4.875"></rect>
                        <path d="M5.6875,20.3125 L0.8125,20.3125 L0.8125,24.375 C0.8125,24.8235 1.1765,25.1875 1.625,25.1875 L5.6875,25.1875 L5.6875,20.3125 Z" id="Path"></path>
                        <path d="M12.1875,5.6875 L12.1875,0.8125 L1.625,0.8125 C1.1765,0.8125 0.8125,1.1765 0.8125,1.625 L0.8125,5.6875 L12.1875,5.6875 Z" id="Path"></path>
                        <path d="M33.3125,20.3125 L33.3125,25.1875 L37.375,25.1875 C37.8235,25.1875 38.1875,24.8235 38.1875,24.375 L38.1875,20.3125 L33.3125,20.3125 Z" id="Path"></path>
                        <path d="M26.8125,5.6875 L38.1875,5.6875 L38.1875,1.625 C38.1875,1.1765 37.8235,0.8125 37.375,0.8125 L26.8125,0.8125 L26.8125,5.6875 Z" id="Path"></path>
                        <rect id="Rectangle" x="7.3125" y="20.3125" width="11.375" height="4.875"></rect>
                        <rect id="Rectangle" x="20.3125" y="20.3125" width="11.375" height="4.875"></rect>
                    </g>
                </g>
            </g>
        </g>
    </g>
</svg>