<?xml version="1.0" encoding="UTF-8"?>
<svg width="28px" height="28px" viewBox="0 0 28 28" version="1.1" xmlns="http://www.w3.org/2000/svg" xmlns:xlink="http://www.w3.org/1999/xlink">
    <!-- Generator: Sketch 61.2 (89653) - https://sketch.com -->
    <title>Instagram-color</title>
    <desc>Created with Sketch.</desc>
    <g id="Homepage" stroke="none" stroke-width="1" fill="none" fill-rule="evenodd">
        <g id="Footer" transform="translate(-733.000000, -217.000000)" fill="#FFFFFF">
            <g id="Group">
                <g transform="translate(400.000000, 216.000000)">
                    <g id="Group-2" transform="translate(12.000000, 1.000000)">
                        <path d="M336.514357,0.00123480286 C338.96998,0.00607782803 339.505183,0.0264393174 340.772182,0.0842488007 C342.262319,0.152214687 343.280029,0.388900467 344.170532,0.735009656 C345.091156,1.09273362 345.871902,1.5714402 346.650259,2.34974129 C347.42856,3.12809795 347.907266,3.90884426 348.265046,4.82946803 C348.6111,5.71997118 348.847785,6.73768113 348.915751,8.2278179 C348.979755,9.63056683 348.997855,10.1363054 348.999814,13.3443962 L348.999814,14.6556499 C348.997855,17.8636946 348.979755,18.3694332 348.915751,19.7721821 C348.847785,21.2623189 348.6111,22.2800288 348.265046,23.170532 C347.907266,24.0911557 347.42856,24.871902 346.650259,25.6502587 C345.871902,26.4285598 345.091156,26.9072664 344.170532,27.2650459 C343.280029,27.6110995 342.262319,27.8477853 340.772182,27.9157512 C339.369433,27.9797546 338.863695,27.9978555 335.65565,27.9998144 L334.344396,27.9998144 C331.136305,27.9978555 330.630567,27.9797546 329.227818,27.9157512 C327.737681,27.8477853 326.719971,27.6110995 325.829468,27.2650459 C324.908844,26.9072664 324.128098,26.4285598 323.349741,25.6502587 C322.57144,24.871902 322.092734,24.0911557 321.73501,23.170532 C321.3889,22.2800288 321.152215,21.2623189 321.084249,19.7721821 C321.026439,18.5051831 321.006078,17.9699802 321.001235,15.5143566 L321.001235,12.4856774 C321.006078,10.0300198 321.026439,9.49481694 321.084249,8.2278179 C321.152215,6.73768113 321.3889,5.71997118 321.73501,4.82946803 C322.092734,3.90884426 322.57144,3.12809795 323.349741,2.34974129 C324.128098,1.5714402 324.908844,1.09273362 325.829468,0.735009656 C326.719971,0.388900467 327.737681,0.152214687 329.227818,0.0842488007 C330.494817,0.0264393174 331.03002,0.00607782803 333.485677,0.00123480286 Z M335.663366,2.52269486 L334.33668,2.52269486 C331.202461,2.52451062 330.726777,2.54100996 329.342799,2.60415488 C327.977812,2.66639674 327.236523,2.89446869 326.743201,3.08619584 C326.089717,3.34016485 325.623347,3.64353834 325.133471,4.13347068 C324.643538,4.62334744 324.340165,5.0897168 324.086196,5.74320073 C323.894469,6.23652303 323.666397,6.97781244 323.604155,8.34279862 C323.54101,9.7267769 323.524511,10.2024608 323.522695,13.33668 L323.522695,14.6633658 C323.524511,17.7975392 323.54101,18.2732231 323.604155,19.6572014 C323.666397,21.0221876 323.894469,21.763477 324.086196,22.2567993 C324.340165,22.9102832 324.643594,23.3766526 325.133471,23.8665293 C325.623347,24.3564617 326.089717,24.6598351 326.743201,24.9138042 C327.236523,25.1055313 327.977812,25.3336033 329.342799,25.3958451 C330.680493,25.4568852 331.169483,25.4743376 334.03192,25.4770734 L335.968123,25.4770734 C338.830527,25.4743376 339.319557,25.4568852 340.657201,25.3958451 C342.022188,25.3336033 342.763477,25.1055313 343.256799,24.9138042 C343.910283,24.6598351 344.376653,24.3564617 344.866529,23.8665293 C345.356462,23.3766526 345.659835,22.9102832 345.913804,22.2567993 C346.105531,21.763477 346.333603,21.0221876 346.395845,19.6572014 C346.456885,18.3193557 346.474338,17.8302607 346.477073,14.9680536 L346.477073,13.0319877 C346.474338,10.1697393 346.456885,9.68064429 346.395845,8.34279862 C346.333603,6.97781244 346.105531,6.23652303 345.913804,5.74320073 C345.659835,5.0897168 345.356462,4.62334744 344.866529,4.13347068 C344.376653,3.64353834 343.910283,3.34016485 343.256799,3.08619584 C342.763477,2.89446869 342.022188,2.66639674 340.657201,2.60415488 C339.273223,2.54100996 338.797539,2.52451062 335.663366,2.52269486 Z M335.000028,6.81081532 C338.970503,6.81081532 342.189185,10.0294974 342.189185,14.0000278 C342.189185,17.9705026 338.970503,21.1891847 335.000028,21.1891847 C331.029497,21.1891847 327.810815,17.9705026 327.810815,14.0000278 C327.810815,10.0294974 331.029497,6.81081532 335.000028,6.81081532 Z M335.000028,9.33333333 C332.422659,9.33333333 330.333333,11.4226591 330.333333,14.0000278 C330.333333,16.5773409 332.422659,18.6666667 335.000028,18.6666667 C337.577341,18.6666667 339.666667,16.5773409 339.666667,14.0000278 C339.666667,11.4226591 337.577341,9.33333333 335.000028,9.33333333 Z M342.473219,4.84675126 C343.401067,4.84675126 344.153249,5.598933 344.153249,6.52678127 C344.153249,7.45462954 343.401067,8.2067557 342.473219,8.2067557 C341.545426,8.2067557 340.793244,7.45462954 340.793244,6.52678127 C340.793244,5.598933 341.545426,4.84675126 342.473219,4.84675126 Z" id="Instagram"></path>
                    </g>
                </g>
            </g>
        </g>
    </g>
</svg>