<?xml version="1.0" encoding="UTF-8"?>
<svg width="28px" height="26px" viewBox="0 0 28 26" version="1.1" xmlns="http://www.w3.org/2000/svg" xmlns:xlink="http://www.w3.org/1999/xlink">
    <!-- Generator: Sketch 61.2 (89653) - https://sketch.com -->
    <title>LinkedIn-color</title>
    <desc>Created with Sketch.</desc>
    <g id="Homepage" stroke="none" stroke-width="1" fill="none" fill-rule="evenodd">
        <g id="Footer" transform="translate(-412.000000, -218.000000)" fill="#FFFFFF">
            <g id="Group">
                <g transform="translate(400.000000, 216.000000)">
                    <g id="Group-2" transform="translate(12.000000, 1.000000)">
                        <path d="M28,26.4545455 L21.8116181,26.4545455 L21.8116181,17.5062548 C21.8116181,15.164052 20.843603,13.5650951 18.7149577,13.5650951 C17.0867827,13.5650951 16.1813264,14.6441058 15.7598777,15.6839982 C15.6018344,16.0572511 15.6265287,16.5771973 15.6265287,17.0971436 L15.6265287,26.4545455 L9.4957667,26.4545455 C9.4957667,26.4545455 9.57478833,10.6035206 9.4957667,9.16266656 L15.6265287,9.16266656 L15.6265287,11.8764924 C15.9887112,10.6899067 17.9477893,8.99641416 21.0740828,8.99641416 C24.9527281,8.99641416 28,11.4836804 28,16.8396153 L28,26.4545455 L28,26.4545455 Z M3.29586077,6.99975551 L3.25634995,6.99975551 C1.28080903,6.99975551 0,5.67788599 0,4.00232264 C0,2.29416079 1.31867357,1 3.33372531,1 C5.34713076,1 6.58513641,2.29090094 6.62464722,3.99743287 C6.62464722,5.67299621 5.34713076,6.99975551 3.29586077,6.99975551 L3.29586077,6.99975551 L3.29586077,6.99975551 Z M0.70625588,9.16266656 L6.16368768,9.16266656 L6.16368768,26.4545455 L0.70625588,26.4545455 L0.70625588,9.16266656 L0.70625588,9.16266656 Z" id="LinkedIn"></path>
                    </g>
                </g>
            </g>
        </g>
    </g>
</svg>