<?xml version="1.0" encoding="UTF-8"?>
<svg width="1280px" height="675px" viewBox="0 0 1280 675" version="1.1" xmlns="http://www.w3.org/2000/svg" xmlns:xlink="http://www.w3.org/1999/xlink">
    <!-- Generator: Sketch 61.2 (89653) - https://sketch.com -->
    <title>Artboard Copy 5</title>
    <desc>Created with Sketch.</desc>
    <g id="Artboard-Copy-5" stroke="none" stroke-width="1" fill="none" fill-rule="evenodd">
        <g id="12" transform="translate(-9.000000, -22.000000)">
            <g id="bg">
                <path d="M1288.97386,2.48332199 L405.364329,2.48332199 C405.860994,3.65091899 406.357658,4.818516 406.863036,5.97739959 C454.185568,115.452689 548.238121,200.208033 612.046426,200.216746 C652.851327,200.216746 710.385977,179.661811 751.129884,184.933424 C800.430361,191.320354 803.889585,244.080054 826.823281,289.598911 C848.266984,332.172634 867.218652,367.435807 921.119809,365.91096 C968.695031,364.560381 1039.02968,326.8226 1072.46304,298.321035 C1112.42274,264.2516 1151.54595,229.528659 1189.78911,193.716542 C1230.35003,155.726072 1262.89462,120.227638 1288.97386,87.9967325 L1288.97386,2.48332199 L1288.97386,2.48332199 Z" id="Path" fill="#3F57D8"></path>
                <path d="M1277.73356,2.48332199 L394.132743,2.48332199 C394.620694,3.65091899 395.126072,4.818516 395.63145,5.97739959 C442.953982,115.452689 537.006535,200.208033 600.81484,200.216746 C641.611028,200.216746 699.154391,179.661811 739.898298,184.933424 C789.190061,191.320354 792.657999,244.080054 815.591695,289.598911 C837.035398,332.172634 855.978353,367.435807 909.888223,365.91096 C957.454731,364.560381 1027.78938,326.8226 1061.23145,298.321035 C1101.19115,264.2516 1140.30565,229.528659 1178.55752,193.716542 C1219.11845,155.726072 1251.66304,120.227638 1277.73356,87.9967325 L1277.73356,2.48332199 L1277.73356,2.48332199 Z" id="Rectangle_1040_copy" fill-opacity="0" fill="#3F57D8" opacity="0.28"></path>
                <path d="M460.154255,1.87338325 C509.524438,86.2801906 581.357794,148.790197 633.124166,149.574404 C678.076651,150.245337 739.279646,131.502791 780.032267,136.774404 C829.32403,143.152621 832.69612,186.702246 855.621103,232.212389 C877.073519,274.786113 896.818108,312.070796 950.727978,310.554663 C998.285773,309.204084 1063.0177,274.11518 1098.96052,245.596188 C1140.9243,212.293533 1188.90905,171.741321 1227.15221,135.937917 C1250.26018,114.302519 1270.77155,93.4861811 1288.97386,73.6544588 L1288.97386,1.87338325 L460.154255,1.87338325 L460.154255,1.87338325 Z" id="Path" fill="#6B9EFB"></path>
                <path d="M460.154255,0.130701157 C509.524438,84.5375085 581.357794,147.047515 633.124166,147.831722 C678.076651,148.502655 739.279646,129.760109 780.032267,135.031722 C829.32403,141.409939 832.69612,184.959564 855.621103,230.469707 C877.073519,273.043431 896.818108,310.328114 950.727978,308.811981 C998.285773,307.461402 1063.0177,272.372498 1098.96052,243.853506 C1140.9243,210.550851 1188.90905,169.998639 1227.15221,134.195235 C1250.26018,112.559837 1270.77155,91.743499 1288.97386,71.9117767 L1288.97386,0.130701157 L460.154255,0.130701157 L460.154255,0.130701157 Z" id="Rectangle_1041_copy" fill="#447DE5"></path>
                <path d="M448.922668,0.130701157 C498.292852,84.5375085 570.126208,147.047515 621.89258,147.831722 C666.845065,148.502655 728.04806,129.760109 768.791967,135.031722 C818.092444,141.409939 821.45582,184.959564 844.389517,230.469707 C865.83322,273.043431 885.586521,310.328114 939.487679,308.811981 C987.054187,307.461402 1051.78611,272.372498 1087.72893,243.853506 C1129.69272,210.550851 1177.67747,169.998639 1215.92063,134.195235 C1239.02859,112.559837 1259.53125,91.743499 1277.73356,71.9117767 L1277.73356,0.130701157 L448.922668,0.130701157 Z" id="Rectangle_1041_copy_2" fill-opacity="0" fill="#447DE5" opacity="0.28"></path>
                <path d="M1288.97386,2.7447243 L520.825732,2.7447243 C564.174949,60.3403676 614.974132,99.5681416 654.210619,100.683458 C703.328114,102.060177 768.182029,85.0864534 808.917223,90.3580667 C858.217699,96.7449966 861.493941,131.058407 884.418924,176.577263 C905.871341,219.142274 926.417563,258.457182 980.31872,256.932335 C1027.88523,255.581756 1086.97086,223.133016 1125.458,194.614023 C1169.39101,162.069435 1226.28087,115.705378 1264.51532,79.8932607 C1273.01089,71.937917 1281.16374,64.098752 1288.97386,56.3757658 L1288.97386,2.7447243 L1288.97386,2.7447243 Z" id="Path" fill="#7BCAFD"></path>
                <path d="M1288.97386,1.00204221 L520.825732,1.00204221 C564.174949,58.5976855 614.974132,97.8254595 654.210619,98.940776 C703.328114,100.317495 768.182029,83.3437713 808.917223,88.6153846 C858.217699,95.0023145 861.493941,129.315725 884.418924,174.834581 C905.871341,217.399592 926.417563,256.7145 980.31872,255.189653 C1027.88523,253.839074 1086.97086,221.390334 1125.458,192.871341 C1169.39101,160.326753 1226.28087,113.962696 1264.51532,78.1505786 C1273.01089,70.1952349 1281.16374,62.3560699 1288.97386,54.6330837 L1288.97386,1.00204221 L1288.97386,1.00204221 Z" id="Rectangle_1042_copy" fill="#4EA9E3"></path>
                <path d="M1277.73356,1.00204221 L509.594146,1.00204221 C552.934649,58.5976855 603.733833,97.8254595 642.979033,98.940776 C692.087815,100.317495 756.941729,83.3437713 797.685636,88.6153846 C846.986113,95.0023145 850.253642,129.315725 873.187338,174.834581 C894.631042,217.399592 915.177263,256.7145 969.087134,255.189653 C1016.65364,253.839074 1075.73928,221.390334 1114.22641,192.871341 C1158.15071,160.326753 1215.04929,113.962696 1253.28373,78.1505786 C1261.77931,70.1952349 1269.92925,62.3560699 1277.73356,54.6330837 L1277.73356,1.00204221 L1277.73356,1.00204221 Z" id="Rectangle_1042_copy_2" fill-opacity="0" fill="#4EA9E3" opacity="0.28"></path>
                <path d="M584.198366,4.45255276 C613.248877,32.9715453 642.656637,50.712049 667.402723,51.6966644 C719.691899,53.7878829 786.889721,38.8356705 826.858135,44.0114364 C875.23499,50.2763785 878.354391,74.8830497 900.843703,119.521852 C921.895303,161.293941 942.842342,201.83744 995.72403,200.338734 C1042.40177,199.023009 1094.80422,169.754663 1135.08632,141.802042 C1175.36841,113.849421 1231.31722,69.9599728 1269.52553,35.8643975 L1269.52553,4.45255276 L584.198366,4.45255276 Z" id="Path" fill="#74DCFB"></path>
                <path d="M584.198366,2.70987066 C613.248877,31.2288632 642.656637,48.9693669 667.402723,49.9539823 C719.691899,52.0452008 786.889721,37.0929884 826.858135,42.2687543 C875.23499,48.5336964 878.354391,73.1403676 900.843703,117.77917 C921.895303,159.551259 942.842342,200.094758 995.72403,198.596052 C1042.40177,197.280327 1094.80422,168.011981 1135.08632,140.05936 C1175.36841,112.106739 1231.31722,68.2172907 1269.52553,34.1217155 L1269.52553,2.70987066 L584.198366,2.70987066 Z" id="Rectangle_1019_copy" fill="#4EBADA"></path>
                <path d="M572.958067,2.70987066 C602.017291,31.2288632 631.425051,48.9693669 656.171137,49.9539823 C708.4516,52.0452008 775.658135,37.0929884 815.626549,42.2687543 C863.99469,48.5336964 867.114091,73.1403676 889.612117,117.77917 C910.655003,159.551259 931.610756,200.094758 984.492444,198.596052 C1031.17018,197.280327 1083.57263,168.011981 1123.85473,140.05936 C1164.13683,112.106739 1220.08564,68.2172907 1258.29394,34.1217155 L1258.29394,2.70987066 L572.958067,2.70987066 Z" id="Rectangle_1019_copy_2" fill-opacity="0" fill="#4EBADA" opacity="0.28"></path>
                <path d="M1288.97386,2.7447243 L896.234309,2.7447243 C918.819469,12.0593601 924.866576,29.5036079 942.014568,63.5469027 C963.458271,106.120626 985.616474,149.48727 1039.51763,147.962423 C1087.08414,146.611845 1134.80749,119.36501 1178.45296,90.9244384 C1209.6644,70.5699115 1252.4211,38.7921035 1288.97386,9.2275017 L1288.97386,2.7447243 Z" id="Path" fill="#82FDFF"></path>
                <path d="M1288.97386,1.00204221 L896.234309,1.00204221 C918.819469,10.316678 924.866576,27.7609258 942.014568,61.8042206 C963.458271,104.377944 985.616474,147.744588 1039.51763,146.219741 C1087.08414,144.869163 1134.80749,117.622328 1178.45296,89.1817563 C1209.6644,68.8272294 1252.4211,37.0494214 1288.97386,7.48481961 L1288.97386,1.00204221 Z" id="Rectangle_1043_copy" fill="#4FE3E6"></path>
                <path d="M1277.73356,1.00204221 L885.002723,1.00204221 C907.587883,10.316678 913.63499,27.7609258 930.782982,61.8042206 C952.226685,104.377944 974.384888,147.744588 1028.28604,146.219741 C1075.85255,144.869163 1123.5759,117.622328 1167.22138,89.1817563 C1198.4241,68.8272294 1241.1808,37.0494214 1277.73356,7.48481961 L1277.73356,1.00204221 L1277.73356,1.00204221 Z" id="Rectangle_1043_copy_2" fill-opacity="0" fill="#4FE3E6" opacity="0.28"></path>
                <path d="M968.651464,2.7447243 C969.348536,4.13886998 970.071749,5.55915589 970.812389,7.03172226 C992.264806,49.6141593 1015.20722,95.0023145 1069.11709,93.4774677 C1116.69231,92.126889 1158.69966,67.459224 1204.95044,39.0622192 C1220.43417,29.5646018 1239.22029,16.8430225 1258.92131,2.7447243 L968.651464,2.7447243 Z" id="Path" fill="#6FF8DA"></path>
                <path d="M969.583799,1.00204221 C970.289585,2.39618788 971.004084,3.81647379 971.753438,5.28904016 C993.197141,47.8714772 1016.14826,93.2596324 1070.04942,91.7347856 C1117.62464,90.3842069 1159.63199,65.7165419 1205.88278,37.3195371 C1221.36651,27.8219197 1240.16133,15.1003404 1259.86236,1.00204221 L969.583799,1.00204221 Z" id="Rectangle_1044_copy" fill="#4CE5C3"></path>
                <path d="M962.098979,1.00204221 C962.796052,2.39618788 963.519265,3.81647379 964.259905,5.28904016 C985.703608,47.8714772 1008.65473,93.2596324 1062.5646,91.7347856 C1110.13111,90.3842069 1152.13846,65.7165419 1198.39796,37.3195371 C1213.88169,27.8219197 1232.6678,15.1003404 1252.36882,1.00204221 L962.098979,1.00204221 Z" id="Rectangle_1044_copy_2" fill-opacity="0" fill="#4CE5C3" opacity="0.28"></path>
                <path d="M1029.92417,2.7447243 C1046.33152,24.2929884 1067.46154,39.8725664 1098.71654,38.9925119 C1137.13397,37.9033356 1168.20599,23.2560926 1204.48863,2.7447243 L1029.92417,2.7447243 Z" id="Shape" fill="#8BFFD2"></path>
                <path d="M1029.92417,1.00204221 C1046.33152,22.5503063 1067.46154,38.1298843 1098.71654,37.2411164 C1137.13397,36.1606535 1168.20599,21.5134105 1204.48863,1.00204221 L1029.92417,1.00204221 Z" id="Shape_1039_copy" fill="#4DF7B5"></path>
                <path d="M1018.68387,1.00204221 C1035.09993,22.5503063 1056.22995,38.1298843 1087.48496,37.2411164 C1125.90238,36.1606535 1156.96569,21.5134105 1193.24833,1.00204221 L1018.68387,1.00204221 Z" id="Shape_1039_copy_2" fill-opacity="0" fill="#4DF7B5" opacity="0.2"></path>
                <g id="Group-7" transform="translate(0.000000, 293.000000)">
                    <path d="M1,423 L1,0 C43.209027,13.4029645 81.5931242,35.4563783 108.190709,73.8340274 C161.023605,150.083553 93.2532626,248.124887 174.14126,287.610002 C255.029258,327.095118 352.168995,300.271749 414.479965,368.04523 C430.158808,385.101963 445.702851,402.908634 460,423 L1,423 Z" id="Path" fill="#CE3FD1"></path>
                    <path d="M10,423 L10,0 C52.2082523,13.4029645 90.5916449,35.4563783 117.188741,73.8340274 C170.020667,150.083553 102.251569,248.124887 183.138082,287.610002 C264.024595,327.095118 361.162549,300.271749 423.472376,368.04523 C439.150931,385.101963 454.694688,402.908634 469,423 L10,423 Z" id="Rectangle_1048_copy_2" fill-opacity="0" fill="#CE3FD1" opacity="0.28"></path>
                    <path d="M1,45 C24.6352994,54.8373058 45.0338102,69.1619566 59.6415041,90.2132682 C112.50062,166.402287 37.683603,269.471809 118.611745,308.916878 C199.539886,348.361947 279.515535,330.159882 340.652064,398.724771 C347.639818,406.53188 354.450561,414.591674 361,423 L1,423 L1,45 Z" id="Path" fill="#D05EF0"></path>
                    <path d="M0,46 C23.6352994,55.8285925 44.0338102,70.1619566 58.6415041,91.2132682 C111.50905,167.402287 36.6920321,270.471809 117.620174,309.916878 C198.548315,349.361947 278.515535,331.151169 339.652064,399.724771 C346.639818,407.53188 353.450561,415.582961 360,424 L0,424 L0,46 Z" id="Rectangle_1049_copy" fill="#BD44DF"></path>
                    <path d="M9,46 C32.6352994,55.8285925 53.0338102,70.1619566 67.6415041,91.2132682 C120.50905,167.402287 45.6920321,270.471809 126.620174,309.916878 C207.548315,349.361947 287.515535,331.151169 348.652064,399.724771 C355.639818,407.53188 362.450561,415.582961 369,424 L9,424 L9,46 Z" id="Rectangle_1049_copy_2" fill-opacity="0" fill="#BD44DF" opacity="0.28"></path>
                    <path d="M1,423 L1,94 C4.69093992,97.6727213 8.05230787,101.68411 11.0428099,105.984888 C63.9214503,182.255528 -17.9304015,290.538205 63.0276318,330.025532 C141.422261,368.282968 202.623532,360.554722 261,423 L1,423 L1,423 Z" id="Path" fill="#B66EF2"></path>
                    <path d="M0,425 L0,96 C3.69124621,99.6723231 7.05263923,103.683636 10.0428099,107.98457 C62.9298826,184.253188 -18.9219693,292.541716 62.0360641,332.027997 C140.430693,370.275697 201.623532,362.547655 260,425 L0,425 Z" id="Rectangle_1050_copy" fill="#9B4DDD"></path>
                    <path d="M12,425 L12,96 C15.688934,99.6745935 19.0501384,103.685681 22.0428099,107.98457 C74.9214503,184.253188 -6.9304015,292.541716 74.0276318,332.027997 C152.422261,370.275697 213.623532,362.547655 272,425 L12,425 L12,425 Z" id="Rectangle_1050_copy_2" fill-opacity="0" fill="#9B4DDD" opacity="0.28"></path>
                    <path d="M1,348 C3.00196635,349.217674 5.13010706,350.374464 7.38442211,351.47037 C70.4715971,382.225328 111.865196,388.418068 155,423 L1,423 L1,348 Z" id="Path" fill="#9865E5"></path>
                    <path d="M0,349 C2.01026817,350.217674 4.14109636,351.374464 6.39248457,352.47037 C69.4762139,383.225328 110.85914,389.418068 154,424 L0,424 L0,349 Z" id="Rectangle_1051_copy" fill="#824DD4"></path>
                    <path d="M13,349 C15.0102682,350.217674 17.1410964,351.374464 19.3924846,352.47037 C82.4762139,383.225328 123.85914,389.418068 167,424 L13,424 L13,349 Z" id="Rectangle_1051_copy_2" fill-opacity="0" fill="#824DD4" opacity="0.28"></path>
                    <path d="M1,423 L1,396 C19.2788479,405.008798 34.5295989,413.13783 49,423 L1,423 Z" id="Path" fill="#796CEF"></path>
                    <path d="M0,424 L0,397 C18.2788479,406 33.5295989,414.13783 48,424 L0,424 Z" id="Shape_1047_copy" fill="#5E51D5"></path>
                    <path d="M2,424 L2,392 C23.7114904,402.669596 41.8169781,412.310904 59,424 L2,424 Z" id="Shape_1047_copy_2" fill-opacity="0" fill="#5E51D5" opacity="0.35"></path>
                </g>
            </g>
        </g>
    </g>
</svg>