<?xml version="1.0" encoding="UTF-8"?>
<svg width="888px" height="499px" viewBox="0 0 888 499" version="1.1" xmlns="http://www.w3.org/2000/svg" xmlns:xlink="http://www.w3.org/1999/xlink">
    <!-- Generator: Sketch 61.2 (89653) - https://sketch.com -->
    <title>Artboard</title>
    <desc>Created with Sketch.</desc>
    <g id="Artboard" stroke="none" stroke-width="1" fill="none" fill-rule="evenodd">
        <rect fill="#FFFFFF" x="0" y="0" width="888" height="499"></rect>
        <g id="Group-7" transform="translate(404.000000, 152.000000)" stroke="#0070BA" stroke-linecap="round" stroke-linejoin="round" stroke-width="1.7">
            <path d="M81.4153,57.62385 L81.8233,54.91935 C81.8628,54.66885 82.1133,54.22085 82.6768,54.22085 L87.7893,54.22085 C88.9988,54.22085 90.0488,54.62385 90.6128,55.10335 C91.8723,56.17835 92.0388,57.54135 91.7353,59.09235 C91.1188,62.26135 89.1543,63.80285 85.7333,63.80285 L85.2538,63.80285 C84.7563,63.80285 84.3363,64.15735 84.2588,64.64685 L83.5808,68.76535 C83.5808,68.76535 83.5098,69.29835 83.0813,69.29835 L79.8613,69.29835 C79.7973,69.29835 79.7358,69.26935 79.6923,69.22385 C79.6488,69.17135 79.6308,69.11235 79.6418,69.04985 L80.8423,61.42485 L80.8673,61.37985 C80.9633,61.13935 81.1938,60.98285 81.4563,60.98285 L83.2613,60.98285 C87.0658,60.98285 89.5263,59.42335 90.3133,55.97935 C90.4183,55.44485 90.5258,54.51935 90.5258,54.51935 C90.7858,51.86985 89.0533,50.56135 87.7918,50.12135 C87.0133,49.85035 86.0523,49.74635 84.9273,49.74635 L78.7773,49.74635 C78.3413,49.74635 77.9733,50.05785 77.9048,50.49135 L75.2988,67.01585 C75.2898,67.07885 75.3078,67.13885 75.3513,67.18985 C75.3923,67.23835 75.4538,67.26435 75.5178,67.26435 L79.9088,67.26435" id="Stroke-1"></path>
            <path d="M121.6228,194.38095 C104.2683,193.48645 89.3208,183.48645 81.4648,169.06745 C81.4648,169.06745 79.6438,165.56695 78.7173,163.15445 C87.1873,157.24395 93.1653,147.21545 93.1653,136.22745 C93.1653,127.47245 89.6893,119.52545 84.0378,113.70195 L84.0378,86.74945 C84.0378,79.42845 75.5083,78.18795 73.2768,84.43045 L61.2023,118.41745 C57.6718,127.23495 71.8268,126.26845 67.7543,118.39645 C64.3363,111.77995 58.4083,109.94095 57.6558,90.79445 L57.6708,40.54745 M57.6718,34.29495 C57.6718,29.94645 60.9423,27.87695 64.3413,27.87695 L102.0058,27.87695 C105.7258,27.87695 108.7408,30.89345 108.7408,34.61595 L108.7408,106.14095 C108.7408,109.85645 105.7258,112.87495 102.0058,112.87495 L98.6668,112.87495 L101.1213,124.86045 C102.6578,135.47245 92.4678,132.46295 92.9783,132.74245 C92.9783,132.74245 92.1888,121.82195 84.0378,113.68145 L84.0378,106.44245 L102.7998,106.44245 L102.7998,35.49845 L63.5603,35.49845 L63.5628,106.40845 L65.4483,106.42145 L63.4523,112.08695 C63.4523,112.08695 57.6558,104.50345 57.6558,90.80845 C57.6558,83.17445 57.6088,73.89995 57.6088,73.89995 L42.4403,108.16895 C39.5038,114.13995 37.5513,120.62545 42.1033,129.74745 C42.1033,129.74745 52.0988,151.47045 52.0988,162.69545" id="Stroke-3"></path>
            <path d="M57.67065,40.54765 L56.67915,41.64515 C56.67915,41.64515 39.02115,60.38265 26.19565,48.83665 L19.51315,40.90915 L4.90515,24.45165 C3.04765,22.42165 0.34965,17.64215 0.34965,13.88965 C0.34965,6.41165 6.41765,0.34965 13.90315,0.34965 C18.81015,0.34965 23.10965,2.95615 25.48515,6.86065 C25.48515,6.86065 26.73365,8.81415 27.43815,10.00615 C37.30665,25.68515 13.75315,25.11865 24.91065,9.88115 C25.64765,8.82065 26.80115,6.80865 26.80115,6.80865 C29.18415,2.93215 33.46665,0.34965 38.35365,0.34965 C45.83665,0.34965 51.90215,6.41165 51.90215,13.88965 C51.90215,17.88415 49.91815,21.56915 47.25815,24.45165 L30.35015,44.02665" id="Stroke-5"></path>
        </g>
        <g id="Group-11" transform="translate(78.000000, 143.000000)" stroke="#0370B7" stroke-width="1.7">
            <path d="M151.79265,0.3497 C141.00665,0.3497 132.26565,9.0902 132.26565,19.8742 C132.26565,30.6572 141.00665,39.3982 151.79265,39.3982 C162.57565,39.3982 171.31665,30.6572 171.31665,19.8742 C171.31665,9.0902 162.57565,0.3497 151.79265,0.3497 Z M120.27465,114.5462 C122.25115,109.2737 124.59865,101.1857 126.82815,96.0172 C128.16415,92.9227 129.42215,89.7972 130.88315,86.7587 C132.25165,83.9172 133.70815,81.0537 134.23065,77.9092 C134.55265,75.9942 133.49265,73.1122 131.21665,73.0532 C129.44815,73.0057 127.93465,74.7862 127.35315,76.2352 C126.01465,79.5787 126.34365,83.3992 126.29415,86.9222 C126.26015,89.1362 127.49515,105.9047 128.61665,120.0967 C128.61665,120.0967 137.64515,124.8607 144.03015,143.0897 L176.73315,143.1182 L185.43815,68.0477 L232.70665,68.1927 C238.25365,68.1927 242.75265,63.6932 242.75265,58.1467 C242.75265,55.0277 241.26515,52.0372 238.78515,50.1487 C234.91515,47.2022 229.33565,47.8362 224.72515,47.7512 C221.15965,47.6847 217.59465,47.6347 214.02915,47.5897 C205.20565,47.4792 196.38015,47.4032 187.55415,47.3392 C178.68565,47.2737 169.81515,47.2212 160.94465,47.1762 C154.69115,47.1432 148.43515,47.1172 142.18415,47.0937 C140.78015,47.0892 139.37515,47.0817 137.97065,47.0772 C122.27465,47.0772 116.00465,59.7947 113.95965,66.9607 L99.62665,114.1687" id="Stroke-1"></path>
            <path d="M186.3351,19.8746 C186.3351,30.6581 195.0756,39.3986 205.8591,39.3986 C216.6396,39.3986 225.3856,30.6581 225.3856,19.8746 C225.3856,9.0916 216.6396,0.3506 205.8591,0.3506 C195.0756,0.3506 186.3351,9.0916 186.3351,19.8746 Z M189.6071,143.0786 L225.7971,143.0786 C225.7971,139.0451 229.9441,93.8996 229.8846,89.8641 C229.8326,86.3411 230.1636,82.5231 228.8251,79.1771 C228.2461,77.7306 226.7306,75.9501 224.9646,75.9951 C222.6876,76.0566 221.6286,78.9361 221.9481,80.8536 C222.4706,83.9956 223.9246,86.8591 225.2956,89.7031 C226.7591,92.7411 228.0141,95.8666 229.3501,98.9616 C231.5796,104.1301 233.9276,109.2746 235.9041,114.5471 C237.3506,118.4096 238.8026,122.2731 240.2331,126.1411 C241.4386,129.3991 242.6421,132.6566 243.8476,135.9151 C247.9431,148.5306 265.2801,143.3506 261.3101,129.8316 L244.7031,75.2496 L241.2181,63.4796" id="Stroke-3"></path>
            <path d="M53.5055,79.98595 C53.5055,75.58695 57.0755,72.01545 61.474,72.01545 C65.872,72.01545 69.44,75.58645 69.44,79.98595 C69.44,84.39195 65.8745,87.95895 61.474,87.95895 C57.0725,87.95895 53.5055,84.39145 53.5055,79.98595 Z" id="Stroke-5"></path>
            <path d="M75.41765,112.6495 C79.96965,112.674 84.21515,112.752 84.21515,112.752 C87.11465,110.144 88.80515,106.4285 88.80515,102.4495 C88.80515,94.8025 82.60765,88.6015 74.96415,88.6015 C67.32415,88.6015 61.12715,94.8035 61.12715,102.4495 C61.12715,106.0185 62.89415,110.076 65.42615,112.699" id="Stroke-7"></path>
            <path d="M99.58315,114.25495 C123.79765,117.38545 139.51965,134.31845 139.51965,154.40395 C139.51965,164.50595 135.85565,173.47895 129.11665,180.62695 C129.10865,180.63595 129.10065,180.64395 129.09365,180.65295 C126.16665,183.74495 123.51365,186.01095 120.45715,187.91095 C120.05015,188.16395 119.85715,188.65445 119.98265,189.11695 L123.85915,203.43345 C126.32115,210.66245 118.32565,214.83945 112.75065,209.26095 C111.53115,208.03995 109.98765,206.30595 108.19965,204.16945 C107.85265,203.75395 107.49715,203.32595 107.13515,202.88495 C105.60915,201.02545 104.02715,199.03145 102.48115,197.03695 C101.94015,196.33945 101.44265,195.69095 100.99965,195.10945 C100.73415,194.76145 100.54615,194.51295 100.44715,194.38095 C100.24115,194.10745 99.91815,193.94695 99.57515,193.94795 L55.22565,194.10195 C54.79915,194.10345 54.41215,194.35495 54.23815,194.74495 L48.12215,208.44095 C44.74365,216.46945 34.80765,213.88045 35.20815,205.03845 L35.20965,190.98095 C35.20965,190.50345 34.89765,190.08195 34.44115,189.94245 C26.15965,187.41045 19.08865,183.62445 13.13815,178.91895 C9.14515,175.76095 0.95065,166.54945 0.34965,165.57345 L0.34965,159.10295 L0.42765,159.06295 L16.70215,150.60095 C16.86215,150.51795 16.99865,150.39645 17.09965,150.24745 L22.67715,142.03145 C22.85415,141.76995 22.90915,141.44545 22.82765,141.14045 L15.90565,119.39045 C21.30915,117.81695 26.20115,118.19345 30.37415,119.76795 C31.16415,120.06595 31.85765,120.38445 32.44765,120.70045 C32.79165,120.88495 33.01815,121.02295 33.12065,121.09245 C33.61715,121.42895 34.68915,120.70645 34.71315,120.65695 C42.71515,116.59345 56.49015,113.02445 65.48615,112.75195" id="Stroke-9"></path>
        </g>
        <g id="Group-14" transform="translate(620.000000, 131.000000)" fill="#0370B7" stroke="#006EBA">
            <path d="M44.42515,145.59 C39.54065,152.841 40.13515,157.491 42.45715,159.474 C44.26615,161.0185 47.06965,160.918 48.70865,159.25 C50.87165,157.05 50.93215,152.1665 44.86715,144.948 C44.77015,145.0855 44.67515,145.223 44.58215,145.3585 C44.56765,145.387 44.55365,145.4145 44.53915,145.443 C44.50965,145.4995 44.47115,145.5485 44.42515,145.59 L44.42515,145.59 Z M44.41565,196.813 C44.31515,196.813 44.21965,196.7695 44.15315,196.6945 L17.67165,166.6515 C13.85615,162.6 11.72665,157.875 11.68265,153.3555 C11.63715,148.767 13.38215,144.434 16.59615,141.157 C19.81065,137.8795 24.10915,136.05 28.70015,136.004 C28.75765,136.0035 28.81615,136.003 28.87365,136.003 C35.19565,136.003 40.96415,139.4315 43.98565,144.988 C44.10065,144.767 44.21915,144.549 44.34215,144.3345 C44.27565,144.2585 44.20815,144.182 44.14115,144.1055 C44.04665,143.9985 44.02615,143.8455 44.08965,143.7175 C44.15315,143.5905 44.27965,143.5135 44.43065,143.5245 L44.81665,143.555 C47.93165,138.728 53.25015,135.76 59.08615,135.7 C59.14365,135.699 59.20265,135.699 59.25965,135.699 C68.66315,135.699 76.35765,143.294 76.4516691,152.7105 C76.45365,152.904 76.29815,153.062 76.10465,153.064 L76.10165,153.064 C75.90965,153.064 75.75315,152.91 75.75115,152.7175 C75.66215,143.685 68.27915,136.399 59.25965,136.399 C59.20415,136.399 59.14865,136.3995 59.09315,136.4 C53.55015,136.4565 48.49365,139.249 45.49215,143.8015 C45.53815,143.914 45.52165,144.043 45.44915,144.1415 C45.39465,144.215 45.34165,144.2875 45.28865,144.3605 C53.46165,153.989 50.37615,158.5525 49.20765,159.741 C47.31765,161.665 44.08415,161.785 42.00315,160.006 C38.31815,156.8595 40.22515,150.811 43.58665,145.6025 C43.51715,145.551 43.45915,145.4865 43.41915,145.412 C40.50715,139.979 34.85815,136.6355 28.70665,136.7045 C24.30315,136.7475 20.17965,138.5035 17.09615,141.647 C14.01315,144.791 12.33865,148.947 12.38265,153.349 C12.42465,157.6915 14.48715,162.2485 18.18915,166.1805 L44.40715,195.924 L52.35315,186.3075 L70.31065,165.6655 C70.43815,165.5195 70.66015,165.504 70.80465,165.631 C70.95065,165.758 70.96615,165.979 70.83915,166.1245 L52.88765,186.76 L44.68565,196.686 C44.62065,196.765 44.52365,196.811 44.42115,196.813 L44.41565,196.813 Z" id="Fill-1"></path>
            <path d="M43.59455,44.3776 C35.17355,44.3776 27.53805,49.3556 24.14155,57.0596 C22.61855,60.5136 22.04005,64.3101 22.46805,68.0391 C22.67505,69.8376 23.11405,71.6131 23.77255,73.3156 C25.82605,78.6066 29.81755,82.7821 35.01255,85.0721 C37.73855,86.2741 40.61855,86.8836 43.57255,86.8836 C51.99255,86.8836 59.62705,81.9061 63.02355,74.2026 C67.75055,63.4821 62.87505,50.9151 52.15555,46.1891 C49.42955,44.9876 46.54905,44.3776 43.59455,44.3776 M43.57255,87.5831 C40.52105,87.5831 37.54555,86.9536 34.73005,85.7126 C29.36455,83.3466 25.24105,79.0341 23.12055,73.5686 C22.43955,71.8101 21.98605,69.9766 21.77255,68.1191 C21.33055,64.2666 21.92805,60.3451 23.50055,56.7776 C27.00905,48.8196 34.89655,43.6781 43.59455,43.6781 C46.64655,43.6781 49.62205,44.3071 52.43805,45.5486 C63.51055,50.4301 68.54655,63.4111 63.66455,74.4851 C60.15605,82.4421 52.27005,87.5831 43.57255,87.5831" id="Fill-3"></path>
            <g id="Group-7" transform="translate(0.000000, 108.716000)">
                <path d="M72.5633,106.5 L16.4528,106.5 C7.3928,106.5 0.0218,99.13 0.0218,90.0715 L0.0218,16.12 C0.0018,15.866 -0.4467,9.2265 3.9333,4.5035 C6.7023,1.5165 10.7698,0.002 16.0223,0.002 L72.9913,0.002 C78.2438,0.002 82.3113,1.5165 85.0798,4.503 C89.4588,9.2265 89.0098,15.866 88.9888,16.1465 L88.9898,34.8405 C88.9898,35.0335 88.8328,35.1905 88.6393,35.1905 C88.4463,35.1905 88.2893,35.0335 88.2893,34.8405 L88.2893,16.12 C88.2953,16.0285 88.7338,9.469 84.5623,4.9745 C81.9313,2.1395 78.0383,0.702 72.9913,0.702 L16.0223,0.702 C10.9723,0.702 7.0778,2.141 4.4468,4.979 C0.2728,9.481 0.7163,16.0285 0.7208,16.094 L0.7218,90.0715 C0.7218,98.744 7.7788,105.8 16.4528,105.8 L72.5633,105.8 C81.2348,105.8 88.2893,98.744 88.2893,90.0715 L88.2893,56.4665 C88.2893,56.273 88.4463,56.116 88.6393,56.116 C88.8328,56.116 88.9898,56.273 88.9898,56.4665 L88.9898,90.0715 C88.9898,99.13 81.6208,106.5 72.5633,106.5" id="Fill-5"></path>
            </g>
            <path d="M80.5389,109.9577 C80.3454,109.9577 80.1889,109.8012 80.1889,109.6077 L80.1889,98.3107 L9.9119,98.3107 L9.9119,103.5142 C9.9119,103.7077 9.7554,103.8642 9.5619,103.8642 C9.3684,103.8642 9.2119,103.7077 9.2119,103.5142 L9.2119,97.9607 C9.2119,97.7672 9.3684,97.6107 9.5619,97.6107 L80.5389,97.6107 C80.7324,97.6107 80.8889,97.7672 80.8889,97.9607 L80.8889,109.6077 C80.8889,109.8012 80.7324,109.9577 80.5389,109.9577" id="Fill-8"></path>
            <path d="M71.4959,70.5695 C69.7679,70.5695 67.4769,70.0845 66.1139,68.6775 C65.3149,67.852 64.9589,66.8355 65.0564,65.6555 C65.2794,62.954 67.8249,60.6015 69.9209,59.1045 C70.0859,58.988 96.1319,40.363 98.7294,38.506 C98.1459,36.694 94.0779,24.994 85.3254,21.2985 C80.8074,19.3915 75.7344,19.8985 70.2454,22.806 C67.3914,24.572 64.5264,26.4345 61.7559,28.2365 C52.7894,34.066 43.5184,40.094 33.1594,43.7925 C31.2399,44.4775 24.5754,46.4795 19.3854,43.454 C17.4794,42.3435 16.4969,41.1255 16.4646547,39.835 C16.4229,38.0565 18.2119,36.8735 18.2879,36.8245 L18.4069,36.741 L32.5634,27.116 C35.0579,25.419 37.5614,23.732 40.0654,22.044 C46.6759,17.5885 53.5114,12.981 60.0879,8.254 C64.3589,5.188 68.2669,2.5245 72.8459,0.982 C78.9799,-1.088 85.4729,0.5225 91.7524,2.08 C92.9959,2.389 94.1704,2.6805 95.3464,2.9445 C97.9179,3.5195 100.4904,4.0905 103.0634,4.661 C105.9219,5.2945 108.7799,5.9285 111.6374,6.5695 L130.1719,10.7255 C142.2344,13.949 146.1879,5.6655 146.3504,5.311 C146.4309,5.1365 146.6369,5.0575 146.8144,5.1385 C146.9899,5.219 147.0674,5.426 146.9869,5.6015 C146.9454,5.6935 142.6414,14.783 130.0049,11.405 L111.4844,7.252 C108.6274,6.6115 105.7694,5.9775 102.9119,5.3445 C100.3389,4.7735 97.7654,4.203 95.1934,3.6275 C94.0089,3.3615 92.8314,3.069 91.5839,2.76 C85.4019,1.226 79.0089,-0.359 73.0694,1.645 C68.5824,3.157 64.7204,5.79 60.4959,8.8225 C53.9114,13.556 47.0714,18.166 40.4564,22.6245 C37.9534,24.3115 35.4509,25.9985 32.9569,27.695 L18.6779,37.4055 C18.6539,37.421 17.1299,38.4345 17.1654,39.8215 C17.1924,40.851 18.0579,41.8705 19.7379,42.8495 C24.6674,45.7225 31.0769,43.7925 32.9239,43.1335 C43.2059,39.4625 52.4419,33.457 61.3739,27.6495 C64.1514,25.8435 67.0234,23.976 69.8869,22.2045 C69.8949,22.1995 69.9029,22.195 69.9109,22.1905 C75.5989,19.177 80.8779,18.6595 85.6004,20.655 C95.3564,24.7755 99.4349,38.408 99.4749,38.545 C99.5164,38.688 99.4639,38.8415 99.3424,38.928 C94.5044,42.388 70.3654,59.6485 70.3214,59.6785 C68.3524,61.0855 65.9549,63.279 65.7539,65.713 C65.6734,66.6835 65.9644,67.517 66.6169,68.1905 C67.8509,69.465 70.1604,69.95 71.8994,69.8595 C74.9984,69.7005 78.0214,68.612 80.9439,67.5595 L81.8319,67.2415 C83.7679,66.5515 85.7059,65.8695 87.6439,65.1875 C89.4769,64.5425 91.3104,63.8975 93.1429,63.2455 L111.1089,56.8505 C134.9179,50.8 140.6779,38.6735 140.7339,38.5515 C140.8134,38.375 141.0214,38.2975 141.1969,38.378 C141.3729,38.4575 141.4504,38.6655 141.3704,38.8415 C141.3124,38.97 139.8854,42.038 135.4494,45.895 C131.3799,49.4345 123.8884,54.324 111.3139,57.5185 L111.2864,57.53 L93.3774,63.9045 C91.5449,64.5575 89.7104,65.2025 87.8764,65.848 C85.9389,66.5295 84.0019,67.211 82.0674,67.9005 L81.1814,68.2185 C78.2104,69.288 75.1374,70.394 71.9349,70.559 C71.7934,70.5655 71.6469,70.5695 71.4959,70.5695" id="Fill-10"></path>
            <path d="M111.1224,132.9211 C110.9289,132.9211 110.7724,132.7646 110.7724,132.5711 L110.7724,97.5006 C110.7724,94.9251 112.8679,92.8291 115.4439,92.8291 L166.5774,92.8291 C166.7709,92.8291 166.9274,92.9861 166.9274,93.1796 L166.9274,123.4401 L199.2884,123.4401 L178.1954,99.5341 C178.0684,99.3891 178.0819,99.1676 178.2269,99.0396 C178.3709,98.9121 178.5924,98.9251 178.7209,99.0711 L200.3264,123.5586 C200.3264,123.5586 200.3269,123.5581 200.3274,123.5601 C200.3274,123.5601 200.3289,123.5616 200.3289,123.5621 L200.3294,123.5621 C200.3339,123.5671 200.3379,123.5726 200.3419,123.5776 C200.3419,123.5776 200.3414,123.5776 200.3429,123.5791 C200.3439,123.5801 200.3434,123.5806 200.3434,123.5806 C200.3444,123.5811 200.3449,123.5816 200.3454,123.5821 L200.3454,123.5826 C200.3639,123.6076 200.3789,123.6341 200.3894,123.6616 C200.3894,123.6616 200.3899,123.6631 200.3899,123.6636 L200.3904,123.6641 C200.3904,123.6646 200.3909,123.6651 200.3909,123.6651 C200.3909,123.6656 200.3914,123.6661 200.3914,123.6666 L200.3914,123.6671 C200.4034,123.6976 200.4104,123.7301 200.4129,123.7641 L200.4129,123.7666 L200.4129,123.7676 C200.4139,123.7731 200.4139,123.7781 200.4139,123.7836 L200.4139,123.7856 L200.4139,123.7881 L200.4139,123.7891 L200.4139,123.7901 L200.4139,123.7906 L200.4139,123.7911 C200.4139,123.8446 200.4019,123.8941 200.3809,123.9391 C200.3629,123.9766 200.3384,124.0121 200.3069,124.0421 C200.2904,124.0576 200.2724,124.0726 200.2534,124.0846 L200.2529,124.0846 C200.2524,124.0851 200.2519,124.0846 200.2509,124.0861 L200.2499,124.0866 L200.2494,124.0871 C200.2494,124.0871 200.2484,124.0876 200.2474,124.0886 L200.2469,124.0886 C200.2464,124.0891 200.2459,124.0891 200.2454,124.0896 C200.2359,124.0956 200.2254,124.1006 200.2159,124.1056 C200.2154,124.1061 200.2144,124.1061 200.2139,124.1066 C200.2129,124.1076 200.2129,124.1071 200.2114,124.1076 L200.2094,124.1086 C200.2094,124.1086 200.2089,124.1076 200.2074,124.1096 C200.1704,124.1261 200.1299,124.1366 200.0874,124.1396 L200.0859,124.1396 C200.0854,124.1396 200.0849,124.1401 200.0849,124.1401 L200.0839,124.1401 L200.0819,124.1401 L200.0794,124.1401 C200.0794,124.1401 200.0749,124.1401 200.0729,124.1401 L200.0724,124.1401 L200.0704,124.1401 L200.0694,124.1401 L200.0684,124.1401 L200.0664,124.1401 L200.0644,124.1401 L200.0639,124.1401 L166.5774,124.1401 C166.3839,124.1401 166.2274,123.9836 166.2274,123.7901 L166.2274,93.5296 L115.4439,93.5296 C113.2539,93.5296 111.4724,95.3106 111.4724,97.5006 L111.4724,132.5711 C111.4724,132.7646 111.3159,132.9211 111.1224,132.9211 M184.5254,149.4731 L126.6609,149.4731 C126.4674,149.4731 126.3109,149.3161 126.3109,149.1226 C126.3109,148.9296 126.4674,148.7726 126.6609,148.7726 L184.5254,148.7726 C184.7184,148.7726 184.8754,148.9296 184.8754,149.1226 C184.8754,149.3161 184.7184,149.4731 184.5254,149.4731 M184.5254,169.2766 L126.6609,169.2766 C126.4674,169.2766 126.3109,169.1196 126.3109,168.9266 C126.3109,168.7331 126.4674,168.5766 126.6609,168.5766 L184.5254,168.5766 C184.7184,168.5766 184.8754,168.7331 184.8754,168.9266 C184.8754,169.1196 184.7184,169.2766 184.5254,169.2766 M182.8354,189.4431 L146.1064,189.4431 C145.9129,189.4431 145.7564,189.2861 145.7564,189.0931 C145.7564,188.8996 145.9129,188.7431 146.1064,188.7431 L182.8354,188.7431 C183.0289,188.7431 183.1854,188.8996 183.1854,189.0931 C183.1854,189.2861 183.0289,189.4431 182.8354,189.4431 M195.7424,211.6426 L115.4439,211.6426 C112.8679,211.6426 110.7724,209.5476 110.7724,206.9721 L110.7724,165.8721 C110.8944,161.1766 108.2544,157.5531 103.3379,155.6601 C94.7844,152.3666 80.4699,154.9561 70.7849,166.2441 C70.6579,166.3901 70.4374,166.4066 70.2914,166.2816 C70.1449,166.1556 70.1279,165.9346 70.2539,165.7876 C80.1484,154.2576 94.8144,151.6281 103.5894,155.0066 C108.7274,156.9851 111.6004,160.9491 111.4724,165.8816 L111.4724,206.9721 C111.4724,209.1611 113.2539,210.9426 115.4439,210.9426 L195.7424,210.9426 C197.9324,210.9426 199.7139,209.1611 199.7139,206.9721 L199.7139,136.7536 C199.7139,136.5601 199.8704,136.4036 200.0639,136.4036 C200.2574,136.4036 200.4139,136.5601 200.4139,136.7536 L200.4139,206.9721 C200.4139,209.5476 198.3184,211.6426 195.7424,211.6426" id="Fill-12"></path>
        </g>
    </g>
</svg>