<svg xmlns="http://www.w3.org/2000/svg" viewBox="0 0 621 397"><g fill="none" fill-rule="evenodd"><path stroke="#DEDEDE" stroke-width=".55" d="M82 43c0 8.285-6.715 15-15 15-8.284 0-15-6.715-15-15 0-8.284 6.716-15 15-15 8.285 0 15 6.716 15 15zM243 43c0 8.285-6.715 15-15 15-8.284 0-15-6.715-15-15 0-8.284 6.716-15 15-15 8.285 0 15 6.716 15 15zM242 203c0 8.285-6.715 15-15 15-8.284 0-15-6.715-15-15 0-8.284 6.716-15 15-15 8.285 0 15 6.716 15 15zM242 346c0 8.285-6.715 15-15 15-8.284 0-15-6.715-15-15 0-8.284 6.716-15 15-15 8.285 0 15 6.716 15 15zM407 203c0 8.285-6.715 15-15 15-8.284 0-15-6.715-15-15 0-8.284 6.716-15 15-15 8.285 0 15 6.716 15 15zM407 346c0 8.285-6.715 15-15 15-8.284 0-15-6.715-15-15 0-8.284 6.716-15 15-15 8.285 0 15 6.716 15 15zM577 203c0 8.285-6.715 15-15 15-8.284 0-15-6.715-15-15 0-8.284 6.716-15 15-15 8.285 0 15 6.716 15 15zM577 346c0 8.285-6.715 15-15 15-8.284 0-15-6.715-15-15 0-8.284 6.716-15 15-15 8.285 0 15 6.716 15 15zM82 203c0 8.285-6.715 15-15 15-8.284 0-15-6.715-15-15 0-8.284 6.716-15 15-15 8.285 0 15 6.716 15 15zM82 346c0 8.285-6.715 15-15 15-8.284 0-15-6.715-15-15 0-8.284 6.716-15 15-15 8.285 0 15 6.716 15 15zM408 42c0 8.285-6.715 15-15 15-8.284 0-15-6.715-15-15 0-8.284 6.716-15 15-15 8.285 0 15 6.716 15 15z"/><path stroke="#DEDEDE" stroke-width=".55" d="M48 62h38V24H48zM209 62h38V24h-38zM208 222h38v-38h-38zM208 365h38v-38h-38zM373 222h38v-38h-38zM373 365h38v-38h-38zM543 222h38v-38h-38zM543 365h38v-38h-38zM48 222h38v-38H48zM48 365h38v-38H48zM374 61h38V23h-38z"/><path stroke="#DEDEDE" stroke-width=".55" d="M38 72h57V15H38zM199 72h57V15h-57zM198 232h57v-57h-57zM198 375h57v-57h-57zM363 232h57v-57h-57zM363 375h57v-57h-57zM533 232h57v-57h-57zM533 375h57v-57h-57zM38 232h57v-57H38zM38 375h57v-57H38zM364 71h57V14h-57z"/><path stroke="#DEDEDE" stroke-width=".55" d="M58 52h18V34H58zM219 52h18V34h-18zM218 212h18v-18h-18zM218 355h18v-18h-18zM383 212h18v-18h-18zM383 355h18v-18h-18zM553 212h18v-18h-18zM553 355h18v-18h-18zM58 212h18v-18H58zM58 355h18v-18H58zM384 51h18V33h-18z"/><path stroke="#DEDEDE" stroke-width=".55" d="M52 58h30V28H52zM213 58h30V28h-30zM212 218h30v-30h-30zM212 361h30v-30h-30zM377 218h30v-30h-30zM377 361h30v-30h-30zM547 218h30v-30h-30zM547 361h30v-30h-30zM52 218h30v-30H52zM52 361h30v-30H52zM378 57h30V27h-30z"/><path stroke="#DEDEDE" stroke-width=".55" d="M72 43.5a5.5 5.5 0 1 1-11 0 5.5 5.5 0 0 1 11 0zM233 43.5a5.5 5.5 0 1 1-11 0 5.5 5.5 0 0 1 11 0zM232 203.5a5.5 5.5 0 1 1-11 0 5.5 5.5 0 0 1 11 0zM232 346.5a5.5 5.5 0 1 1-11 0 5.5 5.5 0 0 1 11 0zM397 203.5a5.5 5.5 0 1 1-11 0 5.5 5.5 0 0 1 11 0zM397 346.5a5.5 5.5 0 1 1-11 0 5.5 5.5 0 0 1 11 0zM567 203.5a5.5 5.5 0 1 1-11 0 5.5 5.5 0 0 1 11 0zM567 346.5a5.5 5.5 0 1 1-11 0 5.5 5.5 0 0 1 11 0zM72 203.5a5.5 5.5 0 1 1-11 0 5.5 5.5 0 0 1 11 0zM72 346.5a5.5 5.5 0 1 1-11 0 5.5 5.5 0 0 1 11 0zM398 42.5a5.5 5.5 0 1 1-11 0 5.5 5.5 0 0 1 11 0zM38 15l57 57M199 15l57 57M198 175l57 57M198 318l57 57M363 175l57 57M363 318l57 57M533 175l57 57M533 318l57 57M38 175l57 57M38 318l57 57M364 14l57 57M38 72l57-57M199 72l57-57M198 232l57-57M198 375l57-57M363 232l57-57M363 375l57-57M533 232l57-57M533 375l57-57M38 232l57-57M38 375l57-57M364 71l57-57"/><path stroke="#333" stroke-width="2.42" d="M37.245 72.45L95 72.5M198.245 72.45L256 72.5M197.245 232.45l57.755.05M197.245 375.45l57.755.05M362.245 232.45l57.755.05M362.245 375.45l57.755.05M532.245 232.45l57.755.05M532.245 375.45l57.755.05M37.245 232.45L95 232.5M37.245 375.45L95 375.5M363.245 71.45L421 71.5"/><path fill="#000" fill-rule="nonzero" d="M29.043 110v-4.312h4.123v-1.106h-4.123v-3.507h4.822v-1.106h-6.18V110h1.358zm7.385 0V99.689h-1.246V110h1.245zm4.963.098a3.66 3.66 0 0 0 1.4-.255c.415-.17.77-.415 1.064-.732.294-.317.519-.7.675-1.148a4.57 4.57 0 0 0 .234-1.512c0-.555-.078-1.058-.234-1.508a3.226 3.226 0 0 0-.675-1.152 3 3 0 0 0-1.064-.735 3.616 3.616 0 0 0-1.4-.259c-.523 0-.993.086-1.411.259a2.993 2.993 0 0 0-1.067.735c-.294.317-.52.701-.676 1.151-.156.45-.235.954-.235 1.509 0 .56.079 1.064.235 1.512.156.448.381.83.675 1.148.294.317.65.561 1.068.731.418.17.888.256 1.41.256zm0-.973c-.71 0-1.238-.234-1.586-.704-.348-.469-.522-1.123-.522-1.963 0-.42.044-.797.13-1.13.086-.334.217-.615.392-.844.175-.229.394-.404.658-.525a2.2 2.2 0 0 1 .928-.182c.7 0 1.222.236 1.568.707.345.471.517 1.13.517 1.974 0 .84-.172 1.495-.517 1.963-.346.47-.869.704-1.569.704zm7.28.875c.144 0 .237-.08.28-.238l1.596-4.802c.037-.112.067-.223.09-.332l.07-.326.07.325a2.7 2.7 0 0 0 .091.326l1.569 4.809c.046.159.13.238.252.238h.986l2.297-7.091h-.939a.374.374 0 0 0-.364.259l-1.386 4.564c-.041.168-.08.33-.115.487a6.779 6.779 0 0 0-.087.465c-.038-.154-.078-.31-.12-.469-.041-.159-.088-.32-.14-.483l-1.462-4.592a.361.361 0 0 0-.127-.175.368.368 0 0 0-.23-.07h-.547a.331.331 0 0 0-.213.07.37.37 0 0 0-.122.175l-1.498 4.592c-.052.163-.1.324-.144.483a78.36 78.36 0 0 0-.13.469c-.046-.299-.11-.616-.188-.952l-1.358-4.564a.4.4 0 0 0-.385-.259h-.98L47.733 110h.938zm11.354.098a4.639 4.639 0 0 0 1.536-.266c.245-.089.475-.202.69-.34.214-.137.399-.3.553-.486l-.35-.455a.274.274 0 0 0-.239-.119.543.543 0 0 0-.283.108 3.847 3.847 0 0 1-.994.469 2.67 2.67 0 0 1-.808.109c-.337 0-.64-.055-.91-.164a1.851 1.851 0 0 1-.7-.497 2.348 2.348 0 0 1-.459-.83 4.146 4.146 0 0 1-.185-1.169h4.739c.116 0 .195-.033.237-.098.043-.065.064-.196.064-.392 0-.504-.075-.953-.224-1.347a2.822 2.822 0 0 0-.62-.995 2.668 2.668 0 0 0-.938-.616 3.193 3.193 0 0 0-1.18-.213c-.513 0-.975.09-1.386.27-.41.18-.758.427-1.042.742a3.267 3.267 0 0 0-.655 1.116c-.152.43-.227.891-.227 1.386 0 .611.084 1.153.252 1.624.167.471.402.867.703 1.186.301.32.658.563 1.071.729.413.165.864.248 1.355.248zm1.77-4.417h-3.878c.084-.616.3-1.098.648-1.445.348-.348.82-.522 1.418-.522.284 0 .539.048.763.144.223.095.414.23.57.405.156.175.275.383.357.623.082.24.122.506.122.795zM65.653 110v-4.48a4.08 4.08 0 0 1 .297-.647c.11-.19.233-.348.371-.477a1.4 1.4 0 0 1 .469-.29c.175-.065.374-.098.598-.098.16 0 .301.014.427.042.127.028.222.042.288.042.112 0 .181-.058.21-.175l.09-.931a1.155 1.155 0 0 0-.367-.154 1.859 1.859 0 0 0-.43-.049c-.472 0-.87.136-1.197.41-.327.273-.603.652-.827 1.137l-.083-1.078c-.02-.126-.054-.215-.105-.266-.052-.051-.145-.077-.28-.077h-.715V110h1.254zm10.254.098c.472 0 .897-.092 1.275-.276.377-.185.698-.444.962-.778.264-.333.465-.736.605-1.207.14-.471.21-.994.21-1.568 0-.537-.061-1.02-.185-1.449a3.224 3.224 0 0 0-.535-1.095 2.332 2.332 0 0 0-.851-.69 2.584 2.584 0 0 0-1.124-.238c-.49 0-.922.103-1.298.308-.376.205-.713.48-1.011.826v-4.242H72.7V110h.806c.177 0 .284-.089.322-.266l.063-.644c.237.322.516.57.836.745.32.175.713.263 1.18.263zm-.3-.966a2.12 2.12 0 0 1-.9-.189c-.273-.126-.524-.343-.752-.651v-3.43c.256-.34.535-.604.836-.791.301-.187.654-.28 1.06-.28.584 0 1.033.204 1.348.612.315.409.472 1.047.472 1.915 0 .933-.177 1.636-.532 2.107-.354.471-.865.707-1.532.707zm6.356.98c.27 0 .516-.024.738-.073a3.042 3.042 0 0 0 1.187-.546c.177-.133.359-.286.545-.459l.14.672c.038.117.09.195.155.234.065.04.158.06.28.06h.553v-4.536c0-.397-.054-.76-.162-1.092a2.312 2.312 0 0 0-.475-.847 2.168 2.168 0 0 0-.778-.546 2.685 2.685 0 0 0-1.056-.196c-.551 0-1.053.093-1.505.28a4.05 4.05 0 0 0-1.267.847l.224.399a.61.61 0 0 0 .153.165c.061.044.134.066.218.066a.565.565 0 0 0 .325-.116c.11-.077.24-.163.392-.259.152-.095.331-.181.539-.259.208-.077.466-.115.773-.115.458 0 .806.141 1.044.424.237.282.356.698.356 1.249v.553c-.807.019-1.488.092-2.043.22-.556.129-1.006.293-1.352.494-.345.2-.594.43-.749.69a1.56 1.56 0 0 0-.23.808c0 .322.052.6.157.837.105.235.247.43.427.584.18.154.39.27.633.346.243.078.502.116.778.116zm.37-.875c-.163 0-.316-.02-.458-.06a.998.998 0 0 1-.371-.189.897.897 0 0 1-.249-.332 1.174 1.174 0 0 1-.09-.483c0-.196.057-.373.171-.532.114-.159.299-.296.553-.413a4.17 4.17 0 0 1 .987-.283c.404-.073.892-.118 1.466-.137v1.47c-.14.15-.283.282-.43.399a2.901 2.901 0 0 1-.462.301 2.268 2.268 0 0 1-.514.193 2.544 2.544 0 0 1-.603.066zm6.93.875c.434 0 .817-.058 1.148-.175.332-.117.612-.276.84-.48.23-.203.402-.443.518-.72.117-.278.175-.58.175-.907 0-.285-.052-.528-.157-.731a1.6 1.6 0 0 0-.416-.515 2.451 2.451 0 0 0-.588-.35 8.963 8.963 0 0 0-.676-.255 31.55 31.55 0 0 0-.675-.218 3.631 3.631 0 0 1-.588-.234 1.369 1.369 0 0 1-.417-.315.67.67 0 0 1-.158-.455c0-.145.032-.279.095-.403a.975.975 0 0 1 .273-.325c.119-.093.263-.167.43-.22a1.86 1.86 0 0 1 .568-.081c.242 0 .452.027.63.08.177.054.33.112.458.175.128.063.237.12.326.172a.487.487 0 0 0 .237.077.276.276 0 0 0 .26-.154l.28-.455a2.974 2.974 0 0 0-.963-.606 3.387 3.387 0 0 0-1.257-.22c-.4 0-.758.056-1.07.168a2.413 2.413 0 0 0-.791.451 1.914 1.914 0 0 0-.659 1.439c0 .303.053.561.158.773.105.213.244.391.416.536.173.145.37.265.592.36.222.096.448.181.679.256.231.075.457.146.679.213.222.068.419.148.591.239.173.09.312.2.417.329.105.128.157.29.157.486 0 .159-.029.308-.087.448-.058.14-.148.264-.27.371a1.338 1.338 0 0 1-.455.255 1.948 1.948 0 0 1-.636.095c-.285 0-.523-.033-.715-.098a2.583 2.583 0 0 1-.486-.217 5.626 5.626 0 0 1-.34-.217.47.47 0 0 0-.266-.098.359.359 0 0 0-.195.049.427.427 0 0 0-.133.14l-.294.476c.28.252.62.459 1.022.62.4.16.849.241 1.343.241zm7.147-.014a4.639 4.639 0 0 0 1.537-.266c.245-.089.475-.202.69-.34.214-.137.398-.3.552-.486l-.35-.455a.274.274 0 0 0-.237-.119.543.543 0 0 0-.284.108 3.847 3.847 0 0 1-.994.469 2.67 2.67 0 0 1-.808.109c-.337 0-.64-.055-.91-.164a1.851 1.851 0 0 1-.7-.497 2.348 2.348 0 0 1-.459-.83 4.146 4.146 0 0 1-.186-1.169h4.74c.116 0 .195-.033.237-.098.043-.065.064-.196.064-.392 0-.504-.075-.953-.225-1.347a2.822 2.822 0 0 0-.619-.995 2.668 2.668 0 0 0-.938-.616 3.193 3.193 0 0 0-1.18-.213c-.513 0-.975.09-1.386.27-.41.18-.758.427-1.042.742a3.267 3.267 0 0 0-.655 1.116c-.152.43-.228.891-.228 1.386 0 .611.085 1.153.252 1.624.168.471.403.867.704 1.186.301.32.658.563 1.071.729.413.165.865.248 1.355.248zm1.772-4.417h-3.879c.085-.616.3-1.098.648-1.445.348-.348.82-.522 1.418-.522.284 0 .538.048.763.144.224.095.414.23.57.405.156.175.275.383.357.623.082.24.123.506.123.795zm4.9 4.417c.508 0 .956-.112 1.344-.336a3.86 3.86 0 0 0 1.035-.882l.112.861c.047.173.16.259.337.259h.742V99.689h-1.246v3.927a2.706 2.706 0 0 0-.83-.612c-.31-.148-.682-.221-1.116-.221-.476 0-.905.094-1.285.284-.38.189-.701.449-.962.78a3.596 3.596 0 0 0-.602 1.172c-.14.45-.21.937-.21 1.46 0 .588.063 1.108.189 1.561.126.453.305.83.538 1.134.234.303.516.533.847.69.332.156.7.234 1.107.234zm.406-1.008c-.285 0-.54-.049-.763-.147a1.375 1.375 0 0 1-.567-.465 2.283 2.283 0 0 1-.35-.813 5.126 5.126 0 0 1-.12-1.186c0-.873.178-1.545.532-2.016.355-.471.862-.707 1.52-.707.336 0 .639.062.91.186.27.123.522.341.755.654v3.423c-.256.34-.537.604-.843.791a2.02 2.02 0 0 1-1.075.28zm-59.126 9.475a.9.9 0 0 0 .633-.263.978.978 0 0 0 .197-.28.84.84 0 0 0 0-.686.9.9 0 0 0-.83-.55.826.826 0 0 0-.34.071.88.88 0 0 0-.276.192.93.93 0 0 0-.259.634c0 .121.023.234.07.34.047.105.11.198.189.28a.88.88 0 0 0 .276.192c.105.047.219.07.34.07zm.637 8.435v-7.091h-1.246V127h1.246zm3.255 0v-5.222a3.4 3.4 0 0 1 .886-.721c.32-.177.663-.266 1.032-.266.5 0 .872.148 1.117.445.244.296.367.712.367 1.249V127h1.253v-4.515c0-.401-.051-.768-.154-1.099a2.411 2.411 0 0 0-.452-.85 1.984 1.984 0 0 0-.741-.546 2.56 2.56 0 0 0-1.026-.193 2.79 2.79 0 0 0-1.32.312c-.193.1-.376.22-.549.36-.173.14-.336.296-.49.469l-.098-.77c-.042-.173-.152-.259-.329-.259h-.749V127h1.253zm8.12 0v-6.048h2.002v-.903h-2.044v-.651c0-.303.034-.558.102-.763.067-.205.164-.371.29-.497.126-.126.277-.217.452-.273.174-.056.37-.084.584-.084.191 0 .344-.005.459-.014.114-.01.176-.07.185-.182l.028-.623a2.627 2.627 0 0 0-.875-.14c-.373 0-.71.056-1.008.168a2.077 2.077 0 0 0-.767.494 2.192 2.192 0 0 0-.49.797 3.16 3.16 0 0 0-.171 1.082v.686h-1.12v.511c0 .093.032.165.095.213a.624.624 0 0 0 .241.109l.784.091V127h1.253zm5.453.112c.495 0 .933-.104 1.316-.311a3.9 3.9 0 0 0 1.036-.823l.098.763c.047.173.159.259.336.259h.742v-7.091h-1.246v5.222a3.28 3.28 0 0 1-.885.725c-.32.175-.664.262-1.033.262-.504 0-.879-.147-1.123-.441-.245-.294-.368-.71-.368-1.246v-4.522h-1.246v4.522c0 .401.05.768.15 1.099.1.331.251.614.452.847.2.233.45.414.745.543a2.56 2.56 0 0 0 1.026.192zm7.308 0c.434 0 .817-.058 1.148-.175.331-.117.611-.276.84-.48.229-.203.401-.443.518-.72.117-.278.175-.58.175-.907 0-.285-.053-.528-.157-.731a1.6 1.6 0 0 0-.417-.515 2.451 2.451 0 0 0-.588-.35 8.963 8.963 0 0 0-.675-.255 31.55 31.55 0 0 0-.676-.218 3.631 3.631 0 0 1-.588-.234 1.369 1.369 0 0 1-.416-.315.67.67 0 0 1-.158-.455c0-.145.031-.279.094-.403a.975.975 0 0 1 .273-.325c.12-.093.263-.167.431-.22a1.86 1.86 0 0 1 .567-.081c.243 0 .453.027.63.08.177.054.33.112.459.175.128.063.236.12.325.172a.487.487 0 0 0 .238.077.276.276 0 0 0 .259-.154l.28-.455a2.974 2.974 0 0 0-.963-.606 3.387 3.387 0 0 0-1.256-.22c-.401 0-.758.056-1.071.168a2.413 2.413 0 0 0-.791.451 1.914 1.914 0 0 0-.658 1.439c0 .303.052.561.157.773.106.213.244.391.417.536.173.145.37.265.592.36.221.096.448.181.678.256.231.075.458.146.68.213.221.068.418.148.591.239.173.09.312.2.417.329.105.128.157.29.157.486 0 .159-.03.308-.088.448-.058.14-.148.264-.269.371a1.338 1.338 0 0 1-.455.255 1.948 1.948 0 0 1-.637.095c-.285 0-.523-.033-.714-.098a2.583 2.583 0 0 1-.486-.217 5.626 5.626 0 0 1-.34-.217.47.47 0 0 0-.266-.098.359.359 0 0 0-.196.049.427.427 0 0 0-.133.14l-.294.476c.28.252.62.459 1.022.62.401.16.85.241 1.344.241zm4.851-8.547a.9.9 0 0 0 .633-.263.978.978 0 0 0 .197-.28.84.84 0 0 0 0-.686.9.9 0 0 0-.83-.55.826.826 0 0 0-.34.071.88.88 0 0 0-.276.192.93.93 0 0 0-.259.634c0 .121.023.234.07.34.047.105.11.198.189.28a.88.88 0 0 0 .276.192c.105.047.219.07.34.07zm.637 8.435v-7.091h-1.246V127h1.246zm4.991.098a3.66 3.66 0 0 0 1.4-.255c.415-.17.77-.415 1.064-.732.294-.317.52-.7.675-1.148a4.57 4.57 0 0 0 .235-1.512c0-.555-.078-1.058-.234-1.508a3.226 3.226 0 0 0-.676-1.152 3 3 0 0 0-1.064-.735 3.616 3.616 0 0 0-1.4-.259c-.523 0-.993.086-1.41.259a2.993 2.993 0 0 0-1.068.735c-.294.317-.52.701-.675 1.151-.157.45-.235.954-.235 1.509 0 .56.078 1.064.234 1.512.157.448.382.83.676 1.148.294.317.65.561 1.068.731.417.17.887.256 1.41.256zm0-.973c-.71 0-1.238-.234-1.586-.704-.347-.469-.521-1.123-.521-1.963 0-.42.043-.797.13-1.13.086-.334.216-.615.391-.844.175-.229.395-.404.658-.525a2.2 2.2 0 0 1 .928-.182c.7 0 1.223.236 1.568.707s.518 1.13.518 1.974c0 .84-.173 1.495-.518 1.963-.345.47-.868.704-1.568.704zm6.16.875v-5.222a3.4 3.4 0 0 1 .885-.721c.32-.177.664-.266 1.033-.266.5 0 .872.148 1.117.445.245.296.367.712.367 1.249V127h1.253v-4.515c0-.401-.051-.768-.154-1.099a2.411 2.411 0 0 0-.452-.85 1.984 1.984 0 0 0-.741-.546 2.56 2.56 0 0 0-1.026-.193 2.79 2.79 0 0 0-1.32.312c-.193.1-.376.22-.549.36-.173.14-.336.296-.49.469l-.098-.77c-.042-.173-.152-.259-.329-.259h-.749V127h1.253zM190.946 110V99.969h-1.358V110h1.358zm3.864.112c.434 0 .816-.058 1.148-.175.33-.117.61-.276.84-.48.228-.203.4-.443.517-.72.117-.278.175-.58.175-.907 0-.285-.052-.528-.157-.731a1.6 1.6 0 0 0-.416-.515 2.451 2.451 0 0 0-.589-.35 8.963 8.963 0 0 0-.675-.255 31.55 31.55 0 0 0-.675-.218 3.631 3.631 0 0 1-.589-.234 1.369 1.369 0 0 1-.416-.315.67.67 0 0 1-.158-.455c0-.145.032-.279.095-.403a.975.975 0 0 1 .273-.325c.119-.093.263-.167.43-.22a1.86 1.86 0 0 1 .567-.081c.243 0 .453.027.63.08.178.054.33.112.459.175.128.063.237.12.326.172a.487.487 0 0 0 .238.077.276.276 0 0 0 .258-.154l.28-.455a2.974 2.974 0 0 0-.962-.606 3.387 3.387 0 0 0-1.256-.22c-.402 0-.759.056-1.071.168a2.413 2.413 0 0 0-.791.451 1.914 1.914 0 0 0-.659 1.439c0 .303.053.561.158.773.105.213.244.391.417.536.172.145.37.265.591.36.222.096.448.181.679.256.231.075.457.146.679.213.222.068.419.148.591.239.173.09.312.2.417.329.105.128.157.29.157.486 0 .159-.029.308-.087.448-.058.14-.148.264-.27.371a1.338 1.338 0 0 1-.454.255 1.948 1.948 0 0 1-.637.095c-.285 0-.523-.033-.714-.098a2.583 2.583 0 0 1-.487-.217 5.626 5.626 0 0 1-.34-.217.47.47 0 0 0-.266-.098.359.359 0 0 0-.196.049.427.427 0 0 0-.132.14l-.294.476c.28.252.62.459 1.022.62.4.16.849.241 1.344.241zm7.16-.014a3.66 3.66 0 0 0 1.4-.255c.416-.17.77-.415 1.065-.732.293-.317.519-.7.675-1.148a4.57 4.57 0 0 0 .234-1.512c0-.555-.078-1.058-.234-1.508a3.226 3.226 0 0 0-.675-1.152 3 3 0 0 0-1.065-.735 3.616 3.616 0 0 0-1.4-.259c-.522 0-.992.086-1.41.259a2.993 2.993 0 0 0-1.067.735c-.294.317-.52.701-.676 1.151-.156.45-.234.954-.234 1.509 0 .56.078 1.064.234 1.512.156.448.381.83.675 1.148.294.317.65.561 1.068.731.418.17.888.256 1.41.256zm0-.973c-.709 0-1.237-.234-1.585-.704-.348-.469-.522-1.123-.522-1.963 0-.42.044-.797.13-1.13.086-.334.217-.615.392-.844.175-.229.394-.404.658-.525a2.2 2.2 0 0 1 .927-.182c.7 0 1.223.236 1.569.707.345.471.518 1.13.518 1.974 0 .84-.173 1.495-.518 1.963-.346.47-.868.704-1.569.704zm6.196.875V99.689h-1.246V110h1.246zm3.436.112c.271 0 .517-.024.739-.073a3.042 3.042 0 0 0 1.186-.546c.178-.133.36-.286.547-.459l.14.672c.037.117.088.195.154.234.065.04.158.06.28.06h.553v-4.536c0-.397-.054-.76-.161-1.092a2.312 2.312 0 0 0-.476-.847 2.168 2.168 0 0 0-.778-.546 2.685 2.685 0 0 0-1.056-.196c-.551 0-1.053.093-1.505.28a4.05 4.05 0 0 0-1.267.847l.224.399a.61.61 0 0 0 .154.165c.06.044.132.066.216.066a.565.565 0 0 0 .326-.116c.11-.077.24-.163.392-.259.152-.095.331-.181.539-.259.208-.077.465-.115.774-.115.457 0 .804.141 1.042.424.238.282.357.698.357 1.249v.553c-.807.019-1.488.092-2.043.22-.556.129-1.006.293-1.351.494-.346.2-.595.43-.75.69a1.56 1.56 0 0 0-.23.808c0 .322.052.6.157.837.105.235.247.43.427.584.18.154.39.27.633.346.243.078.502.116.778.116zm.371-.875c-.163 0-.316-.02-.458-.06a.998.998 0 0 1-.371-.189.897.897 0 0 1-.249-.332 1.174 1.174 0 0 1-.09-.483c0-.196.057-.373.171-.532.114-.159.299-.296.553-.413a4.17 4.17 0 0 1 .987-.283c.404-.073.893-.118 1.466-.137v1.47c-.14.15-.283.282-.43.399a2.901 2.901 0 0 1-.462.301 2.268 2.268 0 0 1-.514.193 2.544 2.544 0 0 1-.602.066zm7.168.875c.323 0 .635-.057.939-.171.303-.115.562-.272.776-.473l-.363-.595c-.052-.08-.11-.119-.175-.119a.234.234 0 0 0-.13.052 2.71 2.71 0 0 1-.178.116c-.07.042-.153.08-.249.115a.989.989 0 0 1-.34.053.758.758 0 0 1-.56-.217c-.144-.145-.216-.366-.216-.665v-4.256h2.05v-.903h-2.05v-2.443h-.63a.276.276 0 0 0-.287.238l-.288 2.191-1.161.147v.497c0 .093.025.162.077.206a.28.28 0 0 0 .189.067h.854v4.34c0 .588.15 1.038.451 1.351.301.313.732.469 1.292.469zm5.74-.014a4.639 4.639 0 0 0 1.537-.266c.245-.089.475-.202.69-.34.214-.137.398-.3.553-.486l-.35-.455a.274.274 0 0 0-.239-.119.543.543 0 0 0-.283.108 3.847 3.847 0 0 1-.994.469 2.67 2.67 0 0 1-.808.109c-.337 0-.64-.055-.91-.164a1.851 1.851 0 0 1-.7-.497 2.348 2.348 0 0 1-.459-.83 4.146 4.146 0 0 1-.186-1.169h4.74c.116 0 .195-.033.237-.098.042-.065.064-.196.064-.392 0-.504-.075-.953-.225-1.347a2.822 2.822 0 0 0-.619-.995 2.668 2.668 0 0 0-.938-.616 3.193 3.193 0 0 0-1.18-.213c-.513 0-.975.09-1.386.27-.41.18-.758.427-1.043.742a3.267 3.267 0 0 0-.654 1.116c-.152.43-.228.891-.228 1.386 0 .611.084 1.153.252 1.624.168.471.403.867.704 1.186.301.32.658.563 1.071.729.413.165.865.248 1.355.248zm1.772-4.417h-3.879c.084-.616.3-1.098.648-1.445.348-.348.82-.522 1.417-.522.285 0 .54.048.763.144.225.095.415.23.571.405.156.175.275.383.357.623.082.24.123.506.123.795zm9.352 4.417c.47 0 .895-.092 1.274-.276.377-.185.698-.444.962-.778.264-.333.465-.736.605-1.207.14-.471.21-.994.21-1.568 0-.537-.061-1.02-.185-1.449a3.224 3.224 0 0 0-.536-1.095 2.332 2.332 0 0 0-.85-.69 2.584 2.584 0 0 0-1.124-.238c-.49 0-.922.103-1.298.308-.376.205-.713.48-1.011.826v-4.242h-1.254V110h.805c.178 0 .285-.089.322-.266l.063-.644c.238.322.517.57.837.745.32.175.713.263 1.18.263zm-.302-.966a2.12 2.12 0 0 1-.899-.189c-.273-.126-.524-.343-.752-.651v-3.43c.256-.34.535-.604.836-.791.301-.187.654-.28 1.06-.28.584 0 1.033.204 1.348.612.315.409.472 1.047.472 1.915 0 .933-.177 1.636-.531 2.107-.355.471-.866.707-1.534.707zm6.357.98c.27 0 .516-.024.738-.073a3.042 3.042 0 0 0 1.186-.546c.178-.133.36-.286.546-.459l.14.672c.038.117.09.195.155.234.065.04.158.06.28.06h.553v-4.536c0-.397-.054-.76-.161-1.092a2.312 2.312 0 0 0-.477-.847 2.168 2.168 0 0 0-.776-.546 2.685 2.685 0 0 0-1.058-.196c-.55 0-1.052.093-1.505.28a4.05 4.05 0 0 0-1.267.847l.225.399a.61.61 0 0 0 .153.165c.061.044.133.066.218.066a.565.565 0 0 0 .325-.116c.11-.077.24-.163.392-.259.152-.095.331-.181.539-.259.208-.077.466-.115.774-.115.457 0 .805.141 1.043.424.238.282.357.698.357 1.249v.553c-.808.019-1.49.092-2.044.22-.556.129-1.006.293-1.351.494-.346.2-.595.43-.75.69a1.56 1.56 0 0 0-.23.808c0 .322.052.6.157.837.105.235.247.43.427.584.18.154.39.27.633.346.243.078.502.116.778.116zm.37-.875c-.163 0-.316-.02-.458-.06a.998.998 0 0 1-.371-.189.897.897 0 0 1-.249-.332 1.174 1.174 0 0 1-.09-.483c0-.196.057-.373.171-.532.114-.159.299-.296.553-.413a4.17 4.17 0 0 1 .987-.283c.404-.073.892-.118 1.466-.137v1.47c-.14.15-.283.282-.43.399a2.901 2.901 0 0 1-.462.301 2.268 2.268 0 0 1-.514.193 2.544 2.544 0 0 1-.602.066zm6.93.875c.434 0 .817-.058 1.148-.175.332-.117.612-.276.84-.48.23-.203.402-.443.518-.72.117-.278.175-.58.175-.907 0-.285-.052-.528-.157-.731a1.6 1.6 0 0 0-.416-.515 2.451 2.451 0 0 0-.588-.35 8.963 8.963 0 0 0-.676-.255 31.55 31.55 0 0 0-.675-.218 3.631 3.631 0 0 1-.589-.234 1.369 1.369 0 0 1-.416-.315.67.67 0 0 1-.157-.455c0-.145.031-.279.094-.403a.975.975 0 0 1 .273-.325c.119-.093.262-.167.43-.22a1.86 1.86 0 0 1 .568-.081c.242 0 .452.027.63.08.177.054.33.112.458.175.128.063.237.12.326.172a.487.487 0 0 0 .238.077.276.276 0 0 0 .259-.154l.28-.455a2.974 2.974 0 0 0-.963-.606 3.387 3.387 0 0 0-1.257-.22c-.4 0-.758.056-1.07.168a2.413 2.413 0 0 0-.792.451 1.914 1.914 0 0 0-.657 1.439c0 .303.052.561.157.773.105.213.244.391.416.536.173.145.37.265.592.36.222.096.448.181.679.256.231.075.457.146.679.213.222.068.419.148.591.239.173.09.312.2.417.329.105.128.157.29.157.486 0 .159-.029.308-.087.448-.058.14-.148.264-.27.371a1.338 1.338 0 0 1-.454.255 1.948 1.948 0 0 1-.638.095c-.284 0-.522-.033-.714-.098a2.583 2.583 0 0 1-.486-.217 5.626 5.626 0 0 1-.34-.217.47.47 0 0 0-.266-.098.359.359 0 0 0-.195.049.427.427 0 0 0-.133.14l-.294.476c.28.252.62.459 1.022.62.4.16.849.241 1.344.241zm7.147-.014a4.639 4.639 0 0 0 1.537-.266c.245-.089.475-.202.69-.34.214-.137.399-.3.553-.486l-.35-.455a.274.274 0 0 0-.238-.119.543.543 0 0 0-.284.108 3.847 3.847 0 0 1-.994.469 2.67 2.67 0 0 1-.808.109c-.337 0-.64-.055-.91-.164a1.851 1.851 0 0 1-.7-.497 2.348 2.348 0 0 1-.459-.83 4.146 4.146 0 0 1-.186-1.169h4.74c.116 0 .195-.033.238-.098.041-.065.063-.196.063-.392 0-.504-.075-.953-.224-1.347a2.822 2.822 0 0 0-.62-.995 2.668 2.668 0 0 0-.938-.616 3.193 3.193 0 0 0-1.18-.213c-.513 0-.975.09-1.386.27-.41.18-.758.427-1.042.742a3.267 3.267 0 0 0-.655 1.116c-.152.43-.228.891-.228 1.386 0 .611.084 1.153.252 1.624.169.471.403.867.704 1.186.301.32.658.563 1.071.729.413.165.864.248 1.355.248zm1.772-4.417H254.4c.084-.616.3-1.098.648-1.445.348-.348.82-.522 1.418-.522.284 0 .538.048.762.144.224.095.415.23.571.405.156.175.275.383.357.623.082.24.123.506.123.795zm4.9 4.417c.508 0 .956-.112 1.344-.336a3.86 3.86 0 0 0 1.035-.882l.113.861c.046.173.158.259.336.259h.741V99.689h-1.245v3.927a2.706 2.706 0 0 0-.83-.612c-.31-.148-.683-.221-1.116-.221-.477 0-.905.094-1.285.284-.38.189-.701.449-.962.78a3.596 3.596 0 0 0-.603 1.172c-.14.45-.21.937-.21 1.46 0 .588.063 1.108.19 1.561.125.453.305.83.538 1.134.234.303.516.533.847.69.332.156.7.234 1.106.234zm.406-1.008c-.285 0-.54-.049-.763-.147a1.375 1.375 0 0 1-.567-.465 2.283 2.283 0 0 1-.35-.813 5.126 5.126 0 0 1-.12-1.186c0-.873.178-1.545.532-2.016.355-.471.861-.707 1.52-.707.336 0 .639.062.91.186.27.123.522.341.755.654v3.423c-.256.34-.537.604-.843.791a2.02 2.02 0 0 1-1.075.28zm-58.223 9.475a.9.9 0 0 0 .633-.263.978.978 0 0 0 .196-.28.84.84 0 0 0 0-.686.9.9 0 0 0-.83-.55.826.826 0 0 0-.339.071.88.88 0 0 0-.276.192.93.93 0 0 0-.259.634c0 .121.023.234.07.34.047.105.11.198.189.28a.88.88 0 0 0 .276.192c.106.047.219.07.34.07zm.637 8.435v-7.091h-1.246V127h1.246zm3.255 0v-5.222a3.4 3.4 0 0 1 .886-.721c.32-.177.663-.266 1.032-.266.5 0 .871.148 1.117.445.245.296.367.712.367 1.249V127h1.253v-4.515c0-.401-.051-.768-.154-1.099a2.411 2.411 0 0 0-.451-.85 1.984 1.984 0 0 0-.743-.546 2.56 2.56 0 0 0-1.025-.193 2.79 2.79 0 0 0-1.32.312c-.193.1-.376.22-.549.36-.173.14-.336.296-.49.469l-.098-.77c-.042-.173-.152-.259-.329-.259h-.749V127h1.253zm8.12 0v-6.048h2.002v-.903h-2.044v-.651c0-.303.034-.558.102-.763.067-.205.164-.371.29-.497.126-.126.276-.217.452-.273.175-.056.37-.084.584-.084.191 0 .344-.005.459-.014.114-.01.176-.07.185-.182l.028-.623a2.627 2.627 0 0 0-.875-.14c-.373 0-.71.056-1.008.168a2.077 2.077 0 0 0-.767.494 2.192 2.192 0 0 0-.49.797 3.16 3.16 0 0 0-.171 1.082v.686h-1.12v.511c0 .093.031.165.094.213a.624.624 0 0 0 .242.109l.784.091V127h1.253zm5.453.112c.495 0 .933-.104 1.316-.311a3.9 3.9 0 0 0 1.036-.823l.098.763c.047.173.159.259.336.259h.742v-7.091h-1.246v5.222a3.28 3.28 0 0 1-.886.725c-.32.175-.663.262-1.032.262-.504 0-.879-.147-1.124-.441-.245-.294-.367-.71-.367-1.246v-4.522h-1.246v4.522c0 .401.05.768.15 1.099.1.331.251.614.452.847.2.233.45.414.745.543a2.56 2.56 0 0 0 1.026.192zm7.308 0c.434 0 .817-.058 1.148-.175.331-.117.611-.276.84-.48.229-.203.401-.443.518-.72.117-.278.175-.58.175-.907 0-.285-.053-.528-.157-.731a1.6 1.6 0 0 0-.417-.515 2.451 2.451 0 0 0-.588-.35 8.963 8.963 0 0 0-.675-.255 31.55 31.55 0 0 0-.676-.218 3.631 3.631 0 0 1-.588-.234 1.369 1.369 0 0 1-.417-.315.67.67 0 0 1-.157-.455c0-.145.032-.279.095-.403a.975.975 0 0 1 .273-.325c.119-.093.262-.167.43-.22a1.86 1.86 0 0 1 .567-.081c.243 0 .453.027.63.08.177.054.33.112.459.175.128.063.236.12.325.172a.487.487 0 0 0 .238.077.276.276 0 0 0 .259-.154l.28-.455a2.974 2.974 0 0 0-.963-.606 3.387 3.387 0 0 0-1.256-.22c-.401 0-.758.056-1.071.168a2.413 2.413 0 0 0-.791.451 1.914 1.914 0 0 0-.658 1.439c0 .303.053.561.157.773.105.213.244.391.417.536.173.145.37.265.591.36.222.096.448.181.68.256.23.075.457.146.679.213.221.068.418.148.591.239.173.09.311.2.416.329.106.128.158.29.158.486 0 .159-.03.308-.087.448-.059.14-.149.264-.27.371a1.338 1.338 0 0 1-.455.255 1.948 1.948 0 0 1-.637.095c-.285 0-.523-.033-.714-.098a2.583 2.583 0 0 1-.487-.217 5.626 5.626 0 0 1-.339-.217.47.47 0 0 0-.266-.098.359.359 0 0 0-.196.049.427.427 0 0 0-.133.14l-.294.476c.28.252.62.459 1.022.62.401.16.85.241 1.344.241zm4.851-8.547a.9.9 0 0 0 .633-.263.978.978 0 0 0 .196-.28.84.84 0 0 0 0-.686.9.9 0 0 0-.83-.55.826.826 0 0 0-.339.071.88.88 0 0 0-.276.192.93.93 0 0 0-.259.634c0 .121.023.234.07.34.047.105.11.198.189.28a.88.88 0 0 0 .276.192c.106.047.219.07.34.07zm.637 8.435v-7.091h-1.246V127h1.246zm4.991.098a3.66 3.66 0 0 0 1.4-.255c.415-.17.77-.415 1.064-.732.294-.317.52-.7.675-1.148a4.57 4.57 0 0 0 .235-1.512c0-.555-.078-1.058-.234-1.508a3.226 3.226 0 0 0-.676-1.152 3 3 0 0 0-1.064-.735 3.616 3.616 0 0 0-1.4-.259c-.523 0-.993.086-1.41.259a2.993 2.993 0 0 0-1.068.735c-.294.317-.52.701-.675 1.151-.157.45-.235.954-.235 1.509 0 .56.078 1.064.234 1.512.157.448.382.83.676 1.148.294.317.65.561 1.067.731.418.17.888.256 1.411.256zm0-.973c-.71 0-1.238-.234-1.585-.704-.348-.469-.522-1.123-.522-1.963 0-.42.043-.797.13-1.13.086-.334.216-.615.392-.844.174-.229.394-.404.657-.525a2.2 2.2 0 0 1 .928-.182c.7 0 1.223.236 1.568.707s.518 1.13.518 1.974c0 .84-.173 1.495-.518 1.963-.345.47-.868.704-1.568.704zm6.16.875v-5.222a3.4 3.4 0 0 1 .886-.721c.32-.177.663-.266 1.032-.266.5 0 .871.148 1.117.445.245.296.367.712.367 1.249V127h1.253v-4.515c0-.401-.051-.768-.154-1.099a2.411 2.411 0 0 0-.452-.85 1.984 1.984 0 0 0-.742-.546 2.56 2.56 0 0 0-1.025-.193 2.79 2.79 0 0 0-1.32.312c-.193.1-.376.22-.549.36-.173.14-.336.296-.49.469l-.098-.77c-.042-.173-.152-.259-.329-.259h-.749V127h1.253zM197.435 270.112c.831 0 1.54-.133 2.125-.399a4.291 4.291 0 0 0 1.494-1.113l-.538-.581a.26.26 0 0 0-.196-.091.362.362 0 0 0-.238.105 4.04 4.04 0 0 1-.522.41 2.8 2.8 0 0 1-.567.283c-.203.075-.425.13-.665.164-.24.036-.51.053-.809.053-.49 0-.946-.089-1.368-.266a3.106 3.106 0 0 1-1.099-.774 3.694 3.694 0 0 1-.735-1.242c-.18-.49-.27-1.048-.27-1.673 0-.616.087-1.169.26-1.659.172-.49.414-.905.724-1.246.31-.34.68-.6 1.11-.78.429-.18.903-.27 1.42-.27.43 0 .791.046 1.085.137.294.09.54.192.736.304.195.112.354.214.475.305.122.09.225.136.309.136a.311.311 0 0 0 .178-.046.367.367 0 0 0 .108-.115l.448-.623a4.758 4.758 0 0 0-1.442-.931c-.546-.229-1.175-.343-1.89-.343-.728 0-1.393.125-1.995.374-.602.25-1.118.601-1.55 1.054a4.758 4.758 0 0 0-1.005 1.624 5.84 5.84 0 0 0-.357 2.079c0 .756.115 1.449.344 2.079.228.63.55 1.17.965 1.62.416.45.917.8 1.506 1.05.588.25 1.24.375 1.96.375zm7.708-.014a3.66 3.66 0 0 0 1.4-.256c.415-.17.77-.414 1.064-.731.293-.317.519-.7.675-1.148a4.57 4.57 0 0 0 .234-1.512c0-.555-.078-1.058-.234-1.509a3.226 3.226 0 0 0-.675-1.151 3 3 0 0 0-1.065-.735 3.616 3.616 0 0 0-1.4-.259c-.522 0-.992.086-1.41.259a2.993 2.993 0 0 0-1.067.735c-.294.317-.52.701-.676 1.151-.156.45-.234.954-.234 1.509 0 .56.078 1.064.234 1.512.156.448.381.83.675 1.148.294.317.65.561 1.068.731.418.17.888.256 1.41.256zm0-.973c-.71 0-1.238-.235-1.586-.704-.348-.469-.521-1.123-.521-1.963 0-.42.043-.797.129-1.13.086-.334.217-.615.392-.844.175-.229.394-.404.658-.525a2.2 2.2 0 0 1 .928-.182c.7 0 1.222.236 1.567.707.346.471.518 1.13.518 1.974 0 .84-.172 1.494-.518 1.963-.345.47-.868.704-1.567.704zm7.63.973c.256 0 .508-.021.756-.063.247-.042.484-.109.71-.2.226-.09.438-.204.633-.339.196-.135.371-.299.525-.49l-.35-.455a.274.274 0 0 0-.237-.119.401.401 0 0 0-.256.108 4.424 4.424 0 0 1-.322.242c-.128.089-.29.17-.487.242a2.192 2.192 0 0 1-.749.108 2 2 0 0 1-.857-.178 1.793 1.793 0 0 1-.651-.519 2.442 2.442 0 0 1-.417-.84 4.066 4.066 0 0 1-.147-1.144c0-.41.046-.782.137-1.113.091-.331.226-.614.406-.847.18-.233.402-.412.668-.536a2.17 2.17 0 0 1 .925-.185 2.164 2.164 0 0 1 1.116.28c.124.07.228.134.312.192a.415.415 0 0 0 .23.088.251.251 0 0 0 .155-.042.556.556 0 0 0 .112-.119l.328-.448a3.16 3.16 0 0 0-1.011-.683c-.38-.16-.82-.241-1.32-.241-.536 0-1.011.091-1.424.273-.413.182-.76.435-1.043.76-.282.324-.497.71-.644 1.158-.147.448-.22.936-.22 1.463 0 .579.079 1.094.237 1.547.16.453.379.834.659 1.144.28.31.61.548.99.711.38.163.792.245 1.236.245zm6.782 0a3.66 3.66 0 0 0 1.4-.256c.416-.17.77-.414 1.064-.731.294-.317.52-.7.676-1.148a4.57 4.57 0 0 0 .234-1.512c0-.555-.078-1.058-.234-1.509a3.226 3.226 0 0 0-.675-1.151 3 3 0 0 0-1.065-.735 3.616 3.616 0 0 0-1.4-.259c-.522 0-.992.086-1.41.259a2.993 2.993 0 0 0-1.068.735c-.293.317-.519.701-.675 1.151-.156.45-.234.954-.234 1.509 0 .56.078 1.064.234 1.512.156.448.382.83.675 1.148.294.317.65.561 1.068.731.418.17.888.256 1.41.256zm0-.973c-.709 0-1.237-.235-1.585-.704-.348-.469-.522-1.123-.522-1.963 0-.42.044-.797.13-1.13.086-.334.217-.615.392-.844.175-.229.394-.404.658-.525a2.2 2.2 0 0 1 .928-.182c.7 0 1.222.236 1.567.707.346.471.519 1.13.519 1.974 0 .84-.173 1.494-.518 1.963-.346.47-.868.704-1.569.704zm6.16.875v-5.222a3.4 3.4 0 0 1 .886-.721c.32-.177.664-.266 1.032-.266.5 0 .872.148 1.117.445.245.296.368.712.368 1.249V270h1.252v-4.515c0-.401-.05-.768-.154-1.099a2.411 2.411 0 0 0-.451-.85 1.984 1.984 0 0 0-.742-.546 2.56 2.56 0 0 0-1.025-.193 2.79 2.79 0 0 0-1.32.311c-.194.1-.377.221-.55.361-.172.14-.335.296-.49.469l-.097-.77c-.042-.173-.152-.259-.33-.259h-.749V270h1.254zm8.82.112c.495 0 .934-.104 1.316-.312a3.9 3.9 0 0 0 1.036-.822l.099.763c.046.173.158.259.335.259h.743v-7.091h-1.246v5.222a3.28 3.28 0 0 1-.886.725c-.32.175-.664.262-1.032.262-.505 0-.879-.147-1.124-.441-.245-.294-.368-.71-.368-1.246v-4.522h-1.245v4.522c0 .401.05.768.15 1.099.1.331.25.614.452.847.2.233.449.414.745.543a2.56 2.56 0 0 0 1.026.192zm7.638 0c.321 0 .634-.057.938-.172.303-.114.562-.271.776-.472l-.363-.595c-.052-.08-.11-.119-.175-.119a.234.234 0 0 0-.13.053 2.71 2.71 0 0 1-.178.115c-.07.042-.153.08-.249.115a.989.989 0 0 1-.34.053.758.758 0 0 1-.56-.217c-.144-.145-.216-.366-.216-.665v-4.256h2.05v-.903h-2.05v-2.443h-.63a.276.276 0 0 0-.287.238l-.287 2.191-1.162.147v.497c0 .093.025.162.077.207a.28.28 0 0 0 .189.066h.853v4.34c0 .588.151 1.038.452 1.351.301.313.732.469 1.292.469zm9.33-.014a3.66 3.66 0 0 0 1.4-.256c.416-.17.77-.414 1.065-.731.294-.317.519-.7.675-1.148a4.57 4.57 0 0 0 .234-1.512c0-.555-.078-1.058-.234-1.509a3.226 3.226 0 0 0-.675-1.151 3 3 0 0 0-1.064-.735 3.616 3.616 0 0 0-1.4-.259c-.523 0-.993.086-1.411.259a2.993 2.993 0 0 0-1.067.735c-.294.317-.52.701-.676 1.151-.156.45-.234.954-.234 1.509 0 .56.078 1.064.234 1.512.156.448.382.83.675 1.148.294.317.65.561 1.068.731.418.17.888.256 1.41.256zm0-.973c-.709 0-1.237-.235-1.585-.704-.348-.469-.522-1.123-.522-1.963 0-.42.044-.797.13-1.13.086-.334.217-.615.392-.844.175-.229.394-.404.658-.525a2.2 2.2 0 0 1 .928-.182c.7 0 1.222.236 1.567.707.346.471.518 1.13.518 1.974 0 .84-.172 1.494-.518 1.963-.345.47-.868.704-1.567.704zm5.587-7.56a.9.9 0 0 0 .634-.262.978.978 0 0 0 .195-.28.84.84 0 0 0 0-.686.9.9 0 0 0-.83-.55.826.826 0 0 0-.339.07.88.88 0 0 0-.276.192.93.93 0 0 0-.26.634c0 .121.024.235.07.34.047.104.11.198.19.28a.88.88 0 0 0 .276.192c.105.047.218.07.34.07zm.637 8.435v-7.091h-1.246V270h1.245zm3.29 0v-10.311h-1.246V270h1.245zM377.566 270a5 5 0 0 0 1.498-.207 3.197 3.197 0 0 0 1.11-.584 2.49 2.49 0 0 0 .686-.903c.156-.35.234-.737.234-1.162 0-.625-.185-1.13-.556-1.516-.372-.385-.926-.647-1.663-.787a3.2 3.2 0 0 0 .83-.382c.235-.156.43-.332.584-.528a2.132 2.132 0 0 0 .462-1.344 2.82 2.82 0 0 0-.203-1.096 2.015 2.015 0 0 0-.634-.822c-.286-.224-.653-.397-1.099-.518-.445-.121-.976-.182-1.592-.182h-3.199V270h3.542zm-.399-5.537h-1.792v-3.423h1.848c.747 0 1.297.136 1.652.41.355.273.532.705.532 1.298 0 .252-.044.484-.133.697a1.369 1.369 0 0 1-.41.542 2.01 2.01 0 0 1-.7.35 3.516 3.516 0 0 1-.997.126zm.378 4.459h-2.17v-3.493h2.17c.737 0 1.29.15 1.659.452.369.3.553.71.553 1.228 0 .266-.042.51-.126.732a1.452 1.452 0 0 1-.395.573c-.18.161-.41.286-.69.375-.28.089-.614.133-1.001.133zm7.35 1.19c.495 0 .933-.104 1.316-.312a3.9 3.9 0 0 0 1.036-.822l.098.763c.047.173.159.259.336.259h.742v-7.091h-1.246v5.222a3.28 3.28 0 0 1-.886.725c-.32.175-.663.262-1.032.262-.504 0-.879-.147-1.124-.441-.245-.294-.367-.71-.367-1.246v-4.522h-1.246v4.522c0 .401.05.768.15 1.099.1.331.251.614.452.847.2.233.45.414.745.543a2.56 2.56 0 0 0 1.026.192zm12.18 0c.322 0 .635-.057.938-.172.303-.114.565-.271.784-.472l-.371-.595c-.047-.08-.105-.119-.175-.119a.234.234 0 0 0-.13.053 2.71 2.71 0 0 1-.178.115c-.07.042-.153.08-.248.115a.989.989 0 0 1-.34.053.76.76 0 0 1-.557-.217c-.147-.145-.22-.366-.22-.665v-4.256h2.051v-.903h-2.051v-2.443h-.63a.276.276 0 0 0-.287.238l-.287 2.205h-3.339v-2.443h-.63a.276.276 0 0 0-.287.238l-.287 2.191-1.162.147v.497c0 .093.026.162.077.207a.28.28 0 0 0 .189.066h.854v4.34c0 .588.15 1.038.452 1.351.3.313.731.469 1.291.469.322 0 .635-.057.938-.172.303-.114.562-.271.777-.472l-.364-.595c-.051-.08-.11-.119-.175-.119a.234.234 0 0 0-.13.053 2.71 2.71 0 0 1-.178.115c-.07.042-.153.08-.248.115a.989.989 0 0 1-.34.053.758.758 0 0 1-.56-.217c-.145-.145-.217-.366-.217-.665v-4.256h3.297v4.34c0 .588.152 1.038.455 1.351.303.313.733.469 1.288.469zm5.74-.014a4.639 4.639 0 0 0 1.536-.266c.245-.089.475-.202.69-.34.215-.137.399-.3.553-.486l-.35-.455a.274.274 0 0 0-.238-.119.543.543 0 0 0-.283.108 3.847 3.847 0 0 1-.994.469 2.67 2.67 0 0 1-.809.109c-.336 0-.64-.055-.91-.164a1.851 1.851 0 0 1-.7-.498 2.348 2.348 0 0 1-.459-.829 4.146 4.146 0 0 1-.185-1.169h4.739c.117 0 .196-.033.238-.098.042-.065.063-.196.063-.392 0-.504-.075-.953-.224-1.348a2.822 2.822 0 0 0-.62-.993 2.668 2.668 0 0 0-.938-.617 3.193 3.193 0 0 0-1.179-.213c-.513 0-.975.09-1.386.27-.41.18-.758.426-1.043.741a3.267 3.267 0 0 0-.654 1.117c-.152.43-.228.891-.228 1.386 0 .611.084 1.153.252 1.624.168.471.403.867.704 1.187.3.32.658.562 1.07.727.413.166.865.249 1.355.249zm1.771-4.417h-3.878c.084-.616.3-1.098.647-1.445.348-.348.82-.522 1.418-.522.285 0 .539.048.763.144.224.095.414.23.57.406.157.174.276.382.358.623.081.24.122.505.122.794zm3.857 4.319v-4.48a4.08 4.08 0 0 1 .298-.647c.11-.19.233-.348.37-.476a1.4 1.4 0 0 1 .47-.291c.174-.065.374-.098.598-.098.159 0 .301.014.427.042.126.028.222.042.287.042.112 0 .182-.058.21-.175l.091-.931a1.155 1.155 0 0 0-.368-.154 1.859 1.859 0 0 0-.43-.049c-.471 0-.87.137-1.197.41-.327.273-.602.652-.826 1.137l-.084-1.078c-.019-.126-.054-.215-.105-.266-.051-.051-.145-.077-.28-.077h-.714V270h1.253zM540.087 270a.447.447 0 0 0 .293-.098.492.492 0 0 0 .162-.224l.938-2.422h4.5l.938 2.422a.56.56 0 0 0 .168.231c.075.06.173.091.294.091h1.05l-4.01-10.031h-1.372L539.037 270h1.05zm5.515-3.724h-3.745l1.576-4.074c.102-.252.202-.567.3-.945a9.301 9.301 0 0 0 .295.938l1.574 4.081zm5.076 3.724v-10.311h-1.246V270h1.245zm4.697.098c.256 0 .508-.021.755-.063.248-.042.485-.109.711-.2.226-.09.438-.204.634-.339.195-.135.37-.299.524-.49l-.35-.455a.274.274 0 0 0-.237-.119.401.401 0 0 0-.256.108 4.424 4.424 0 0 1-.322.242c-.128.089-.29.17-.486.242a2.192 2.192 0 0 1-.75.108 2 2 0 0 1-.857-.178 1.793 1.793 0 0 1-.651-.519 2.442 2.442 0 0 1-.417-.84 4.066 4.066 0 0 1-.146-1.144c0-.41.045-.782.136-1.113.091-.331.226-.614.406-.847.18-.233.403-.412.668-.536a2.17 2.17 0 0 1 .925-.185 2.164 2.164 0 0 1 1.116.28c.124.07.227.134.312.192a.415.415 0 0 0 .23.088.251.251 0 0 0 .154-.042.556.556 0 0 0 .112-.119l.33-.448a3.16 3.16 0 0 0-1.012-.683c-.38-.16-.82-.241-1.32-.241-.536 0-1.011.091-1.424.273-.413.182-.76.435-1.043.76-.282.324-.497.71-.644 1.158-.147.448-.22.936-.22 1.463 0 .579.079 1.094.237 1.547.16.453.379.834.659 1.144.28.31.61.548.99.711.38.163.792.245 1.236.245zm6.783 0a3.66 3.66 0 0 0 1.4-.256c.415-.17.77-.414 1.063-.731.294-.317.52-.7.676-1.148a4.57 4.57 0 0 0 .235-1.512c0-.555-.079-1.058-.235-1.509a3.226 3.226 0 0 0-.676-1.151 3 3 0 0 0-1.063-.735 3.616 3.616 0 0 0-1.4-.259c-.523 0-.993.086-1.411.259a2.993 2.993 0 0 0-1.067.735c-.294.317-.52.701-.676 1.151-.156.45-.235.954-.235 1.509 0 .56.079 1.064.235 1.512.156.448.381.83.675 1.148.294.317.65.561 1.068.731.418.17.888.256 1.41.256zm0-.973c-.71 0-1.238-.235-1.586-.704-.348-.469-.521-1.123-.521-1.963 0-.42.043-.797.129-1.13.086-.334.217-.615.392-.844.175-.229.394-.404.658-.525a2.2 2.2 0 0 1 .928-.182c.7 0 1.222.236 1.567.707.346.471.519 1.13.519 1.974 0 .84-.173 1.494-.519 1.963-.345.47-.868.704-1.567.704zm6.16.875v-5.222a3.4 3.4 0 0 1 .885-.721c.32-.177.664-.266 1.033-.266.499 0 .871.148 1.116.445.245.296.368.712.368 1.249V270h1.252v-4.515c0-.401-.05-.768-.154-1.099a2.411 2.411 0 0 0-.451-.85 1.984 1.984 0 0 0-.742-.546 2.56 2.56 0 0 0-1.025-.193c-.481 0-.906.096-1.274.287a3.763 3.763 0 0 0-1.009.77v-4.165h-1.253V270h1.254zm9.505.098a3.66 3.66 0 0 0 1.4-.256c.416-.17.77-.414 1.065-.731.293-.317.519-.7.675-1.148a4.57 4.57 0 0 0 .235-1.512c0-.555-.079-1.058-.235-1.509a3.226 3.226 0 0 0-.675-1.151 3 3 0 0 0-1.065-.735 3.616 3.616 0 0 0-1.4-.259c-.522 0-.992.086-1.41.259a2.993 2.993 0 0 0-1.067.735c-.294.317-.52.701-.676 1.151-.156.45-.234.954-.234 1.509 0 .56.078 1.064.234 1.512.156.448.382.83.676 1.148.293.317.65.561 1.067.731.418.17.888.256 1.41.256zm0-.973c-.709 0-1.237-.235-1.585-.704-.348-.469-.522-1.123-.522-1.963 0-.42.044-.797.13-1.13.086-.334.217-.615.392-.844.175-.229.394-.404.658-.525a2.2 2.2 0 0 1 .928-.182c.7 0 1.222.236 1.567.707.346.471.519 1.13.519 1.974 0 .84-.173 1.494-.519 1.963-.345.47-.867.704-1.567.704zm6.196.875v-10.311h-1.246V270h1.245zM47.617 270.105c.737 0 1.41-.125 2.02-.375.608-.25 1.13-.6 1.564-1.053.434-.453.77-.993 1.008-1.62a5.79 5.79 0 0 0 .357-2.069 5.79 5.79 0 0 0-.357-2.068 4.775 4.775 0 0 0-1.008-1.625 4.522 4.522 0 0 0-1.565-1.06 5.233 5.233 0 0 0-2.019-.378c-.737 0-1.41.126-2.016.378a4.53 4.53 0 0 0-1.561 1.06c-.434.455-.77.997-1.008 1.625a5.79 5.79 0 0 0-.357 2.068c0 .751.119 1.44.357 2.069a4.737 4.737 0 0 0 1.008 1.62c.434.453.954.804 1.561 1.053a5.25 5.25 0 0 0 2.016.375zm0-1.176c-.537 0-1.024-.09-1.463-.27a3.094 3.094 0 0 1-1.123-.776 3.485 3.485 0 0 1-.718-1.24 5.066 5.066 0 0 1-.252-1.655c0-.616.084-1.169.252-1.659a3.48 3.48 0 0 1 .718-1.243c.31-.338.684-.598 1.123-.78a3.783 3.783 0 0 1 1.463-.273c.541 0 1.031.091 1.47.273.439.182.812.442 1.12.78.308.339.546.753.714 1.243.168.49.252 1.043.252 1.659 0 .616-.084 1.168-.252 1.656-.168.487-.406.9-.714 1.238a3.062 3.062 0 0 1-1.12.777c-.439.18-.929.27-1.47.27zM55.324 270v-10.311h-1.246V270h1.246zm2.653-8.435a.9.9 0 0 0 .634-.262.978.978 0 0 0 .196-.28.84.84 0 0 0 0-.686.9.9 0 0 0-.83-.55.826.826 0 0 0-.34.07.88.88 0 0 0-.276.192.93.93 0 0 0-.259.634c0 .121.023.235.07.34.047.104.11.198.189.28a.88.88 0 0 0 .277.192c.105.047.218.07.339.07zm.637 8.435v-7.091h-1.246V270h1.246zm5.187 0l2.891-7.091h-.973a.374.374 0 0 0-.231.074.406.406 0 0 0-.14.185l-1.82 4.564c-.06.173-.112.34-.154.504a18.69 18.69 0 0 0-.119.49 18.69 18.69 0 0 0-.119-.49 8.485 8.485 0 0 0-.147-.504l-1.799-4.564a.385.385 0 0 0-.385-.259H59.79L62.681 270h1.12zm6.776.098a4.639 4.639 0 0 0 1.537-.266c.245-.089.474-.202.689-.34.215-.137.399-.3.553-.486l-.35-.455a.274.274 0 0 0-.238-.119.543.543 0 0 0-.284.108 3.847 3.847 0 0 1-.994.469 2.67 2.67 0 0 1-.808.109c-.336 0-.64-.055-.91-.164a1.851 1.851 0 0 1-.7-.498 2.348 2.348 0 0 1-.459-.829 4.146 4.146 0 0 1-.185-1.169h4.739c.117 0 .196-.033.238-.098.042-.065.063-.196.063-.392 0-.504-.075-.953-.224-1.348a2.822 2.822 0 0 0-.62-.993 2.668 2.668 0 0 0-.938-.617 3.193 3.193 0 0 0-1.179-.213c-.513 0-.975.09-1.386.27-.41.18-.758.426-1.043.741a3.267 3.267 0 0 0-.654 1.117c-.152.43-.228.891-.228 1.386 0 .611.084 1.153.252 1.624.168.471.403.867.704 1.187.3.32.657.562 1.07.727.413.166.865.249 1.355.249zm1.771-4.417H68.47c.084-.616.3-1.098.648-1.445.347-.348.82-.522 1.417-.522.285 0 .539.048.763.144.224.095.414.23.57.406.157.174.276.382.358.623.081.24.122.505.122.794zm9.135 4.417a3.66 3.66 0 0 0 1.4-.256c.415-.17.77-.414 1.064-.731.294-.317.52-.7.675-1.148a4.57 4.57 0 0 0 .235-1.512c0-.555-.078-1.058-.234-1.509a3.226 3.226 0 0 0-.676-1.151 3 3 0 0 0-1.064-.735 3.616 3.616 0 0 0-1.4-.259c-.523 0-.993.086-1.41.259a2.993 2.993 0 0 0-1.068.735c-.294.317-.52.701-.675 1.151-.157.45-.235.954-.235 1.509 0 .56.078 1.064.234 1.512.157.448.382.83.676 1.148.294.317.65.561 1.068.731.417.17.887.256 1.41.256zm0-.973c-.71 0-1.238-.235-1.586-.704-.347-.469-.521-1.123-.521-1.963 0-.42.043-.797.13-1.13.086-.334.216-.615.391-.844.175-.229.395-.404.658-.525a2.2 2.2 0 0 1 .928-.182c.7 0 1.223.236 1.568.707s.518 1.13.518 1.974c0 .84-.173 1.494-.518 1.963-.345.47-.868.704-1.568.704zm5.586-7.56a.9.9 0 0 0 .633-.262.978.978 0 0 0 .196-.28.84.84 0 0 0 0-.686.9.9 0 0 0-.83-.55.826.826 0 0 0-.338.07.88.88 0 0 0-.277.192.93.93 0 0 0-.259.634c0 .121.023.235.07.34.047.104.11.198.189.28a.88.88 0 0 0 .276.192c.106.047.219.07.34.07zm.637 8.435v-7.091H86.46V270h1.246zm3.29 0v-10.311H89.75V270h1.246zM361.147 109v-4.186h1.029c.19 0 .332.025.423.074.091.048.176.129.255.241l2.605 3.584c.116.191.298.287.546.287h1.204l-2.926-3.983a1.341 1.341 0 0 0-.449-.427c.388-.089.734-.22 1.04-.392a2.91 2.91 0 0 0 .777-.626c.212-.246.375-.522.486-.83.113-.308.168-.64.168-.994 0-.425-.072-.809-.216-1.151a2.228 2.228 0 0 0-.669-.879c-.301-.243-.683-.428-1.144-.556-.463-.129-1.01-.193-1.646-.193h-2.834V109h1.35zm1.428-5.173h-1.428v-3.787h1.483c.784 0 1.373.152 1.764.455.392.303.589.754.589 1.351 0 .294-.052.562-.154.805a1.684 1.684 0 0 1-.459.627 2.13 2.13 0 0 1-.756.405 3.433 3.433 0 0 1-1.04.144zm7.014 5.285c.27 0 .516-.024.738-.073a3.042 3.042 0 0 0 1.187-.546c.177-.133.359-.286.546-.459l.14.672c.037.117.088.195.154.234.065.04.158.06.28.06h.553v-4.536c0-.397-.054-.76-.161-1.092a2.312 2.312 0 0 0-.476-.847 2.168 2.168 0 0 0-.778-.546 2.685 2.685 0 0 0-1.056-.196c-.551 0-1.053.093-1.505.28a4.05 4.05 0 0 0-1.268.847l.225.399a.61.61 0 0 0 .154.165c.06.044.132.066.216.066a.565.565 0 0 0 .326-.116c.11-.077.24-.163.392-.259.152-.095.331-.181.539-.259.208-.077.465-.115.773-.115.458 0 .805.141 1.043.424.238.282.358.698.358 1.249v.553c-.808.019-1.49.092-2.044.22-.556.129-1.006.293-1.351.494-.346.2-.596.43-.75.69a1.56 1.56 0 0 0-.23.808c0 .322.052.6.157.837.105.235.247.43.427.584.18.154.39.27.634.346.242.078.501.116.776.116zm.37-.875c-.163 0-.316-.02-.458-.06a.998.998 0 0 1-.371-.189.897.897 0 0 1-.248-.332 1.174 1.174 0 0 1-.091-.483c0-.196.057-.373.171-.532.114-.159.299-.296.553-.413a4.17 4.17 0 0 1 .987-.283c.404-.073.892-.118 1.466-.137v1.47c-.14.15-.283.282-.43.399a2.901 2.901 0 0 1-.462.301 2.268 2.268 0 0 1-.514.193 2.544 2.544 0 0 1-.603.066zm7.519.763c.144 0 .238-.08.28-.238l1.596-4.802c.037-.112.067-.223.09-.332l.07-.326.07.325a2.7 2.7 0 0 0 .091.326l1.568 4.809c.047.159.131.238.252.238h.988l2.296-7.091h-.938a.374.374 0 0 0-.365.259l-1.385 4.564c-.043.168-.081.33-.116.487a6.778 6.778 0 0 0-.088.465c-.037-.154-.077-.31-.118-.469-.043-.159-.09-.32-.14-.483l-1.464-4.592a.361.361 0 0 0-.126-.175.368.368 0 0 0-.23-.07h-.547a.331.331 0 0 0-.213.07.37.37 0 0 0-.123.175l-1.498 4.592c-.05.163-.099.324-.143.483l-.13.469c-.046-.299-.11-.616-.188-.952l-1.358-4.564a.4.4 0 0 0-.385-.259h-.98l2.295 7.091h.939zm13.454 0v-6.048h1.805v-.903h-1.84v-.378c0-.625.162-1.112.486-1.46.324-.347.79-.521 1.397-.521.19 0 .414.007.668.021.254.014.507.026.76.035V109h1.238V98.871h-.847a14.121 14.121 0 0 1-.969-.049c-.334-.028-.68-.042-1.04-.042-.485 0-.91.077-1.273.231a2.608 2.608 0 0 0-.91.623 2.52 2.52 0 0 0-.543.92 3.466 3.466 0 0 0-.178 1.117v.378h-1.12v.511c0 .093.03.165.09.213.061.05.143.086.245.109l.784.091V109h1.247zm9.477.098a3.66 3.66 0 0 0 1.4-.255c.416-.17.77-.415 1.064-.732.295-.317.52-.7.676-1.148a4.57 4.57 0 0 0 .235-1.512c0-.555-.079-1.058-.235-1.508a3.226 3.226 0 0 0-.675-1.152 3 3 0 0 0-1.065-.735 3.616 3.616 0 0 0-1.4-.259c-.522 0-.992.086-1.41.259a2.993 2.993 0 0 0-1.067.735c-.295.317-.52.701-.676 1.151-.156.45-.234.954-.234 1.509 0 .56.078 1.064.234 1.512.156.448.382.83.676 1.148.293.317.65.561 1.067.731.418.17.888.256 1.41.256zm0-.973c-.709 0-1.237-.234-1.585-.704-.348-.469-.522-1.123-.522-1.963 0-.42.044-.797.13-1.13.086-.334.217-.615.392-.844.175-.229.394-.404.658-.525a2.2 2.2 0 0 1 .927-.182c.7 0 1.223.236 1.569.707.345.471.517 1.13.517 1.974 0 .84-.172 1.495-.517 1.963-.346.47-.868.704-1.569.704zm7.28.875c.145 0 .238-.08.28-.238l1.596-4.802c.038-.112.068-.223.091-.332l.07-.326.07.325a2.7 2.7 0 0 0 .091.326l1.568 4.809c.047.159.131.238.252.238h.988l2.296-7.091h-.938a.374.374 0 0 0-.365.259l-1.385 4.564c-.043.168-.081.33-.116.487a6.778 6.778 0 0 0-.088.465c-.037-.154-.077-.31-.118-.469-.043-.159-.09-.32-.14-.483l-1.464-4.592a.361.361 0 0 0-.125-.175.368.368 0 0 0-.231-.07h-.547a.331.331 0 0 0-.213.07.37.37 0 0 0-.123.175l-1.498 4.592c-.05.163-.099.324-.143.483l-.13.469c-.046-.299-.11-.616-.189-.952l-1.358-4.564a.4.4 0 0 0-.385-.259h-.98l2.297 7.091h.938zm11.354.098a4.639 4.639 0 0 0 1.537-.266c.245-.089.475-.202.69-.34.214-.137.399-.3.553-.486l-.35-.455a.274.274 0 0 0-.238-.119.543.543 0 0 0-.284.108 3.847 3.847 0 0 1-.994.469 2.67 2.67 0 0 1-.808.109c-.337 0-.64-.055-.91-.164a1.851 1.851 0 0 1-.7-.497 2.348 2.348 0 0 1-.459-.83 4.146 4.146 0 0 1-.185-1.169h4.739c.116 0 .195-.033.238-.098.041-.065.063-.196.063-.392 0-.504-.075-.953-.224-1.347a2.822 2.822 0 0 0-.62-.995 2.668 2.668 0 0 0-.938-.616 3.193 3.193 0 0 0-1.18-.213c-.513 0-.975.09-1.386.27-.41.18-.758.427-1.042.742a3.267 3.267 0 0 0-.655 1.116c-.152.43-.227.891-.227 1.386 0 .611.084 1.153.251 1.624.168.471.403.867.704 1.186.301.32.658.563 1.071.729.413.165.864.248 1.354.248zm1.772-4.417h-3.878c.084-.616.3-1.098.647-1.445.348-.348.82-.522 1.418-.522.284 0 .538.048.762.144.224.095.415.23.571.405.156.175.275.383.357.623.082.24.123.506.123.795zM424.67 109v-4.48a4.08 4.08 0 0 1 .298-.647c.11-.19.233-.348.371-.477a1.4 1.4 0 0 1 .469-.29c.175-.065.374-.098.599-.098.158 0 .3.014.426.042.127.028.222.042.288.042.111 0 .181-.058.21-.175l.09-.931a1.155 1.155 0 0 0-.367-.154 1.859 1.859 0 0 0-.43-.049c-.472 0-.87.136-1.197.41-.327.273-.603.652-.827 1.137l-.084-1.078c-.018-.126-.053-.215-.104-.266-.052-.051-.145-.077-.28-.077h-.714V109h1.252zm-54.309 8.565a.9.9 0 0 0 .633-.263.978.978 0 0 0 .197-.28.84.84 0 0 0 0-.686.9.9 0 0 0-.83-.55.826.826 0 0 0-.34.071.88.88 0 0 0-.276.192.93.93 0 0 0-.259.634c0 .121.023.234.07.34.047.105.11.198.189.28a.88.88 0 0 0 .276.192c.106.047.219.07.34.07zm.637 8.435v-7.091h-1.246V126h1.246zm3.255 0v-5.222a3.4 3.4 0 0 1 .885-.721c.32-.177.664-.266 1.033-.266.5 0 .871.148 1.116.445.245.296.368.712.368 1.249V126h1.253v-4.515c0-.401-.051-.768-.154-1.099a2.411 2.411 0 0 0-.452-.85 1.984 1.984 0 0 0-.741-.546 2.56 2.56 0 0 0-1.026-.193 2.79 2.79 0 0 0-1.32.312c-.193.1-.376.22-.549.36-.173.14-.336.296-.49.469l-.098-.77c-.042-.173-.152-.259-.329-.259h-.749V126h1.253zm8.12 0v-6.048h2.002v-.903h-2.044v-.651c0-.303.034-.558.101-.763.068-.205.165-.371.291-.497.126-.126.276-.217.452-.273.175-.056.37-.084.584-.084.191 0 .344-.005.459-.014.114-.01.176-.07.185-.182l.028-.623a2.627 2.627 0 0 0-.875-.14c-.373 0-.71.056-1.008.168a2.077 2.077 0 0 0-.766.494 2.192 2.192 0 0 0-.49.797 3.16 3.16 0 0 0-.172 1.082v.686h-1.12v.511c0 .093.032.165.095.213a.624.624 0 0 0 .241.109l.784.091V126h1.253zm5.453.112c.495 0 .933-.104 1.316-.311a3.9 3.9 0 0 0 1.036-.823l.098.763c.047.173.159.259.336.259h.742v-7.091h-1.246v5.222a3.28 3.28 0 0 1-.885.725c-.32.175-.664.262-1.033.262-.504 0-.878-.147-1.123-.441-.245-.294-.368-.71-.368-1.246v-4.522h-1.246v4.522c0 .401.05.768.15 1.099.1.331.251.614.452.847.2.233.45.414.745.543a2.56 2.56 0 0 0 1.026.192zm7.308 0c.434 0 .817-.058 1.148-.175.331-.117.611-.276.84-.48.229-.203.401-.443.518-.72.117-.278.175-.58.175-.907 0-.285-.052-.528-.157-.731a1.6 1.6 0 0 0-.417-.515 2.451 2.451 0 0 0-.588-.35 8.963 8.963 0 0 0-.675-.255 31.55 31.55 0 0 0-.676-.218 3.631 3.631 0 0 1-.588-.234 1.369 1.369 0 0 1-.416-.315.67.67 0 0 1-.158-.455c0-.145.031-.279.094-.403a.975.975 0 0 1 .274-.325c.118-.093.262-.167.43-.22a1.86 1.86 0 0 1 .567-.081c.243 0 .453.027.63.08.177.054.33.112.458.175.129.063.237.12.326.172a.487.487 0 0 0 .238.077.276.276 0 0 0 .259-.154l.28-.455a2.974 2.974 0 0 0-.962-.606 3.387 3.387 0 0 0-1.257-.22c-.401 0-.758.056-1.071.168a2.413 2.413 0 0 0-.791.451 1.914 1.914 0 0 0-.658 1.439c0 .303.052.561.157.773.106.213.244.391.417.536.173.145.37.265.591.36.222.096.449.181.68.256.23.075.457.146.678.213.222.068.42.148.592.239.173.09.312.2.417.329.104.128.157.29.157.486 0 .159-.03.308-.087.448-.059.14-.149.264-.27.371a1.338 1.338 0 0 1-.455.255 1.948 1.948 0 0 1-.637.095c-.285 0-.523-.033-.714-.098a2.583 2.583 0 0 1-.486-.217 5.626 5.626 0 0 1-.34-.217.47.47 0 0 0-.266-.098.359.359 0 0 0-.196.049.427.427 0 0 0-.133.14l-.294.476c.28.252.62.459 1.022.62.401.16.85.241 1.344.241zm4.851-8.547a.9.9 0 0 0 .634-.263.978.978 0 0 0 .195-.28.84.84 0 0 0 0-.686.9.9 0 0 0-.83-.55.826.826 0 0 0-.339.071.88.88 0 0 0-.276.192.93.93 0 0 0-.259.634c0 .121.023.234.07.34.047.105.11.198.189.28a.88.88 0 0 0 .276.192c.106.047.219.07.34.07zm.637 8.435v-7.091h-1.246V126h1.246zm4.991.098a3.66 3.66 0 0 0 1.4-.255c.415-.17.77-.415 1.064-.732.294-.317.52-.7.675-1.148a4.57 4.57 0 0 0 .235-1.512c0-.555-.078-1.058-.235-1.508a3.226 3.226 0 0 0-.675-1.152 3 3 0 0 0-1.064-.735 3.616 3.616 0 0 0-1.4-.259c-.523 0-.993.086-1.41.259a2.993 2.993 0 0 0-1.068.735c-.294.317-.52.701-.675 1.151-.157.45-.235.954-.235 1.509 0 .56.078 1.064.235 1.512.156.448.381.83.675 1.148.294.317.65.561 1.067.731.418.17.888.256 1.411.256zm0-.973c-.71 0-1.238-.234-1.585-.704-.348-.469-.522-1.123-.522-1.963 0-.42.043-.797.13-1.13.086-.334.216-.615.392-.844.175-.229.394-.404.658-.525a2.2 2.2 0 0 1 .927-.182c.7 0 1.223.236 1.568.707s.518 1.13.518 1.974c0 .84-.173 1.495-.518 1.963-.345.47-.868.704-1.568.704zm6.16.875v-5.222a3.4 3.4 0 0 1 .885-.721c.32-.177.664-.266 1.033-.266.5 0 .871.148 1.116.445.245.296.368.712.368 1.249V126h1.253v-4.515c0-.401-.051-.768-.154-1.099a2.411 2.411 0 0 0-.451-.85 1.984 1.984 0 0 0-.743-.546 2.56 2.56 0 0 0-1.025-.193 2.79 2.79 0 0 0-1.32.312c-.193.1-.376.22-.549.36-.173.14-.336.296-.49.469l-.098-.77c-.042-.173-.152-.259-.329-.259h-.749V126h1.253z"/><path fill="#4EB713" fill-rule="nonzero" d="M66 27c.237 0 .456.125.575.328a24.918 24.918 0 0 1 3.432 12.634v.041a23.57 23.57 0 0 1 9.01-7.237.67.67 0 0 1 .66.06.662.662 0 0 1 .281.597 23.42 23.42 0 0 1-5.092 12.749 16.853 16.853 0 0 1 6.587-.115.66.66 0 0 1 .393 1.076 16.822 16.822 0 0 1-7.955 5.292 11.26 11.26 0 0 1 2.965 2.14.661.661 0 0 1-.298 1.107c-.972.265-1.974.398-2.977.398a11.406 11.406 0 0 1-6.914-2.338v4.105A.665.665 0 0 1 66 58.5a.665.665 0 0 1-.667-.663v-4.105a11.364 11.364 0 0 1-6.916 2.338 11.29 11.29 0 0 1-2.976-.398.662.662 0 0 1-.298-1.106 11.261 11.261 0 0 1 2.966-2.14 16.821 16.821 0 0 1-7.956-5.292.66.66 0 0 1 .394-1.077 16.852 16.852 0 0 1 6.587.116 23.421 23.421 0 0 1-5.093-12.75.662.662 0 0 1 .283-.597.67.67 0 0 1 .66-.06 23.573 23.573 0 0 1 9.01 7.237v-.041c0-4.452 1.186-8.82 3.43-12.634A.667.667 0 0 1 66 27zM60.37 52.96a10.007 10.007 0 0 0-3.317 1.69 10.055 10.055 0 0 0 6.763-1.477 16.63 16.63 0 0 1-3.446-.213zm11.264 0a16.76 16.76 0 0 1-3.447.213 10.046 10.046 0 0 0 6.761 1.476 10.018 10.018 0 0 0-3.314-1.689zm-12.85-4.939a15.59 15.59 0 0 0-6.786-.83 15.521 15.521 0 0 0 5.809 3.733c.856.31 1.74.546 2.626.702l.012.002c1.093.192 2.196.265 3.297.22a23.336 23.336 0 0 1-4.958-3.827zm21.22-.83a15.583 15.583 0 0 0-6.786.83 23.337 23.337 0 0 1-4.96 3.827 15.412 15.412 0 0 0 3.301-.22c.89-.156 1.778-.393 2.636-.704a15.52 15.52 0 0 0 5.809-3.733zM66 29.036a23.618 23.618 0 0 0-2.673 10.926c0 3.82.92 7.574 2.673 10.93a23.625 23.625 0 0 0 2.673-10.93c0-3.818-.92-7.57-2.673-10.926zm-12.5 5.461c.475 3.48 1.789 6.82 3.833 9.725a22.35 22.35 0 0 0 2.294 2.762 22.017 22.017 0 0 0 4.792 3.72 24.928 24.928 0 0 1-2.29-8.145 22.267 22.267 0 0 0-8.63-8.062zm25 0a22.264 22.264 0 0 0-8.63 8.062 24.927 24.927 0 0 1-2.288 8.145 22.023 22.023 0 0 0 4.79-3.719c.832-.85 1.604-1.78 2.295-2.762a22.133 22.133 0 0 0 3.834-9.726z"/><g stroke="#7613B7" stroke-linejoin="round" stroke-width="1.5" transform="translate(218 30)"><path d="M2.19 5.275C.853 5.96.052 6.827.052 7.773c0 2.203 4.35 3.988 9.716 3.988s9.716-1.785 9.716-3.988c0-.91-.743-1.75-1.994-2.421"/><path d="M2.199 6.188c0 1.722 3.411 3.119 7.62 3.119h0c4.207 0 7.618-1.397 7.618-3.12"/><ellipse cx="9.818" cy="3.119" rx="7.619" ry="3.119"/><path stroke-linecap="round" d="M17.443 6.239V3.17M2.204 6.239V3.17"/><path d="M.051 23.011C.051 25.214 4.401 27 9.767 27h0c5.366 0 9.716-1.786 9.716-3.989"/><path stroke-linecap="round" d="M2.813 20.85c0 1.871 3.147 3.389 7.03 3.389 3.884 0 7.032-1.518 7.032-3.39-1.125-2.23-2.625-3.345-4.5-3.345-2.813 0-3.938-4.78-6.75-1.912-1.875 1.912-2.813 3.665-2.813 5.258zM.056 22.909V7.875M19.488 23.011V7.977"/></g><g stroke="#13B6B7" stroke-linecap="round" stroke-linejoin="round" stroke-width="1.5"><path d="M393.324 51.287c1.497-.368 3.721-1.329 6.075-2.688 2.597-1.5 4.663-3.351 6.198-5.556-2.271.367-3.966.772-5.086 1.216M391.411 51.5c-1.27.055-4.164-1.048-7.286-2.85-2.597-1.5-4.663-3.351-6.197-5.556 2.669.467 4.66.998 5.972 1.592"/><path d="M393.906 49.832c1.577-.922 3.705-2.63 5.856-4.782 2.51-2.51 4.304-5.26 5.383-8.25-2.049.887-3.553 1.65-4.51 2.29M390.785 50.18a9.952 9.952 0 0 1-.732-.396c-1.572-.928-3.678-2.624-5.807-4.753-2.51-2.51-4.305-5.26-5.384-8.25 2.253 1.025 3.986 1.952 5.198 2.782"/><path d="M394.015 49.336c1.4-1.47 3.115-3.838 4.736-6.646 1.982-3.433 3.123-6.919 3.423-10.457-2.77 1.928-5.117 4.49-7.045 7.685M390.432 49.25c-1.406-1.47-3.136-3.852-4.77-6.682-1.982-3.433-3.123-6.919-3.422-10.456 2.797 1.946 5.164 4.54 7.103 7.781"/><path d="M392.283 52.067c1.563 0 2.83-5.836 2.83-13.034 0-4.798-.943-9.143-2.83-13.033-1.887 3.89-2.83 8.235-2.83 13.033 0 7.198 1.267 13.034 2.83 13.034zM392.066 52.283v5.15"/></g><path stroke="#DEDEDE" stroke-width=".55" d="M577 41c0 8.285-6.715 15-15 15-8.284 0-15-6.715-15-15 0-8.284 6.716-15 15-15 8.285 0 15 6.716 15 15z"/><path stroke="#DEDEDE" stroke-width=".55" d="M543 60h38V22h-38z"/><path stroke="#DEDEDE" stroke-width=".55" d="M533 70h57V13h-57z"/><path stroke="#DEDEDE" stroke-width=".55" d="M553 50h18V32h-18z"/><path stroke="#DEDEDE" stroke-width=".55" d="M547 56h30V26h-30z"/><path stroke="#DEDEDE" stroke-width=".55" d="M567 41.5a5.5 5.5 0 1 1-11 0 5.5 5.5 0 0 1 11 0zM533 13l57 57M533 70l57-57"/><path stroke="#F1750E" stroke-linecap="round" stroke-linejoin="round" stroke-width="1.5" d="M559.81 40.604l3.424 3.427-7.757 7.764a2.436 2.436 0 0 1-2.41.62c-.376-.11-2.47 2.2-2.985 1.426-.514-.775 1.557-2.462 1.482-2.955-.11-.738-.18-1.633.728-2.542h0l7.518-7.74zm13.164-9.582l.003.002a3.499 3.499 0 0 1 0 4.946l-4.602 4.606a3.185 3.185 0 0 1-.8 3.165 3.18 3.18 0 0 1-4.497.002l-.002-.002-2.816-2.819a3.186 3.186 0 0 1 3.178-5.298l4.597-4.6a3.493 3.493 0 0 1 4.94-.002z"/><path stroke="#333" stroke-width="2.42" d="M532.245 70.45L590 70.5"/><path fill="#000" fill-rule="nonzero" d="M529.734 108.112c.83 0 1.538-.133 2.124-.399a4.291 4.291 0 0 0 1.495-1.113l-.54-.581a.26.26 0 0 0-.196-.091.362.362 0 0 0-.237.105 4.04 4.04 0 0 1-.522.41 2.8 2.8 0 0 1-.567.283c-.203.075-.425.13-.665.165-.24.034-.51.052-.808.052-.49 0-.947-.089-1.369-.266a3.106 3.106 0 0 1-1.099-.774 3.694 3.694 0 0 1-.735-1.242c-.18-.49-.27-1.048-.27-1.673 0-.616.087-1.169.26-1.659.172-.49.414-.905.724-1.246.31-.34.68-.6 1.11-.78.429-.18.903-.27 1.42-.27.43 0 .791.046 1.085.136.295.091.54.193.736.305.196.112.354.213.476.304.12.091.224.137.308.137a.311.311 0 0 0 .178-.046.367.367 0 0 0 .108-.115l.448-.623a4.758 4.758 0 0 0-1.442-.931c-.545-.229-1.175-.343-1.89-.343-.727 0-1.393.125-1.995.374-.601.25-1.118.601-1.55 1.054a4.758 4.758 0 0 0-1.005 1.624 5.84 5.84 0 0 0-.356 2.079c0 .756.114 1.449.342 2.079.23.63.551 1.17.966 1.62.416.45.918.8 1.505 1.05.588.25 1.242.375 1.96.375zm7.707-.014a3.66 3.66 0 0 0 1.4-.255c.415-.17.77-.415 1.063-.732.294-.317.52-.7.676-1.148a4.57 4.57 0 0 0 .234-1.512c0-.555-.078-1.058-.234-1.508a3.226 3.226 0 0 0-.676-1.152 3 3 0 0 0-1.063-.735 3.616 3.616 0 0 0-1.4-.259c-.523 0-.993.086-1.411.259a2.993 2.993 0 0 0-1.067.735c-.294.317-.52.701-.676 1.151-.156.45-.235.954-.235 1.509 0 .56.079 1.064.235 1.512.156.448.381.83.675 1.148.294.317.65.561 1.068.731.418.17.888.256 1.41.256zm0-.973c-.71 0-1.238-.234-1.586-.704-.348-.469-.522-1.123-.522-1.963 0-.42.044-.797.13-1.13.086-.334.217-.615.392-.844.175-.229.394-.404.658-.525a2.2 2.2 0 0 1 .928-.182c.7 0 1.222.236 1.567.707.346.471.519 1.13.519 1.974 0 .84-.173 1.495-.519 1.963-.345.47-.868.704-1.567.704zm6.16.875v-5.222a3.4 3.4 0 0 1 .885-.721c.32-.177.664-.266 1.033-.266.499 0 .871.148 1.116.445.245.296.368.712.368 1.249V108h1.252v-4.515c0-.401-.05-.768-.154-1.099a2.411 2.411 0 0 0-.451-.85 1.984 1.984 0 0 0-.742-.546 2.56 2.56 0 0 0-1.025-.193 2.79 2.79 0 0 0-1.32.312c-.194.1-.377.22-.55.36-.172.14-.336.296-.49.469l-.097-.77c-.043-.173-.152-.259-.33-.259h-.749V108h1.254zm9.24.098c.256 0 .508-.021.755-.063.248-.042.485-.108.711-.2.226-.09.438-.204.634-.339.195-.135.37-.299.524-.49l-.35-.455a.274.274 0 0 0-.237-.119.401.401 0 0 0-.256.108 4.424 4.424 0 0 1-.322.242c-.128.089-.29.17-.486.242a2.192 2.192 0 0 1-.75.108 2 2 0 0 1-.857-.178 1.793 1.793 0 0 1-.651-.518 2.442 2.442 0 0 1-.417-.84 4.066 4.066 0 0 1-.147-1.145c0-.41.046-.782.137-1.113.091-.331.226-.614.406-.847.18-.233.403-.412.668-.535a2.17 2.17 0 0 1 .925-.186 2.164 2.164 0 0 1 1.116.28c.124.07.227.134.312.193a.415.415 0 0 0 .23.087.251.251 0 0 0 .155-.042.556.556 0 0 0 .111-.119l.33-.448a3.16 3.16 0 0 0-1.012-.683c-.38-.16-.82-.241-1.32-.241-.536 0-1.011.091-1.424.273-.413.182-.76.435-1.043.76-.282.324-.497.71-.644 1.158-.147.448-.22.936-.22 1.463 0 .579.079 1.094.237 1.547.16.453.379.834.659 1.144.28.31.61.548.99.711.38.163.792.245 1.236.245zm6.769 0a4.639 4.639 0 0 0 1.536-.266c.245-.089.475-.202.69-.34.214-.137.399-.3.553-.486l-.35-.455a.274.274 0 0 0-.238-.119.543.543 0 0 0-.284.108 3.847 3.847 0 0 1-.994.469 2.67 2.67 0 0 1-.808.109c-.337 0-.64-.055-.91-.164a1.851 1.851 0 0 1-.7-.497 2.348 2.348 0 0 1-.459-.83 4.146 4.146 0 0 1-.185-1.169h4.738c.117 0 .197-.033.239-.098.042-.065.063-.196.063-.392 0-.504-.075-.953-.224-1.347a2.822 2.822 0 0 0-.62-.995 2.668 2.668 0 0 0-.938-.616 3.193 3.193 0 0 0-1.18-.213c-.513 0-.975.09-1.385.27-.411.18-.759.427-1.043.742a3.267 3.267 0 0 0-.655 1.116c-.152.43-.227.891-.227 1.386 0 .611.083 1.153.251 1.624.168.471.403.867.704 1.186.301.32.658.563 1.071.729.413.165.865.248 1.355.248zm1.77-4.417h-3.877c.083-.616.3-1.098.647-1.445.348-.348.82-.522 1.418-.522.284 0 .538.048.763.144.223.095.414.23.57.405.156.175.275.383.357.623.082.24.122.506.122.795zm3.857 4.319v-5.222a3.4 3.4 0 0 1 .886-.721c.32-.177.664-.266 1.032-.266.5 0 .872.148 1.117.445.245.296.367.712.367 1.249V108h1.254v-4.515c0-.401-.052-.768-.154-1.099a2.411 2.411 0 0 0-.452-.85 1.984 1.984 0 0 0-.742-.546 2.56 2.56 0 0 0-1.025-.193 2.79 2.79 0 0 0-1.32.312c-.194.1-.377.22-.55.36-.172.14-.336.296-.49.469l-.097-.77c-.043-.173-.152-.259-.33-.259h-.748V108h1.252zm8.596.112c.322 0 .635-.057.938-.171.304-.115.563-.272.778-.473l-.365-.595c-.05-.08-.11-.119-.174-.119a.234.234 0 0 0-.13.052 2.71 2.71 0 0 1-.178.116c-.07.042-.153.08-.249.115a.989.989 0 0 1-.34.053.758.758 0 0 1-.56-.217c-.144-.145-.216-.366-.216-.665v-4.256h2.05v-.903h-2.05v-2.443h-.63a.276.276 0 0 0-.288.238l-.286 2.191-1.163.147v.497c0 .093.026.162.077.206a.28.28 0 0 0 .19.067h.854v4.34c0 .588.15 1.038.451 1.351.301.313.731.469 1.291.469zm4.053-.112v-4.48a4.08 4.08 0 0 1 .298-.647c.11-.19.233-.348.371-.477a1.4 1.4 0 0 1 .469-.29c.175-.065.375-.098.598-.098.16 0 .302.014.428.042.126.028.221.042.287.042.111 0 .182-.058.21-.175l.09-.931a1.155 1.155 0 0 0-.367-.154 1.859 1.859 0 0 0-.43-.049c-.472 0-.87.136-1.197.41-.327.273-.603.652-.827 1.137l-.084-1.078c-.018-.126-.053-.215-.104-.266-.052-.051-.145-.077-.28-.077h-.714V108h1.252zm5.153.112c.27 0 .516-.024.738-.073a3.042 3.042 0 0 0 1.186-.546c.178-.133.36-.286.547-.459l.14.672c.037.117.088.195.154.234.065.04.158.06.28.06h.553v-4.536c0-.397-.054-.76-.161-1.092a2.312 2.312 0 0 0-.476-.847 2.168 2.168 0 0 0-.778-.546 2.685 2.685 0 0 0-1.057-.196c-.55 0-1.052.093-1.505.28a4.05 4.05 0 0 0-1.266.847l.223.399a.61.61 0 0 0 .154.165c.061.044.134.066.218.066a.565.565 0 0 0 .325-.116c.11-.077.24-.163.392-.259.152-.095.331-.181.539-.259.208-.077.466-.115.774-.115.457 0 .804.141 1.043.424.237.282.356.698.356 1.249v.553c-.807.019-1.488.092-2.043.22-.556.129-1.006.293-1.351.494-.346.2-.596.43-.75.69a1.56 1.56 0 0 0-.23.808c0 .322.052.6.157.837.105.235.247.43.427.584.18.154.39.27.633.346.243.078.502.116.778.116zm.37-.875c-.163 0-.316-.02-.458-.06a.998.998 0 0 1-.371-.189.897.897 0 0 1-.249-.332 1.174 1.174 0 0 1-.09-.483c0-.196.057-.373.171-.532.114-.159.299-.296.553-.413a4.17 4.17 0 0 1 .987-.283c.404-.073.893-.118 1.466-.137v1.47c-.14.15-.283.282-.43.399a2.901 2.901 0 0 1-.462.301 2.268 2.268 0 0 1-.514.193 2.544 2.544 0 0 1-.602.066zm7.168.875c.322 0 .635-.057.938-.171.304-.115.563-.272.778-.473l-.365-.595c-.05-.08-.11-.119-.174-.119a.234.234 0 0 0-.13.052 2.71 2.71 0 0 1-.178.116c-.07.042-.153.08-.249.115a.989.989 0 0 1-.34.053.758.758 0 0 1-.56-.217c-.144-.145-.216-.366-.216-.665v-4.256h2.05v-.903h-2.05v-2.443h-.63a.276.276 0 0 0-.288.238l-.287 2.191-1.161.147v.497c0 .093.025.162.077.206a.28.28 0 0 0 .188.067h.855v4.34c0 .588.15 1.038.451 1.351.301.313.732.469 1.292.469zm5.74-.014a4.639 4.639 0 0 0 1.537-.266c.245-.089.475-.202.69-.34.214-.137.399-.3.553-.486l-.35-.455a.274.274 0 0 0-.238-.119.543.543 0 0 0-.284.108 3.847 3.847 0 0 1-.994.469 2.67 2.67 0 0 1-.809.109c-.336 0-.639-.055-.91-.164a1.851 1.851 0 0 1-.7-.497 2.348 2.348 0 0 1-.458-.83 4.146 4.146 0 0 1-.186-1.169h4.74c.116 0 .196-.033.237-.098.043-.065.063-.196.063-.392 0-.504-.074-.953-.223-1.347a2.822 2.822 0 0 0-.62-.995 2.668 2.668 0 0 0-.938-.616 3.193 3.193 0 0 0-1.18-.213c-.513 0-.975.09-1.385.27-.411.18-.759.427-1.043.742a3.267 3.267 0 0 0-.655 1.116c-.152.43-.227.891-.227 1.386 0 .611.083 1.153.251 1.624.168.471.403.867.704 1.186.301.32.658.563 1.071.729.413.165.865.248 1.355.248zm1.771-4.417h-3.877c.083-.616.3-1.098.647-1.445.348-.348.82-.522 1.418-.522.284 0 .538.048.763.144.224.095.414.23.57.405.156.175.275.383.357.623.082.24.122.506.122.795zm-58.726 12.884a.9.9 0 0 0 .634-.263.978.978 0 0 0 .196-.28.84.84 0 0 0 0-.686.9.9 0 0 0-.83-.55.826.826 0 0 0-.34.071.88.88 0 0 0-.276.192.93.93 0 0 0-.259.634c0 .121.023.234.07.34.047.105.11.198.189.28a.88.88 0 0 0 .277.192c.105.047.218.07.339.07zm.637 8.435v-7.091h-1.246V125h1.246zm3.255 0v-5.222a3.4 3.4 0 0 1 .885-.721c.32-.177.664-.266 1.033-.266.5 0 .871.148 1.116.445.245.296.368.712.368 1.249V125h1.253v-4.515c0-.401-.051-.768-.154-1.099a2.411 2.411 0 0 0-.452-.85 1.984 1.984 0 0 0-.741-.546 2.56 2.56 0 0 0-1.026-.193 2.79 2.79 0 0 0-1.32.312c-.193.1-.376.22-.549.36-.173.14-.336.296-.49.469l-.098-.77c-.042-.173-.152-.259-.329-.259h-.749V125h1.253zm8.12 0v-6.048h2.002v-.903h-2.044v-.651c0-.303.034-.558.101-.763.068-.205.165-.371.291-.497.126-.126.276-.217.452-.273.174-.056.37-.084.584-.084.191 0 .344-.005.458-.014.115-.01.177-.07.186-.182l.028-.623a2.627 2.627 0 0 0-.875-.14c-.373 0-.71.056-1.008.168a2.077 2.077 0 0 0-.766.494 2.192 2.192 0 0 0-.49.797 3.16 3.16 0 0 0-.172 1.082v.686h-1.12v.511c0 .093.032.165.095.213a.624.624 0 0 0 .241.109l.784.091V125h1.253zm5.453.112c.495 0 .933-.104 1.316-.311a3.9 3.9 0 0 0 1.036-.823l.098.763c.047.173.159.259.336.259h.742v-7.091h-1.246v5.222a3.28 3.28 0 0 1-.886.725c-.32.175-.663.262-1.032.262-.504 0-.879-.147-1.124-.441-.245-.294-.367-.71-.367-1.246v-4.522h-1.246v4.522c0 .401.05.768.15 1.099.1.331.251.614.452.847.2.233.45.414.745.543a2.56 2.56 0 0 0 1.026.192zm7.308 0c.434 0 .817-.058 1.148-.175.331-.117.611-.276.84-.48.229-.203.401-.443.518-.72.117-.278.175-.58.175-.907 0-.285-.053-.528-.158-.731a1.6 1.6 0 0 0-.416-.515 2.451 2.451 0 0 0-.588-.35 8.963 8.963 0 0 0-.675-.255 31.55 31.55 0 0 0-.676-.218 3.631 3.631 0 0 1-.588-.234 1.369 1.369 0 0 1-.417-.315.67.67 0 0 1-.157-.455c0-.145.032-.279.095-.403a.975.975 0 0 1 .273-.325c.119-.093.262-.167.43-.22a1.86 1.86 0 0 1 .567-.081c.243 0 .453.027.63.08.177.054.33.112.459.175.128.063.236.12.325.172a.487.487 0 0 0 .238.077.276.276 0 0 0 .259-.154l.28-.455a2.974 2.974 0 0 0-.962-.606 3.387 3.387 0 0 0-1.257-.22c-.401 0-.758.056-1.071.168a2.413 2.413 0 0 0-.791.451 1.914 1.914 0 0 0-.658 1.439c0 .303.053.561.158.773.105.213.243.391.416.536.173.145.37.265.591.36.222.096.448.181.68.256.23.075.457.146.678.213.222.068.42.148.592.239.173.09.312.2.417.329.105.128.157.29.157.486 0 .159-.03.308-.088.448-.058.14-.148.264-.269.371a1.338 1.338 0 0 1-.455.255 1.948 1.948 0 0 1-.637.095c-.285 0-.523-.033-.714-.098a2.583 2.583 0 0 1-.487-.217 5.626 5.626 0 0 1-.339-.217.47.47 0 0 0-.266-.098.359.359 0 0 0-.196.049.427.427 0 0 0-.133.14l-.294.476c.28.252.62.459 1.022.62.401.16.85.241 1.344.241zm4.851-8.547a.9.9 0 0 0 .634-.263.978.978 0 0 0 .196-.28.84.84 0 0 0 0-.686.9.9 0 0 0-.83-.55.826.826 0 0 0-.34.071.88.88 0 0 0-.276.192.93.93 0 0 0-.259.634c0 .121.023.234.07.34.047.105.11.198.189.28a.88.88 0 0 0 .276.192c.106.047.219.07.34.07zm.637 8.435v-7.091h-1.246V125h1.246zm4.991.098a3.66 3.66 0 0 0 1.4-.255c.415-.17.77-.415 1.064-.732.294-.317.52-.7.676-1.148a4.57 4.57 0 0 0 .234-1.512c0-.555-.078-1.058-.235-1.508a3.226 3.226 0 0 0-.675-1.152 3 3 0 0 0-1.064-.735 3.616 3.616 0 0 0-1.4-.259c-.523 0-.993.086-1.41.259a2.993 2.993 0 0 0-1.068.735c-.294.317-.52.701-.675 1.151-.157.45-.235.954-.235 1.509 0 .56.078 1.064.235 1.512.156.448.381.83.675 1.148.294.317.65.561 1.067.731.418.17.888.256 1.411.256zm0-.973c-.71 0-1.238-.234-1.586-.704-.347-.469-.521-1.123-.521-1.963 0-.42.043-.797.13-1.13.086-.334.217-.615.392-.844.174-.229.394-.404.658-.525a2.2 2.2 0 0 1 .927-.182c.7 0 1.223.236 1.568.707s.518 1.13.518 1.974c0 .84-.173 1.495-.518 1.963-.345.47-.868.704-1.568.704zm6.16.875v-5.222a3.4 3.4 0 0 1 .885-.721c.32-.177.664-.266 1.033-.266.5 0 .871.148 1.116.445.245.296.368.712.368 1.249V125h1.253v-4.515c0-.401-.051-.768-.154-1.099a2.411 2.411 0 0 0-.452-.85 1.984 1.984 0 0 0-.741-.546 2.56 2.56 0 0 0-1.026-.193 2.79 2.79 0 0 0-1.32.312c-.193.1-.376.22-.549.36-.173.14-.336.296-.49.469l-.098-.77c-.042-.173-.152-.259-.329-.259h-.749V125h1.253z"/><g fill-rule="nonzero" stroke="#B73913" stroke-width="1.5"><path stroke-linecap="round" stroke-linejoin="round" d="M225.594 199.758c0 8.367-.906 14.045-2.719 17.034h7.25c.604-7.172.302-12.85-.906-17.034"/><path d="M228.766 196.026c-.531 0-1.012.27-1.286.703l-.57.906-.657-.846a1.974 1.974 0 0 0-1.565-.763c-1.09 0-1.97.87-1.97 1.94 0 1.068.88 1.939 1.97 1.939a1.97 1.97 0 0 0 1.788-1.129l.454-.968.756.755a1.52 1.52 0 0 0 1.08.445c.838 0 1.515-.67 1.515-1.491 0-.822-.677-1.491-1.515-1.491z"/><g stroke-linecap="round" stroke-linejoin="round"><path d="M226.5 191.746c-4.833-4.184-8.458-3.586-10.875 1.793.604-.598 2.115-.598 4.531 0"/><path d="M224.587 193.598c-5.185-.916-7.559.994-7.121 5.728.972-.647 2.473-1.4 4.503-2.257"/></g><g stroke-linecap="round" stroke-linejoin="round"><path d="M226.5 191.746c4.833-4.184 8.458-3.586 10.875 1.793-.604-.598-2.115-.598-4.531 0"/><path d="M228.413 193.598c5.185-.916 7.559.994 7.121 5.728-.972-.647-2.473-1.4-4.503-2.257"/></g></g><g stroke="#13B76B" stroke-linecap="round" stroke-linejoin="round" stroke-width="1.5"><path d="M73.991 209.99c-3.029 3.03-6.858 4.58-10.307 4.508-2.369-.051-4.559-.867-6.186-2.496-1.63-1.627-2.445-3.818-2.496-6.186-.072-3.449 1.477-7.277 4.507-10.307 2.88-2.88 6.483-4.423 9.795-4.506 2.564-.063 4.954.75 6.698 2.495 1.63 1.628 2.445 3.818 2.496 6.187.072 3.449-1.478 7.278-4.507 10.306zM57 203.5c.592-2.316 1.992-4.623 4-6.5"/><path d="M73.406 200.5c.307-1.1-.144-2.543-1.253-3.653-1.11-1.11-2.554-1.56-3.653-1.253"/><path d="M75.282 200.282c1.219-1.217.849-3.562-.826-5.238-1.675-1.675-4.02-2.045-5.239-.826-1.218 1.217-.847 3.562.827 5.238 1.676 1.675 4.02 2.045 5.238.826z"/></g><g stroke="#B78E13" stroke-width="1.5"><path stroke-linecap="round" stroke-linejoin="round" d="M400 192c2.27 0 2.103 2.309 1.333 3.143h0l-7.836 3.31-1.333-2.317 1.834 3.309-.547.333 9.049 2.735v8.895L390.925 215v-9.58l11.407-2.907-8.882-2.735-1.62.99-8.169 1.82v1.82c-3.337.194-4.393-.523-3.167-2.15h0zM384.25 204.5v4"/><path d="M383.5 203l7.5 2.5"/><path stroke-linecap="round" stroke-linejoin="round" d="M391 215l-9.5-4.523V204.5"/></g><path stroke="#136BB7" stroke-linecap="round" stroke-linejoin="round" stroke-width="1.5" d="M555.574 201.488h4.198m5.247 0h4.407c.87 0 1.574.693 1.574 1.548v13.416h0c0 .855-.705 1.548-1.574 1.548h-13.852 0c-.87 0-1.574-.693-1.574-1.548v-13.416h0c0-.855.705-1.548 1.574-1.548h0m4.198 0c.14-.706.21-1.41.21-2.116 0-.705-.07-1.41-.21-2.116h0m5.247 0c-.14.705-.21 1.41-.21 2.116 0 .47.07 1.175.21 2.116m-6.821-7.018h8.604c.406 0 .735.323.735.722v1.239a.729.729 0 0 1-.735.722h-8.604a.729.729 0 0 1-.735-.722v-1.239c0-.399.329-.722.735-.722zm1.679 0v-2.938c0-1.398 1.174-2.532 2.623-2.532 1.449 0 2.623 1.134 2.623 2.532v2.938h-5.246z"/><g stroke="#00B398" stroke-width="1.078" transform="translate(49 330)"><circle cx="12.938" cy="19.945" r="3.234"/><path stroke-linecap="round" stroke-linejoin="round" d="M15.633 24.797c0 .595.724 1.078 1.617 1.078s1.617-.483 1.617-1.078M18.328 20.484a1.078 1.078 0 1 0-2.156 0"/><circle cx="21.563" cy="19.945" r="3.234"/><path stroke-linejoin="round" d="M34.457 21.005a.718.718 0 0 0-.546-.46 18.17 18.17 0 0 0-7.102.125c.334-.417.656-.845.963-1.282a25.25 25.25 0 0 0 4.527-12.463.714.714 0 0 0-.304-.644.721.721 0 0 0-.712-.064 25.41 25.41 0 0 0-9.714 7.802v-.044c0-4.8-1.279-9.51-3.699-13.621a.72.72 0 0 0-1.24 0 26.865 26.865 0 0 0-3.7 13.62v.045a25.415 25.415 0 0 0-9.713-7.802.722.722 0 0 0-.712.064.714.714 0 0 0-.304.644 25.251 25.251 0 0 0 5.49 13.745 18.169 18.169 0 0 0-7.102-.124.712.712 0 0 0-.424 1.16 18.136 18.136 0 0 0 8.578 5.706 12.141 12.141 0 0 0-3.198 2.308.713.713 0 0 0 .321 1.192c1.047.286 2.127.43 3.209.43 1.064 0 2.13-.139 3.169-.416a12.252 12.252 0 0 0 4.287-2.105v4.425c0 .395.322.715.719.715.397 0 .719-.32.719-.715V28.82a12.297 12.297 0 0 0 7.455 2.52c1.081 0 2.161-.143 3.209-.43a.713.713 0 0 0 .321-1.192 12.14 12.14 0 0 0-3.197-2.307 18.136 18.136 0 0 0 8.577-5.706.712.712 0 0 0 .123-.701z"/><path stroke-linecap="round" stroke-linejoin="round" d="M11.59 19.945c.898-.718 1.797-.718 2.695 0M19.945 19.945c.899-.718 1.797-.718 2.696 0"/></g><g transform="translate(210 328)"><circle cx="12.938" cy="19.945" r="3.234" stroke="#00B398" stroke-width="1.078"/><circle cx="13.125" cy="19.875" r="1.125" fill="#00B398"/><circle cx="21.375" cy="19.875" r="1.125" fill="#00B398"/><path stroke="#00B398" stroke-linecap="round" stroke-linejoin="round" stroke-width="1.078" d="M15.633 24.797c0 .595.724 1.078 1.617 1.078s1.617-.483 1.617-1.078M18.328 20.484a1.078 1.078 0 1 0-2.156 0"/><circle cx="21.563" cy="19.945" r="3.234" stroke="#00B398" stroke-width="1.078"/><path stroke="#00B398" stroke-linecap="round" stroke-linejoin="round" stroke-width="1.078" d="M21.755 30.78a12.311 12.311 0 0 0 3.668.56c1.082 0 2.162-.142 3.21-.429a.713.713 0 0 0 .321-1.192 12.14 12.14 0 0 0-3.197-2.307 18.136 18.136 0 0 0 8.577-5.706.712.712 0 0 0-.423-1.16 18.17 18.17 0 0 0-7.102.124c.334-.417.656-.845.963-1.282a25.25 25.25 0 0 0 4.527-12.463.714.714 0 0 0-.304-.644.721.721 0 0 0-.712-.064 25.41 25.41 0 0 0-9.714 7.802v-.044c0-4.8-1.279-9.51-3.699-13.621a.72.72 0 0 0-1.24 0 26.865 26.865 0 0 0-3.7 13.62v.045a25.415 25.415 0 0 0-9.713-7.802.722.722 0 0 0-.712.064.714.714 0 0 0-.304.644 25.251 25.251 0 0 0 5.49 13.745 18.169 18.169 0 0 0-7.102-.124.712.712 0 0 0-.424 1.16 18.136 18.136 0 0 0 8.578 5.706 12.141 12.141 0 0 0-3.198 2.308.713.713 0 0 0 .321 1.192c1.047.286 2.127.43 3.209.43a12.314 12.314 0 0 0 3.754-.587"/></g><g stroke="#00B398" stroke-width="1.08" transform="translate(225 357.25)"><rect width="3.42" height="2.67" x=".54" y=".54" rx=".75"/><path stroke-linecap="round" stroke-linejoin="round" d="M2.25 10.5L4.5 8.25 3 3.75H1.5L0 8.25z"/></g><g transform="translate(375 329)"><circle cx="21.773" cy="20.273" r="3.234" stroke="#00B398" stroke-width="1.078"/><circle cx="14.273" cy="20.273" r="3.234" stroke="#00B398" stroke-width="1.078"/><circle cx="20.25" cy="18.75" r="1" fill="#00B398"/><circle cx="15.75" cy="21.75" r="1" fill="#00B398"/><path stroke="#00B398" stroke-linejoin="round" stroke-width="1.078" d="M34.457 21.005a.718.718 0 0 0-.546-.46 18.17 18.17 0 0 0-7.102.125c.334-.417.656-.845.963-1.282a25.25 25.25 0 0 0 4.527-12.463.714.714 0 0 0-.304-.644.721.721 0 0 0-.712-.064 25.41 25.41 0 0 0-9.714 7.802v-.044c0-4.8-1.279-9.51-3.699-13.621a.72.72 0 0 0-1.24 0 26.865 26.865 0 0 0-3.7 13.62v.045a25.415 25.415 0 0 0-9.713-7.802.722.722 0 0 0-.712.064.714.714 0 0 0-.304.644 25.251 25.251 0 0 0 5.49 13.745 18.169 18.169 0 0 0-7.102-.124.712.712 0 0 0-.424 1.16 18.136 18.136 0 0 0 8.578 5.706 12.141 12.141 0 0 0-3.198 2.308.713.713 0 0 0 .321 1.192c1.047.286 2.127.43 3.209.43 1.064 0 2.13-.139 3.169-.416a12.252 12.252 0 0 0 4.287-2.105v4.425c0 .395.322.715.719.715.397 0 .719-.32.719-.715V28.82a12.297 12.297 0 0 0 7.455 2.52c1.081 0 2.161-.143 3.209-.43a.713.713 0 0 0 .321-1.192 12.14 12.14 0 0 0-3.197-2.307 18.136 18.136 0 0 0 8.577-5.706.712.712 0 0 0 .123-.701z"/></g><g transform="translate(545 329)"><circle cx="21.773" cy="20.273" r="3.234" stroke="#00B398" stroke-width="1.078"/><circle cx="14.273" cy="20.273" r="3.234" stroke="#00B398" stroke-width="1.078"/><circle cx="21.75" cy="20.25" r="1" fill="#00B398"/><circle cx="14.25" cy="20.25" r="1" fill="#00B398"/><path stroke="#00B398" stroke-linejoin="round" stroke-width="1.078" d="M34.457 21.005a.718.718 0 0 0-.546-.46 18.17 18.17 0 0 0-7.102.125c.334-.417.656-.845.963-1.282a25.25 25.25 0 0 0 4.527-12.463.714.714 0 0 0-.304-.644.721.721 0 0 0-.712-.064 25.41 25.41 0 0 0-9.714 7.802v-.044c0-4.8-1.279-9.51-3.699-13.621a.72.72 0 0 0-1.24 0 26.865 26.865 0 0 0-3.7 13.62v.045a25.415 25.415 0 0 0-9.713-7.802.722.722 0 0 0-.712.064.714.714 0 0 0-.304.644 25.251 25.251 0 0 0 5.49 13.745 18.169 18.169 0 0 0-7.102-.124.712.712 0 0 0-.424 1.16 18.136 18.136 0 0 0 8.578 5.706 12.141 12.141 0 0 0-3.198 2.308.713.713 0 0 0 .321 1.192c1.047.286 2.127.43 3.209.43 1.064 0 2.13-.139 3.169-.416a12.252 12.252 0 0 0 4.287-2.105v4.425c0 .395.322.715.719.715.397 0 .719-.32.719-.715V28.82a12.297 12.297 0 0 0 7.455 2.52c1.081 0 2.161-.143 3.209-.43a.713.713 0 0 0 .321-1.192 12.14 12.14 0 0 0-3.197-2.307 18.136 18.136 0 0 0 8.577-5.706.712.712 0 0 0 .123-.701z"/></g></g></svg>