<?xml version="1.0" encoding="UTF-8"?>
<svg width="28px" height="28px" viewBox="0 0 28 28" version="1.1" xmlns="http://www.w3.org/2000/svg" xmlns:xlink="http://www.w3.org/1999/xlink">
    <!-- Generator: Sketch 61.2 (89653) - https://sketch.com -->
    <title>Spotify</title>
    <desc>Created with Sketch.</desc>
    <g id="Homepage" stroke="none" stroke-width="1" fill="none" fill-rule="evenodd">
        <g id="Footer" transform="translate(-840.000000, -217.000000)" fill="#FFFFFF">
            <g id="Group">
                <g transform="translate(400.000000, 216.000000)">
                    <g id="Group-2" transform="translate(12.000000, 1.000000)">
                        <path d="M450.26,12.46 C445.78,9.8 438.29,9.52 434.02,10.85 C433.32,11.06 432.62,10.64 432.41,10.01 C432.2,9.31 432.62,8.61 433.25,8.4 C438.22,6.93 446.41,7.21 451.59,10.29 C452.22,10.64 452.43,11.48 452.08,12.11 C451.73,12.6 450.89,12.81 450.26,12.46 M450.12,16.38 C449.77,16.87 449.14,17.08 448.65,16.73 C444.87,14.42 439.13,13.72 434.72,15.12 C434.16,15.26 433.53,14.98 433.39,14.42 C433.25,13.86 433.53,13.23 434.09,13.09 C439.2,11.55 445.5,12.32 449.84,14.98 C450.26,15.19 450.47,15.89 450.12,16.38 M448.44,20.23 C448.16,20.65 447.67,20.79 447.25,20.51 C443.96,18.48 439.83,18.06 434.93,19.18 C434.44,19.32 434.02,18.97 433.88,18.55 C433.74,18.06 434.09,17.64 434.51,17.5 C439.83,16.31 444.45,16.8 448.09,19.04 C448.58,19.25 448.65,19.81 448.44,20.23 M442,-1.77635684e-15 C434.3,-1.77635684e-15 428,6.3 428,14 C428,21.7 434.3,28 442,28 C449.7,28 456,21.7 456,14 C456,6.3 449.77,-1.77635684e-15 442,-1.77635684e-15" id="Spotify"></path>
                    </g>
                </g>
            </g>
        </g>
    </g>
</svg>