<?xml version="1.0" encoding="UTF-8"?>
<svg width="1280px" height="538px" viewBox="0 0 1280 538" version="1.1" xmlns="http://www.w3.org/2000/svg" xmlns:xlink="http://www.w3.org/1999/xlink">
    <!-- Generator: Sketch 63.1 (92452) - https://sketch.com -->
    <title>10</title>
    <desc>Created with Sketch.</desc>
    <g id="Homepage" stroke="none" stroke-width="1" fill="none" fill-rule="evenodd">
        <g id="Artboard-Copy-2" transform="translate(0.000000, -396.000000)">
            <g id="10" transform="translate(640.500000, 665.000000) scale(1, -1) translate(-640.500000, -665.000000) translate(-86.000000, 396.000000)">
                <path d="M1452,10 L6,10.1049609 L6,392.583167 C74.239,462.172885 245.128,584.339803 355.976,519.731934 C468.688,454.039047 529.47,338.680679 644.72,381.937854 C759.952,425.193764 766.285,430.806012 852.4,430.008688 C938.517,429.200615 1062.017,349.086984 1164.257,356.303363 C1250.337,362.373392 1327.667,439.310375 1452,489.870553 L1452,10 L1452,10 Z" id="Path" fill="#FFD23E"></path>
                <path d="M6,367.468573 C86.8192236,443.982992 243.178656,520.779156 349.40095,452.652515 C470.225284,375.088358 523.483431,259.720316 642.37476,311.013785 C760.540087,361.674117 773.415123,372.048042 868.175385,365.030368 C952.028617,358.809813 1074.35896,302.793154 1176.59924,311.560814 C1264.00948,319.060303 1328.35966,376.530641 1452,426.633814 L1452,2 L6,2.10446735 L6,367.468573 Z" id="Path" fill="#FFD5A4"></path>
                <path d="M6,366.468069 C86.8192236,442.982249 243.178656,519.780707 349.40095,451.651113 C470.225284,374.087197 523.483431,258.720147 642.37476,310.014089 C760.540087,360.673631 773.415123,371.048156 868.175385,364.029239 C952.028617,357.809335 1074.35896,301.792218 1176.59924,310.560483 C1264.00948,318.059949 1328.35966,375.530741 1452,425.633126 L1452,1 L6,1.10510016 L6,366.468069 Z" id="Rectangle_663_copy" fill="#FFBB3E"></path>
                <path d="M1452,2 L6,2.10447043 L6,348.576534 C93.965,419.670878 239.933,464.111965 342.808,392.908086 C471.76,303.556111 517.27,188.525937 640.026,247.603648 C760.918,305.800642 779.746,321.223643 883.95,307.503194 C965.2,296.799723 1086.68,264.056791 1188.93,274.377203 C1277.73,283.330636 1328.28,319.955436 1452,370.845831 L1452,2 Z" id="Path" fill="#FFCF96"></path>
                <path d="M1452,1 L6,1.10510343 L6,347.576654 C93.965,418.670892 239.933,463.111913 342.808,391.90814 C471.76,302.55693 517.27,187.526293 640.026,246.603917 C760.918,304.800825 779.746,320.22317 883.95,306.503374 C965.2,295.799919 1086.68,263.057036 1188.93,273.377433 C1277.73,282.330852 1328.28,318.955597 1452,369.84655 L1452,1 Z" id="Rectangle_664_copy" fill="#F8A553"></path>
                <path d="M6,326.758555 C98.3,387.288828 236.066,407.272168 336.215,333.591384 C473.278,232.624791 511.215,117.983691 637.678,184.886637 C761.418,250.347799 785.735,271.467626 899.741,250.545641 C978.3,236.128434 1099.02,225.934181 1201.27,237.777541 C1291.5,248.233477 1327.31,262.541966 1452,315.671167 L1452,3 L6,3.10429388 L6,326.758555 Z" id="Path" fill="#F8B482"></path>
                <path d="M6,324.758959 C98.295,385.28844 236.066,405.271727 336.215,331.593034 C473.278,230.627342 511.215,115.985914 637.678,182.889314 C761.418,248.347774 785.735,269.468177 899.741,248.545616 C978.3,234.127815 1099.02,223.934853 1201.27,235.77755 C1291.5,246.233458 1327.31,260.541277 1452,313.6716 L1452,1 L6,1.10492569 L6,324.758959 Z" id="Rectangle_665_copy" fill="#F89953"></path>
                <path d="M1452,3 L6,3.10421739 L6,300.33601 C100.884,348.48634 231.873,349.489985 329.623,273.735942 C474.815,161.086415 505.172,46.7037214 635.332,121.486964 C761.953,194.241441 791.689,221.648721 915.516,192.964936 C991.49,175.362934 1111.36,187.11992 1213.61,200.501433 C1305.34,212.497802 1325.38,203.01023 1452,260.168732 L1452,3 Z" id="Path" fill="#FCA67C"></path>
                <path d="M1452,1 L6,1.10484881 L6,298.336074 C100.884,346.486312 231.873,347.489956 329.623,271.736057 C474.814,159.087377 505.171,44.7042696 635.331,119.487369 C761.953,192.241708 791.689,219.648935 915.516,190.965205 C991.49,173.363237 1111.36,185.1202 1213.61,198.501687 C1305.34,210.498034 1325.38,201.009848 1452,258.168873 L1452,1 Z" id="Rectangle_666_copy" fill="#F88953"></path>
                <path d="M6,270.496585 C102.282,306.030062 227.438,291.989209 323.047,214.407173 C476.347,89.8230672 499.147,-24.5504298 632.967,58.2950282 C762.506,138.488536 797.868,172.788062 931.29,135.74551 C1004.84,115.323027 1123.7,148.664359 1225.94,163.603953 C1319.22,177.233067 1322.39,142.254267 1452,205.53677 L1452,3 L6,3.10435769 L6,270.496585 Z" id="Path" fill="#FA9276"></path>
                <path d="M6,268.496602 C102.282,304.029997 227.438,289.989177 323.047,212.407952 C476.347,87.8241324 499.147,-26.5491015 632.967,56.2955335 C762.506,136.488857 797.868,170.788937 931.29,133.745205 C1004.84,113.323401 1123.7,146.664657 1225.94,161.604216 C1319.22,175.233299 1322.39,140.253947 1452,203.536937 L1452,1 L6,1.10498992 L6,268.496602 Z" id="Rectangle_667_copy" fill="#F5704C"></path>
                <path d="M1452,3 L642.907,3.10133122 C765.8,85.1169244 808.93,122.877372 947.06,78.3701648 C1018.41,55.3806432 1136.04,110.104571 1238.28,126.617761 C1333.11,141.916242 1318.3,79.6387051 1452,151.222249 L1452,3 Z M6,3.10449783 L6,236.824334 C102.853,260.095683 222.881,233.959827 316.456,154.918305 C387.507,94.8162225 430.238,39.0029841 467.533,3.10133122 L6,3.10449783 Z" id="Shape" fill="#FC7C6F"></path>
                <path d="M1452,1 L642.907,1.10196431 C765.8,83.1180031 808.93,120.877731 947.06,76.3706256 C1018.41,53.3849566 1136.04,108.104959 1238.28,124.617478 C1333.11,139.915924 1318.3,77.639163 1452,149.222543 L1452,1 Z M6,1.1051309 L6,234.824432 C102.853,258.095728 222.881,231.959298 316.456,152.918591 C387.507,92.8166457 430.238,37.0029017 467.533,1.10196431 L6,1.1051309 Z" id="Rectangle_668_copy" fill="#F95C4C"></path>
                <path d="M6,198.827515 C102.8,210.540608 218.239,174.747617 309.863,94.8952041 C347.624,61.9488518 377.342,30.7034086 402.314,3.10105662 L6,3.10421464 L6,198.827515 Z M731.648,3.10105662 C801.698,46.6918288 856.89,59.3769608 962.84,20.7689115 C1032.18,-4.50029587 1148.36,71.1645837 1250.62,89.1716099 C1346.98,106.141542 1313.09,15.0781607 1452,96.9801284 L1452,3 L731.648,3.10105662 Z" id="Shape" fill="#F8666D"></path>
                <path d="M6,196.82752 C102.8,208.540577 218.239,172.7477 309.863,92.8961736 C347.624,59.9499266 377.342,28.7045833 402.314,1.1016879 L6,1.10484591 L6,196.82752 Z M731.648,1.1016879 C801.698,44.6923208 856.89,57.3774122 962.84,18.7688547 C1032.18,-6.4990087 1148.36,69.1643659 1250.62,87.1713345 C1346.98,104.141213 1313.09,13.0774905 1452,94.9798281 L1452,1 L731.648,1.1016879 Z" id="Rectangle_669_copy" fill="#EF4266" opacity="0.498070126"></path>
                <path d="M6,3.10463779 L6,158.97626 C102.3,160.169765 213.546,116.325897 303.27,35.4148848 C315.47,24.4107943 326.866,13.639655 337.458,3.10146695 L6,3.10463779 Z M1452,3 L1135.26,3.10146695 C1177.16,23.2280702 1221.09,44.23046 1262.95,52.2679106 C1360.84,71.058321 1306.7,-51.2220343 1452,43.9672801 L1452,3 Z" id="Shape" fill="#F95F92"></path>
                <path d="M7,1.10527153 L7,156.976261 C103.3,158.169761 214.544,114.325437 304.269,33.4160214 C316.469,22.4115528 327.865,11.640246 338.457,1.1021007 L7,1.10527153 Z M1453,1 L1136.26,1.1021007 C1178.16,21.2286222 1222.09,42.2309266 1263.95,50.2683446 C1361.84,69.0599469 1307.7,-53.2205457 1453,41.9677478 L1453,1.00063417 L1453,1 Z" id="Rectangle_670_copy" fill="#FB407E"></path>
                <path d="M6,116 C90.1796555,108.681151 183.646473,68.8804061 264.838111,4 L6,4.00568528 L6,116 Z M1237.26013,4 C1250.17453,9.12685843 1263.0189,13.2385787 1275.72323,15.8563339 C1301.69207,21.2118669 1315.70684,14.6561083 1325,4 L1237.26013,4 Z" id="Shape" fill="#FC50A0"></path>
                <path d="M8,112 C92.178719,104.681782 185.645607,64.8797744 266.837307,0 L8,0.00568527919 L8,112 Z M1239.26007,0 C1252.17447,5.12685843 1265.01885,9.23857868 1277.72319,11.8563339 C1303.69205,17.2118669 1317.70683,10.6561083 1327,0 L1239.26007,0 Z" id="Rectangle_671_copy" fill="#F93B93"></path>
                <path d="M169,5 C113.032468,38.4238313 54.8880874,61.2427559 0,71 L0,5.00314648 L55.3370248,5.00314648 L55.331039,5.00314648 L169,5 Z" id="Path" fill="#F85087"></path>
                <path d="M175,0 C119.029131,33.4244606 60.887465,56.2421266 6,66 L6,0.00314648309 L61.3353915,0.00314648309 L175,0 Z" id="Shape_685_copy" fill="#F93BB8"></path>
            </g>
        </g>
    </g>
</svg>